M48
; DRILL file {KiCad (5.1.0)-1} date 6/10/2019 3:16:36 PM
; FORMAT={-:-/ absolute / inch / decimal}
; #@! TF.CreationDate,2019-06-10T15:16:36+02:00
; #@! TF.GenerationSoftware,Kicad,Pcbnew,(5.1.0)-1
; #@! TF.FileFunction,Plated,1,2,PTH
FMAT,2
INCH
T1C0.0157
T2C0.0300
T3C0.0350
T4C0.0354
T5C0.0450
T6C0.0810
%
G90
G05
T1
X1.371Y-3.9835
X1.3735Y-3.1135
X1.379Y-1.655
X1.3845Y-4.7365
X1.3985Y-3.676
X1.4085Y-2.956
X1.415Y-2.2975
X1.4215Y-1.054
X1.4265Y-4.7935
X1.4281Y-3.9235
X1.44Y-1.506
X1.454Y-2.2125
X1.454Y-3.215
X1.479Y-2.464
X1.487Y-1.955
X1.511Y-1.604
X1.5145Y-3.305
X1.523Y-2.2395
X1.523Y-2.683
X1.5845Y-2.225
X1.585Y-3.2095
X1.5905Y-0.988
X1.595Y-2.414
X1.603Y-2.4965
X1.6045Y-1.55
X1.611Y-3.246
X1.6319Y-1.6059
X1.6405Y-1.943
X1.6455Y-3.3
X1.6485Y-3.0165
X1.6525Y-4.529
X1.6535Y-2.925
X1.658Y-2.836
X1.667Y-2.6365
X1.688Y-3.9855
X1.6895Y-1.3235
X1.7015Y-1.955
T2
X1.4815Y-3.6745
X1.4815Y-3.7745
X1.4815Y-3.8745
X1.4815Y-3.9745
X1.4815Y-4.0745
X1.5815Y-3.6745
X1.5815Y-3.7745
X1.5815Y-3.8745
X1.5815Y-3.9745
X1.5815Y-4.0745
T3
X1.5337Y-4.6289
X1.4337Y-2.0069
X1.5337Y-2.0069
X1.6337Y-2.0069
X1.4315Y-3.4786
X1.5315Y-3.4786
X1.6315Y-3.4786
X1.4332Y-1.2711
X1.5332Y-1.2711
X1.6332Y-1.2711
X1.5337Y-4.6289
X1.433Y-2.7427
X1.533Y-2.7427
X1.633Y-2.7427
T4
X1.483Y-3.576
X1.583Y-3.576
T5
X1.5337Y-4.7239
X1.5337Y-5.0609
X1.5337Y-4.1969
X1.5337Y-4.5339
T6
X1.3607Y-1.7309
X1.7067Y-1.7309
X1.3585Y-3.2026
X1.7045Y-3.2026
X1.3602Y-0.9951
X1.7062Y-0.9951
X1.36Y-2.4667
X1.706Y-2.4667
T0
M30
