G04 #@! TF.GenerationSoftware,KiCad,Pcbnew,(5.1.0)-1*
G04 #@! TF.CreationDate,2019-06-10T15:16:32+02:00*
G04 #@! TF.ProjectId,ADSR,41445352-2e6b-4696-9361-645f70636258,rev?*
G04 #@! TF.SameCoordinates,Original*
G04 #@! TF.FileFunction,Paste,Top*
G04 #@! TF.FilePolarity,Positive*
%FSLAX46Y46*%
G04 Gerber Fmt 4.6, Leading zero omitted, Abs format (unit mm)*
G04 Created by KiCad (PCBNEW (5.1.0)-1) date 2019-06-10 15:16:32*
%MOMM*%
%LPD*%
G04 APERTURE LIST*
%ADD10C,0.100000*%
%ADD11C,0.950000*%
%ADD12R,0.800000X0.900000*%
%ADD13R,0.600000X1.550000*%
%ADD14C,1.600000*%
%ADD15R,1.200000X0.900000*%
G04 APERTURE END LIST*
D10*
G36*
X35490579Y-29320644D02*
G01*
X35513634Y-29324063D01*
X35536243Y-29329727D01*
X35558187Y-29337579D01*
X35579257Y-29347544D01*
X35599248Y-29359526D01*
X35617968Y-29373410D01*
X35635238Y-29389062D01*
X35650890Y-29406332D01*
X35664774Y-29425052D01*
X35676756Y-29445043D01*
X35686721Y-29466113D01*
X35694573Y-29488057D01*
X35700237Y-29510666D01*
X35703656Y-29533721D01*
X35704800Y-29557000D01*
X35704800Y-30132000D01*
X35703656Y-30155279D01*
X35700237Y-30178334D01*
X35694573Y-30200943D01*
X35686721Y-30222887D01*
X35676756Y-30243957D01*
X35664774Y-30263948D01*
X35650890Y-30282668D01*
X35635238Y-30299938D01*
X35617968Y-30315590D01*
X35599248Y-30329474D01*
X35579257Y-30341456D01*
X35558187Y-30351421D01*
X35536243Y-30359273D01*
X35513634Y-30364937D01*
X35490579Y-30368356D01*
X35467300Y-30369500D01*
X34992300Y-30369500D01*
X34969021Y-30368356D01*
X34945966Y-30364937D01*
X34923357Y-30359273D01*
X34901413Y-30351421D01*
X34880343Y-30341456D01*
X34860352Y-30329474D01*
X34841632Y-30315590D01*
X34824362Y-30299938D01*
X34808710Y-30282668D01*
X34794826Y-30263948D01*
X34782844Y-30243957D01*
X34772879Y-30222887D01*
X34765027Y-30200943D01*
X34759363Y-30178334D01*
X34755944Y-30155279D01*
X34754800Y-30132000D01*
X34754800Y-29557000D01*
X34755944Y-29533721D01*
X34759363Y-29510666D01*
X34765027Y-29488057D01*
X34772879Y-29466113D01*
X34782844Y-29445043D01*
X34794826Y-29425052D01*
X34808710Y-29406332D01*
X34824362Y-29389062D01*
X34841632Y-29373410D01*
X34860352Y-29359526D01*
X34880343Y-29347544D01*
X34901413Y-29337579D01*
X34923357Y-29329727D01*
X34945966Y-29324063D01*
X34969021Y-29320644D01*
X34992300Y-29319500D01*
X35467300Y-29319500D01*
X35490579Y-29320644D01*
X35490579Y-29320644D01*
G37*
D11*
X35229800Y-29844500D03*
D10*
G36*
X35490579Y-27570644D02*
G01*
X35513634Y-27574063D01*
X35536243Y-27579727D01*
X35558187Y-27587579D01*
X35579257Y-27597544D01*
X35599248Y-27609526D01*
X35617968Y-27623410D01*
X35635238Y-27639062D01*
X35650890Y-27656332D01*
X35664774Y-27675052D01*
X35676756Y-27695043D01*
X35686721Y-27716113D01*
X35694573Y-27738057D01*
X35700237Y-27760666D01*
X35703656Y-27783721D01*
X35704800Y-27807000D01*
X35704800Y-28382000D01*
X35703656Y-28405279D01*
X35700237Y-28428334D01*
X35694573Y-28450943D01*
X35686721Y-28472887D01*
X35676756Y-28493957D01*
X35664774Y-28513948D01*
X35650890Y-28532668D01*
X35635238Y-28549938D01*
X35617968Y-28565590D01*
X35599248Y-28579474D01*
X35579257Y-28591456D01*
X35558187Y-28601421D01*
X35536243Y-28609273D01*
X35513634Y-28614937D01*
X35490579Y-28618356D01*
X35467300Y-28619500D01*
X34992300Y-28619500D01*
X34969021Y-28618356D01*
X34945966Y-28614937D01*
X34923357Y-28609273D01*
X34901413Y-28601421D01*
X34880343Y-28591456D01*
X34860352Y-28579474D01*
X34841632Y-28565590D01*
X34824362Y-28549938D01*
X34808710Y-28532668D01*
X34794826Y-28513948D01*
X34782844Y-28493957D01*
X34772879Y-28472887D01*
X34765027Y-28450943D01*
X34759363Y-28428334D01*
X34755944Y-28405279D01*
X34754800Y-28382000D01*
X34754800Y-27807000D01*
X34755944Y-27783721D01*
X34759363Y-27760666D01*
X34765027Y-27738057D01*
X34772879Y-27716113D01*
X34782844Y-27695043D01*
X34794826Y-27675052D01*
X34808710Y-27656332D01*
X34824362Y-27639062D01*
X34841632Y-27623410D01*
X34860352Y-27609526D01*
X34880343Y-27597544D01*
X34901413Y-27587579D01*
X34923357Y-27579727D01*
X34945966Y-27574063D01*
X34969021Y-27570644D01*
X34992300Y-27569500D01*
X35467300Y-27569500D01*
X35490579Y-27570644D01*
X35490579Y-27570644D01*
G37*
D11*
X35229800Y-28094500D03*
D10*
G36*
X38185312Y-54719844D02*
G01*
X38208367Y-54723263D01*
X38230976Y-54728927D01*
X38252920Y-54736779D01*
X38273990Y-54746744D01*
X38293981Y-54758726D01*
X38312701Y-54772610D01*
X38329971Y-54788262D01*
X38345623Y-54805532D01*
X38359507Y-54824252D01*
X38371489Y-54844243D01*
X38381454Y-54865313D01*
X38389306Y-54887257D01*
X38394970Y-54909866D01*
X38398389Y-54932921D01*
X38399533Y-54956200D01*
X38399533Y-55531200D01*
X38398389Y-55554479D01*
X38394970Y-55577534D01*
X38389306Y-55600143D01*
X38381454Y-55622087D01*
X38371489Y-55643157D01*
X38359507Y-55663148D01*
X38345623Y-55681868D01*
X38329971Y-55699138D01*
X38312701Y-55714790D01*
X38293981Y-55728674D01*
X38273990Y-55740656D01*
X38252920Y-55750621D01*
X38230976Y-55758473D01*
X38208367Y-55764137D01*
X38185312Y-55767556D01*
X38162033Y-55768700D01*
X37687033Y-55768700D01*
X37663754Y-55767556D01*
X37640699Y-55764137D01*
X37618090Y-55758473D01*
X37596146Y-55750621D01*
X37575076Y-55740656D01*
X37555085Y-55728674D01*
X37536365Y-55714790D01*
X37519095Y-55699138D01*
X37503443Y-55681868D01*
X37489559Y-55663148D01*
X37477577Y-55643157D01*
X37467612Y-55622087D01*
X37459760Y-55600143D01*
X37454096Y-55577534D01*
X37450677Y-55554479D01*
X37449533Y-55531200D01*
X37449533Y-54956200D01*
X37450677Y-54932921D01*
X37454096Y-54909866D01*
X37459760Y-54887257D01*
X37467612Y-54865313D01*
X37477577Y-54844243D01*
X37489559Y-54824252D01*
X37503443Y-54805532D01*
X37519095Y-54788262D01*
X37536365Y-54772610D01*
X37555085Y-54758726D01*
X37575076Y-54746744D01*
X37596146Y-54736779D01*
X37618090Y-54728927D01*
X37640699Y-54723263D01*
X37663754Y-54719844D01*
X37687033Y-54718700D01*
X38162033Y-54718700D01*
X38185312Y-54719844D01*
X38185312Y-54719844D01*
G37*
D11*
X37924533Y-55243700D03*
D10*
G36*
X38185312Y-52969844D02*
G01*
X38208367Y-52973263D01*
X38230976Y-52978927D01*
X38252920Y-52986779D01*
X38273990Y-52996744D01*
X38293981Y-53008726D01*
X38312701Y-53022610D01*
X38329971Y-53038262D01*
X38345623Y-53055532D01*
X38359507Y-53074252D01*
X38371489Y-53094243D01*
X38381454Y-53115313D01*
X38389306Y-53137257D01*
X38394970Y-53159866D01*
X38398389Y-53182921D01*
X38399533Y-53206200D01*
X38399533Y-53781200D01*
X38398389Y-53804479D01*
X38394970Y-53827534D01*
X38389306Y-53850143D01*
X38381454Y-53872087D01*
X38371489Y-53893157D01*
X38359507Y-53913148D01*
X38345623Y-53931868D01*
X38329971Y-53949138D01*
X38312701Y-53964790D01*
X38293981Y-53978674D01*
X38273990Y-53990656D01*
X38252920Y-54000621D01*
X38230976Y-54008473D01*
X38208367Y-54014137D01*
X38185312Y-54017556D01*
X38162033Y-54018700D01*
X37687033Y-54018700D01*
X37663754Y-54017556D01*
X37640699Y-54014137D01*
X37618090Y-54008473D01*
X37596146Y-54000621D01*
X37575076Y-53990656D01*
X37555085Y-53978674D01*
X37536365Y-53964790D01*
X37519095Y-53949138D01*
X37503443Y-53931868D01*
X37489559Y-53913148D01*
X37477577Y-53893157D01*
X37467612Y-53872087D01*
X37459760Y-53850143D01*
X37454096Y-53827534D01*
X37450677Y-53804479D01*
X37449533Y-53781200D01*
X37449533Y-53206200D01*
X37450677Y-53182921D01*
X37454096Y-53159866D01*
X37459760Y-53137257D01*
X37467612Y-53115313D01*
X37477577Y-53094243D01*
X37489559Y-53074252D01*
X37503443Y-53055532D01*
X37519095Y-53038262D01*
X37536365Y-53022610D01*
X37555085Y-53008726D01*
X37575076Y-52996744D01*
X37596146Y-52986779D01*
X37618090Y-52978927D01*
X37640699Y-52973263D01*
X37663754Y-52969844D01*
X37687033Y-52968700D01*
X38162033Y-52968700D01*
X38185312Y-52969844D01*
X38185312Y-52969844D01*
G37*
D11*
X37924533Y-53493700D03*
D10*
G36*
X41103979Y-66607044D02*
G01*
X41127034Y-66610463D01*
X41149643Y-66616127D01*
X41171587Y-66623979D01*
X41192657Y-66633944D01*
X41212648Y-66645926D01*
X41231368Y-66659810D01*
X41248638Y-66675462D01*
X41264290Y-66692732D01*
X41278174Y-66711452D01*
X41290156Y-66731443D01*
X41300121Y-66752513D01*
X41307973Y-66774457D01*
X41313637Y-66797066D01*
X41317056Y-66820121D01*
X41318200Y-66843400D01*
X41318200Y-67418400D01*
X41317056Y-67441679D01*
X41313637Y-67464734D01*
X41307973Y-67487343D01*
X41300121Y-67509287D01*
X41290156Y-67530357D01*
X41278174Y-67550348D01*
X41264290Y-67569068D01*
X41248638Y-67586338D01*
X41231368Y-67601990D01*
X41212648Y-67615874D01*
X41192657Y-67627856D01*
X41171587Y-67637821D01*
X41149643Y-67645673D01*
X41127034Y-67651337D01*
X41103979Y-67654756D01*
X41080700Y-67655900D01*
X40605700Y-67655900D01*
X40582421Y-67654756D01*
X40559366Y-67651337D01*
X40536757Y-67645673D01*
X40514813Y-67637821D01*
X40493743Y-67627856D01*
X40473752Y-67615874D01*
X40455032Y-67601990D01*
X40437762Y-67586338D01*
X40422110Y-67569068D01*
X40408226Y-67550348D01*
X40396244Y-67530357D01*
X40386279Y-67509287D01*
X40378427Y-67487343D01*
X40372763Y-67464734D01*
X40369344Y-67441679D01*
X40368200Y-67418400D01*
X40368200Y-66843400D01*
X40369344Y-66820121D01*
X40372763Y-66797066D01*
X40378427Y-66774457D01*
X40386279Y-66752513D01*
X40396244Y-66731443D01*
X40408226Y-66711452D01*
X40422110Y-66692732D01*
X40437762Y-66675462D01*
X40455032Y-66659810D01*
X40473752Y-66645926D01*
X40493743Y-66633944D01*
X40514813Y-66623979D01*
X40536757Y-66616127D01*
X40559366Y-66610463D01*
X40582421Y-66607044D01*
X40605700Y-66605900D01*
X41080700Y-66605900D01*
X41103979Y-66607044D01*
X41103979Y-66607044D01*
G37*
D11*
X40843200Y-67130900D03*
D10*
G36*
X41103979Y-64857044D02*
G01*
X41127034Y-64860463D01*
X41149643Y-64866127D01*
X41171587Y-64873979D01*
X41192657Y-64883944D01*
X41212648Y-64895926D01*
X41231368Y-64909810D01*
X41248638Y-64925462D01*
X41264290Y-64942732D01*
X41278174Y-64961452D01*
X41290156Y-64981443D01*
X41300121Y-65002513D01*
X41307973Y-65024457D01*
X41313637Y-65047066D01*
X41317056Y-65070121D01*
X41318200Y-65093400D01*
X41318200Y-65668400D01*
X41317056Y-65691679D01*
X41313637Y-65714734D01*
X41307973Y-65737343D01*
X41300121Y-65759287D01*
X41290156Y-65780357D01*
X41278174Y-65800348D01*
X41264290Y-65819068D01*
X41248638Y-65836338D01*
X41231368Y-65851990D01*
X41212648Y-65865874D01*
X41192657Y-65877856D01*
X41171587Y-65887821D01*
X41149643Y-65895673D01*
X41127034Y-65901337D01*
X41103979Y-65904756D01*
X41080700Y-65905900D01*
X40605700Y-65905900D01*
X40582421Y-65904756D01*
X40559366Y-65901337D01*
X40536757Y-65895673D01*
X40514813Y-65887821D01*
X40493743Y-65877856D01*
X40473752Y-65865874D01*
X40455032Y-65851990D01*
X40437762Y-65836338D01*
X40422110Y-65819068D01*
X40408226Y-65800348D01*
X40396244Y-65780357D01*
X40386279Y-65759287D01*
X40378427Y-65737343D01*
X40372763Y-65714734D01*
X40369344Y-65691679D01*
X40368200Y-65668400D01*
X40368200Y-65093400D01*
X40369344Y-65070121D01*
X40372763Y-65047066D01*
X40378427Y-65024457D01*
X40386279Y-65002513D01*
X40396244Y-64981443D01*
X40408226Y-64961452D01*
X40422110Y-64942732D01*
X40437762Y-64925462D01*
X40455032Y-64909810D01*
X40473752Y-64895926D01*
X40493743Y-64883944D01*
X40514813Y-64873979D01*
X40536757Y-64866127D01*
X40559366Y-64860463D01*
X40582421Y-64857044D01*
X40605700Y-64855900D01*
X41080700Y-64855900D01*
X41103979Y-64857044D01*
X41103979Y-64857044D01*
G37*
D11*
X40843200Y-65380900D03*
D10*
G36*
X41180179Y-72042544D02*
G01*
X41203234Y-72045963D01*
X41225843Y-72051627D01*
X41247787Y-72059479D01*
X41268857Y-72069444D01*
X41288848Y-72081426D01*
X41307568Y-72095310D01*
X41324838Y-72110962D01*
X41340490Y-72128232D01*
X41354374Y-72146952D01*
X41366356Y-72166943D01*
X41376321Y-72188013D01*
X41384173Y-72209957D01*
X41389837Y-72232566D01*
X41393256Y-72255621D01*
X41394400Y-72278900D01*
X41394400Y-72853900D01*
X41393256Y-72877179D01*
X41389837Y-72900234D01*
X41384173Y-72922843D01*
X41376321Y-72944787D01*
X41366356Y-72965857D01*
X41354374Y-72985848D01*
X41340490Y-73004568D01*
X41324838Y-73021838D01*
X41307568Y-73037490D01*
X41288848Y-73051374D01*
X41268857Y-73063356D01*
X41247787Y-73073321D01*
X41225843Y-73081173D01*
X41203234Y-73086837D01*
X41180179Y-73090256D01*
X41156900Y-73091400D01*
X40681900Y-73091400D01*
X40658621Y-73090256D01*
X40635566Y-73086837D01*
X40612957Y-73081173D01*
X40591013Y-73073321D01*
X40569943Y-73063356D01*
X40549952Y-73051374D01*
X40531232Y-73037490D01*
X40513962Y-73021838D01*
X40498310Y-73004568D01*
X40484426Y-72985848D01*
X40472444Y-72965857D01*
X40462479Y-72944787D01*
X40454627Y-72922843D01*
X40448963Y-72900234D01*
X40445544Y-72877179D01*
X40444400Y-72853900D01*
X40444400Y-72278900D01*
X40445544Y-72255621D01*
X40448963Y-72232566D01*
X40454627Y-72209957D01*
X40462479Y-72188013D01*
X40472444Y-72166943D01*
X40484426Y-72146952D01*
X40498310Y-72128232D01*
X40513962Y-72110962D01*
X40531232Y-72095310D01*
X40549952Y-72081426D01*
X40569943Y-72069444D01*
X40591013Y-72059479D01*
X40612957Y-72051627D01*
X40635566Y-72045963D01*
X40658621Y-72042544D01*
X40681900Y-72041400D01*
X41156900Y-72041400D01*
X41180179Y-72042544D01*
X41180179Y-72042544D01*
G37*
D11*
X40919400Y-72566400D03*
D10*
G36*
X41180179Y-73792544D02*
G01*
X41203234Y-73795963D01*
X41225843Y-73801627D01*
X41247787Y-73809479D01*
X41268857Y-73819444D01*
X41288848Y-73831426D01*
X41307568Y-73845310D01*
X41324838Y-73860962D01*
X41340490Y-73878232D01*
X41354374Y-73896952D01*
X41366356Y-73916943D01*
X41376321Y-73938013D01*
X41384173Y-73959957D01*
X41389837Y-73982566D01*
X41393256Y-74005621D01*
X41394400Y-74028900D01*
X41394400Y-74603900D01*
X41393256Y-74627179D01*
X41389837Y-74650234D01*
X41384173Y-74672843D01*
X41376321Y-74694787D01*
X41366356Y-74715857D01*
X41354374Y-74735848D01*
X41340490Y-74754568D01*
X41324838Y-74771838D01*
X41307568Y-74787490D01*
X41288848Y-74801374D01*
X41268857Y-74813356D01*
X41247787Y-74823321D01*
X41225843Y-74831173D01*
X41203234Y-74836837D01*
X41180179Y-74840256D01*
X41156900Y-74841400D01*
X40681900Y-74841400D01*
X40658621Y-74840256D01*
X40635566Y-74836837D01*
X40612957Y-74831173D01*
X40591013Y-74823321D01*
X40569943Y-74813356D01*
X40549952Y-74801374D01*
X40531232Y-74787490D01*
X40513962Y-74771838D01*
X40498310Y-74754568D01*
X40484426Y-74735848D01*
X40472444Y-74715857D01*
X40462479Y-74694787D01*
X40454627Y-74672843D01*
X40448963Y-74650234D01*
X40445544Y-74627179D01*
X40444400Y-74603900D01*
X40444400Y-74028900D01*
X40445544Y-74005621D01*
X40448963Y-73982566D01*
X40454627Y-73959957D01*
X40462479Y-73938013D01*
X40472444Y-73916943D01*
X40484426Y-73896952D01*
X40498310Y-73878232D01*
X40513962Y-73860962D01*
X40531232Y-73845310D01*
X40549952Y-73831426D01*
X40569943Y-73819444D01*
X40591013Y-73809479D01*
X40612957Y-73801627D01*
X40635566Y-73795963D01*
X40658621Y-73792544D01*
X40681900Y-73791400D01*
X41156900Y-73791400D01*
X41180179Y-73792544D01*
X41180179Y-73792544D01*
G37*
D11*
X40919400Y-74316400D03*
D10*
G36*
X42958179Y-86292044D02*
G01*
X42981234Y-86295463D01*
X43003843Y-86301127D01*
X43025787Y-86308979D01*
X43046857Y-86318944D01*
X43066848Y-86330926D01*
X43085568Y-86344810D01*
X43102838Y-86360462D01*
X43118490Y-86377732D01*
X43132374Y-86396452D01*
X43144356Y-86416443D01*
X43154321Y-86437513D01*
X43162173Y-86459457D01*
X43167837Y-86482066D01*
X43171256Y-86505121D01*
X43172400Y-86528400D01*
X43172400Y-87103400D01*
X43171256Y-87126679D01*
X43167837Y-87149734D01*
X43162173Y-87172343D01*
X43154321Y-87194287D01*
X43144356Y-87215357D01*
X43132374Y-87235348D01*
X43118490Y-87254068D01*
X43102838Y-87271338D01*
X43085568Y-87286990D01*
X43066848Y-87300874D01*
X43046857Y-87312856D01*
X43025787Y-87322821D01*
X43003843Y-87330673D01*
X42981234Y-87336337D01*
X42958179Y-87339756D01*
X42934900Y-87340900D01*
X42459900Y-87340900D01*
X42436621Y-87339756D01*
X42413566Y-87336337D01*
X42390957Y-87330673D01*
X42369013Y-87322821D01*
X42347943Y-87312856D01*
X42327952Y-87300874D01*
X42309232Y-87286990D01*
X42291962Y-87271338D01*
X42276310Y-87254068D01*
X42262426Y-87235348D01*
X42250444Y-87215357D01*
X42240479Y-87194287D01*
X42232627Y-87172343D01*
X42226963Y-87149734D01*
X42223544Y-87126679D01*
X42222400Y-87103400D01*
X42222400Y-86528400D01*
X42223544Y-86505121D01*
X42226963Y-86482066D01*
X42232627Y-86459457D01*
X42240479Y-86437513D01*
X42250444Y-86416443D01*
X42262426Y-86396452D01*
X42276310Y-86377732D01*
X42291962Y-86360462D01*
X42309232Y-86344810D01*
X42327952Y-86330926D01*
X42347943Y-86318944D01*
X42369013Y-86308979D01*
X42390957Y-86301127D01*
X42413566Y-86295463D01*
X42436621Y-86292044D01*
X42459900Y-86290900D01*
X42934900Y-86290900D01*
X42958179Y-86292044D01*
X42958179Y-86292044D01*
G37*
D11*
X42697400Y-86815900D03*
D10*
G36*
X42958179Y-84542044D02*
G01*
X42981234Y-84545463D01*
X43003843Y-84551127D01*
X43025787Y-84558979D01*
X43046857Y-84568944D01*
X43066848Y-84580926D01*
X43085568Y-84594810D01*
X43102838Y-84610462D01*
X43118490Y-84627732D01*
X43132374Y-84646452D01*
X43144356Y-84666443D01*
X43154321Y-84687513D01*
X43162173Y-84709457D01*
X43167837Y-84732066D01*
X43171256Y-84755121D01*
X43172400Y-84778400D01*
X43172400Y-85353400D01*
X43171256Y-85376679D01*
X43167837Y-85399734D01*
X43162173Y-85422343D01*
X43154321Y-85444287D01*
X43144356Y-85465357D01*
X43132374Y-85485348D01*
X43118490Y-85504068D01*
X43102838Y-85521338D01*
X43085568Y-85536990D01*
X43066848Y-85550874D01*
X43046857Y-85562856D01*
X43025787Y-85572821D01*
X43003843Y-85580673D01*
X42981234Y-85586337D01*
X42958179Y-85589756D01*
X42934900Y-85590900D01*
X42459900Y-85590900D01*
X42436621Y-85589756D01*
X42413566Y-85586337D01*
X42390957Y-85580673D01*
X42369013Y-85572821D01*
X42347943Y-85562856D01*
X42327952Y-85550874D01*
X42309232Y-85536990D01*
X42291962Y-85521338D01*
X42276310Y-85504068D01*
X42262426Y-85485348D01*
X42250444Y-85465357D01*
X42240479Y-85444287D01*
X42232627Y-85422343D01*
X42226963Y-85399734D01*
X42223544Y-85376679D01*
X42222400Y-85353400D01*
X42222400Y-84778400D01*
X42223544Y-84755121D01*
X42226963Y-84732066D01*
X42232627Y-84709457D01*
X42240479Y-84687513D01*
X42250444Y-84666443D01*
X42262426Y-84646452D01*
X42276310Y-84627732D01*
X42291962Y-84610462D01*
X42309232Y-84594810D01*
X42327952Y-84580926D01*
X42347943Y-84568944D01*
X42369013Y-84558979D01*
X42390957Y-84551127D01*
X42413566Y-84545463D01*
X42436621Y-84542044D01*
X42459900Y-84540900D01*
X42934900Y-84540900D01*
X42958179Y-84542044D01*
X42958179Y-84542044D01*
G37*
D11*
X42697400Y-85065900D03*
D10*
G36*
X39253129Y-59507744D02*
G01*
X39276184Y-59511163D01*
X39298793Y-59516827D01*
X39320737Y-59524679D01*
X39341807Y-59534644D01*
X39361798Y-59546626D01*
X39380518Y-59560510D01*
X39397788Y-59576162D01*
X39413440Y-59593432D01*
X39427324Y-59612152D01*
X39439306Y-59632143D01*
X39449271Y-59653213D01*
X39457123Y-59675157D01*
X39462787Y-59697766D01*
X39466206Y-59720821D01*
X39467350Y-59744100D01*
X39467350Y-60319100D01*
X39466206Y-60342379D01*
X39462787Y-60365434D01*
X39457123Y-60388043D01*
X39449271Y-60409987D01*
X39439306Y-60431057D01*
X39427324Y-60451048D01*
X39413440Y-60469768D01*
X39397788Y-60487038D01*
X39380518Y-60502690D01*
X39361798Y-60516574D01*
X39341807Y-60528556D01*
X39320737Y-60538521D01*
X39298793Y-60546373D01*
X39276184Y-60552037D01*
X39253129Y-60555456D01*
X39229850Y-60556600D01*
X38754850Y-60556600D01*
X38731571Y-60555456D01*
X38708516Y-60552037D01*
X38685907Y-60546373D01*
X38663963Y-60538521D01*
X38642893Y-60528556D01*
X38622902Y-60516574D01*
X38604182Y-60502690D01*
X38586912Y-60487038D01*
X38571260Y-60469768D01*
X38557376Y-60451048D01*
X38545394Y-60431057D01*
X38535429Y-60409987D01*
X38527577Y-60388043D01*
X38521913Y-60365434D01*
X38518494Y-60342379D01*
X38517350Y-60319100D01*
X38517350Y-59744100D01*
X38518494Y-59720821D01*
X38521913Y-59697766D01*
X38527577Y-59675157D01*
X38535429Y-59653213D01*
X38545394Y-59632143D01*
X38557376Y-59612152D01*
X38571260Y-59593432D01*
X38586912Y-59576162D01*
X38604182Y-59560510D01*
X38622902Y-59546626D01*
X38642893Y-59534644D01*
X38663963Y-59524679D01*
X38685907Y-59516827D01*
X38708516Y-59511163D01*
X38731571Y-59507744D01*
X38754850Y-59506600D01*
X39229850Y-59506600D01*
X39253129Y-59507744D01*
X39253129Y-59507744D01*
G37*
D11*
X38992350Y-60031600D03*
D10*
G36*
X39253129Y-57757744D02*
G01*
X39276184Y-57761163D01*
X39298793Y-57766827D01*
X39320737Y-57774679D01*
X39341807Y-57784644D01*
X39361798Y-57796626D01*
X39380518Y-57810510D01*
X39397788Y-57826162D01*
X39413440Y-57843432D01*
X39427324Y-57862152D01*
X39439306Y-57882143D01*
X39449271Y-57903213D01*
X39457123Y-57925157D01*
X39462787Y-57947766D01*
X39466206Y-57970821D01*
X39467350Y-57994100D01*
X39467350Y-58569100D01*
X39466206Y-58592379D01*
X39462787Y-58615434D01*
X39457123Y-58638043D01*
X39449271Y-58659987D01*
X39439306Y-58681057D01*
X39427324Y-58701048D01*
X39413440Y-58719768D01*
X39397788Y-58737038D01*
X39380518Y-58752690D01*
X39361798Y-58766574D01*
X39341807Y-58778556D01*
X39320737Y-58788521D01*
X39298793Y-58796373D01*
X39276184Y-58802037D01*
X39253129Y-58805456D01*
X39229850Y-58806600D01*
X38754850Y-58806600D01*
X38731571Y-58805456D01*
X38708516Y-58802037D01*
X38685907Y-58796373D01*
X38663963Y-58788521D01*
X38642893Y-58778556D01*
X38622902Y-58766574D01*
X38604182Y-58752690D01*
X38586912Y-58737038D01*
X38571260Y-58719768D01*
X38557376Y-58701048D01*
X38545394Y-58681057D01*
X38535429Y-58659987D01*
X38527577Y-58638043D01*
X38521913Y-58615434D01*
X38518494Y-58592379D01*
X38517350Y-58569100D01*
X38517350Y-57994100D01*
X38518494Y-57970821D01*
X38521913Y-57947766D01*
X38527577Y-57925157D01*
X38535429Y-57903213D01*
X38545394Y-57882143D01*
X38557376Y-57862152D01*
X38571260Y-57843432D01*
X38586912Y-57826162D01*
X38604182Y-57810510D01*
X38622902Y-57796626D01*
X38642893Y-57784644D01*
X38663963Y-57774679D01*
X38685907Y-57766827D01*
X38708516Y-57761163D01*
X38731571Y-57757744D01*
X38754850Y-57756600D01*
X39229850Y-57756600D01*
X39253129Y-57757744D01*
X39253129Y-57757744D01*
G37*
D11*
X38992350Y-58281600D03*
D10*
G36*
X38733879Y-27570644D02*
G01*
X38756934Y-27574063D01*
X38779543Y-27579727D01*
X38801487Y-27587579D01*
X38822557Y-27597544D01*
X38842548Y-27609526D01*
X38861268Y-27623410D01*
X38878538Y-27639062D01*
X38894190Y-27656332D01*
X38908074Y-27675052D01*
X38920056Y-27695043D01*
X38930021Y-27716113D01*
X38937873Y-27738057D01*
X38943537Y-27760666D01*
X38946956Y-27783721D01*
X38948100Y-27807000D01*
X38948100Y-28382000D01*
X38946956Y-28405279D01*
X38943537Y-28428334D01*
X38937873Y-28450943D01*
X38930021Y-28472887D01*
X38920056Y-28493957D01*
X38908074Y-28513948D01*
X38894190Y-28532668D01*
X38878538Y-28549938D01*
X38861268Y-28565590D01*
X38842548Y-28579474D01*
X38822557Y-28591456D01*
X38801487Y-28601421D01*
X38779543Y-28609273D01*
X38756934Y-28614937D01*
X38733879Y-28618356D01*
X38710600Y-28619500D01*
X38235600Y-28619500D01*
X38212321Y-28618356D01*
X38189266Y-28614937D01*
X38166657Y-28609273D01*
X38144713Y-28601421D01*
X38123643Y-28591456D01*
X38103652Y-28579474D01*
X38084932Y-28565590D01*
X38067662Y-28549938D01*
X38052010Y-28532668D01*
X38038126Y-28513948D01*
X38026144Y-28493957D01*
X38016179Y-28472887D01*
X38008327Y-28450943D01*
X38002663Y-28428334D01*
X37999244Y-28405279D01*
X37998100Y-28382000D01*
X37998100Y-27807000D01*
X37999244Y-27783721D01*
X38002663Y-27760666D01*
X38008327Y-27738057D01*
X38016179Y-27716113D01*
X38026144Y-27695043D01*
X38038126Y-27675052D01*
X38052010Y-27656332D01*
X38067662Y-27639062D01*
X38084932Y-27623410D01*
X38103652Y-27609526D01*
X38123643Y-27597544D01*
X38144713Y-27587579D01*
X38166657Y-27579727D01*
X38189266Y-27574063D01*
X38212321Y-27570644D01*
X38235600Y-27569500D01*
X38710600Y-27569500D01*
X38733879Y-27570644D01*
X38733879Y-27570644D01*
G37*
D11*
X38473100Y-28094500D03*
D10*
G36*
X38733879Y-29320644D02*
G01*
X38756934Y-29324063D01*
X38779543Y-29329727D01*
X38801487Y-29337579D01*
X38822557Y-29347544D01*
X38842548Y-29359526D01*
X38861268Y-29373410D01*
X38878538Y-29389062D01*
X38894190Y-29406332D01*
X38908074Y-29425052D01*
X38920056Y-29445043D01*
X38930021Y-29466113D01*
X38937873Y-29488057D01*
X38943537Y-29510666D01*
X38946956Y-29533721D01*
X38948100Y-29557000D01*
X38948100Y-30132000D01*
X38946956Y-30155279D01*
X38943537Y-30178334D01*
X38937873Y-30200943D01*
X38930021Y-30222887D01*
X38920056Y-30243957D01*
X38908074Y-30263948D01*
X38894190Y-30282668D01*
X38878538Y-30299938D01*
X38861268Y-30315590D01*
X38842548Y-30329474D01*
X38822557Y-30341456D01*
X38801487Y-30351421D01*
X38779543Y-30359273D01*
X38756934Y-30364937D01*
X38733879Y-30368356D01*
X38710600Y-30369500D01*
X38235600Y-30369500D01*
X38212321Y-30368356D01*
X38189266Y-30364937D01*
X38166657Y-30359273D01*
X38144713Y-30351421D01*
X38123643Y-30341456D01*
X38103652Y-30329474D01*
X38084932Y-30315590D01*
X38067662Y-30299938D01*
X38052010Y-30282668D01*
X38038126Y-30263948D01*
X38026144Y-30243957D01*
X38016179Y-30222887D01*
X38008327Y-30200943D01*
X38002663Y-30178334D01*
X37999244Y-30155279D01*
X37998100Y-30132000D01*
X37998100Y-29557000D01*
X37999244Y-29533721D01*
X38002663Y-29510666D01*
X38008327Y-29488057D01*
X38016179Y-29466113D01*
X38026144Y-29445043D01*
X38038126Y-29425052D01*
X38052010Y-29406332D01*
X38067662Y-29389062D01*
X38084932Y-29373410D01*
X38103652Y-29359526D01*
X38123643Y-29347544D01*
X38144713Y-29337579D01*
X38166657Y-29329727D01*
X38189266Y-29324063D01*
X38212321Y-29320644D01*
X38235600Y-29319500D01*
X38710600Y-29319500D01*
X38733879Y-29320644D01*
X38733879Y-29320644D01*
G37*
D11*
X38473100Y-29844500D03*
D10*
G36*
X41140179Y-77418244D02*
G01*
X41163234Y-77421663D01*
X41185843Y-77427327D01*
X41207787Y-77435179D01*
X41228857Y-77445144D01*
X41248848Y-77457126D01*
X41267568Y-77471010D01*
X41284838Y-77486662D01*
X41300490Y-77503932D01*
X41314374Y-77522652D01*
X41326356Y-77542643D01*
X41336321Y-77563713D01*
X41344173Y-77585657D01*
X41349837Y-77608266D01*
X41353256Y-77631321D01*
X41354400Y-77654600D01*
X41354400Y-78229600D01*
X41353256Y-78252879D01*
X41349837Y-78275934D01*
X41344173Y-78298543D01*
X41336321Y-78320487D01*
X41326356Y-78341557D01*
X41314374Y-78361548D01*
X41300490Y-78380268D01*
X41284838Y-78397538D01*
X41267568Y-78413190D01*
X41248848Y-78427074D01*
X41228857Y-78439056D01*
X41207787Y-78449021D01*
X41185843Y-78456873D01*
X41163234Y-78462537D01*
X41140179Y-78465956D01*
X41116900Y-78467100D01*
X40641900Y-78467100D01*
X40618621Y-78465956D01*
X40595566Y-78462537D01*
X40572957Y-78456873D01*
X40551013Y-78449021D01*
X40529943Y-78439056D01*
X40509952Y-78427074D01*
X40491232Y-78413190D01*
X40473962Y-78397538D01*
X40458310Y-78380268D01*
X40444426Y-78361548D01*
X40432444Y-78341557D01*
X40422479Y-78320487D01*
X40414627Y-78298543D01*
X40408963Y-78275934D01*
X40405544Y-78252879D01*
X40404400Y-78229600D01*
X40404400Y-77654600D01*
X40405544Y-77631321D01*
X40408963Y-77608266D01*
X40414627Y-77585657D01*
X40422479Y-77563713D01*
X40432444Y-77542643D01*
X40444426Y-77522652D01*
X40458310Y-77503932D01*
X40473962Y-77486662D01*
X40491232Y-77471010D01*
X40509952Y-77457126D01*
X40529943Y-77445144D01*
X40551013Y-77435179D01*
X40572957Y-77427327D01*
X40595566Y-77421663D01*
X40618621Y-77418244D01*
X40641900Y-77417100D01*
X41116900Y-77417100D01*
X41140179Y-77418244D01*
X41140179Y-77418244D01*
G37*
D11*
X40879400Y-77942100D03*
D10*
G36*
X41140179Y-75668244D02*
G01*
X41163234Y-75671663D01*
X41185843Y-75677327D01*
X41207787Y-75685179D01*
X41228857Y-75695144D01*
X41248848Y-75707126D01*
X41267568Y-75721010D01*
X41284838Y-75736662D01*
X41300490Y-75753932D01*
X41314374Y-75772652D01*
X41326356Y-75792643D01*
X41336321Y-75813713D01*
X41344173Y-75835657D01*
X41349837Y-75858266D01*
X41353256Y-75881321D01*
X41354400Y-75904600D01*
X41354400Y-76479600D01*
X41353256Y-76502879D01*
X41349837Y-76525934D01*
X41344173Y-76548543D01*
X41336321Y-76570487D01*
X41326356Y-76591557D01*
X41314374Y-76611548D01*
X41300490Y-76630268D01*
X41284838Y-76647538D01*
X41267568Y-76663190D01*
X41248848Y-76677074D01*
X41228857Y-76689056D01*
X41207787Y-76699021D01*
X41185843Y-76706873D01*
X41163234Y-76712537D01*
X41140179Y-76715956D01*
X41116900Y-76717100D01*
X40641900Y-76717100D01*
X40618621Y-76715956D01*
X40595566Y-76712537D01*
X40572957Y-76706873D01*
X40551013Y-76699021D01*
X40529943Y-76689056D01*
X40509952Y-76677074D01*
X40491232Y-76663190D01*
X40473962Y-76647538D01*
X40458310Y-76630268D01*
X40444426Y-76611548D01*
X40432444Y-76591557D01*
X40422479Y-76570487D01*
X40414627Y-76548543D01*
X40408963Y-76525934D01*
X40405544Y-76502879D01*
X40404400Y-76479600D01*
X40404400Y-75904600D01*
X40405544Y-75881321D01*
X40408963Y-75858266D01*
X40414627Y-75835657D01*
X40422479Y-75813713D01*
X40432444Y-75792643D01*
X40444426Y-75772652D01*
X40458310Y-75753932D01*
X40473962Y-75736662D01*
X40491232Y-75721010D01*
X40509952Y-75707126D01*
X40529943Y-75695144D01*
X40551013Y-75685179D01*
X40572957Y-75677327D01*
X40595566Y-75671663D01*
X40618621Y-75668244D01*
X40641900Y-75667100D01*
X41116900Y-75667100D01*
X41140179Y-75668244D01*
X41140179Y-75668244D01*
G37*
D11*
X40879400Y-76192100D03*
D10*
G36*
X41713579Y-54719844D02*
G01*
X41736634Y-54723263D01*
X41759243Y-54728927D01*
X41781187Y-54736779D01*
X41802257Y-54746744D01*
X41822248Y-54758726D01*
X41840968Y-54772610D01*
X41858238Y-54788262D01*
X41873890Y-54805532D01*
X41887774Y-54824252D01*
X41899756Y-54844243D01*
X41909721Y-54865313D01*
X41917573Y-54887257D01*
X41923237Y-54909866D01*
X41926656Y-54932921D01*
X41927800Y-54956200D01*
X41927800Y-55531200D01*
X41926656Y-55554479D01*
X41923237Y-55577534D01*
X41917573Y-55600143D01*
X41909721Y-55622087D01*
X41899756Y-55643157D01*
X41887774Y-55663148D01*
X41873890Y-55681868D01*
X41858238Y-55699138D01*
X41840968Y-55714790D01*
X41822248Y-55728674D01*
X41802257Y-55740656D01*
X41781187Y-55750621D01*
X41759243Y-55758473D01*
X41736634Y-55764137D01*
X41713579Y-55767556D01*
X41690300Y-55768700D01*
X41215300Y-55768700D01*
X41192021Y-55767556D01*
X41168966Y-55764137D01*
X41146357Y-55758473D01*
X41124413Y-55750621D01*
X41103343Y-55740656D01*
X41083352Y-55728674D01*
X41064632Y-55714790D01*
X41047362Y-55699138D01*
X41031710Y-55681868D01*
X41017826Y-55663148D01*
X41005844Y-55643157D01*
X40995879Y-55622087D01*
X40988027Y-55600143D01*
X40982363Y-55577534D01*
X40978944Y-55554479D01*
X40977800Y-55531200D01*
X40977800Y-54956200D01*
X40978944Y-54932921D01*
X40982363Y-54909866D01*
X40988027Y-54887257D01*
X40995879Y-54865313D01*
X41005844Y-54844243D01*
X41017826Y-54824252D01*
X41031710Y-54805532D01*
X41047362Y-54788262D01*
X41064632Y-54772610D01*
X41083352Y-54758726D01*
X41103343Y-54746744D01*
X41124413Y-54736779D01*
X41146357Y-54728927D01*
X41168966Y-54723263D01*
X41192021Y-54719844D01*
X41215300Y-54718700D01*
X41690300Y-54718700D01*
X41713579Y-54719844D01*
X41713579Y-54719844D01*
G37*
D11*
X41452800Y-55243700D03*
D10*
G36*
X41713579Y-52969844D02*
G01*
X41736634Y-52973263D01*
X41759243Y-52978927D01*
X41781187Y-52986779D01*
X41802257Y-52996744D01*
X41822248Y-53008726D01*
X41840968Y-53022610D01*
X41858238Y-53038262D01*
X41873890Y-53055532D01*
X41887774Y-53074252D01*
X41899756Y-53094243D01*
X41909721Y-53115313D01*
X41917573Y-53137257D01*
X41923237Y-53159866D01*
X41926656Y-53182921D01*
X41927800Y-53206200D01*
X41927800Y-53781200D01*
X41926656Y-53804479D01*
X41923237Y-53827534D01*
X41917573Y-53850143D01*
X41909721Y-53872087D01*
X41899756Y-53893157D01*
X41887774Y-53913148D01*
X41873890Y-53931868D01*
X41858238Y-53949138D01*
X41840968Y-53964790D01*
X41822248Y-53978674D01*
X41802257Y-53990656D01*
X41781187Y-54000621D01*
X41759243Y-54008473D01*
X41736634Y-54014137D01*
X41713579Y-54017556D01*
X41690300Y-54018700D01*
X41215300Y-54018700D01*
X41192021Y-54017556D01*
X41168966Y-54014137D01*
X41146357Y-54008473D01*
X41124413Y-54000621D01*
X41103343Y-53990656D01*
X41083352Y-53978674D01*
X41064632Y-53964790D01*
X41047362Y-53949138D01*
X41031710Y-53931868D01*
X41017826Y-53913148D01*
X41005844Y-53893157D01*
X40995879Y-53872087D01*
X40988027Y-53850143D01*
X40982363Y-53827534D01*
X40978944Y-53804479D01*
X40977800Y-53781200D01*
X40977800Y-53206200D01*
X40978944Y-53182921D01*
X40982363Y-53159866D01*
X40988027Y-53137257D01*
X40995879Y-53115313D01*
X41005844Y-53094243D01*
X41017826Y-53074252D01*
X41031710Y-53055532D01*
X41047362Y-53038262D01*
X41064632Y-53022610D01*
X41083352Y-53008726D01*
X41103343Y-52996744D01*
X41124413Y-52986779D01*
X41146357Y-52978927D01*
X41168966Y-52973263D01*
X41192021Y-52969844D01*
X41215300Y-52968700D01*
X41690300Y-52968700D01*
X41713579Y-52969844D01*
X41713579Y-52969844D01*
G37*
D11*
X41452800Y-53493700D03*
D10*
G36*
X39929445Y-53014844D02*
G01*
X39952500Y-53018263D01*
X39975109Y-53023927D01*
X39997053Y-53031779D01*
X40018123Y-53041744D01*
X40038114Y-53053726D01*
X40056834Y-53067610D01*
X40074104Y-53083262D01*
X40089756Y-53100532D01*
X40103640Y-53119252D01*
X40115622Y-53139243D01*
X40125587Y-53160313D01*
X40133439Y-53182257D01*
X40139103Y-53204866D01*
X40142522Y-53227921D01*
X40143666Y-53251200D01*
X40143666Y-53826200D01*
X40142522Y-53849479D01*
X40139103Y-53872534D01*
X40133439Y-53895143D01*
X40125587Y-53917087D01*
X40115622Y-53938157D01*
X40103640Y-53958148D01*
X40089756Y-53976868D01*
X40074104Y-53994138D01*
X40056834Y-54009790D01*
X40038114Y-54023674D01*
X40018123Y-54035656D01*
X39997053Y-54045621D01*
X39975109Y-54053473D01*
X39952500Y-54059137D01*
X39929445Y-54062556D01*
X39906166Y-54063700D01*
X39431166Y-54063700D01*
X39407887Y-54062556D01*
X39384832Y-54059137D01*
X39362223Y-54053473D01*
X39340279Y-54045621D01*
X39319209Y-54035656D01*
X39299218Y-54023674D01*
X39280498Y-54009790D01*
X39263228Y-53994138D01*
X39247576Y-53976868D01*
X39233692Y-53958148D01*
X39221710Y-53938157D01*
X39211745Y-53917087D01*
X39203893Y-53895143D01*
X39198229Y-53872534D01*
X39194810Y-53849479D01*
X39193666Y-53826200D01*
X39193666Y-53251200D01*
X39194810Y-53227921D01*
X39198229Y-53204866D01*
X39203893Y-53182257D01*
X39211745Y-53160313D01*
X39221710Y-53139243D01*
X39233692Y-53119252D01*
X39247576Y-53100532D01*
X39263228Y-53083262D01*
X39280498Y-53067610D01*
X39299218Y-53053726D01*
X39319209Y-53041744D01*
X39340279Y-53031779D01*
X39362223Y-53023927D01*
X39384832Y-53018263D01*
X39407887Y-53014844D01*
X39431166Y-53013700D01*
X39906166Y-53013700D01*
X39929445Y-53014844D01*
X39929445Y-53014844D01*
G37*
D11*
X39668666Y-53538700D03*
D10*
G36*
X39929445Y-54764844D02*
G01*
X39952500Y-54768263D01*
X39975109Y-54773927D01*
X39997053Y-54781779D01*
X40018123Y-54791744D01*
X40038114Y-54803726D01*
X40056834Y-54817610D01*
X40074104Y-54833262D01*
X40089756Y-54850532D01*
X40103640Y-54869252D01*
X40115622Y-54889243D01*
X40125587Y-54910313D01*
X40133439Y-54932257D01*
X40139103Y-54954866D01*
X40142522Y-54977921D01*
X40143666Y-55001200D01*
X40143666Y-55576200D01*
X40142522Y-55599479D01*
X40139103Y-55622534D01*
X40133439Y-55645143D01*
X40125587Y-55667087D01*
X40115622Y-55688157D01*
X40103640Y-55708148D01*
X40089756Y-55726868D01*
X40074104Y-55744138D01*
X40056834Y-55759790D01*
X40038114Y-55773674D01*
X40018123Y-55785656D01*
X39997053Y-55795621D01*
X39975109Y-55803473D01*
X39952500Y-55809137D01*
X39929445Y-55812556D01*
X39906166Y-55813700D01*
X39431166Y-55813700D01*
X39407887Y-55812556D01*
X39384832Y-55809137D01*
X39362223Y-55803473D01*
X39340279Y-55795621D01*
X39319209Y-55785656D01*
X39299218Y-55773674D01*
X39280498Y-55759790D01*
X39263228Y-55744138D01*
X39247576Y-55726868D01*
X39233692Y-55708148D01*
X39221710Y-55688157D01*
X39211745Y-55667087D01*
X39203893Y-55645143D01*
X39198229Y-55622534D01*
X39194810Y-55599479D01*
X39193666Y-55576200D01*
X39193666Y-55001200D01*
X39194810Y-54977921D01*
X39198229Y-54954866D01*
X39203893Y-54932257D01*
X39211745Y-54910313D01*
X39221710Y-54889243D01*
X39233692Y-54869252D01*
X39247576Y-54850532D01*
X39263228Y-54833262D01*
X39280498Y-54817610D01*
X39299218Y-54803726D01*
X39319209Y-54791744D01*
X39340279Y-54781779D01*
X39362223Y-54773927D01*
X39384832Y-54768263D01*
X39407887Y-54764844D01*
X39431166Y-54763700D01*
X39906166Y-54763700D01*
X39929445Y-54764844D01*
X39929445Y-54764844D01*
G37*
D11*
X39668666Y-55288700D03*
D12*
X39126200Y-65305900D03*
X37226200Y-65305900D03*
X38176200Y-67305900D03*
X38115000Y-21680000D03*
X36215000Y-21680000D03*
X37165000Y-23680000D03*
X41249600Y-30019500D03*
X40299600Y-28019500D03*
X42199600Y-28019500D03*
D10*
G36*
X37573379Y-57757744D02*
G01*
X37596434Y-57761163D01*
X37619043Y-57766827D01*
X37640987Y-57774679D01*
X37662057Y-57784644D01*
X37682048Y-57796626D01*
X37700768Y-57810510D01*
X37718038Y-57826162D01*
X37733690Y-57843432D01*
X37747574Y-57862152D01*
X37759556Y-57882143D01*
X37769521Y-57903213D01*
X37777373Y-57925157D01*
X37783037Y-57947766D01*
X37786456Y-57970821D01*
X37787600Y-57994100D01*
X37787600Y-58569100D01*
X37786456Y-58592379D01*
X37783037Y-58615434D01*
X37777373Y-58638043D01*
X37769521Y-58659987D01*
X37759556Y-58681057D01*
X37747574Y-58701048D01*
X37733690Y-58719768D01*
X37718038Y-58737038D01*
X37700768Y-58752690D01*
X37682048Y-58766574D01*
X37662057Y-58778556D01*
X37640987Y-58788521D01*
X37619043Y-58796373D01*
X37596434Y-58802037D01*
X37573379Y-58805456D01*
X37550100Y-58806600D01*
X37075100Y-58806600D01*
X37051821Y-58805456D01*
X37028766Y-58802037D01*
X37006157Y-58796373D01*
X36984213Y-58788521D01*
X36963143Y-58778556D01*
X36943152Y-58766574D01*
X36924432Y-58752690D01*
X36907162Y-58737038D01*
X36891510Y-58719768D01*
X36877626Y-58701048D01*
X36865644Y-58681057D01*
X36855679Y-58659987D01*
X36847827Y-58638043D01*
X36842163Y-58615434D01*
X36838744Y-58592379D01*
X36837600Y-58569100D01*
X36837600Y-57994100D01*
X36838744Y-57970821D01*
X36842163Y-57947766D01*
X36847827Y-57925157D01*
X36855679Y-57903213D01*
X36865644Y-57882143D01*
X36877626Y-57862152D01*
X36891510Y-57843432D01*
X36907162Y-57826162D01*
X36924432Y-57810510D01*
X36943152Y-57796626D01*
X36963143Y-57784644D01*
X36984213Y-57774679D01*
X37006157Y-57766827D01*
X37028766Y-57761163D01*
X37051821Y-57757744D01*
X37075100Y-57756600D01*
X37550100Y-57756600D01*
X37573379Y-57757744D01*
X37573379Y-57757744D01*
G37*
D11*
X37312600Y-58281600D03*
D10*
G36*
X37573379Y-59507744D02*
G01*
X37596434Y-59511163D01*
X37619043Y-59516827D01*
X37640987Y-59524679D01*
X37662057Y-59534644D01*
X37682048Y-59546626D01*
X37700768Y-59560510D01*
X37718038Y-59576162D01*
X37733690Y-59593432D01*
X37747574Y-59612152D01*
X37759556Y-59632143D01*
X37769521Y-59653213D01*
X37777373Y-59675157D01*
X37783037Y-59697766D01*
X37786456Y-59720821D01*
X37787600Y-59744100D01*
X37787600Y-60319100D01*
X37786456Y-60342379D01*
X37783037Y-60365434D01*
X37777373Y-60388043D01*
X37769521Y-60409987D01*
X37759556Y-60431057D01*
X37747574Y-60451048D01*
X37733690Y-60469768D01*
X37718038Y-60487038D01*
X37700768Y-60502690D01*
X37682048Y-60516574D01*
X37662057Y-60528556D01*
X37640987Y-60538521D01*
X37619043Y-60546373D01*
X37596434Y-60552037D01*
X37573379Y-60555456D01*
X37550100Y-60556600D01*
X37075100Y-60556600D01*
X37051821Y-60555456D01*
X37028766Y-60552037D01*
X37006157Y-60546373D01*
X36984213Y-60538521D01*
X36963143Y-60528556D01*
X36943152Y-60516574D01*
X36924432Y-60502690D01*
X36907162Y-60487038D01*
X36891510Y-60469768D01*
X36877626Y-60451048D01*
X36865644Y-60431057D01*
X36855679Y-60409987D01*
X36847827Y-60388043D01*
X36842163Y-60365434D01*
X36838744Y-60342379D01*
X36837600Y-60319100D01*
X36837600Y-59744100D01*
X36838744Y-59720821D01*
X36842163Y-59697766D01*
X36847827Y-59675157D01*
X36855679Y-59653213D01*
X36865644Y-59632143D01*
X36877626Y-59612152D01*
X36891510Y-59593432D01*
X36907162Y-59576162D01*
X36924432Y-59560510D01*
X36943152Y-59546626D01*
X36963143Y-59534644D01*
X36984213Y-59524679D01*
X37006157Y-59516827D01*
X37028766Y-59511163D01*
X37051821Y-59507744D01*
X37075100Y-59506600D01*
X37550100Y-59506600D01*
X37573379Y-59507744D01*
X37573379Y-59507744D01*
G37*
D11*
X37312600Y-60031600D03*
D10*
G36*
X39205329Y-73792544D02*
G01*
X39228384Y-73795963D01*
X39250993Y-73801627D01*
X39272937Y-73809479D01*
X39294007Y-73819444D01*
X39313998Y-73831426D01*
X39332718Y-73845310D01*
X39349988Y-73860962D01*
X39365640Y-73878232D01*
X39379524Y-73896952D01*
X39391506Y-73916943D01*
X39401471Y-73938013D01*
X39409323Y-73959957D01*
X39414987Y-73982566D01*
X39418406Y-74005621D01*
X39419550Y-74028900D01*
X39419550Y-74603900D01*
X39418406Y-74627179D01*
X39414987Y-74650234D01*
X39409323Y-74672843D01*
X39401471Y-74694787D01*
X39391506Y-74715857D01*
X39379524Y-74735848D01*
X39365640Y-74754568D01*
X39349988Y-74771838D01*
X39332718Y-74787490D01*
X39313998Y-74801374D01*
X39294007Y-74813356D01*
X39272937Y-74823321D01*
X39250993Y-74831173D01*
X39228384Y-74836837D01*
X39205329Y-74840256D01*
X39182050Y-74841400D01*
X38707050Y-74841400D01*
X38683771Y-74840256D01*
X38660716Y-74836837D01*
X38638107Y-74831173D01*
X38616163Y-74823321D01*
X38595093Y-74813356D01*
X38575102Y-74801374D01*
X38556382Y-74787490D01*
X38539112Y-74771838D01*
X38523460Y-74754568D01*
X38509576Y-74735848D01*
X38497594Y-74715857D01*
X38487629Y-74694787D01*
X38479777Y-74672843D01*
X38474113Y-74650234D01*
X38470694Y-74627179D01*
X38469550Y-74603900D01*
X38469550Y-74028900D01*
X38470694Y-74005621D01*
X38474113Y-73982566D01*
X38479777Y-73959957D01*
X38487629Y-73938013D01*
X38497594Y-73916943D01*
X38509576Y-73896952D01*
X38523460Y-73878232D01*
X38539112Y-73860962D01*
X38556382Y-73845310D01*
X38575102Y-73831426D01*
X38595093Y-73819444D01*
X38616163Y-73809479D01*
X38638107Y-73801627D01*
X38660716Y-73795963D01*
X38683771Y-73792544D01*
X38707050Y-73791400D01*
X39182050Y-73791400D01*
X39205329Y-73792544D01*
X39205329Y-73792544D01*
G37*
D11*
X38944550Y-74316400D03*
D10*
G36*
X39205329Y-72042544D02*
G01*
X39228384Y-72045963D01*
X39250993Y-72051627D01*
X39272937Y-72059479D01*
X39294007Y-72069444D01*
X39313998Y-72081426D01*
X39332718Y-72095310D01*
X39349988Y-72110962D01*
X39365640Y-72128232D01*
X39379524Y-72146952D01*
X39391506Y-72166943D01*
X39401471Y-72188013D01*
X39409323Y-72209957D01*
X39414987Y-72232566D01*
X39418406Y-72255621D01*
X39419550Y-72278900D01*
X39419550Y-72853900D01*
X39418406Y-72877179D01*
X39414987Y-72900234D01*
X39409323Y-72922843D01*
X39401471Y-72944787D01*
X39391506Y-72965857D01*
X39379524Y-72985848D01*
X39365640Y-73004568D01*
X39349988Y-73021838D01*
X39332718Y-73037490D01*
X39313998Y-73051374D01*
X39294007Y-73063356D01*
X39272937Y-73073321D01*
X39250993Y-73081173D01*
X39228384Y-73086837D01*
X39205329Y-73090256D01*
X39182050Y-73091400D01*
X38707050Y-73091400D01*
X38683771Y-73090256D01*
X38660716Y-73086837D01*
X38638107Y-73081173D01*
X38616163Y-73073321D01*
X38595093Y-73063356D01*
X38575102Y-73051374D01*
X38556382Y-73037490D01*
X38539112Y-73021838D01*
X38523460Y-73004568D01*
X38509576Y-72985848D01*
X38497594Y-72965857D01*
X38487629Y-72944787D01*
X38479777Y-72922843D01*
X38474113Y-72900234D01*
X38470694Y-72877179D01*
X38469550Y-72853900D01*
X38469550Y-72278900D01*
X38470694Y-72255621D01*
X38474113Y-72232566D01*
X38479777Y-72209957D01*
X38487629Y-72188013D01*
X38497594Y-72166943D01*
X38509576Y-72146952D01*
X38523460Y-72128232D01*
X38539112Y-72110962D01*
X38556382Y-72095310D01*
X38575102Y-72081426D01*
X38595093Y-72069444D01*
X38616163Y-72059479D01*
X38638107Y-72051627D01*
X38660716Y-72045963D01*
X38683771Y-72042544D01*
X38707050Y-72041400D01*
X39182050Y-72041400D01*
X39205329Y-72042544D01*
X39205329Y-72042544D01*
G37*
D11*
X38944550Y-72566400D03*
D10*
G36*
X40854779Y-21231144D02*
G01*
X40877834Y-21234563D01*
X40900443Y-21240227D01*
X40922387Y-21248079D01*
X40943457Y-21258044D01*
X40963448Y-21270026D01*
X40982168Y-21283910D01*
X40999438Y-21299562D01*
X41015090Y-21316832D01*
X41028974Y-21335552D01*
X41040956Y-21355543D01*
X41050921Y-21376613D01*
X41058773Y-21398557D01*
X41064437Y-21421166D01*
X41067856Y-21444221D01*
X41069000Y-21467500D01*
X41069000Y-22042500D01*
X41067856Y-22065779D01*
X41064437Y-22088834D01*
X41058773Y-22111443D01*
X41050921Y-22133387D01*
X41040956Y-22154457D01*
X41028974Y-22174448D01*
X41015090Y-22193168D01*
X40999438Y-22210438D01*
X40982168Y-22226090D01*
X40963448Y-22239974D01*
X40943457Y-22251956D01*
X40922387Y-22261921D01*
X40900443Y-22269773D01*
X40877834Y-22275437D01*
X40854779Y-22278856D01*
X40831500Y-22280000D01*
X40356500Y-22280000D01*
X40333221Y-22278856D01*
X40310166Y-22275437D01*
X40287557Y-22269773D01*
X40265613Y-22261921D01*
X40244543Y-22251956D01*
X40224552Y-22239974D01*
X40205832Y-22226090D01*
X40188562Y-22210438D01*
X40172910Y-22193168D01*
X40159026Y-22174448D01*
X40147044Y-22154457D01*
X40137079Y-22133387D01*
X40129227Y-22111443D01*
X40123563Y-22088834D01*
X40120144Y-22065779D01*
X40119000Y-22042500D01*
X40119000Y-21467500D01*
X40120144Y-21444221D01*
X40123563Y-21421166D01*
X40129227Y-21398557D01*
X40137079Y-21376613D01*
X40147044Y-21355543D01*
X40159026Y-21335552D01*
X40172910Y-21316832D01*
X40188562Y-21299562D01*
X40205832Y-21283910D01*
X40224552Y-21270026D01*
X40244543Y-21258044D01*
X40265613Y-21248079D01*
X40287557Y-21240227D01*
X40310166Y-21234563D01*
X40333221Y-21231144D01*
X40356500Y-21230000D01*
X40831500Y-21230000D01*
X40854779Y-21231144D01*
X40854779Y-21231144D01*
G37*
D11*
X40594000Y-21755000D03*
D10*
G36*
X40854779Y-22981144D02*
G01*
X40877834Y-22984563D01*
X40900443Y-22990227D01*
X40922387Y-22998079D01*
X40943457Y-23008044D01*
X40963448Y-23020026D01*
X40982168Y-23033910D01*
X40999438Y-23049562D01*
X41015090Y-23066832D01*
X41028974Y-23085552D01*
X41040956Y-23105543D01*
X41050921Y-23126613D01*
X41058773Y-23148557D01*
X41064437Y-23171166D01*
X41067856Y-23194221D01*
X41069000Y-23217500D01*
X41069000Y-23792500D01*
X41067856Y-23815779D01*
X41064437Y-23838834D01*
X41058773Y-23861443D01*
X41050921Y-23883387D01*
X41040956Y-23904457D01*
X41028974Y-23924448D01*
X41015090Y-23943168D01*
X40999438Y-23960438D01*
X40982168Y-23976090D01*
X40963448Y-23989974D01*
X40943457Y-24001956D01*
X40922387Y-24011921D01*
X40900443Y-24019773D01*
X40877834Y-24025437D01*
X40854779Y-24028856D01*
X40831500Y-24030000D01*
X40356500Y-24030000D01*
X40333221Y-24028856D01*
X40310166Y-24025437D01*
X40287557Y-24019773D01*
X40265613Y-24011921D01*
X40244543Y-24001956D01*
X40224552Y-23989974D01*
X40205832Y-23976090D01*
X40188562Y-23960438D01*
X40172910Y-23943168D01*
X40159026Y-23924448D01*
X40147044Y-23904457D01*
X40137079Y-23883387D01*
X40129227Y-23861443D01*
X40123563Y-23838834D01*
X40120144Y-23815779D01*
X40119000Y-23792500D01*
X40119000Y-23217500D01*
X40120144Y-23194221D01*
X40123563Y-23171166D01*
X40129227Y-23148557D01*
X40137079Y-23126613D01*
X40147044Y-23105543D01*
X40159026Y-23085552D01*
X40172910Y-23066832D01*
X40188562Y-23049562D01*
X40205832Y-23033910D01*
X40224552Y-23020026D01*
X40244543Y-23008044D01*
X40265613Y-22998079D01*
X40287557Y-22990227D01*
X40310166Y-22984563D01*
X40333221Y-22981144D01*
X40356500Y-22980000D01*
X40831500Y-22980000D01*
X40854779Y-22981144D01*
X40854779Y-22981144D01*
G37*
D11*
X40594000Y-23505000D03*
D10*
G36*
X35579479Y-38517244D02*
G01*
X35602534Y-38520663D01*
X35625143Y-38526327D01*
X35647087Y-38534179D01*
X35668157Y-38544144D01*
X35688148Y-38556126D01*
X35706868Y-38570010D01*
X35724138Y-38585662D01*
X35739790Y-38602932D01*
X35753674Y-38621652D01*
X35765656Y-38641643D01*
X35775621Y-38662713D01*
X35783473Y-38684657D01*
X35789137Y-38707266D01*
X35792556Y-38730321D01*
X35793700Y-38753600D01*
X35793700Y-39328600D01*
X35792556Y-39351879D01*
X35789137Y-39374934D01*
X35783473Y-39397543D01*
X35775621Y-39419487D01*
X35765656Y-39440557D01*
X35753674Y-39460548D01*
X35739790Y-39479268D01*
X35724138Y-39496538D01*
X35706868Y-39512190D01*
X35688148Y-39526074D01*
X35668157Y-39538056D01*
X35647087Y-39548021D01*
X35625143Y-39555873D01*
X35602534Y-39561537D01*
X35579479Y-39564956D01*
X35556200Y-39566100D01*
X35081200Y-39566100D01*
X35057921Y-39564956D01*
X35034866Y-39561537D01*
X35012257Y-39555873D01*
X34990313Y-39548021D01*
X34969243Y-39538056D01*
X34949252Y-39526074D01*
X34930532Y-39512190D01*
X34913262Y-39496538D01*
X34897610Y-39479268D01*
X34883726Y-39460548D01*
X34871744Y-39440557D01*
X34861779Y-39419487D01*
X34853927Y-39397543D01*
X34848263Y-39374934D01*
X34844844Y-39351879D01*
X34843700Y-39328600D01*
X34843700Y-38753600D01*
X34844844Y-38730321D01*
X34848263Y-38707266D01*
X34853927Y-38684657D01*
X34861779Y-38662713D01*
X34871744Y-38641643D01*
X34883726Y-38621652D01*
X34897610Y-38602932D01*
X34913262Y-38585662D01*
X34930532Y-38570010D01*
X34949252Y-38556126D01*
X34969243Y-38544144D01*
X34990313Y-38534179D01*
X35012257Y-38526327D01*
X35034866Y-38520663D01*
X35057921Y-38517244D01*
X35081200Y-38516100D01*
X35556200Y-38516100D01*
X35579479Y-38517244D01*
X35579479Y-38517244D01*
G37*
D11*
X35318700Y-39041100D03*
D10*
G36*
X35579479Y-40267244D02*
G01*
X35602534Y-40270663D01*
X35625143Y-40276327D01*
X35647087Y-40284179D01*
X35668157Y-40294144D01*
X35688148Y-40306126D01*
X35706868Y-40320010D01*
X35724138Y-40335662D01*
X35739790Y-40352932D01*
X35753674Y-40371652D01*
X35765656Y-40391643D01*
X35775621Y-40412713D01*
X35783473Y-40434657D01*
X35789137Y-40457266D01*
X35792556Y-40480321D01*
X35793700Y-40503600D01*
X35793700Y-41078600D01*
X35792556Y-41101879D01*
X35789137Y-41124934D01*
X35783473Y-41147543D01*
X35775621Y-41169487D01*
X35765656Y-41190557D01*
X35753674Y-41210548D01*
X35739790Y-41229268D01*
X35724138Y-41246538D01*
X35706868Y-41262190D01*
X35688148Y-41276074D01*
X35668157Y-41288056D01*
X35647087Y-41298021D01*
X35625143Y-41305873D01*
X35602534Y-41311537D01*
X35579479Y-41314956D01*
X35556200Y-41316100D01*
X35081200Y-41316100D01*
X35057921Y-41314956D01*
X35034866Y-41311537D01*
X35012257Y-41305873D01*
X34990313Y-41298021D01*
X34969243Y-41288056D01*
X34949252Y-41276074D01*
X34930532Y-41262190D01*
X34913262Y-41246538D01*
X34897610Y-41229268D01*
X34883726Y-41210548D01*
X34871744Y-41190557D01*
X34861779Y-41169487D01*
X34853927Y-41147543D01*
X34848263Y-41124934D01*
X34844844Y-41101879D01*
X34843700Y-41078600D01*
X34843700Y-40503600D01*
X34844844Y-40480321D01*
X34848263Y-40457266D01*
X34853927Y-40434657D01*
X34861779Y-40412713D01*
X34871744Y-40391643D01*
X34883726Y-40371652D01*
X34897610Y-40352932D01*
X34913262Y-40335662D01*
X34930532Y-40320010D01*
X34949252Y-40306126D01*
X34969243Y-40294144D01*
X34990313Y-40284179D01*
X35012257Y-40276327D01*
X35034866Y-40270663D01*
X35057921Y-40267244D01*
X35081200Y-40266100D01*
X35556200Y-40266100D01*
X35579479Y-40267244D01*
X35579479Y-40267244D01*
G37*
D11*
X35318700Y-40791100D03*
D10*
G36*
X37092229Y-27570644D02*
G01*
X37115284Y-27574063D01*
X37137893Y-27579727D01*
X37159837Y-27587579D01*
X37180907Y-27597544D01*
X37200898Y-27609526D01*
X37219618Y-27623410D01*
X37236888Y-27639062D01*
X37252540Y-27656332D01*
X37266424Y-27675052D01*
X37278406Y-27695043D01*
X37288371Y-27716113D01*
X37296223Y-27738057D01*
X37301887Y-27760666D01*
X37305306Y-27783721D01*
X37306450Y-27807000D01*
X37306450Y-28382000D01*
X37305306Y-28405279D01*
X37301887Y-28428334D01*
X37296223Y-28450943D01*
X37288371Y-28472887D01*
X37278406Y-28493957D01*
X37266424Y-28513948D01*
X37252540Y-28532668D01*
X37236888Y-28549938D01*
X37219618Y-28565590D01*
X37200898Y-28579474D01*
X37180907Y-28591456D01*
X37159837Y-28601421D01*
X37137893Y-28609273D01*
X37115284Y-28614937D01*
X37092229Y-28618356D01*
X37068950Y-28619500D01*
X36593950Y-28619500D01*
X36570671Y-28618356D01*
X36547616Y-28614937D01*
X36525007Y-28609273D01*
X36503063Y-28601421D01*
X36481993Y-28591456D01*
X36462002Y-28579474D01*
X36443282Y-28565590D01*
X36426012Y-28549938D01*
X36410360Y-28532668D01*
X36396476Y-28513948D01*
X36384494Y-28493957D01*
X36374529Y-28472887D01*
X36366677Y-28450943D01*
X36361013Y-28428334D01*
X36357594Y-28405279D01*
X36356450Y-28382000D01*
X36356450Y-27807000D01*
X36357594Y-27783721D01*
X36361013Y-27760666D01*
X36366677Y-27738057D01*
X36374529Y-27716113D01*
X36384494Y-27695043D01*
X36396476Y-27675052D01*
X36410360Y-27656332D01*
X36426012Y-27639062D01*
X36443282Y-27623410D01*
X36462002Y-27609526D01*
X36481993Y-27597544D01*
X36503063Y-27587579D01*
X36525007Y-27579727D01*
X36547616Y-27574063D01*
X36570671Y-27570644D01*
X36593950Y-27569500D01*
X37068950Y-27569500D01*
X37092229Y-27570644D01*
X37092229Y-27570644D01*
G37*
D11*
X36831450Y-28094500D03*
D10*
G36*
X37092229Y-29320644D02*
G01*
X37115284Y-29324063D01*
X37137893Y-29329727D01*
X37159837Y-29337579D01*
X37180907Y-29347544D01*
X37200898Y-29359526D01*
X37219618Y-29373410D01*
X37236888Y-29389062D01*
X37252540Y-29406332D01*
X37266424Y-29425052D01*
X37278406Y-29445043D01*
X37288371Y-29466113D01*
X37296223Y-29488057D01*
X37301887Y-29510666D01*
X37305306Y-29533721D01*
X37306450Y-29557000D01*
X37306450Y-30132000D01*
X37305306Y-30155279D01*
X37301887Y-30178334D01*
X37296223Y-30200943D01*
X37288371Y-30222887D01*
X37278406Y-30243957D01*
X37266424Y-30263948D01*
X37252540Y-30282668D01*
X37236888Y-30299938D01*
X37219618Y-30315590D01*
X37200898Y-30329474D01*
X37180907Y-30341456D01*
X37159837Y-30351421D01*
X37137893Y-30359273D01*
X37115284Y-30364937D01*
X37092229Y-30368356D01*
X37068950Y-30369500D01*
X36593950Y-30369500D01*
X36570671Y-30368356D01*
X36547616Y-30364937D01*
X36525007Y-30359273D01*
X36503063Y-30351421D01*
X36481993Y-30341456D01*
X36462002Y-30329474D01*
X36443282Y-30315590D01*
X36426012Y-30299938D01*
X36410360Y-30282668D01*
X36396476Y-30263948D01*
X36384494Y-30243957D01*
X36374529Y-30222887D01*
X36366677Y-30200943D01*
X36361013Y-30178334D01*
X36357594Y-30155279D01*
X36356450Y-30132000D01*
X36356450Y-29557000D01*
X36357594Y-29533721D01*
X36361013Y-29510666D01*
X36366677Y-29488057D01*
X36374529Y-29466113D01*
X36384494Y-29445043D01*
X36396476Y-29425052D01*
X36410360Y-29406332D01*
X36426012Y-29389062D01*
X36443282Y-29373410D01*
X36462002Y-29359526D01*
X36481993Y-29347544D01*
X36503063Y-29337579D01*
X36525007Y-29329727D01*
X36547616Y-29324063D01*
X36570671Y-29320644D01*
X36593950Y-29319500D01*
X37068950Y-29319500D01*
X37092229Y-29320644D01*
X37092229Y-29320644D01*
G37*
D11*
X36831450Y-29844500D03*
D10*
G36*
X42793079Y-38517244D02*
G01*
X42816134Y-38520663D01*
X42838743Y-38526327D01*
X42860687Y-38534179D01*
X42881757Y-38544144D01*
X42901748Y-38556126D01*
X42920468Y-38570010D01*
X42937738Y-38585662D01*
X42953390Y-38602932D01*
X42967274Y-38621652D01*
X42979256Y-38641643D01*
X42989221Y-38662713D01*
X42997073Y-38684657D01*
X43002737Y-38707266D01*
X43006156Y-38730321D01*
X43007300Y-38753600D01*
X43007300Y-39328600D01*
X43006156Y-39351879D01*
X43002737Y-39374934D01*
X42997073Y-39397543D01*
X42989221Y-39419487D01*
X42979256Y-39440557D01*
X42967274Y-39460548D01*
X42953390Y-39479268D01*
X42937738Y-39496538D01*
X42920468Y-39512190D01*
X42901748Y-39526074D01*
X42881757Y-39538056D01*
X42860687Y-39548021D01*
X42838743Y-39555873D01*
X42816134Y-39561537D01*
X42793079Y-39564956D01*
X42769800Y-39566100D01*
X42294800Y-39566100D01*
X42271521Y-39564956D01*
X42248466Y-39561537D01*
X42225857Y-39555873D01*
X42203913Y-39548021D01*
X42182843Y-39538056D01*
X42162852Y-39526074D01*
X42144132Y-39512190D01*
X42126862Y-39496538D01*
X42111210Y-39479268D01*
X42097326Y-39460548D01*
X42085344Y-39440557D01*
X42075379Y-39419487D01*
X42067527Y-39397543D01*
X42061863Y-39374934D01*
X42058444Y-39351879D01*
X42057300Y-39328600D01*
X42057300Y-38753600D01*
X42058444Y-38730321D01*
X42061863Y-38707266D01*
X42067527Y-38684657D01*
X42075379Y-38662713D01*
X42085344Y-38641643D01*
X42097326Y-38621652D01*
X42111210Y-38602932D01*
X42126862Y-38585662D01*
X42144132Y-38570010D01*
X42162852Y-38556126D01*
X42182843Y-38544144D01*
X42203913Y-38534179D01*
X42225857Y-38526327D01*
X42248466Y-38520663D01*
X42271521Y-38517244D01*
X42294800Y-38516100D01*
X42769800Y-38516100D01*
X42793079Y-38517244D01*
X42793079Y-38517244D01*
G37*
D11*
X42532300Y-39041100D03*
D10*
G36*
X42793079Y-40267244D02*
G01*
X42816134Y-40270663D01*
X42838743Y-40276327D01*
X42860687Y-40284179D01*
X42881757Y-40294144D01*
X42901748Y-40306126D01*
X42920468Y-40320010D01*
X42937738Y-40335662D01*
X42953390Y-40352932D01*
X42967274Y-40371652D01*
X42979256Y-40391643D01*
X42989221Y-40412713D01*
X42997073Y-40434657D01*
X43002737Y-40457266D01*
X43006156Y-40480321D01*
X43007300Y-40503600D01*
X43007300Y-41078600D01*
X43006156Y-41101879D01*
X43002737Y-41124934D01*
X42997073Y-41147543D01*
X42989221Y-41169487D01*
X42979256Y-41190557D01*
X42967274Y-41210548D01*
X42953390Y-41229268D01*
X42937738Y-41246538D01*
X42920468Y-41262190D01*
X42901748Y-41276074D01*
X42881757Y-41288056D01*
X42860687Y-41298021D01*
X42838743Y-41305873D01*
X42816134Y-41311537D01*
X42793079Y-41314956D01*
X42769800Y-41316100D01*
X42294800Y-41316100D01*
X42271521Y-41314956D01*
X42248466Y-41311537D01*
X42225857Y-41305873D01*
X42203913Y-41298021D01*
X42182843Y-41288056D01*
X42162852Y-41276074D01*
X42144132Y-41262190D01*
X42126862Y-41246538D01*
X42111210Y-41229268D01*
X42097326Y-41210548D01*
X42085344Y-41190557D01*
X42075379Y-41169487D01*
X42067527Y-41147543D01*
X42061863Y-41124934D01*
X42058444Y-41101879D01*
X42057300Y-41078600D01*
X42057300Y-40503600D01*
X42058444Y-40480321D01*
X42061863Y-40457266D01*
X42067527Y-40434657D01*
X42075379Y-40412713D01*
X42085344Y-40391643D01*
X42097326Y-40371652D01*
X42111210Y-40352932D01*
X42126862Y-40335662D01*
X42144132Y-40320010D01*
X42162852Y-40306126D01*
X42182843Y-40294144D01*
X42203913Y-40284179D01*
X42225857Y-40276327D01*
X42248466Y-40270663D01*
X42271521Y-40267244D01*
X42294800Y-40266100D01*
X42769800Y-40266100D01*
X42793079Y-40267244D01*
X42793079Y-40267244D01*
G37*
D11*
X42532300Y-40791100D03*
D10*
G36*
X37268579Y-40267244D02*
G01*
X37291634Y-40270663D01*
X37314243Y-40276327D01*
X37336187Y-40284179D01*
X37357257Y-40294144D01*
X37377248Y-40306126D01*
X37395968Y-40320010D01*
X37413238Y-40335662D01*
X37428890Y-40352932D01*
X37442774Y-40371652D01*
X37454756Y-40391643D01*
X37464721Y-40412713D01*
X37472573Y-40434657D01*
X37478237Y-40457266D01*
X37481656Y-40480321D01*
X37482800Y-40503600D01*
X37482800Y-41078600D01*
X37481656Y-41101879D01*
X37478237Y-41124934D01*
X37472573Y-41147543D01*
X37464721Y-41169487D01*
X37454756Y-41190557D01*
X37442774Y-41210548D01*
X37428890Y-41229268D01*
X37413238Y-41246538D01*
X37395968Y-41262190D01*
X37377248Y-41276074D01*
X37357257Y-41288056D01*
X37336187Y-41298021D01*
X37314243Y-41305873D01*
X37291634Y-41311537D01*
X37268579Y-41314956D01*
X37245300Y-41316100D01*
X36770300Y-41316100D01*
X36747021Y-41314956D01*
X36723966Y-41311537D01*
X36701357Y-41305873D01*
X36679413Y-41298021D01*
X36658343Y-41288056D01*
X36638352Y-41276074D01*
X36619632Y-41262190D01*
X36602362Y-41246538D01*
X36586710Y-41229268D01*
X36572826Y-41210548D01*
X36560844Y-41190557D01*
X36550879Y-41169487D01*
X36543027Y-41147543D01*
X36537363Y-41124934D01*
X36533944Y-41101879D01*
X36532800Y-41078600D01*
X36532800Y-40503600D01*
X36533944Y-40480321D01*
X36537363Y-40457266D01*
X36543027Y-40434657D01*
X36550879Y-40412713D01*
X36560844Y-40391643D01*
X36572826Y-40371652D01*
X36586710Y-40352932D01*
X36602362Y-40335662D01*
X36619632Y-40320010D01*
X36638352Y-40306126D01*
X36658343Y-40294144D01*
X36679413Y-40284179D01*
X36701357Y-40276327D01*
X36723966Y-40270663D01*
X36747021Y-40267244D01*
X36770300Y-40266100D01*
X37245300Y-40266100D01*
X37268579Y-40267244D01*
X37268579Y-40267244D01*
G37*
D11*
X37007800Y-40791100D03*
D10*
G36*
X37268579Y-38517244D02*
G01*
X37291634Y-38520663D01*
X37314243Y-38526327D01*
X37336187Y-38534179D01*
X37357257Y-38544144D01*
X37377248Y-38556126D01*
X37395968Y-38570010D01*
X37413238Y-38585662D01*
X37428890Y-38602932D01*
X37442774Y-38621652D01*
X37454756Y-38641643D01*
X37464721Y-38662713D01*
X37472573Y-38684657D01*
X37478237Y-38707266D01*
X37481656Y-38730321D01*
X37482800Y-38753600D01*
X37482800Y-39328600D01*
X37481656Y-39351879D01*
X37478237Y-39374934D01*
X37472573Y-39397543D01*
X37464721Y-39419487D01*
X37454756Y-39440557D01*
X37442774Y-39460548D01*
X37428890Y-39479268D01*
X37413238Y-39496538D01*
X37395968Y-39512190D01*
X37377248Y-39526074D01*
X37357257Y-39538056D01*
X37336187Y-39548021D01*
X37314243Y-39555873D01*
X37291634Y-39561537D01*
X37268579Y-39564956D01*
X37245300Y-39566100D01*
X36770300Y-39566100D01*
X36747021Y-39564956D01*
X36723966Y-39561537D01*
X36701357Y-39555873D01*
X36679413Y-39548021D01*
X36658343Y-39538056D01*
X36638352Y-39526074D01*
X36619632Y-39512190D01*
X36602362Y-39496538D01*
X36586710Y-39479268D01*
X36572826Y-39460548D01*
X36560844Y-39440557D01*
X36550879Y-39419487D01*
X36543027Y-39397543D01*
X36537363Y-39374934D01*
X36533944Y-39351879D01*
X36532800Y-39328600D01*
X36532800Y-38753600D01*
X36533944Y-38730321D01*
X36537363Y-38707266D01*
X36543027Y-38684657D01*
X36550879Y-38662713D01*
X36560844Y-38641643D01*
X36572826Y-38621652D01*
X36586710Y-38602932D01*
X36602362Y-38585662D01*
X36619632Y-38570010D01*
X36638352Y-38556126D01*
X36658343Y-38544144D01*
X36679413Y-38534179D01*
X36701357Y-38526327D01*
X36723966Y-38520663D01*
X36747021Y-38517244D01*
X36770300Y-38516100D01*
X37245300Y-38516100D01*
X37268579Y-38517244D01*
X37268579Y-38517244D01*
G37*
D11*
X37007800Y-39041100D03*
D10*
G36*
X36481179Y-54719844D02*
G01*
X36504234Y-54723263D01*
X36526843Y-54728927D01*
X36548787Y-54736779D01*
X36569857Y-54746744D01*
X36589848Y-54758726D01*
X36608568Y-54772610D01*
X36625838Y-54788262D01*
X36641490Y-54805532D01*
X36655374Y-54824252D01*
X36667356Y-54844243D01*
X36677321Y-54865313D01*
X36685173Y-54887257D01*
X36690837Y-54909866D01*
X36694256Y-54932921D01*
X36695400Y-54956200D01*
X36695400Y-55531200D01*
X36694256Y-55554479D01*
X36690837Y-55577534D01*
X36685173Y-55600143D01*
X36677321Y-55622087D01*
X36667356Y-55643157D01*
X36655374Y-55663148D01*
X36641490Y-55681868D01*
X36625838Y-55699138D01*
X36608568Y-55714790D01*
X36589848Y-55728674D01*
X36569857Y-55740656D01*
X36548787Y-55750621D01*
X36526843Y-55758473D01*
X36504234Y-55764137D01*
X36481179Y-55767556D01*
X36457900Y-55768700D01*
X35982900Y-55768700D01*
X35959621Y-55767556D01*
X35936566Y-55764137D01*
X35913957Y-55758473D01*
X35892013Y-55750621D01*
X35870943Y-55740656D01*
X35850952Y-55728674D01*
X35832232Y-55714790D01*
X35814962Y-55699138D01*
X35799310Y-55681868D01*
X35785426Y-55663148D01*
X35773444Y-55643157D01*
X35763479Y-55622087D01*
X35755627Y-55600143D01*
X35749963Y-55577534D01*
X35746544Y-55554479D01*
X35745400Y-55531200D01*
X35745400Y-54956200D01*
X35746544Y-54932921D01*
X35749963Y-54909866D01*
X35755627Y-54887257D01*
X35763479Y-54865313D01*
X35773444Y-54844243D01*
X35785426Y-54824252D01*
X35799310Y-54805532D01*
X35814962Y-54788262D01*
X35832232Y-54772610D01*
X35850952Y-54758726D01*
X35870943Y-54746744D01*
X35892013Y-54736779D01*
X35913957Y-54728927D01*
X35936566Y-54723263D01*
X35959621Y-54719844D01*
X35982900Y-54718700D01*
X36457900Y-54718700D01*
X36481179Y-54719844D01*
X36481179Y-54719844D01*
G37*
D11*
X36220400Y-55243700D03*
D10*
G36*
X36481179Y-52969844D02*
G01*
X36504234Y-52973263D01*
X36526843Y-52978927D01*
X36548787Y-52986779D01*
X36569857Y-52996744D01*
X36589848Y-53008726D01*
X36608568Y-53022610D01*
X36625838Y-53038262D01*
X36641490Y-53055532D01*
X36655374Y-53074252D01*
X36667356Y-53094243D01*
X36677321Y-53115313D01*
X36685173Y-53137257D01*
X36690837Y-53159866D01*
X36694256Y-53182921D01*
X36695400Y-53206200D01*
X36695400Y-53781200D01*
X36694256Y-53804479D01*
X36690837Y-53827534D01*
X36685173Y-53850143D01*
X36677321Y-53872087D01*
X36667356Y-53893157D01*
X36655374Y-53913148D01*
X36641490Y-53931868D01*
X36625838Y-53949138D01*
X36608568Y-53964790D01*
X36589848Y-53978674D01*
X36569857Y-53990656D01*
X36548787Y-54000621D01*
X36526843Y-54008473D01*
X36504234Y-54014137D01*
X36481179Y-54017556D01*
X36457900Y-54018700D01*
X35982900Y-54018700D01*
X35959621Y-54017556D01*
X35936566Y-54014137D01*
X35913957Y-54008473D01*
X35892013Y-54000621D01*
X35870943Y-53990656D01*
X35850952Y-53978674D01*
X35832232Y-53964790D01*
X35814962Y-53949138D01*
X35799310Y-53931868D01*
X35785426Y-53913148D01*
X35773444Y-53893157D01*
X35763479Y-53872087D01*
X35755627Y-53850143D01*
X35749963Y-53827534D01*
X35746544Y-53804479D01*
X35745400Y-53781200D01*
X35745400Y-53206200D01*
X35746544Y-53182921D01*
X35749963Y-53159866D01*
X35755627Y-53137257D01*
X35763479Y-53115313D01*
X35773444Y-53094243D01*
X35785426Y-53074252D01*
X35799310Y-53055532D01*
X35814962Y-53038262D01*
X35832232Y-53022610D01*
X35850952Y-53008726D01*
X35870943Y-52996744D01*
X35892013Y-52986779D01*
X35913957Y-52978927D01*
X35936566Y-52973263D01*
X35959621Y-52969844D01*
X35982900Y-52968700D01*
X36457900Y-52968700D01*
X36481179Y-52969844D01*
X36481179Y-52969844D01*
G37*
D11*
X36220400Y-53493700D03*
D10*
G36*
X37230479Y-72042544D02*
G01*
X37253534Y-72045963D01*
X37276143Y-72051627D01*
X37298087Y-72059479D01*
X37319157Y-72069444D01*
X37339148Y-72081426D01*
X37357868Y-72095310D01*
X37375138Y-72110962D01*
X37390790Y-72128232D01*
X37404674Y-72146952D01*
X37416656Y-72166943D01*
X37426621Y-72188013D01*
X37434473Y-72209957D01*
X37440137Y-72232566D01*
X37443556Y-72255621D01*
X37444700Y-72278900D01*
X37444700Y-72853900D01*
X37443556Y-72877179D01*
X37440137Y-72900234D01*
X37434473Y-72922843D01*
X37426621Y-72944787D01*
X37416656Y-72965857D01*
X37404674Y-72985848D01*
X37390790Y-73004568D01*
X37375138Y-73021838D01*
X37357868Y-73037490D01*
X37339148Y-73051374D01*
X37319157Y-73063356D01*
X37298087Y-73073321D01*
X37276143Y-73081173D01*
X37253534Y-73086837D01*
X37230479Y-73090256D01*
X37207200Y-73091400D01*
X36732200Y-73091400D01*
X36708921Y-73090256D01*
X36685866Y-73086837D01*
X36663257Y-73081173D01*
X36641313Y-73073321D01*
X36620243Y-73063356D01*
X36600252Y-73051374D01*
X36581532Y-73037490D01*
X36564262Y-73021838D01*
X36548610Y-73004568D01*
X36534726Y-72985848D01*
X36522744Y-72965857D01*
X36512779Y-72944787D01*
X36504927Y-72922843D01*
X36499263Y-72900234D01*
X36495844Y-72877179D01*
X36494700Y-72853900D01*
X36494700Y-72278900D01*
X36495844Y-72255621D01*
X36499263Y-72232566D01*
X36504927Y-72209957D01*
X36512779Y-72188013D01*
X36522744Y-72166943D01*
X36534726Y-72146952D01*
X36548610Y-72128232D01*
X36564262Y-72110962D01*
X36581532Y-72095310D01*
X36600252Y-72081426D01*
X36620243Y-72069444D01*
X36641313Y-72059479D01*
X36663257Y-72051627D01*
X36685866Y-72045963D01*
X36708921Y-72042544D01*
X36732200Y-72041400D01*
X37207200Y-72041400D01*
X37230479Y-72042544D01*
X37230479Y-72042544D01*
G37*
D11*
X36969700Y-72566400D03*
D10*
G36*
X37230479Y-73792544D02*
G01*
X37253534Y-73795963D01*
X37276143Y-73801627D01*
X37298087Y-73809479D01*
X37319157Y-73819444D01*
X37339148Y-73831426D01*
X37357868Y-73845310D01*
X37375138Y-73860962D01*
X37390790Y-73878232D01*
X37404674Y-73896952D01*
X37416656Y-73916943D01*
X37426621Y-73938013D01*
X37434473Y-73959957D01*
X37440137Y-73982566D01*
X37443556Y-74005621D01*
X37444700Y-74028900D01*
X37444700Y-74603900D01*
X37443556Y-74627179D01*
X37440137Y-74650234D01*
X37434473Y-74672843D01*
X37426621Y-74694787D01*
X37416656Y-74715857D01*
X37404674Y-74735848D01*
X37390790Y-74754568D01*
X37375138Y-74771838D01*
X37357868Y-74787490D01*
X37339148Y-74801374D01*
X37319157Y-74813356D01*
X37298087Y-74823321D01*
X37276143Y-74831173D01*
X37253534Y-74836837D01*
X37230479Y-74840256D01*
X37207200Y-74841400D01*
X36732200Y-74841400D01*
X36708921Y-74840256D01*
X36685866Y-74836837D01*
X36663257Y-74831173D01*
X36641313Y-74823321D01*
X36620243Y-74813356D01*
X36600252Y-74801374D01*
X36581532Y-74787490D01*
X36564262Y-74771838D01*
X36548610Y-74754568D01*
X36534726Y-74735848D01*
X36522744Y-74715857D01*
X36512779Y-74694787D01*
X36504927Y-74672843D01*
X36499263Y-74650234D01*
X36495844Y-74627179D01*
X36494700Y-74603900D01*
X36494700Y-74028900D01*
X36495844Y-74005621D01*
X36499263Y-73982566D01*
X36504927Y-73959957D01*
X36512779Y-73938013D01*
X36522744Y-73916943D01*
X36534726Y-73896952D01*
X36548610Y-73878232D01*
X36564262Y-73860962D01*
X36581532Y-73845310D01*
X36600252Y-73831426D01*
X36620243Y-73819444D01*
X36641313Y-73809479D01*
X36663257Y-73801627D01*
X36685866Y-73795963D01*
X36708921Y-73792544D01*
X36732200Y-73791400D01*
X37207200Y-73791400D01*
X37230479Y-73792544D01*
X37230479Y-73792544D01*
G37*
D11*
X36969700Y-74316400D03*
D10*
G36*
X40932879Y-59507744D02*
G01*
X40955934Y-59511163D01*
X40978543Y-59516827D01*
X41000487Y-59524679D01*
X41021557Y-59534644D01*
X41041548Y-59546626D01*
X41060268Y-59560510D01*
X41077538Y-59576162D01*
X41093190Y-59593432D01*
X41107074Y-59612152D01*
X41119056Y-59632143D01*
X41129021Y-59653213D01*
X41136873Y-59675157D01*
X41142537Y-59697766D01*
X41145956Y-59720821D01*
X41147100Y-59744100D01*
X41147100Y-60319100D01*
X41145956Y-60342379D01*
X41142537Y-60365434D01*
X41136873Y-60388043D01*
X41129021Y-60409987D01*
X41119056Y-60431057D01*
X41107074Y-60451048D01*
X41093190Y-60469768D01*
X41077538Y-60487038D01*
X41060268Y-60502690D01*
X41041548Y-60516574D01*
X41021557Y-60528556D01*
X41000487Y-60538521D01*
X40978543Y-60546373D01*
X40955934Y-60552037D01*
X40932879Y-60555456D01*
X40909600Y-60556600D01*
X40434600Y-60556600D01*
X40411321Y-60555456D01*
X40388266Y-60552037D01*
X40365657Y-60546373D01*
X40343713Y-60538521D01*
X40322643Y-60528556D01*
X40302652Y-60516574D01*
X40283932Y-60502690D01*
X40266662Y-60487038D01*
X40251010Y-60469768D01*
X40237126Y-60451048D01*
X40225144Y-60431057D01*
X40215179Y-60409987D01*
X40207327Y-60388043D01*
X40201663Y-60365434D01*
X40198244Y-60342379D01*
X40197100Y-60319100D01*
X40197100Y-59744100D01*
X40198244Y-59720821D01*
X40201663Y-59697766D01*
X40207327Y-59675157D01*
X40215179Y-59653213D01*
X40225144Y-59632143D01*
X40237126Y-59612152D01*
X40251010Y-59593432D01*
X40266662Y-59576162D01*
X40283932Y-59560510D01*
X40302652Y-59546626D01*
X40322643Y-59534644D01*
X40343713Y-59524679D01*
X40365657Y-59516827D01*
X40388266Y-59511163D01*
X40411321Y-59507744D01*
X40434600Y-59506600D01*
X40909600Y-59506600D01*
X40932879Y-59507744D01*
X40932879Y-59507744D01*
G37*
D11*
X40672100Y-60031600D03*
D10*
G36*
X40932879Y-57757744D02*
G01*
X40955934Y-57761163D01*
X40978543Y-57766827D01*
X41000487Y-57774679D01*
X41021557Y-57784644D01*
X41041548Y-57796626D01*
X41060268Y-57810510D01*
X41077538Y-57826162D01*
X41093190Y-57843432D01*
X41107074Y-57862152D01*
X41119056Y-57882143D01*
X41129021Y-57903213D01*
X41136873Y-57925157D01*
X41142537Y-57947766D01*
X41145956Y-57970821D01*
X41147100Y-57994100D01*
X41147100Y-58569100D01*
X41145956Y-58592379D01*
X41142537Y-58615434D01*
X41136873Y-58638043D01*
X41129021Y-58659987D01*
X41119056Y-58681057D01*
X41107074Y-58701048D01*
X41093190Y-58719768D01*
X41077538Y-58737038D01*
X41060268Y-58752690D01*
X41041548Y-58766574D01*
X41021557Y-58778556D01*
X41000487Y-58788521D01*
X40978543Y-58796373D01*
X40955934Y-58802037D01*
X40932879Y-58805456D01*
X40909600Y-58806600D01*
X40434600Y-58806600D01*
X40411321Y-58805456D01*
X40388266Y-58802037D01*
X40365657Y-58796373D01*
X40343713Y-58788521D01*
X40322643Y-58778556D01*
X40302652Y-58766574D01*
X40283932Y-58752690D01*
X40266662Y-58737038D01*
X40251010Y-58719768D01*
X40237126Y-58701048D01*
X40225144Y-58681057D01*
X40215179Y-58659987D01*
X40207327Y-58638043D01*
X40201663Y-58615434D01*
X40198244Y-58592379D01*
X40197100Y-58569100D01*
X40197100Y-57994100D01*
X40198244Y-57970821D01*
X40201663Y-57947766D01*
X40207327Y-57925157D01*
X40215179Y-57903213D01*
X40225144Y-57882143D01*
X40237126Y-57862152D01*
X40251010Y-57843432D01*
X40266662Y-57826162D01*
X40283932Y-57810510D01*
X40302652Y-57796626D01*
X40322643Y-57784644D01*
X40343713Y-57774679D01*
X40365657Y-57766827D01*
X40388266Y-57761163D01*
X40411321Y-57757744D01*
X40434600Y-57756600D01*
X40909600Y-57756600D01*
X40932879Y-57757744D01*
X40932879Y-57757744D01*
G37*
D11*
X40672100Y-58281600D03*
D13*
X40830500Y-42677100D03*
X39560500Y-42677100D03*
X38290500Y-42677100D03*
X37020500Y-42677100D03*
X37020500Y-48077100D03*
X38290500Y-48077100D03*
X39560500Y-48077100D03*
X40830500Y-48077100D03*
X37020500Y-80027800D03*
X38290500Y-80027800D03*
X39560500Y-80027800D03*
X40830500Y-80027800D03*
X40830500Y-85427800D03*
X39560500Y-85427800D03*
X38290500Y-85427800D03*
X37020500Y-85427800D03*
D10*
G36*
X43162779Y-105849144D02*
G01*
X43185834Y-105852563D01*
X43208443Y-105858227D01*
X43230387Y-105866079D01*
X43251457Y-105876044D01*
X43271448Y-105888026D01*
X43290168Y-105901910D01*
X43307438Y-105917562D01*
X43323090Y-105934832D01*
X43336974Y-105953552D01*
X43348956Y-105973543D01*
X43358921Y-105994613D01*
X43366773Y-106016557D01*
X43372437Y-106039166D01*
X43375856Y-106062221D01*
X43377000Y-106085500D01*
X43377000Y-106560500D01*
X43375856Y-106583779D01*
X43372437Y-106606834D01*
X43366773Y-106629443D01*
X43358921Y-106651387D01*
X43348956Y-106672457D01*
X43336974Y-106692448D01*
X43323090Y-106711168D01*
X43307438Y-106728438D01*
X43290168Y-106744090D01*
X43271448Y-106757974D01*
X43251457Y-106769956D01*
X43230387Y-106779921D01*
X43208443Y-106787773D01*
X43185834Y-106793437D01*
X43162779Y-106796856D01*
X43139500Y-106798000D01*
X42564500Y-106798000D01*
X42541221Y-106796856D01*
X42518166Y-106793437D01*
X42495557Y-106787773D01*
X42473613Y-106779921D01*
X42452543Y-106769956D01*
X42432552Y-106757974D01*
X42413832Y-106744090D01*
X42396562Y-106728438D01*
X42380910Y-106711168D01*
X42367026Y-106692448D01*
X42355044Y-106672457D01*
X42345079Y-106651387D01*
X42337227Y-106629443D01*
X42331563Y-106606834D01*
X42328144Y-106583779D01*
X42327000Y-106560500D01*
X42327000Y-106085500D01*
X42328144Y-106062221D01*
X42331563Y-106039166D01*
X42337227Y-106016557D01*
X42345079Y-105994613D01*
X42355044Y-105973543D01*
X42367026Y-105953552D01*
X42380910Y-105934832D01*
X42396562Y-105917562D01*
X42413832Y-105901910D01*
X42432552Y-105888026D01*
X42452543Y-105876044D01*
X42473613Y-105866079D01*
X42495557Y-105858227D01*
X42518166Y-105852563D01*
X42541221Y-105849144D01*
X42564500Y-105848000D01*
X43139500Y-105848000D01*
X43162779Y-105849144D01*
X43162779Y-105849144D01*
G37*
D11*
X42852000Y-106323000D03*
D10*
G36*
X41412779Y-105849144D02*
G01*
X41435834Y-105852563D01*
X41458443Y-105858227D01*
X41480387Y-105866079D01*
X41501457Y-105876044D01*
X41521448Y-105888026D01*
X41540168Y-105901910D01*
X41557438Y-105917562D01*
X41573090Y-105934832D01*
X41586974Y-105953552D01*
X41598956Y-105973543D01*
X41608921Y-105994613D01*
X41616773Y-106016557D01*
X41622437Y-106039166D01*
X41625856Y-106062221D01*
X41627000Y-106085500D01*
X41627000Y-106560500D01*
X41625856Y-106583779D01*
X41622437Y-106606834D01*
X41616773Y-106629443D01*
X41608921Y-106651387D01*
X41598956Y-106672457D01*
X41586974Y-106692448D01*
X41573090Y-106711168D01*
X41557438Y-106728438D01*
X41540168Y-106744090D01*
X41521448Y-106757974D01*
X41501457Y-106769956D01*
X41480387Y-106779921D01*
X41458443Y-106787773D01*
X41435834Y-106793437D01*
X41412779Y-106796856D01*
X41389500Y-106798000D01*
X40814500Y-106798000D01*
X40791221Y-106796856D01*
X40768166Y-106793437D01*
X40745557Y-106787773D01*
X40723613Y-106779921D01*
X40702543Y-106769956D01*
X40682552Y-106757974D01*
X40663832Y-106744090D01*
X40646562Y-106728438D01*
X40630910Y-106711168D01*
X40617026Y-106692448D01*
X40605044Y-106672457D01*
X40595079Y-106651387D01*
X40587227Y-106629443D01*
X40581563Y-106606834D01*
X40578144Y-106583779D01*
X40577000Y-106560500D01*
X40577000Y-106085500D01*
X40578144Y-106062221D01*
X40581563Y-106039166D01*
X40587227Y-106016557D01*
X40595079Y-105994613D01*
X40605044Y-105973543D01*
X40617026Y-105953552D01*
X40630910Y-105934832D01*
X40646562Y-105917562D01*
X40663832Y-105901910D01*
X40682552Y-105888026D01*
X40702543Y-105876044D01*
X40723613Y-105866079D01*
X40745557Y-105858227D01*
X40768166Y-105852563D01*
X40791221Y-105849144D01*
X40814500Y-105848000D01*
X41389500Y-105848000D01*
X41412779Y-105849144D01*
X41412779Y-105849144D01*
G37*
D11*
X41102000Y-106323000D03*
D10*
G36*
X37066779Y-105849144D02*
G01*
X37089834Y-105852563D01*
X37112443Y-105858227D01*
X37134387Y-105866079D01*
X37155457Y-105876044D01*
X37175448Y-105888026D01*
X37194168Y-105901910D01*
X37211438Y-105917562D01*
X37227090Y-105934832D01*
X37240974Y-105953552D01*
X37252956Y-105973543D01*
X37262921Y-105994613D01*
X37270773Y-106016557D01*
X37276437Y-106039166D01*
X37279856Y-106062221D01*
X37281000Y-106085500D01*
X37281000Y-106560500D01*
X37279856Y-106583779D01*
X37276437Y-106606834D01*
X37270773Y-106629443D01*
X37262921Y-106651387D01*
X37252956Y-106672457D01*
X37240974Y-106692448D01*
X37227090Y-106711168D01*
X37211438Y-106728438D01*
X37194168Y-106744090D01*
X37175448Y-106757974D01*
X37155457Y-106769956D01*
X37134387Y-106779921D01*
X37112443Y-106787773D01*
X37089834Y-106793437D01*
X37066779Y-106796856D01*
X37043500Y-106798000D01*
X36468500Y-106798000D01*
X36445221Y-106796856D01*
X36422166Y-106793437D01*
X36399557Y-106787773D01*
X36377613Y-106779921D01*
X36356543Y-106769956D01*
X36336552Y-106757974D01*
X36317832Y-106744090D01*
X36300562Y-106728438D01*
X36284910Y-106711168D01*
X36271026Y-106692448D01*
X36259044Y-106672457D01*
X36249079Y-106651387D01*
X36241227Y-106629443D01*
X36235563Y-106606834D01*
X36232144Y-106583779D01*
X36231000Y-106560500D01*
X36231000Y-106085500D01*
X36232144Y-106062221D01*
X36235563Y-106039166D01*
X36241227Y-106016557D01*
X36249079Y-105994613D01*
X36259044Y-105973543D01*
X36271026Y-105953552D01*
X36284910Y-105934832D01*
X36300562Y-105917562D01*
X36317832Y-105901910D01*
X36336552Y-105888026D01*
X36356543Y-105876044D01*
X36377613Y-105866079D01*
X36399557Y-105858227D01*
X36422166Y-105852563D01*
X36445221Y-105849144D01*
X36468500Y-105848000D01*
X37043500Y-105848000D01*
X37066779Y-105849144D01*
X37066779Y-105849144D01*
G37*
D11*
X36756000Y-106323000D03*
D10*
G36*
X35316779Y-105849144D02*
G01*
X35339834Y-105852563D01*
X35362443Y-105858227D01*
X35384387Y-105866079D01*
X35405457Y-105876044D01*
X35425448Y-105888026D01*
X35444168Y-105901910D01*
X35461438Y-105917562D01*
X35477090Y-105934832D01*
X35490974Y-105953552D01*
X35502956Y-105973543D01*
X35512921Y-105994613D01*
X35520773Y-106016557D01*
X35526437Y-106039166D01*
X35529856Y-106062221D01*
X35531000Y-106085500D01*
X35531000Y-106560500D01*
X35529856Y-106583779D01*
X35526437Y-106606834D01*
X35520773Y-106629443D01*
X35512921Y-106651387D01*
X35502956Y-106672457D01*
X35490974Y-106692448D01*
X35477090Y-106711168D01*
X35461438Y-106728438D01*
X35444168Y-106744090D01*
X35425448Y-106757974D01*
X35405457Y-106769956D01*
X35384387Y-106779921D01*
X35362443Y-106787773D01*
X35339834Y-106793437D01*
X35316779Y-106796856D01*
X35293500Y-106798000D01*
X34718500Y-106798000D01*
X34695221Y-106796856D01*
X34672166Y-106793437D01*
X34649557Y-106787773D01*
X34627613Y-106779921D01*
X34606543Y-106769956D01*
X34586552Y-106757974D01*
X34567832Y-106744090D01*
X34550562Y-106728438D01*
X34534910Y-106711168D01*
X34521026Y-106692448D01*
X34509044Y-106672457D01*
X34499079Y-106651387D01*
X34491227Y-106629443D01*
X34485563Y-106606834D01*
X34482144Y-106583779D01*
X34481000Y-106560500D01*
X34481000Y-106085500D01*
X34482144Y-106062221D01*
X34485563Y-106039166D01*
X34491227Y-106016557D01*
X34499079Y-105994613D01*
X34509044Y-105973543D01*
X34521026Y-105953552D01*
X34534910Y-105934832D01*
X34550562Y-105917562D01*
X34567832Y-105901910D01*
X34586552Y-105888026D01*
X34606543Y-105876044D01*
X34627613Y-105866079D01*
X34649557Y-105858227D01*
X34672166Y-105852563D01*
X34695221Y-105849144D01*
X34718500Y-105848000D01*
X35293500Y-105848000D01*
X35316779Y-105849144D01*
X35316779Y-105849144D01*
G37*
D11*
X35006000Y-106323000D03*
D10*
G36*
X41930504Y-107669204D02*
G01*
X41954773Y-107672804D01*
X41978571Y-107678765D01*
X42001671Y-107687030D01*
X42023849Y-107697520D01*
X42044893Y-107710133D01*
X42064598Y-107724747D01*
X42082777Y-107741223D01*
X42099253Y-107759402D01*
X42113867Y-107779107D01*
X42126480Y-107800151D01*
X42136970Y-107822329D01*
X42145235Y-107845429D01*
X42151196Y-107869227D01*
X42154796Y-107893496D01*
X42156000Y-107918000D01*
X42156000Y-110018000D01*
X42154796Y-110042504D01*
X42151196Y-110066773D01*
X42145235Y-110090571D01*
X42136970Y-110113671D01*
X42126480Y-110135849D01*
X42113867Y-110156893D01*
X42099253Y-110176598D01*
X42082777Y-110194777D01*
X42064598Y-110211253D01*
X42044893Y-110225867D01*
X42023849Y-110238480D01*
X42001671Y-110248970D01*
X41978571Y-110257235D01*
X41954773Y-110263196D01*
X41930504Y-110266796D01*
X41906000Y-110268000D01*
X40806000Y-110268000D01*
X40781496Y-110266796D01*
X40757227Y-110263196D01*
X40733429Y-110257235D01*
X40710329Y-110248970D01*
X40688151Y-110238480D01*
X40667107Y-110225867D01*
X40647402Y-110211253D01*
X40629223Y-110194777D01*
X40612747Y-110176598D01*
X40598133Y-110156893D01*
X40585520Y-110135849D01*
X40575030Y-110113671D01*
X40566765Y-110090571D01*
X40560804Y-110066773D01*
X40557204Y-110042504D01*
X40556000Y-110018000D01*
X40556000Y-107918000D01*
X40557204Y-107893496D01*
X40560804Y-107869227D01*
X40566765Y-107845429D01*
X40575030Y-107822329D01*
X40585520Y-107800151D01*
X40598133Y-107779107D01*
X40612747Y-107759402D01*
X40629223Y-107741223D01*
X40647402Y-107724747D01*
X40667107Y-107710133D01*
X40688151Y-107697520D01*
X40710329Y-107687030D01*
X40733429Y-107678765D01*
X40757227Y-107672804D01*
X40781496Y-107669204D01*
X40806000Y-107668000D01*
X41906000Y-107668000D01*
X41930504Y-107669204D01*
X41930504Y-107669204D01*
G37*
D14*
X41356000Y-108968000D03*
D10*
G36*
X41930504Y-111269204D02*
G01*
X41954773Y-111272804D01*
X41978571Y-111278765D01*
X42001671Y-111287030D01*
X42023849Y-111297520D01*
X42044893Y-111310133D01*
X42064598Y-111324747D01*
X42082777Y-111341223D01*
X42099253Y-111359402D01*
X42113867Y-111379107D01*
X42126480Y-111400151D01*
X42136970Y-111422329D01*
X42145235Y-111445429D01*
X42151196Y-111469227D01*
X42154796Y-111493496D01*
X42156000Y-111518000D01*
X42156000Y-113618000D01*
X42154796Y-113642504D01*
X42151196Y-113666773D01*
X42145235Y-113690571D01*
X42136970Y-113713671D01*
X42126480Y-113735849D01*
X42113867Y-113756893D01*
X42099253Y-113776598D01*
X42082777Y-113794777D01*
X42064598Y-113811253D01*
X42044893Y-113825867D01*
X42023849Y-113838480D01*
X42001671Y-113848970D01*
X41978571Y-113857235D01*
X41954773Y-113863196D01*
X41930504Y-113866796D01*
X41906000Y-113868000D01*
X40806000Y-113868000D01*
X40781496Y-113866796D01*
X40757227Y-113863196D01*
X40733429Y-113857235D01*
X40710329Y-113848970D01*
X40688151Y-113838480D01*
X40667107Y-113825867D01*
X40647402Y-113811253D01*
X40629223Y-113794777D01*
X40612747Y-113776598D01*
X40598133Y-113756893D01*
X40585520Y-113735849D01*
X40575030Y-113713671D01*
X40566765Y-113690571D01*
X40560804Y-113666773D01*
X40557204Y-113642504D01*
X40556000Y-113618000D01*
X40556000Y-111518000D01*
X40557204Y-111493496D01*
X40560804Y-111469227D01*
X40566765Y-111445429D01*
X40575030Y-111422329D01*
X40585520Y-111400151D01*
X40598133Y-111379107D01*
X40612747Y-111359402D01*
X40629223Y-111341223D01*
X40647402Y-111324747D01*
X40667107Y-111310133D01*
X40688151Y-111297520D01*
X40710329Y-111287030D01*
X40733429Y-111278765D01*
X40757227Y-111272804D01*
X40781496Y-111269204D01*
X40806000Y-111268000D01*
X41906000Y-111268000D01*
X41930504Y-111269204D01*
X41930504Y-111269204D01*
G37*
D14*
X41356000Y-112568000D03*
D10*
G36*
X36977504Y-111291204D02*
G01*
X37001773Y-111294804D01*
X37025571Y-111300765D01*
X37048671Y-111309030D01*
X37070849Y-111319520D01*
X37091893Y-111332133D01*
X37111598Y-111346747D01*
X37129777Y-111363223D01*
X37146253Y-111381402D01*
X37160867Y-111401107D01*
X37173480Y-111422151D01*
X37183970Y-111444329D01*
X37192235Y-111467429D01*
X37198196Y-111491227D01*
X37201796Y-111515496D01*
X37203000Y-111540000D01*
X37203000Y-113640000D01*
X37201796Y-113664504D01*
X37198196Y-113688773D01*
X37192235Y-113712571D01*
X37183970Y-113735671D01*
X37173480Y-113757849D01*
X37160867Y-113778893D01*
X37146253Y-113798598D01*
X37129777Y-113816777D01*
X37111598Y-113833253D01*
X37091893Y-113847867D01*
X37070849Y-113860480D01*
X37048671Y-113870970D01*
X37025571Y-113879235D01*
X37001773Y-113885196D01*
X36977504Y-113888796D01*
X36953000Y-113890000D01*
X35853000Y-113890000D01*
X35828496Y-113888796D01*
X35804227Y-113885196D01*
X35780429Y-113879235D01*
X35757329Y-113870970D01*
X35735151Y-113860480D01*
X35714107Y-113847867D01*
X35694402Y-113833253D01*
X35676223Y-113816777D01*
X35659747Y-113798598D01*
X35645133Y-113778893D01*
X35632520Y-113757849D01*
X35622030Y-113735671D01*
X35613765Y-113712571D01*
X35607804Y-113688773D01*
X35604204Y-113664504D01*
X35603000Y-113640000D01*
X35603000Y-111540000D01*
X35604204Y-111515496D01*
X35607804Y-111491227D01*
X35613765Y-111467429D01*
X35622030Y-111444329D01*
X35632520Y-111422151D01*
X35645133Y-111401107D01*
X35659747Y-111381402D01*
X35676223Y-111363223D01*
X35694402Y-111346747D01*
X35714107Y-111332133D01*
X35735151Y-111319520D01*
X35757329Y-111309030D01*
X35780429Y-111300765D01*
X35804227Y-111294804D01*
X35828496Y-111291204D01*
X35853000Y-111290000D01*
X36953000Y-111290000D01*
X36977504Y-111291204D01*
X36977504Y-111291204D01*
G37*
D14*
X36403000Y-112590000D03*
D10*
G36*
X36977504Y-107691204D02*
G01*
X37001773Y-107694804D01*
X37025571Y-107700765D01*
X37048671Y-107709030D01*
X37070849Y-107719520D01*
X37091893Y-107732133D01*
X37111598Y-107746747D01*
X37129777Y-107763223D01*
X37146253Y-107781402D01*
X37160867Y-107801107D01*
X37173480Y-107822151D01*
X37183970Y-107844329D01*
X37192235Y-107867429D01*
X37198196Y-107891227D01*
X37201796Y-107915496D01*
X37203000Y-107940000D01*
X37203000Y-110040000D01*
X37201796Y-110064504D01*
X37198196Y-110088773D01*
X37192235Y-110112571D01*
X37183970Y-110135671D01*
X37173480Y-110157849D01*
X37160867Y-110178893D01*
X37146253Y-110198598D01*
X37129777Y-110216777D01*
X37111598Y-110233253D01*
X37091893Y-110247867D01*
X37070849Y-110260480D01*
X37048671Y-110270970D01*
X37025571Y-110279235D01*
X37001773Y-110285196D01*
X36977504Y-110288796D01*
X36953000Y-110290000D01*
X35853000Y-110290000D01*
X35828496Y-110288796D01*
X35804227Y-110285196D01*
X35780429Y-110279235D01*
X35757329Y-110270970D01*
X35735151Y-110260480D01*
X35714107Y-110247867D01*
X35694402Y-110233253D01*
X35676223Y-110216777D01*
X35659747Y-110198598D01*
X35645133Y-110178893D01*
X35632520Y-110157849D01*
X35622030Y-110135671D01*
X35613765Y-110112571D01*
X35607804Y-110088773D01*
X35604204Y-110064504D01*
X35603000Y-110040000D01*
X35603000Y-107940000D01*
X35604204Y-107915496D01*
X35607804Y-107891227D01*
X35613765Y-107867429D01*
X35622030Y-107844329D01*
X35632520Y-107822151D01*
X35645133Y-107801107D01*
X35659747Y-107781402D01*
X35676223Y-107763223D01*
X35694402Y-107746747D01*
X35714107Y-107732133D01*
X35735151Y-107719520D01*
X35757329Y-107709030D01*
X35780429Y-107700765D01*
X35804227Y-107694804D01*
X35828496Y-107691204D01*
X35853000Y-107690000D01*
X36953000Y-107690000D01*
X36977504Y-107691204D01*
X36977504Y-107691204D01*
G37*
D14*
X36403000Y-108990000D03*
D15*
X42100500Y-115976400D03*
X42100500Y-119276400D03*
X36398200Y-119276400D03*
X36398200Y-115976400D03*
D10*
G36*
X43008979Y-48192044D02*
G01*
X43032034Y-48195463D01*
X43054643Y-48201127D01*
X43076587Y-48208979D01*
X43097657Y-48218944D01*
X43117648Y-48230926D01*
X43136368Y-48244810D01*
X43153638Y-48260462D01*
X43169290Y-48277732D01*
X43183174Y-48296452D01*
X43195156Y-48316443D01*
X43205121Y-48337513D01*
X43212973Y-48359457D01*
X43218637Y-48382066D01*
X43222056Y-48405121D01*
X43223200Y-48428400D01*
X43223200Y-49003400D01*
X43222056Y-49026679D01*
X43218637Y-49049734D01*
X43212973Y-49072343D01*
X43205121Y-49094287D01*
X43195156Y-49115357D01*
X43183174Y-49135348D01*
X43169290Y-49154068D01*
X43153638Y-49171338D01*
X43136368Y-49186990D01*
X43117648Y-49200874D01*
X43097657Y-49212856D01*
X43076587Y-49222821D01*
X43054643Y-49230673D01*
X43032034Y-49236337D01*
X43008979Y-49239756D01*
X42985700Y-49240900D01*
X42510700Y-49240900D01*
X42487421Y-49239756D01*
X42464366Y-49236337D01*
X42441757Y-49230673D01*
X42419813Y-49222821D01*
X42398743Y-49212856D01*
X42378752Y-49200874D01*
X42360032Y-49186990D01*
X42342762Y-49171338D01*
X42327110Y-49154068D01*
X42313226Y-49135348D01*
X42301244Y-49115357D01*
X42291279Y-49094287D01*
X42283427Y-49072343D01*
X42277763Y-49049734D01*
X42274344Y-49026679D01*
X42273200Y-49003400D01*
X42273200Y-48428400D01*
X42274344Y-48405121D01*
X42277763Y-48382066D01*
X42283427Y-48359457D01*
X42291279Y-48337513D01*
X42301244Y-48316443D01*
X42313226Y-48296452D01*
X42327110Y-48277732D01*
X42342762Y-48260462D01*
X42360032Y-48244810D01*
X42378752Y-48230926D01*
X42398743Y-48218944D01*
X42419813Y-48208979D01*
X42441757Y-48201127D01*
X42464366Y-48195463D01*
X42487421Y-48192044D01*
X42510700Y-48190900D01*
X42985700Y-48190900D01*
X43008979Y-48192044D01*
X43008979Y-48192044D01*
G37*
D11*
X42748200Y-48715900D03*
D10*
G36*
X43008979Y-46442044D02*
G01*
X43032034Y-46445463D01*
X43054643Y-46451127D01*
X43076587Y-46458979D01*
X43097657Y-46468944D01*
X43117648Y-46480926D01*
X43136368Y-46494810D01*
X43153638Y-46510462D01*
X43169290Y-46527732D01*
X43183174Y-46546452D01*
X43195156Y-46566443D01*
X43205121Y-46587513D01*
X43212973Y-46609457D01*
X43218637Y-46632066D01*
X43222056Y-46655121D01*
X43223200Y-46678400D01*
X43223200Y-47253400D01*
X43222056Y-47276679D01*
X43218637Y-47299734D01*
X43212973Y-47322343D01*
X43205121Y-47344287D01*
X43195156Y-47365357D01*
X43183174Y-47385348D01*
X43169290Y-47404068D01*
X43153638Y-47421338D01*
X43136368Y-47436990D01*
X43117648Y-47450874D01*
X43097657Y-47462856D01*
X43076587Y-47472821D01*
X43054643Y-47480673D01*
X43032034Y-47486337D01*
X43008979Y-47489756D01*
X42985700Y-47490900D01*
X42510700Y-47490900D01*
X42487421Y-47489756D01*
X42464366Y-47486337D01*
X42441757Y-47480673D01*
X42419813Y-47472821D01*
X42398743Y-47462856D01*
X42378752Y-47450874D01*
X42360032Y-47436990D01*
X42342762Y-47421338D01*
X42327110Y-47404068D01*
X42313226Y-47385348D01*
X42301244Y-47365357D01*
X42291279Y-47344287D01*
X42283427Y-47322343D01*
X42277763Y-47299734D01*
X42274344Y-47276679D01*
X42273200Y-47253400D01*
X42273200Y-46678400D01*
X42274344Y-46655121D01*
X42277763Y-46632066D01*
X42283427Y-46609457D01*
X42291279Y-46587513D01*
X42301244Y-46566443D01*
X42313226Y-46546452D01*
X42327110Y-46527732D01*
X42342762Y-46510462D01*
X42360032Y-46494810D01*
X42378752Y-46480926D01*
X42398743Y-46468944D01*
X42419813Y-46458979D01*
X42441757Y-46451127D01*
X42464366Y-46445463D01*
X42487421Y-46442044D01*
X42510700Y-46440900D01*
X42985700Y-46440900D01*
X43008979Y-46442044D01*
X43008979Y-46442044D01*
G37*
D11*
X42748200Y-46965900D03*
D12*
X35382200Y-125082300D03*
X37282200Y-125082300D03*
X36332200Y-123082300D03*
D10*
G36*
X37595379Y-126564244D02*
G01*
X37618434Y-126567663D01*
X37641043Y-126573327D01*
X37662987Y-126581179D01*
X37684057Y-126591144D01*
X37704048Y-126603126D01*
X37722768Y-126617010D01*
X37740038Y-126632662D01*
X37755690Y-126649932D01*
X37769574Y-126668652D01*
X37781556Y-126688643D01*
X37791521Y-126709713D01*
X37799373Y-126731657D01*
X37805037Y-126754266D01*
X37808456Y-126777321D01*
X37809600Y-126800600D01*
X37809600Y-127275600D01*
X37808456Y-127298879D01*
X37805037Y-127321934D01*
X37799373Y-127344543D01*
X37791521Y-127366487D01*
X37781556Y-127387557D01*
X37769574Y-127407548D01*
X37755690Y-127426268D01*
X37740038Y-127443538D01*
X37722768Y-127459190D01*
X37704048Y-127473074D01*
X37684057Y-127485056D01*
X37662987Y-127495021D01*
X37641043Y-127502873D01*
X37618434Y-127508537D01*
X37595379Y-127511956D01*
X37572100Y-127513100D01*
X36997100Y-127513100D01*
X36973821Y-127511956D01*
X36950766Y-127508537D01*
X36928157Y-127502873D01*
X36906213Y-127495021D01*
X36885143Y-127485056D01*
X36865152Y-127473074D01*
X36846432Y-127459190D01*
X36829162Y-127443538D01*
X36813510Y-127426268D01*
X36799626Y-127407548D01*
X36787644Y-127387557D01*
X36777679Y-127366487D01*
X36769827Y-127344543D01*
X36764163Y-127321934D01*
X36760744Y-127298879D01*
X36759600Y-127275600D01*
X36759600Y-126800600D01*
X36760744Y-126777321D01*
X36764163Y-126754266D01*
X36769827Y-126731657D01*
X36777679Y-126709713D01*
X36787644Y-126688643D01*
X36799626Y-126668652D01*
X36813510Y-126649932D01*
X36829162Y-126632662D01*
X36846432Y-126617010D01*
X36865152Y-126603126D01*
X36885143Y-126591144D01*
X36906213Y-126581179D01*
X36928157Y-126573327D01*
X36950766Y-126567663D01*
X36973821Y-126564244D01*
X36997100Y-126563100D01*
X37572100Y-126563100D01*
X37595379Y-126564244D01*
X37595379Y-126564244D01*
G37*
D11*
X37284600Y-127038100D03*
D10*
G36*
X35845379Y-126564244D02*
G01*
X35868434Y-126567663D01*
X35891043Y-126573327D01*
X35912987Y-126581179D01*
X35934057Y-126591144D01*
X35954048Y-126603126D01*
X35972768Y-126617010D01*
X35990038Y-126632662D01*
X36005690Y-126649932D01*
X36019574Y-126668652D01*
X36031556Y-126688643D01*
X36041521Y-126709713D01*
X36049373Y-126731657D01*
X36055037Y-126754266D01*
X36058456Y-126777321D01*
X36059600Y-126800600D01*
X36059600Y-127275600D01*
X36058456Y-127298879D01*
X36055037Y-127321934D01*
X36049373Y-127344543D01*
X36041521Y-127366487D01*
X36031556Y-127387557D01*
X36019574Y-127407548D01*
X36005690Y-127426268D01*
X35990038Y-127443538D01*
X35972768Y-127459190D01*
X35954048Y-127473074D01*
X35934057Y-127485056D01*
X35912987Y-127495021D01*
X35891043Y-127502873D01*
X35868434Y-127508537D01*
X35845379Y-127511956D01*
X35822100Y-127513100D01*
X35247100Y-127513100D01*
X35223821Y-127511956D01*
X35200766Y-127508537D01*
X35178157Y-127502873D01*
X35156213Y-127495021D01*
X35135143Y-127485056D01*
X35115152Y-127473074D01*
X35096432Y-127459190D01*
X35079162Y-127443538D01*
X35063510Y-127426268D01*
X35049626Y-127407548D01*
X35037644Y-127387557D01*
X35027679Y-127366487D01*
X35019827Y-127344543D01*
X35014163Y-127321934D01*
X35010744Y-127298879D01*
X35009600Y-127275600D01*
X35009600Y-126800600D01*
X35010744Y-126777321D01*
X35014163Y-126754266D01*
X35019827Y-126731657D01*
X35027679Y-126709713D01*
X35037644Y-126688643D01*
X35049626Y-126668652D01*
X35063510Y-126649932D01*
X35079162Y-126632662D01*
X35096432Y-126617010D01*
X35115152Y-126603126D01*
X35135143Y-126591144D01*
X35156213Y-126581179D01*
X35178157Y-126573327D01*
X35200766Y-126567663D01*
X35223821Y-126564244D01*
X35247100Y-126563100D01*
X35822100Y-126563100D01*
X35845379Y-126564244D01*
X35845379Y-126564244D01*
G37*
D11*
X35534600Y-127038100D03*
D10*
G36*
X35896979Y-91524444D02*
G01*
X35920034Y-91527863D01*
X35942643Y-91533527D01*
X35964587Y-91541379D01*
X35985657Y-91551344D01*
X36005648Y-91563326D01*
X36024368Y-91577210D01*
X36041638Y-91592862D01*
X36057290Y-91610132D01*
X36071174Y-91628852D01*
X36083156Y-91648843D01*
X36093121Y-91669913D01*
X36100973Y-91691857D01*
X36106637Y-91714466D01*
X36110056Y-91737521D01*
X36111200Y-91760800D01*
X36111200Y-92335800D01*
X36110056Y-92359079D01*
X36106637Y-92382134D01*
X36100973Y-92404743D01*
X36093121Y-92426687D01*
X36083156Y-92447757D01*
X36071174Y-92467748D01*
X36057290Y-92486468D01*
X36041638Y-92503738D01*
X36024368Y-92519390D01*
X36005648Y-92533274D01*
X35985657Y-92545256D01*
X35964587Y-92555221D01*
X35942643Y-92563073D01*
X35920034Y-92568737D01*
X35896979Y-92572156D01*
X35873700Y-92573300D01*
X35398700Y-92573300D01*
X35375421Y-92572156D01*
X35352366Y-92568737D01*
X35329757Y-92563073D01*
X35307813Y-92555221D01*
X35286743Y-92545256D01*
X35266752Y-92533274D01*
X35248032Y-92519390D01*
X35230762Y-92503738D01*
X35215110Y-92486468D01*
X35201226Y-92467748D01*
X35189244Y-92447757D01*
X35179279Y-92426687D01*
X35171427Y-92404743D01*
X35165763Y-92382134D01*
X35162344Y-92359079D01*
X35161200Y-92335800D01*
X35161200Y-91760800D01*
X35162344Y-91737521D01*
X35165763Y-91714466D01*
X35171427Y-91691857D01*
X35179279Y-91669913D01*
X35189244Y-91648843D01*
X35201226Y-91628852D01*
X35215110Y-91610132D01*
X35230762Y-91592862D01*
X35248032Y-91577210D01*
X35266752Y-91563326D01*
X35286743Y-91551344D01*
X35307813Y-91541379D01*
X35329757Y-91533527D01*
X35352366Y-91527863D01*
X35375421Y-91524444D01*
X35398700Y-91523300D01*
X35873700Y-91523300D01*
X35896979Y-91524444D01*
X35896979Y-91524444D01*
G37*
D11*
X35636200Y-92048300D03*
D10*
G36*
X35896979Y-89774444D02*
G01*
X35920034Y-89777863D01*
X35942643Y-89783527D01*
X35964587Y-89791379D01*
X35985657Y-89801344D01*
X36005648Y-89813326D01*
X36024368Y-89827210D01*
X36041638Y-89842862D01*
X36057290Y-89860132D01*
X36071174Y-89878852D01*
X36083156Y-89898843D01*
X36093121Y-89919913D01*
X36100973Y-89941857D01*
X36106637Y-89964466D01*
X36110056Y-89987521D01*
X36111200Y-90010800D01*
X36111200Y-90585800D01*
X36110056Y-90609079D01*
X36106637Y-90632134D01*
X36100973Y-90654743D01*
X36093121Y-90676687D01*
X36083156Y-90697757D01*
X36071174Y-90717748D01*
X36057290Y-90736468D01*
X36041638Y-90753738D01*
X36024368Y-90769390D01*
X36005648Y-90783274D01*
X35985657Y-90795256D01*
X35964587Y-90805221D01*
X35942643Y-90813073D01*
X35920034Y-90818737D01*
X35896979Y-90822156D01*
X35873700Y-90823300D01*
X35398700Y-90823300D01*
X35375421Y-90822156D01*
X35352366Y-90818737D01*
X35329757Y-90813073D01*
X35307813Y-90805221D01*
X35286743Y-90795256D01*
X35266752Y-90783274D01*
X35248032Y-90769390D01*
X35230762Y-90753738D01*
X35215110Y-90736468D01*
X35201226Y-90717748D01*
X35189244Y-90697757D01*
X35179279Y-90676687D01*
X35171427Y-90654743D01*
X35165763Y-90632134D01*
X35162344Y-90609079D01*
X35161200Y-90585800D01*
X35161200Y-90010800D01*
X35162344Y-89987521D01*
X35165763Y-89964466D01*
X35171427Y-89941857D01*
X35179279Y-89919913D01*
X35189244Y-89898843D01*
X35201226Y-89878852D01*
X35215110Y-89860132D01*
X35230762Y-89842862D01*
X35248032Y-89827210D01*
X35266752Y-89813326D01*
X35286743Y-89801344D01*
X35307813Y-89791379D01*
X35329757Y-89783527D01*
X35352366Y-89777863D01*
X35375421Y-89774444D01*
X35398700Y-89773300D01*
X35873700Y-89773300D01*
X35896979Y-89774444D01*
X35896979Y-89774444D01*
G37*
D11*
X35636200Y-90298300D03*
M02*
