G04 #@! TF.GenerationSoftware,KiCad,Pcbnew,(5.1.0)-1*
G04 #@! TF.CreationDate,2019-06-10T15:16:32+02:00*
G04 #@! TF.ProjectId,ADSR,41445352-2e6b-4696-9361-645f70636258,rev?*
G04 #@! TF.SameCoordinates,Original*
G04 #@! TF.FileFunction,Legend,Bot*
G04 #@! TF.FilePolarity,Positive*
%FSLAX46Y46*%
G04 Gerber Fmt 4.6, Leading zero omitted, Abs format (unit mm)*
G04 Created by KiCad (PCBNEW (5.1.0)-1) date 2019-06-10 15:16:32*
%MOMM*%
%LPD*%
G04 APERTURE LIST*
%ADD10C,0.150000*%
%ADD11C,0.127000*%
%ADD12C,0.254000*%
%ADD13C,0.120000*%
%ADD14C,0.152400*%
G04 APERTURE END LIST*
D10*
X42419566Y-94719633D02*
X42419566Y-95195823D01*
X42705280Y-94624395D02*
X41705280Y-94957728D01*
X42705280Y-95291061D01*
X42705280Y-95624395D02*
X41705280Y-95624395D01*
X41705280Y-95862490D01*
X41752900Y-96005347D01*
X41848138Y-96100585D01*
X41943376Y-96148204D01*
X42133852Y-96195823D01*
X42276709Y-96195823D01*
X42467185Y-96148204D01*
X42562423Y-96100585D01*
X42657661Y-96005347D01*
X42705280Y-95862490D01*
X42705280Y-95624395D01*
X42657661Y-96576776D02*
X42705280Y-96719633D01*
X42705280Y-96957728D01*
X42657661Y-97052966D01*
X42610042Y-97100585D01*
X42514804Y-97148204D01*
X42419566Y-97148204D01*
X42324328Y-97100585D01*
X42276709Y-97052966D01*
X42229090Y-96957728D01*
X42181471Y-96767252D01*
X42133852Y-96672014D01*
X42086233Y-96624395D01*
X41990995Y-96576776D01*
X41895757Y-96576776D01*
X41800519Y-96624395D01*
X41752900Y-96672014D01*
X41705280Y-96767252D01*
X41705280Y-97005347D01*
X41752900Y-97148204D01*
X42705280Y-98148204D02*
X42229090Y-97814871D01*
X42705280Y-97576776D02*
X41705280Y-97576776D01*
X41705280Y-97957728D01*
X41752900Y-98052966D01*
X41800519Y-98100585D01*
X41895757Y-98148204D01*
X42038614Y-98148204D01*
X42133852Y-98100585D01*
X42181471Y-98052966D01*
X42229090Y-97957728D01*
X42229090Y-97576776D01*
X42038614Y-99243442D02*
X42705280Y-99481538D01*
X42038614Y-99719633D01*
X41705280Y-100291061D02*
X41705280Y-100386300D01*
X41752900Y-100481538D01*
X41800519Y-100529157D01*
X41895757Y-100576776D01*
X42086233Y-100624395D01*
X42324328Y-100624395D01*
X42514804Y-100576776D01*
X42610042Y-100529157D01*
X42657661Y-100481538D01*
X42705280Y-100386300D01*
X42705280Y-100291061D01*
X42657661Y-100195823D01*
X42610042Y-100148204D01*
X42514804Y-100100585D01*
X42324328Y-100052966D01*
X42086233Y-100052966D01*
X41895757Y-100100585D01*
X41800519Y-100148204D01*
X41752900Y-100195823D01*
X41705280Y-100291061D01*
X42610042Y-101052966D02*
X42657661Y-101100585D01*
X42705280Y-101052966D01*
X42657661Y-101005347D01*
X42610042Y-101052966D01*
X42705280Y-101052966D01*
X41800519Y-101481538D02*
X41752900Y-101529157D01*
X41705280Y-101624395D01*
X41705280Y-101862490D01*
X41752900Y-101957728D01*
X41800519Y-102005347D01*
X41895757Y-102052966D01*
X41990995Y-102052966D01*
X42133852Y-102005347D01*
X42705280Y-101433919D01*
X42705280Y-102052966D01*
X35936180Y-93838681D02*
X34936180Y-93838681D01*
X35936180Y-94410110D02*
X35364752Y-93981539D01*
X34936180Y-94410110D02*
X35507609Y-93838681D01*
X35936180Y-94838681D02*
X35269514Y-94838681D01*
X35459990Y-94838681D02*
X35364752Y-94886301D01*
X35317133Y-94933920D01*
X35269514Y-95029158D01*
X35269514Y-95124396D01*
X35936180Y-95886301D02*
X35412371Y-95886301D01*
X35317133Y-95838681D01*
X35269514Y-95743443D01*
X35269514Y-95552967D01*
X35317133Y-95457729D01*
X35888561Y-95886301D02*
X35936180Y-95791062D01*
X35936180Y-95552967D01*
X35888561Y-95457729D01*
X35793323Y-95410110D01*
X35698085Y-95410110D01*
X35602847Y-95457729D01*
X35555228Y-95552967D01*
X35555228Y-95791062D01*
X35507609Y-95886301D01*
X35936180Y-96791062D02*
X35412371Y-96791062D01*
X35317133Y-96743443D01*
X35269514Y-96648205D01*
X35269514Y-96457729D01*
X35317133Y-96362491D01*
X35888561Y-96791062D02*
X35936180Y-96695824D01*
X35936180Y-96457729D01*
X35888561Y-96362491D01*
X35793323Y-96314872D01*
X35698085Y-96314872D01*
X35602847Y-96362491D01*
X35555228Y-96457729D01*
X35555228Y-96695824D01*
X35507609Y-96791062D01*
X35936180Y-97267253D02*
X34936180Y-97267253D01*
X35555228Y-97362491D02*
X35936180Y-97648205D01*
X35269514Y-97648205D02*
X35650466Y-97267253D01*
X35888561Y-98457729D02*
X35936180Y-98362491D01*
X35936180Y-98172015D01*
X35888561Y-98076777D01*
X35793323Y-98029158D01*
X35412371Y-98029158D01*
X35317133Y-98076777D01*
X35269514Y-98172015D01*
X35269514Y-98362491D01*
X35317133Y-98457729D01*
X35412371Y-98505348D01*
X35507609Y-98505348D01*
X35602847Y-98029158D01*
X35269514Y-98933920D02*
X35936180Y-98933920D01*
X35364752Y-98933920D02*
X35317133Y-98981539D01*
X35269514Y-99076777D01*
X35269514Y-99219634D01*
X35317133Y-99314872D01*
X35412371Y-99362491D01*
X35936180Y-99362491D01*
X35888561Y-99791062D02*
X35936180Y-99933920D01*
X35936180Y-100172015D01*
X35888561Y-100267253D01*
X35840942Y-100314872D01*
X35745704Y-100362491D01*
X35650466Y-100362491D01*
X35555228Y-100314872D01*
X35507609Y-100267253D01*
X35459990Y-100172015D01*
X35412371Y-99981539D01*
X35364752Y-99886301D01*
X35317133Y-99838681D01*
X35221895Y-99791062D01*
X35126657Y-99791062D01*
X35031419Y-99838681D01*
X34983800Y-99886301D01*
X34936180Y-99981539D01*
X34936180Y-100219634D01*
X34983800Y-100362491D01*
X35269514Y-100648205D02*
X35269514Y-101029158D01*
X34936180Y-100791062D02*
X35793323Y-100791062D01*
X35888561Y-100838681D01*
X35936180Y-100933920D01*
X35936180Y-101029158D01*
X35269514Y-101791062D02*
X35936180Y-101791062D01*
X35269514Y-101362491D02*
X35793323Y-101362491D01*
X35888561Y-101410110D01*
X35936180Y-101505348D01*
X35936180Y-101648205D01*
X35888561Y-101743443D01*
X35840942Y-101791062D01*
X35269514Y-102124396D02*
X35269514Y-102505348D01*
X35936180Y-102267253D02*
X35079038Y-102267253D01*
X34983800Y-102314872D01*
X34936180Y-102410110D01*
X34936180Y-102505348D01*
X35269514Y-102695824D02*
X35269514Y-103076777D01*
X35936180Y-102838681D02*
X35079038Y-102838681D01*
X34983800Y-102886301D01*
X34936180Y-102981539D01*
X34936180Y-103076777D01*
D11*
X42442837Y-25274843D02*
G75*
G03X42442837Y-25274843I-3500000J0D01*
G01*
X34088837Y-30264943D02*
G75*
G03X34852737Y-30774843I636900J127000D01*
G01*
X43032937Y-30774843D02*
X34852737Y-30774843D01*
X43032937Y-30774843D02*
G75*
G03X43796837Y-30264943I127000J636900D01*
G01*
X43796837Y-20284743D02*
X43796837Y-30264943D01*
X43796837Y-20284743D02*
G75*
G03X43032937Y-19774843I-636900J-127000D01*
G01*
X34852737Y-19774843D02*
X43032937Y-19774843D01*
X34852737Y-19774843D02*
G75*
G03X34088837Y-20284743I-127000J-636900D01*
G01*
X34088837Y-30264943D02*
X34088837Y-20284743D01*
D10*
X37292000Y-27432000D02*
G75*
G02X40594000Y-27432000I1651000J2159000D01*
G01*
X40594000Y-27432000D02*
X37292000Y-27432000D01*
D11*
X42455700Y-43965009D02*
G75*
G03X42455700Y-43965009I-3500000J0D01*
G01*
X34101700Y-48955109D02*
G75*
G03X34865600Y-49465009I636900J127000D01*
G01*
X43045800Y-49465009D02*
X34865600Y-49465009D01*
X43045800Y-49465009D02*
G75*
G03X43809700Y-48955109I127000J636900D01*
G01*
X43809700Y-38974909D02*
X43809700Y-48955109D01*
X43809700Y-38974909D02*
G75*
G03X43045800Y-38465009I-636900J-127000D01*
G01*
X34865600Y-38465009D02*
X43045800Y-38465009D01*
X34865600Y-38465009D02*
G75*
G03X34101700Y-38974909I-127000J-636900D01*
G01*
X34101700Y-48955109D02*
X34101700Y-38974909D01*
D10*
X37304863Y-46122166D02*
G75*
G02X40606863Y-46122166I1651000J2159000D01*
G01*
X40606863Y-46122166D02*
X37304863Y-46122166D01*
X40589200Y-64812332D02*
X37287200Y-64812332D01*
X37287200Y-64812332D02*
G75*
G02X40589200Y-64812332I1651000J2159000D01*
G01*
D11*
X34084037Y-67645275D02*
X34084037Y-57665075D01*
X34847937Y-57155175D02*
G75*
G03X34084037Y-57665075I-127000J-636900D01*
G01*
X34847937Y-57155175D02*
X43028137Y-57155175D01*
X43792037Y-57665075D02*
G75*
G03X43028137Y-57155175I-636900J-127000D01*
G01*
X43792037Y-57665075D02*
X43792037Y-67645275D01*
X43028137Y-68155175D02*
G75*
G03X43792037Y-67645275I127000J636900D01*
G01*
X43028137Y-68155175D02*
X34847937Y-68155175D01*
X34084037Y-67645275D02*
G75*
G03X34847937Y-68155175I636900J127000D01*
G01*
X42438037Y-62655175D02*
G75*
G03X42438037Y-62655175I-3500000J0D01*
G01*
D10*
X40551100Y-83502500D02*
X37249100Y-83502500D01*
X37249100Y-83502500D02*
G75*
G02X40551100Y-83502500I1651000J2159000D01*
G01*
D11*
X34045937Y-86335443D02*
X34045937Y-76355243D01*
X34809837Y-75845343D02*
G75*
G03X34045937Y-76355243I-127000J-636900D01*
G01*
X34809837Y-75845343D02*
X42990037Y-75845343D01*
X43753937Y-76355243D02*
G75*
G03X42990037Y-75845343I-636900J-127000D01*
G01*
X43753937Y-76355243D02*
X43753937Y-86335443D01*
X42990037Y-86845343D02*
G75*
G03X43753937Y-86335443I127000J636900D01*
G01*
X42990037Y-86845343D02*
X34809837Y-86845343D01*
X34045937Y-86335443D02*
G75*
G03X34809837Y-86845343I636900J127000D01*
G01*
X42399937Y-81345343D02*
G75*
G03X42399937Y-81345343I-3500000J0D01*
G01*
X41241700Y-111796700D02*
G75*
G03X41241700Y-111796700I-2286000J0D01*
G01*
X40530500Y-111796700D02*
G75*
G03X40530500Y-111796700I-1574800J0D01*
G01*
D12*
X43400700Y-116305200D02*
X34510700Y-116305200D01*
X43400700Y-105637200D02*
X43400700Y-116305200D01*
X34510700Y-105637200D02*
X43400700Y-105637200D01*
X34510700Y-116305200D02*
X34510700Y-105637200D01*
X43400700Y-118845200D02*
X43400700Y-129513200D01*
X43400700Y-129513200D02*
X34510700Y-129513200D01*
X34510700Y-129513200D02*
X34510700Y-118845200D01*
X34510700Y-118845200D02*
X43400700Y-118845200D01*
D11*
X40530500Y-123353700D02*
G75*
G03X40530500Y-123353700I-1574800J0D01*
G01*
X41241700Y-123353700D02*
G75*
G03X41241700Y-123353700I-2286000J0D01*
G01*
D13*
X37265865Y-89751792D02*
G75*
G02X40498200Y-89594884I1672335J-1078608D01*
G01*
X37265865Y-91909008D02*
G75*
G03X40498200Y-92065916I1672335J1078608D01*
G01*
X37897070Y-89750563D02*
G75*
G02X39979161Y-89750400I1041130J-1079837D01*
G01*
X37897070Y-91910237D02*
G75*
G03X39979161Y-91910400I1041130J1079837D01*
G01*
X40498200Y-89594400D02*
X40498200Y-89750400D01*
X40498200Y-91910400D02*
X40498200Y-92066400D01*
D14*
X36978249Y-29914547D02*
X37380416Y-29340023D01*
X37667678Y-29914547D02*
X37667678Y-28708047D01*
X37208059Y-28708047D01*
X37093154Y-28765500D01*
X37035701Y-28822952D01*
X36978249Y-28937857D01*
X36978249Y-29110214D01*
X37035701Y-29225119D01*
X37093154Y-29282571D01*
X37208059Y-29340023D01*
X37667678Y-29340023D01*
X36633535Y-28708047D02*
X36231368Y-29914547D01*
X35829201Y-28708047D01*
X34795059Y-29914547D02*
X35484487Y-29914547D01*
X35139773Y-29914547D02*
X35139773Y-28708047D01*
X35254678Y-28880404D01*
X35369582Y-28995309D01*
X35484487Y-29052761D01*
X37671130Y-21314833D02*
X37096606Y-21314833D01*
X37786035Y-21659547D02*
X37383868Y-20453047D01*
X36981701Y-21659547D01*
X35947559Y-21659547D02*
X36636987Y-21659547D01*
X36292273Y-21659547D02*
X36292273Y-20453047D01*
X36407178Y-20625404D01*
X36522082Y-20740309D01*
X36636987Y-20797761D01*
X35430487Y-21659547D02*
X35430487Y-20453047D01*
X35028320Y-21314833D01*
X34626154Y-20453047D01*
X34626154Y-21659547D01*
X37232249Y-48562380D02*
X37634416Y-47987856D01*
X37921678Y-48562380D02*
X37921678Y-47355880D01*
X37462059Y-47355880D01*
X37347154Y-47413333D01*
X37289701Y-47470785D01*
X37232249Y-47585690D01*
X37232249Y-47758047D01*
X37289701Y-47872952D01*
X37347154Y-47930404D01*
X37462059Y-47987856D01*
X37921678Y-47987856D01*
X36887535Y-47355880D02*
X36485368Y-48562380D01*
X36083201Y-47355880D01*
X35738487Y-47470785D02*
X35681035Y-47413333D01*
X35566130Y-47355880D01*
X35278868Y-47355880D01*
X35163963Y-47413333D01*
X35106511Y-47470785D01*
X35049059Y-47585690D01*
X35049059Y-47700594D01*
X35106511Y-47872952D01*
X35795940Y-48562380D01*
X35049059Y-48562380D01*
X37671130Y-39729833D02*
X37096606Y-39729833D01*
X37786035Y-40074547D02*
X37383868Y-38868047D01*
X36981701Y-40074547D01*
X35947559Y-40074547D02*
X36636987Y-40074547D01*
X36292273Y-40074547D02*
X36292273Y-38868047D01*
X36407178Y-39040404D01*
X36522082Y-39155309D01*
X36636987Y-39212761D01*
X35430487Y-40074547D02*
X35430487Y-38868047D01*
X35028320Y-39729833D01*
X34626154Y-38868047D01*
X34626154Y-40074547D01*
X37087586Y-67337213D02*
X37489753Y-66762689D01*
X37777015Y-67337213D02*
X37777015Y-66130713D01*
X37317396Y-66130713D01*
X37202491Y-66188166D01*
X37145038Y-66245618D01*
X37087586Y-66360523D01*
X37087586Y-66532880D01*
X37145038Y-66647785D01*
X37202491Y-66705237D01*
X37317396Y-66762689D01*
X37777015Y-66762689D01*
X36742872Y-66130713D02*
X36340705Y-67337213D01*
X35938538Y-66130713D01*
X35651277Y-66130713D02*
X34904396Y-66130713D01*
X35306562Y-66590332D01*
X35134205Y-66590332D01*
X35019300Y-66647785D01*
X34961848Y-66705237D01*
X34904396Y-66820142D01*
X34904396Y-67107404D01*
X34961848Y-67222308D01*
X35019300Y-67279761D01*
X35134205Y-67337213D01*
X35478919Y-67337213D01*
X35593824Y-67279761D01*
X35651277Y-67222308D01*
X38073511Y-58238571D02*
X37901154Y-58296023D01*
X37843701Y-58353476D01*
X37786249Y-58468380D01*
X37786249Y-58640738D01*
X37843701Y-58755642D01*
X37901154Y-58813095D01*
X38016059Y-58870547D01*
X38475678Y-58870547D01*
X38475678Y-57664047D01*
X38073511Y-57664047D01*
X37958606Y-57721500D01*
X37901154Y-57778952D01*
X37843701Y-57893857D01*
X37843701Y-58008761D01*
X37901154Y-58123666D01*
X37958606Y-58181119D01*
X38073511Y-58238571D01*
X38475678Y-58238571D01*
X36637201Y-58870547D02*
X37326630Y-58870547D01*
X36981916Y-58870547D02*
X36981916Y-57664047D01*
X37096820Y-57836404D01*
X37211725Y-57951309D01*
X37326630Y-58008761D01*
X35890320Y-57664047D02*
X35775416Y-57664047D01*
X35660511Y-57721500D01*
X35603059Y-57778952D01*
X35545606Y-57893857D01*
X35488154Y-58123666D01*
X35488154Y-58410928D01*
X35545606Y-58640738D01*
X35603059Y-58755642D01*
X35660511Y-58813095D01*
X35775416Y-58870547D01*
X35890320Y-58870547D01*
X36005225Y-58813095D01*
X36062678Y-58755642D01*
X36120130Y-58640738D01*
X36177582Y-58410928D01*
X36177582Y-58123666D01*
X36120130Y-57893857D01*
X36062678Y-57778952D01*
X36005225Y-57721500D01*
X35890320Y-57664047D01*
X34971082Y-58870547D02*
X34971082Y-57664047D01*
X34856178Y-58410928D02*
X34511463Y-58870547D01*
X34511463Y-58066214D02*
X34971082Y-58525833D01*
X36808349Y-86239047D02*
X37210516Y-85664523D01*
X37497778Y-86239047D02*
X37497778Y-85032547D01*
X37038159Y-85032547D01*
X36923254Y-85090000D01*
X36865801Y-85147452D01*
X36808349Y-85262357D01*
X36808349Y-85434714D01*
X36865801Y-85549619D01*
X36923254Y-85607071D01*
X37038159Y-85664523D01*
X37497778Y-85664523D01*
X36463635Y-85032547D02*
X36061468Y-86239047D01*
X35659301Y-85032547D01*
X34740063Y-85434714D02*
X34740063Y-86239047D01*
X35027325Y-84975095D02*
X35314587Y-85836880D01*
X34567706Y-85836880D01*
X37517130Y-77321833D02*
X36942606Y-77321833D01*
X37632035Y-77666547D02*
X37229868Y-76460047D01*
X36827701Y-77666547D01*
X35793559Y-77666547D02*
X36482987Y-77666547D01*
X36138273Y-77666547D02*
X36138273Y-76460047D01*
X36253178Y-76632404D01*
X36368082Y-76747309D01*
X36482987Y-76804761D01*
X35276487Y-77666547D02*
X35276487Y-76460047D01*
X34874320Y-77321833D01*
X34472154Y-76460047D01*
X34472154Y-77666547D01*
X33881747Y-116375836D02*
X34743533Y-116375836D01*
X34915890Y-116318383D01*
X35030795Y-116203479D01*
X35088247Y-116031121D01*
X35088247Y-115916217D01*
X35088247Y-117582336D02*
X35088247Y-116892907D01*
X35088247Y-117237621D02*
X33881747Y-117237621D01*
X34054104Y-117122717D01*
X34169009Y-117007812D01*
X34226461Y-116892907D01*
X42628606Y-104480000D02*
X42695273Y-104446666D01*
X42795273Y-104446666D01*
X42895273Y-104480000D01*
X42961940Y-104546666D01*
X42995273Y-104613333D01*
X43028606Y-104746666D01*
X43028606Y-104846666D01*
X42995273Y-104980000D01*
X42961940Y-105046666D01*
X42895273Y-105113333D01*
X42795273Y-105146666D01*
X42728606Y-105146666D01*
X42628606Y-105113333D01*
X42595273Y-105080000D01*
X42595273Y-104846666D01*
X42728606Y-104846666D01*
X41995273Y-105146666D02*
X41995273Y-104780000D01*
X42028606Y-104713333D01*
X42095273Y-104680000D01*
X42228606Y-104680000D01*
X42295273Y-104713333D01*
X41995273Y-105113333D02*
X42061940Y-105146666D01*
X42228606Y-105146666D01*
X42295273Y-105113333D01*
X42328606Y-105046666D01*
X42328606Y-104980000D01*
X42295273Y-104913333D01*
X42228606Y-104880000D01*
X42061940Y-104880000D01*
X41995273Y-104846666D01*
X41761940Y-104680000D02*
X41495273Y-104680000D01*
X41661940Y-104446666D02*
X41661940Y-105046666D01*
X41628606Y-105113333D01*
X41561940Y-105146666D01*
X41495273Y-105146666D01*
X40995273Y-105113333D02*
X41061940Y-105146666D01*
X41195273Y-105146666D01*
X41261940Y-105113333D01*
X41295273Y-105046666D01*
X41295273Y-104780000D01*
X41261940Y-104713333D01*
X41195273Y-104680000D01*
X41061940Y-104680000D01*
X40995273Y-104713333D01*
X40961940Y-104780000D01*
X40961940Y-104846666D01*
X41295273Y-104913333D01*
X41501747Y-120236636D02*
X42363533Y-120236636D01*
X42535890Y-120179183D01*
X42650795Y-120064279D01*
X42708247Y-119891921D01*
X42708247Y-119777017D01*
X41616652Y-120753707D02*
X41559200Y-120811160D01*
X41501747Y-120926064D01*
X41501747Y-121213326D01*
X41559200Y-121328231D01*
X41616652Y-121385683D01*
X41731557Y-121443136D01*
X41846461Y-121443136D01*
X42018819Y-121385683D01*
X42708247Y-120696255D01*
X42708247Y-121443136D01*
X42861940Y-117654666D02*
X42728606Y-117654666D01*
X42661940Y-117688000D01*
X42595273Y-117754666D01*
X42561940Y-117888000D01*
X42561940Y-118121333D01*
X42595273Y-118254666D01*
X42661940Y-118321333D01*
X42728606Y-118354666D01*
X42861940Y-118354666D01*
X42928606Y-118321333D01*
X42995273Y-118254666D01*
X43028606Y-118121333D01*
X43028606Y-117888000D01*
X42995273Y-117754666D01*
X42928606Y-117688000D01*
X42861940Y-117654666D01*
X41961940Y-117888000D02*
X41961940Y-118354666D01*
X42261940Y-117888000D02*
X42261940Y-118254666D01*
X42228606Y-118321333D01*
X42161940Y-118354666D01*
X42061940Y-118354666D01*
X41995273Y-118321333D01*
X41961940Y-118288000D01*
X41728606Y-117888000D02*
X41461940Y-117888000D01*
X41628606Y-117654666D02*
X41628606Y-118254666D01*
X41595273Y-118321333D01*
X41528606Y-118354666D01*
X41461940Y-118354666D01*
D10*
X39676295Y-88322780D02*
X39676295Y-87322780D01*
X39438200Y-87322780D01*
X39295342Y-87370400D01*
X39200104Y-87465638D01*
X39152485Y-87560876D01*
X39104866Y-87751352D01*
X39104866Y-87894209D01*
X39152485Y-88084685D01*
X39200104Y-88179923D01*
X39295342Y-88275161D01*
X39438200Y-88322780D01*
X39676295Y-88322780D01*
X38533438Y-87751352D02*
X38628676Y-87703733D01*
X38676295Y-87656114D01*
X38723914Y-87560876D01*
X38723914Y-87513257D01*
X38676295Y-87418019D01*
X38628676Y-87370400D01*
X38533438Y-87322780D01*
X38342961Y-87322780D01*
X38247723Y-87370400D01*
X38200104Y-87418019D01*
X38152485Y-87513257D01*
X38152485Y-87560876D01*
X38200104Y-87656114D01*
X38247723Y-87703733D01*
X38342961Y-87751352D01*
X38533438Y-87751352D01*
X38628676Y-87798971D01*
X38676295Y-87846590D01*
X38723914Y-87941828D01*
X38723914Y-88132304D01*
X38676295Y-88227542D01*
X38628676Y-88275161D01*
X38533438Y-88322780D01*
X38342961Y-88322780D01*
X38247723Y-88275161D01*
X38200104Y-88227542D01*
X38152485Y-88132304D01*
X38152485Y-87941828D01*
X38200104Y-87846590D01*
X38247723Y-87798971D01*
X38342961Y-87751352D01*
M02*
