G04 #@! TF.GenerationSoftware,KiCad,Pcbnew,5.1.4*
G04 #@! TF.CreationDate,2019-08-21T16:46:54+02:00*
G04 #@! TF.ProjectId,ADSR-Panel,41445352-2d50-4616-9e65-6c2e6b696361,rev?*
G04 #@! TF.SameCoordinates,Original*
G04 #@! TF.FileFunction,Soldermask,Top*
G04 #@! TF.FilePolarity,Negative*
%FSLAX46Y46*%
G04 Gerber Fmt 4.6, Leading zero omitted, Abs format (unit mm)*
G04 Created by KiCad (PCBNEW 5.1.4) date 2019-08-21 16:46:54*
%MOMM*%
%LPD*%
G04 APERTURE LIST*
%ADD10C,0.100000*%
G04 APERTURE END LIST*
D10*
G36*
X6517184Y-113699937D02*
G01*
X7014494Y-113850794D01*
X7472817Y-114095773D01*
X7874540Y-114425459D01*
X8204226Y-114827182D01*
X8449205Y-115285505D01*
X8600062Y-115782815D01*
X8651000Y-116299999D01*
X8651000Y-116300001D01*
X8600062Y-116817185D01*
X8449205Y-117314495D01*
X8204226Y-117772818D01*
X7874540Y-118174541D01*
X7472817Y-118504227D01*
X7014494Y-118749206D01*
X6517184Y-118900063D01*
X6000000Y-118951001D01*
X4000000Y-118951001D01*
X3482816Y-118900063D01*
X2985506Y-118749206D01*
X2527183Y-118504227D01*
X2125460Y-118174541D01*
X1795774Y-117772818D01*
X1550795Y-117314495D01*
X1399938Y-116817185D01*
X1349000Y-116300001D01*
X1349000Y-116299999D01*
X1399938Y-115782815D01*
X1550795Y-115285505D01*
X1795774Y-114827182D01*
X2125460Y-114425459D01*
X2527183Y-114095773D01*
X2985506Y-113850794D01*
X3482816Y-113699937D01*
X4000000Y-113648999D01*
X6000000Y-113648999D01*
X6517184Y-113699937D01*
X6517184Y-113699937D01*
G37*
G36*
X5564656Y-99025394D02*
G01*
X6285640Y-99168806D01*
X7077472Y-99496793D01*
X7790101Y-99972957D01*
X8396143Y-100578999D01*
X8872307Y-101291628D01*
X9200294Y-102083460D01*
X9367500Y-102924064D01*
X9367500Y-103781136D01*
X9200294Y-104621740D01*
X8872307Y-105413572D01*
X8396143Y-106126201D01*
X7790101Y-106732243D01*
X7077472Y-107208407D01*
X6285640Y-107536394D01*
X5564656Y-107679806D01*
X5445037Y-107703600D01*
X4587963Y-107703600D01*
X4468344Y-107679806D01*
X3747360Y-107536394D01*
X2955528Y-107208407D01*
X2242899Y-106732243D01*
X1636857Y-106126201D01*
X1160693Y-105413572D01*
X832706Y-104621740D01*
X665500Y-103781136D01*
X665500Y-102924064D01*
X832706Y-102083460D01*
X1160693Y-101291628D01*
X1636857Y-100578999D01*
X2242899Y-99972957D01*
X2955528Y-99496793D01*
X3747360Y-99168806D01*
X4468344Y-99025394D01*
X4587963Y-99001600D01*
X5445037Y-99001600D01*
X5564656Y-99025394D01*
X5564656Y-99025394D01*
G37*
G36*
X5564656Y-87493794D02*
G01*
X6285640Y-87637206D01*
X7077472Y-87965193D01*
X7790101Y-88441357D01*
X8396143Y-89047399D01*
X8872307Y-89760028D01*
X9200294Y-90551860D01*
X9367500Y-91392464D01*
X9367500Y-92249536D01*
X9200294Y-93090140D01*
X8872307Y-93881972D01*
X8396143Y-94594601D01*
X7790101Y-95200643D01*
X7077472Y-95676807D01*
X6285640Y-96004794D01*
X5564656Y-96148206D01*
X5445037Y-96172000D01*
X4587963Y-96172000D01*
X4468344Y-96148206D01*
X3747360Y-96004794D01*
X2955528Y-95676807D01*
X2242899Y-95200643D01*
X1636857Y-94594601D01*
X1160693Y-93881972D01*
X832706Y-93090140D01*
X665500Y-92249536D01*
X665500Y-91392464D01*
X832706Y-90551860D01*
X1160693Y-89760028D01*
X1636857Y-89047399D01*
X2242899Y-88441357D01*
X2955528Y-87965193D01*
X3747360Y-87637206D01*
X4468344Y-87493794D01*
X4587963Y-87470000D01*
X5445037Y-87470000D01*
X5564656Y-87493794D01*
X5564656Y-87493794D01*
G37*
G36*
X5390534Y-69423643D02*
G01*
X5663515Y-69536716D01*
X5663517Y-69536717D01*
X5787190Y-69619353D01*
X5909193Y-69700873D01*
X6118127Y-69909807D01*
X6282284Y-70155485D01*
X6395357Y-70428466D01*
X6453000Y-70718262D01*
X6453000Y-71013738D01*
X6395357Y-71303534D01*
X6282284Y-71576515D01*
X6282283Y-71576517D01*
X6118126Y-71822194D01*
X5909194Y-72031126D01*
X5663517Y-72195283D01*
X5663516Y-72195284D01*
X5663515Y-72195284D01*
X5390534Y-72308357D01*
X5100738Y-72366000D01*
X4805262Y-72366000D01*
X4515466Y-72308357D01*
X4242485Y-72195284D01*
X4242484Y-72195284D01*
X4242483Y-72195283D01*
X3996806Y-72031126D01*
X3787874Y-71822194D01*
X3623717Y-71576517D01*
X3623716Y-71576515D01*
X3510643Y-71303534D01*
X3453000Y-71013738D01*
X3453000Y-70718262D01*
X3510643Y-70428466D01*
X3623716Y-70155485D01*
X3787873Y-69909807D01*
X3996807Y-69700873D01*
X4118810Y-69619353D01*
X4242483Y-69536717D01*
X4242485Y-69536716D01*
X4515466Y-69423643D01*
X4805262Y-69366000D01*
X5100738Y-69366000D01*
X5390534Y-69423643D01*
X5390534Y-69423643D01*
G37*
G36*
X6387730Y-56884156D02*
G01*
X7243257Y-57238527D01*
X7243258Y-57238528D01*
X8013213Y-57752995D01*
X8668005Y-58407787D01*
X9011761Y-58922255D01*
X9182473Y-59177743D01*
X9536844Y-60033270D01*
X9717500Y-60941491D01*
X9717500Y-61867509D01*
X9536844Y-62775730D01*
X9182473Y-63631257D01*
X9182472Y-63631258D01*
X8668005Y-64401213D01*
X8013213Y-65056005D01*
X7498745Y-65399761D01*
X7243257Y-65570473D01*
X6387730Y-65924844D01*
X5479509Y-66105500D01*
X4553491Y-66105500D01*
X3645270Y-65924844D01*
X2789743Y-65570473D01*
X2534255Y-65399761D01*
X2019787Y-65056005D01*
X1364995Y-64401213D01*
X850528Y-63631258D01*
X850527Y-63631257D01*
X496156Y-62775730D01*
X315500Y-61867509D01*
X315500Y-60941491D01*
X496156Y-60033270D01*
X850527Y-59177743D01*
X1021239Y-58922255D01*
X1364995Y-58407787D01*
X2019787Y-57752995D01*
X2789742Y-57238528D01*
X2789743Y-57238527D01*
X3645270Y-56884156D01*
X4553491Y-56703500D01*
X5479509Y-56703500D01*
X6387730Y-56884156D01*
X6387730Y-56884156D01*
G37*
G36*
X6387730Y-38151656D02*
G01*
X7243257Y-38506027D01*
X7243258Y-38506028D01*
X8013213Y-39020495D01*
X8668005Y-39675287D01*
X9011761Y-40189755D01*
X9182473Y-40445243D01*
X9536844Y-41300770D01*
X9717500Y-42208991D01*
X9717500Y-43135009D01*
X9536844Y-44043230D01*
X9182473Y-44898757D01*
X9182472Y-44898758D01*
X8668005Y-45668713D01*
X8013213Y-46323505D01*
X7498745Y-46667261D01*
X7243257Y-46837973D01*
X6387730Y-47192344D01*
X5479509Y-47373000D01*
X4553491Y-47373000D01*
X3645270Y-47192344D01*
X2789743Y-46837973D01*
X2534255Y-46667261D01*
X2019787Y-46323505D01*
X1364995Y-45668713D01*
X850528Y-44898758D01*
X850527Y-44898757D01*
X496156Y-44043230D01*
X315500Y-43135009D01*
X315500Y-42208991D01*
X496156Y-41300770D01*
X850527Y-40445243D01*
X1021239Y-40189755D01*
X1364995Y-39675287D01*
X2019787Y-39020495D01*
X2789742Y-38506028D01*
X2789743Y-38506027D01*
X3645270Y-38151656D01*
X4553491Y-37971000D01*
X5479509Y-37971000D01*
X6387730Y-38151656D01*
X6387730Y-38151656D01*
G37*
G36*
X6387730Y-19482656D02*
G01*
X7243257Y-19837027D01*
X7243258Y-19837028D01*
X8013213Y-20351495D01*
X8668005Y-21006287D01*
X9011761Y-21520755D01*
X9182473Y-21776243D01*
X9536844Y-22631770D01*
X9717500Y-23539991D01*
X9717500Y-24466009D01*
X9536844Y-25374230D01*
X9182473Y-26229757D01*
X9182472Y-26229758D01*
X8668005Y-26999713D01*
X8013213Y-27654505D01*
X7498745Y-27998261D01*
X7243257Y-28168973D01*
X6387730Y-28523344D01*
X5479509Y-28704000D01*
X4553491Y-28704000D01*
X3645270Y-28523344D01*
X2789743Y-28168973D01*
X2534255Y-27998261D01*
X2019787Y-27654505D01*
X1364995Y-26999713D01*
X850528Y-26229758D01*
X850527Y-26229757D01*
X496156Y-25374230D01*
X315500Y-24466009D01*
X315500Y-23539991D01*
X496156Y-22631770D01*
X850527Y-21776243D01*
X1021239Y-21520755D01*
X1364995Y-21006287D01*
X2019787Y-20351495D01*
X2789742Y-19837028D01*
X2789743Y-19837027D01*
X3645270Y-19482656D01*
X4553491Y-19302000D01*
X5479509Y-19302000D01*
X6387730Y-19482656D01*
X6387730Y-19482656D01*
G37*
G36*
X5296272Y-14601318D02*
G01*
X5542139Y-14703159D01*
X5763412Y-14851010D01*
X5951590Y-15039188D01*
X6099441Y-15260461D01*
X6201282Y-15506328D01*
X6253200Y-15767338D01*
X6253200Y-16033462D01*
X6201282Y-16294472D01*
X6099441Y-16540339D01*
X5951590Y-16761612D01*
X5763412Y-16949790D01*
X5542139Y-17097641D01*
X5542138Y-17097642D01*
X5542137Y-17097642D01*
X5296272Y-17199482D01*
X5035263Y-17251400D01*
X4769137Y-17251400D01*
X4508128Y-17199482D01*
X4262263Y-17097642D01*
X4262262Y-17097642D01*
X4262261Y-17097641D01*
X4040988Y-16949790D01*
X3852810Y-16761612D01*
X3704959Y-16540339D01*
X3603118Y-16294472D01*
X3551200Y-16033462D01*
X3551200Y-15767338D01*
X3603118Y-15506328D01*
X3704959Y-15260461D01*
X3852810Y-15039188D01*
X4040988Y-14851010D01*
X4262261Y-14703159D01*
X4508128Y-14601318D01*
X4769137Y-14549400D01*
X5035263Y-14549400D01*
X5296272Y-14601318D01*
X5296272Y-14601318D01*
G37*
G36*
X6387730Y-813656D02*
G01*
X7243257Y-1168027D01*
X7243258Y-1168028D01*
X8013213Y-1682495D01*
X8668005Y-2337287D01*
X9011761Y-2851755D01*
X9182473Y-3107243D01*
X9536844Y-3962770D01*
X9717500Y-4870991D01*
X9717500Y-5797009D01*
X9536844Y-6705230D01*
X9182473Y-7560757D01*
X9182472Y-7560758D01*
X8668005Y-8330713D01*
X8013213Y-8985505D01*
X7498745Y-9329261D01*
X7243257Y-9499973D01*
X6387730Y-9854344D01*
X5479509Y-10035000D01*
X4553491Y-10035000D01*
X3645270Y-9854344D01*
X2789743Y-9499973D01*
X2534255Y-9329261D01*
X2019787Y-8985505D01*
X1364995Y-8330713D01*
X850528Y-7560758D01*
X850527Y-7560757D01*
X496156Y-6705230D01*
X315500Y-5797009D01*
X315500Y-4870991D01*
X496156Y-3962770D01*
X850527Y-3107243D01*
X1021239Y-2851755D01*
X1364995Y-2337287D01*
X2019787Y-1682495D01*
X2789742Y-1168028D01*
X2789743Y-1168027D01*
X3645270Y-813656D01*
X4553491Y-633000D01*
X5479509Y-633000D01*
X6387730Y-813656D01*
X6387730Y-813656D01*
G37*
G36*
X6517184Y8800063D02*
G01*
X7014494Y8649206D01*
X7472817Y8404227D01*
X7874540Y8074541D01*
X8204226Y7672818D01*
X8449205Y7214495D01*
X8600062Y6717185D01*
X8651000Y6200001D01*
X8651000Y6199999D01*
X8600062Y5682815D01*
X8449205Y5185505D01*
X8204226Y4727182D01*
X7874540Y4325459D01*
X7472817Y3995773D01*
X7014494Y3750794D01*
X6517184Y3599937D01*
X6000000Y3548999D01*
X4000000Y3548999D01*
X3482816Y3599937D01*
X2985506Y3750794D01*
X2527183Y3995773D01*
X2125460Y4325459D01*
X1795774Y4727182D01*
X1550795Y5185505D01*
X1399938Y5682815D01*
X1349000Y6199999D01*
X1349000Y6200001D01*
X1399938Y6717185D01*
X1550795Y7214495D01*
X1795774Y7672818D01*
X2125460Y8074541D01*
X2527183Y8404227D01*
X2985506Y8649206D01*
X3482816Y8800063D01*
X4000000Y8851001D01*
X6000000Y8851001D01*
X6517184Y8800063D01*
X6517184Y8800063D01*
G37*
M02*
