G04 #@! TF.GenerationSoftware,KiCad,Pcbnew,(5.1.0)-1*
G04 #@! TF.CreationDate,2019-06-10T15:16:32+02:00*
G04 #@! TF.ProjectId,ADSR,41445352-2e6b-4696-9361-645f70636258,rev?*
G04 #@! TF.SameCoordinates,Original*
G04 #@! TF.FileFunction,Copper,L2,Bot*
G04 #@! TF.FilePolarity,Positive*
%FSLAX46Y46*%
G04 Gerber Fmt 4.6, Leading zero omitted, Abs format (unit mm)*
G04 Created by KiCad (PCBNEW (5.1.0)-1) date 2019-06-10 15:16:32*
%MOMM*%
%LPD*%
G04 APERTURE LIST*
%ADD10C,1.524000*%
%ADD11R,1.524000X1.524000*%
%ADD12C,2.667000*%
%ADD13C,1.803400*%
%ADD14C,1.930400*%
%ADD15R,1.800000X1.800000*%
%ADD16C,1.800000*%
%ADD17C,0.800000*%
%ADD18C,0.250000*%
%ADD19C,0.100000*%
G04 APERTURE END LIST*
D10*
X37630100Y-93332300D03*
X40170100Y-93332300D03*
X37630100Y-95872300D03*
X40170100Y-95872300D03*
X37630100Y-98412300D03*
X40170100Y-98412300D03*
X37630100Y-100952300D03*
X40170100Y-100952300D03*
X37630100Y-103492300D03*
D11*
X40170100Y-103492300D03*
D12*
X34548637Y-25274843D03*
X43337037Y-25274843D03*
D13*
X41482837Y-32285243D03*
X38942837Y-32285243D03*
X36402837Y-32285243D03*
D12*
X34561500Y-43965009D03*
X43349900Y-43965009D03*
D13*
X41495700Y-50975409D03*
X38955700Y-50975409D03*
X36415700Y-50975409D03*
X36398037Y-69665575D03*
X38938037Y-69665575D03*
X41478037Y-69665575D03*
D12*
X43332237Y-62655175D03*
X34543837Y-62655175D03*
D13*
X36359937Y-88355743D03*
X38899937Y-88355743D03*
X41439937Y-88355743D03*
D12*
X43294137Y-81345343D03*
X34505737Y-81345343D03*
D14*
X38955700Y-115162200D03*
X38955700Y-117575200D03*
X38955700Y-106602400D03*
D10*
X38955700Y-111809400D03*
X38955700Y-123341000D03*
D14*
X38955700Y-128548000D03*
X38955700Y-117575200D03*
X38955700Y-119988200D03*
D15*
X40208200Y-90830400D03*
D16*
X37668200Y-90830400D03*
D17*
X35026600Y-42037000D03*
X36106100Y-26771600D03*
X37566600Y-62585600D03*
X40716200Y-63411100D03*
X38379400Y-40741600D03*
X42341800Y-66967100D03*
X35775900Y-75082400D03*
X34823400Y-101180900D03*
X36931600Y-81661000D03*
X41998900Y-74295000D03*
X43218100Y-49657000D03*
X40754300Y-39370000D03*
X35521900Y-93370400D03*
X42875200Y-101231700D03*
X41795700Y-83820000D03*
X41871900Y-76619100D03*
X41668700Y-49352200D03*
X34886900Y-79082900D03*
X35941000Y-58356500D03*
X40259000Y-81521300D03*
X40398700Y-25095200D03*
X38684200Y-68148200D03*
X42913300Y-33616900D03*
X41449311Y-40791100D03*
X36576000Y-38252400D03*
X36931600Y-56197500D03*
X38468300Y-83947000D03*
X40513000Y-61315600D03*
X40246300Y-56515000D03*
X42113200Y-72034400D03*
X40919400Y-82448400D03*
X38684200Y-56883300D03*
X37769800Y-49657000D03*
X41973500Y-115036600D03*
X35166300Y-120307100D03*
X36273401Y-99656900D03*
X36233100Y-121754900D03*
D18*
X35026600Y-42037000D02*
X35026600Y-27851100D01*
X35026600Y-27851100D02*
X36106100Y-26771600D01*
X36931600Y-82199562D02*
X36931600Y-81661000D01*
X34823400Y-84307762D02*
X36931600Y-82199562D01*
X41174321Y-47613221D02*
X43218100Y-49657000D01*
X41174321Y-42139092D02*
X41174321Y-47613221D01*
X41998900Y-74295000D02*
X42659300Y-74295000D01*
X42659300Y-74295000D02*
X43110099Y-73844201D01*
X43110099Y-73844201D02*
X43110099Y-65411824D01*
X41814488Y-64116212D02*
X41465500Y-63767225D01*
X43110099Y-65411824D02*
X41814488Y-64116212D01*
X41673736Y-63975460D02*
X41814488Y-64116212D01*
X41673736Y-61859094D02*
X41673736Y-63975460D01*
X43218100Y-49657000D02*
X43218100Y-60314730D01*
X43218100Y-60314730D02*
X41673736Y-61859094D01*
X34930815Y-93345000D02*
X34823400Y-93345000D01*
X34956215Y-93370400D02*
X34930815Y-93345000D01*
X35521900Y-93370400D02*
X34956215Y-93370400D01*
X34823400Y-101180900D02*
X34823400Y-93345000D01*
X34823400Y-93345000D02*
X34823400Y-84307762D01*
X40354301Y-39769999D02*
X40754300Y-39370000D01*
X40354301Y-41319072D02*
X40354301Y-39769999D01*
X41174321Y-42139092D02*
X40354301Y-41319072D01*
X42875200Y-84899500D02*
X41795700Y-83820000D01*
X42875200Y-101231700D02*
X42875200Y-84899500D01*
X41452637Y-89168543D02*
X41452637Y-87893347D01*
X41434011Y-81908911D02*
X41434011Y-77056989D01*
X41439937Y-87080547D02*
X41070699Y-86711309D01*
X41439937Y-88355743D02*
X41439937Y-87080547D01*
X41434011Y-77056989D02*
X41871900Y-76619100D01*
X41070699Y-86711309D02*
X41070699Y-83370103D01*
X41644401Y-82796401D02*
X41644401Y-82119301D01*
X41070699Y-83370103D02*
X41644401Y-82796401D01*
X41644401Y-82119301D02*
X41434011Y-81908911D01*
X40724311Y-48407811D02*
X41668700Y-49352200D01*
X40724311Y-42325492D02*
X40724311Y-48407811D01*
X41482837Y-32285243D02*
X41482837Y-33727455D01*
X41482837Y-33727455D02*
X42093310Y-34337928D01*
X42093310Y-34337928D02*
X42093310Y-36957988D01*
X42093310Y-36957988D02*
X39904291Y-39147007D01*
X39904291Y-39147007D02*
X39904291Y-41505472D01*
X39904291Y-41505472D02*
X40724311Y-42325492D01*
X36220001Y-63993124D02*
X36220001Y-58635501D01*
X36220001Y-58635501D02*
X35941000Y-58356500D01*
X34886900Y-65326226D02*
X35076113Y-65137013D01*
X34886900Y-79082900D02*
X34886900Y-65326226D01*
X34899600Y-65313525D02*
X35076113Y-65137013D01*
X35076113Y-65137013D02*
X36220001Y-63993124D01*
X41160700Y-126343000D02*
X41160700Y-106897902D01*
X41160700Y-106897902D02*
X38955700Y-104692902D01*
X38955700Y-128548000D02*
X41160700Y-126343000D01*
X38955700Y-89697898D02*
X38955700Y-91190800D01*
X39071154Y-89582444D02*
X38955700Y-89697898D01*
X38955700Y-91190800D02*
X38955700Y-90924100D01*
X38955700Y-104692902D02*
X38955700Y-91190800D01*
X40259000Y-81521300D02*
X40139338Y-81640962D01*
X40139338Y-81640962D02*
X40139338Y-89172062D01*
X40139338Y-89172062D02*
X39728956Y-89582444D01*
X39728956Y-89582444D02*
X39071154Y-89582444D01*
X40398700Y-25660885D02*
X40398700Y-25095200D01*
X40256136Y-33137164D02*
X40256136Y-25803449D01*
X39966501Y-60789097D02*
X39966501Y-58254501D01*
X39453391Y-61302207D02*
X39966501Y-60789097D01*
X41059100Y-55867300D02*
X40207801Y-55016001D01*
X39453391Y-65693001D02*
X39453391Y-61302207D01*
X39801326Y-66040936D02*
X39453391Y-65693001D01*
X38684200Y-68148200D02*
X39801326Y-67031074D01*
X39801326Y-67031074D02*
X39801326Y-66040936D01*
X39966501Y-58254501D02*
X41059100Y-57161902D01*
X41059100Y-57161902D02*
X41059100Y-55867300D01*
X41643300Y-36771588D02*
X41643300Y-34524328D01*
X40207801Y-55016001D02*
X40182401Y-55016001D01*
X40182401Y-55016001D02*
X40182401Y-42419992D01*
X40182401Y-42419992D02*
X39454282Y-41691873D01*
X39454282Y-41691873D02*
X39454281Y-38960607D01*
X40256136Y-25803449D02*
X40398700Y-25660885D01*
X39454281Y-38960607D02*
X41643300Y-36771588D01*
X41643300Y-34524328D02*
X40256136Y-33137164D01*
X42913300Y-34163000D02*
X42543319Y-34532981D01*
X42913300Y-33616900D02*
X42913300Y-34163000D01*
X42543319Y-34532981D02*
X42543318Y-37279002D01*
X41849310Y-37973010D02*
X42543318Y-37279002D01*
X41849310Y-40391101D02*
X41849310Y-37973010D01*
X41449311Y-40791100D02*
X41849310Y-40391101D01*
X36576000Y-32458406D02*
X36402837Y-32285243D01*
X36176001Y-37852401D02*
X36576000Y-38252400D01*
X35501138Y-37177538D02*
X36176001Y-37852401D01*
X35501138Y-33186942D02*
X35501138Y-37177538D01*
X36402837Y-32285243D02*
X35501138Y-33186942D01*
X36670011Y-57348089D02*
X36931600Y-57086500D01*
X36931600Y-57086500D02*
X36931600Y-56197500D01*
X36670011Y-68026311D02*
X36670011Y-57348089D01*
X37656601Y-69012901D02*
X36670011Y-68026311D01*
X38018290Y-83127010D02*
X38018290Y-71085551D01*
X38018290Y-71085551D02*
X37656601Y-70723862D01*
X37656601Y-70723862D02*
X37656601Y-69012901D01*
X36359937Y-84785363D02*
X37807900Y-83337400D01*
X36359937Y-88355743D02*
X36359937Y-84785363D01*
X37807900Y-83337400D02*
X38018290Y-83127010D01*
X39903400Y-61925200D02*
X40513000Y-61315600D01*
X39903400Y-65506600D02*
X39903400Y-61925200D01*
X40251336Y-65854536D02*
X39903400Y-65506600D01*
X40251336Y-70441864D02*
X40251336Y-65854536D01*
X38468300Y-83947000D02*
X38468300Y-72224900D01*
X38468300Y-72224900D02*
X40251336Y-70441864D01*
X38955700Y-52521539D02*
X39560500Y-53126339D01*
X39560500Y-55829200D02*
X40246300Y-56515000D01*
X39560500Y-55460900D02*
X39560500Y-55829200D01*
X39560500Y-52855405D02*
X39560500Y-53251100D01*
X38955700Y-52250605D02*
X39560500Y-52855405D01*
X38955700Y-50975409D02*
X38955700Y-52250605D01*
X39560500Y-53126339D02*
X39560500Y-53251100D01*
X39560500Y-53251100D02*
X39560500Y-55460900D01*
X40984001Y-82383799D02*
X40919400Y-82448400D01*
X42113200Y-72034400D02*
X40984001Y-73163599D01*
X40984001Y-73163599D02*
X40984001Y-82383799D01*
X38684200Y-56451500D02*
X39110490Y-56025210D01*
X38684200Y-56883300D02*
X38684200Y-56451500D01*
X39110490Y-56025210D02*
X39110490Y-53312739D01*
X39110490Y-53312739D02*
X37728999Y-51931248D01*
X37728999Y-51931248D02*
X37728999Y-50657526D01*
X37728999Y-50657526D02*
X37728999Y-49697801D01*
X37728999Y-49697801D02*
X37769800Y-49657000D01*
X40182800Y-103174800D02*
X40182800Y-104186800D01*
X40182800Y-104186800D02*
X41986200Y-105990200D01*
X41973500Y-106002900D02*
X41973500Y-115036600D01*
X41986200Y-105990200D02*
X41973500Y-106002900D01*
X35548401Y-103999199D02*
X35548401Y-95413999D01*
X34766301Y-104781299D02*
X35548401Y-103999199D01*
X34766301Y-119907101D02*
X34766301Y-104781299D01*
X35166300Y-120307100D02*
X34766301Y-119907101D01*
X37630100Y-93332300D02*
X35548401Y-95413999D01*
X36273401Y-121714599D02*
X36233100Y-121754900D01*
X36273401Y-120131501D02*
X36273401Y-121714599D01*
X35216311Y-119074411D02*
X36273401Y-120131501D01*
X35216311Y-104967699D02*
X35216311Y-119074411D01*
X36273401Y-103910609D02*
X35216311Y-104967699D01*
X36273401Y-99656900D02*
X36273401Y-103910609D01*
D19*
G36*
X42064152Y-82354765D02*
G01*
X42284715Y-82575328D01*
X42544068Y-82748623D01*
X42832247Y-82867990D01*
X43138176Y-82928843D01*
X43450098Y-82928843D01*
X43708301Y-82877483D01*
X43708301Y-129884300D01*
X34190400Y-129884300D01*
X34190400Y-123241327D01*
X37943700Y-123241327D01*
X37943700Y-123440673D01*
X37982590Y-123636190D01*
X38058877Y-123820362D01*
X38169628Y-123986113D01*
X38310587Y-124127072D01*
X38476338Y-124237823D01*
X38660510Y-124314110D01*
X38856027Y-124353000D01*
X39055373Y-124353000D01*
X39250890Y-124314110D01*
X39435062Y-124237823D01*
X39600813Y-124127072D01*
X39741772Y-123986113D01*
X39852523Y-123820362D01*
X39928810Y-123636190D01*
X39967700Y-123440673D01*
X39967700Y-123241327D01*
X39928810Y-123045810D01*
X39852523Y-122861638D01*
X39741772Y-122695887D01*
X39600813Y-122554928D01*
X39435062Y-122444177D01*
X39250890Y-122367890D01*
X39055373Y-122329000D01*
X38856027Y-122329000D01*
X38660510Y-122367890D01*
X38476338Y-122444177D01*
X38310587Y-122554928D01*
X38169628Y-122695887D01*
X38058877Y-122861638D01*
X37982590Y-123045810D01*
X37943700Y-123241327D01*
X34190400Y-123241327D01*
X34190400Y-101330385D01*
X34198379Y-101370498D01*
X34247378Y-101488790D01*
X34318512Y-101595251D01*
X34409049Y-101685788D01*
X34515510Y-101756922D01*
X34633802Y-101805921D01*
X34759381Y-101830900D01*
X34887419Y-101830900D01*
X35012998Y-101805921D01*
X35131290Y-101756922D01*
X35173401Y-101728785D01*
X35173401Y-103843869D01*
X34514163Y-104503108D01*
X34499854Y-104514851D01*
X34488112Y-104529159D01*
X34452992Y-104571953D01*
X34418171Y-104637099D01*
X34398711Y-104701251D01*
X34396728Y-104707787D01*
X34389487Y-104781299D01*
X34391302Y-104799725D01*
X34391301Y-119888685D01*
X34389487Y-119907101D01*
X34391301Y-119925517D01*
X34391301Y-119925519D01*
X34396727Y-119980613D01*
X34418170Y-120051300D01*
X34452992Y-120116447D01*
X34499853Y-120173549D01*
X34514167Y-120185296D01*
X34525533Y-120196662D01*
X34516300Y-120243081D01*
X34516300Y-120371119D01*
X34541279Y-120496698D01*
X34590278Y-120614990D01*
X34661412Y-120721451D01*
X34751949Y-120811988D01*
X34858410Y-120883122D01*
X34976702Y-120932121D01*
X35102281Y-120957100D01*
X35230319Y-120957100D01*
X35355898Y-120932121D01*
X35474190Y-120883122D01*
X35580651Y-120811988D01*
X35671188Y-120721451D01*
X35742322Y-120614990D01*
X35791321Y-120496698D01*
X35816300Y-120371119D01*
X35816300Y-120243081D01*
X35806777Y-120195207D01*
X35898401Y-120286831D01*
X35898402Y-121196791D01*
X35818749Y-121250012D01*
X35728212Y-121340549D01*
X35657078Y-121447010D01*
X35608079Y-121565302D01*
X35583100Y-121690881D01*
X35583100Y-121818919D01*
X35608079Y-121944498D01*
X35657078Y-122062790D01*
X35728212Y-122169251D01*
X35818749Y-122259788D01*
X35925210Y-122330922D01*
X36043502Y-122379921D01*
X36169081Y-122404900D01*
X36297119Y-122404900D01*
X36422698Y-122379921D01*
X36540990Y-122330922D01*
X36647451Y-122259788D01*
X36737988Y-122169251D01*
X36809122Y-122062790D01*
X36858121Y-121944498D01*
X36883100Y-121818919D01*
X36883100Y-121690881D01*
X36858121Y-121565302D01*
X36809122Y-121447010D01*
X36737988Y-121340549D01*
X36648401Y-121250962D01*
X36648401Y-120149916D01*
X36650215Y-120131500D01*
X36646891Y-120097753D01*
X36642975Y-120057988D01*
X36621532Y-119987301D01*
X36586710Y-119922154D01*
X36542689Y-119868513D01*
X37740500Y-119868513D01*
X37740500Y-120107887D01*
X37787199Y-120342661D01*
X37878804Y-120563813D01*
X38011792Y-120762845D01*
X38181055Y-120932108D01*
X38380087Y-121065096D01*
X38601239Y-121156701D01*
X38836013Y-121203400D01*
X39075387Y-121203400D01*
X39310161Y-121156701D01*
X39531313Y-121065096D01*
X39730345Y-120932108D01*
X39899608Y-120762845D01*
X40032596Y-120563813D01*
X40124201Y-120342661D01*
X40170900Y-120107887D01*
X40170900Y-119868513D01*
X40124201Y-119633739D01*
X40032596Y-119412587D01*
X39899608Y-119213555D01*
X39730345Y-119044292D01*
X39531313Y-118911304D01*
X39310161Y-118819699D01*
X39262415Y-118810202D01*
X39468553Y-118742880D01*
X39641665Y-118650349D01*
X39747566Y-118475960D01*
X38955700Y-117684094D01*
X38163834Y-118475960D01*
X38269735Y-118650349D01*
X38492667Y-118763516D01*
X38654939Y-118809017D01*
X38601239Y-118819699D01*
X38380087Y-118911304D01*
X38181055Y-119044292D01*
X38011792Y-119213555D01*
X37878804Y-119412587D01*
X37787199Y-119633739D01*
X37740500Y-119868513D01*
X36542689Y-119868513D01*
X36539849Y-119865053D01*
X36525541Y-119853311D01*
X35591311Y-118919082D01*
X35591311Y-117602162D01*
X37680644Y-117602162D01*
X37710404Y-117850395D01*
X37788020Y-118088053D01*
X37880551Y-118261165D01*
X38054940Y-118367066D01*
X38846806Y-117575200D01*
X39064594Y-117575200D01*
X39856460Y-118367066D01*
X40030849Y-118261165D01*
X40144016Y-118038233D01*
X40211516Y-117797507D01*
X40230756Y-117548238D01*
X40200996Y-117300005D01*
X40123380Y-117062347D01*
X40030849Y-116889235D01*
X39856460Y-116783334D01*
X39064594Y-117575200D01*
X38846806Y-117575200D01*
X38054940Y-116783334D01*
X37880551Y-116889235D01*
X37767384Y-117112167D01*
X37699884Y-117352893D01*
X37680644Y-117602162D01*
X35591311Y-117602162D01*
X35591311Y-115042513D01*
X37740500Y-115042513D01*
X37740500Y-115281887D01*
X37787199Y-115516661D01*
X37878804Y-115737813D01*
X38011792Y-115936845D01*
X38181055Y-116106108D01*
X38380087Y-116239096D01*
X38601239Y-116330701D01*
X38648985Y-116340198D01*
X38442847Y-116407520D01*
X38269735Y-116500051D01*
X38163834Y-116674440D01*
X38955700Y-117466306D01*
X39747566Y-116674440D01*
X39641665Y-116500051D01*
X39418733Y-116386884D01*
X39256461Y-116341383D01*
X39310161Y-116330701D01*
X39531313Y-116239096D01*
X39730345Y-116106108D01*
X39899608Y-115936845D01*
X40032596Y-115737813D01*
X40124201Y-115516661D01*
X40170900Y-115281887D01*
X40170900Y-115042513D01*
X40124201Y-114807739D01*
X40032596Y-114586587D01*
X39899608Y-114387555D01*
X39730345Y-114218292D01*
X39531313Y-114085304D01*
X39310161Y-113993699D01*
X39075387Y-113947000D01*
X38836013Y-113947000D01*
X38601239Y-113993699D01*
X38380087Y-114085304D01*
X38181055Y-114218292D01*
X38011792Y-114387555D01*
X37878804Y-114586587D01*
X37787199Y-114807739D01*
X37740500Y-115042513D01*
X35591311Y-115042513D01*
X35591311Y-111709727D01*
X37943700Y-111709727D01*
X37943700Y-111909073D01*
X37982590Y-112104590D01*
X38058877Y-112288762D01*
X38169628Y-112454513D01*
X38310587Y-112595472D01*
X38476338Y-112706223D01*
X38660510Y-112782510D01*
X38856027Y-112821400D01*
X39055373Y-112821400D01*
X39250890Y-112782510D01*
X39435062Y-112706223D01*
X39600813Y-112595472D01*
X39741772Y-112454513D01*
X39852523Y-112288762D01*
X39928810Y-112104590D01*
X39967700Y-111909073D01*
X39967700Y-111709727D01*
X39928810Y-111514210D01*
X39852523Y-111330038D01*
X39741772Y-111164287D01*
X39600813Y-111023328D01*
X39435062Y-110912577D01*
X39250890Y-110836290D01*
X39055373Y-110797400D01*
X38856027Y-110797400D01*
X38660510Y-110836290D01*
X38476338Y-110912577D01*
X38310587Y-111023328D01*
X38169628Y-111164287D01*
X38058877Y-111330038D01*
X37982590Y-111514210D01*
X37943700Y-111709727D01*
X35591311Y-111709727D01*
X35591311Y-105123028D01*
X36525540Y-104188800D01*
X36539849Y-104177057D01*
X36586710Y-104119956D01*
X36621532Y-104054809D01*
X36642975Y-103984122D01*
X36648401Y-103929028D01*
X36648401Y-103929026D01*
X36650215Y-103910610D01*
X36648401Y-103892194D01*
X36648401Y-103744309D01*
X36656990Y-103787490D01*
X36733277Y-103971662D01*
X36844028Y-104137413D01*
X36984987Y-104278372D01*
X37150738Y-104389123D01*
X37334910Y-104465410D01*
X37530427Y-104504300D01*
X37729773Y-104504300D01*
X37925290Y-104465410D01*
X38109462Y-104389123D01*
X38275213Y-104278372D01*
X38416172Y-104137413D01*
X38526923Y-103971662D01*
X38580700Y-103841833D01*
X38580700Y-104674486D01*
X38578886Y-104692902D01*
X38580700Y-104711318D01*
X38580700Y-104711320D01*
X38586126Y-104766414D01*
X38607569Y-104837101D01*
X38642391Y-104902248D01*
X38689252Y-104959350D01*
X38703566Y-104971097D01*
X39130664Y-105398195D01*
X39075387Y-105387200D01*
X38836013Y-105387200D01*
X38601239Y-105433899D01*
X38380087Y-105525504D01*
X38181055Y-105658492D01*
X38011792Y-105827755D01*
X37878804Y-106026787D01*
X37787199Y-106247939D01*
X37740500Y-106482713D01*
X37740500Y-106722087D01*
X37787199Y-106956861D01*
X37878804Y-107178013D01*
X38011792Y-107377045D01*
X38181055Y-107546308D01*
X38380087Y-107679296D01*
X38601239Y-107770901D01*
X38836013Y-107817600D01*
X39075387Y-107817600D01*
X39310161Y-107770901D01*
X39531313Y-107679296D01*
X39730345Y-107546308D01*
X39899608Y-107377045D01*
X40032596Y-107178013D01*
X40124201Y-106956861D01*
X40170900Y-106722087D01*
X40170900Y-106482713D01*
X40159905Y-106427437D01*
X40785701Y-107053233D01*
X40785700Y-126187670D01*
X39510774Y-127462596D01*
X39310161Y-127379499D01*
X39075387Y-127332800D01*
X38836013Y-127332800D01*
X38601239Y-127379499D01*
X38380087Y-127471104D01*
X38181055Y-127604092D01*
X38011792Y-127773355D01*
X37878804Y-127972387D01*
X37787199Y-128193539D01*
X37740500Y-128428313D01*
X37740500Y-128667687D01*
X37787199Y-128902461D01*
X37878804Y-129123613D01*
X38011792Y-129322645D01*
X38181055Y-129491908D01*
X38380087Y-129624896D01*
X38601239Y-129716501D01*
X38836013Y-129763200D01*
X39075387Y-129763200D01*
X39310161Y-129716501D01*
X39531313Y-129624896D01*
X39730345Y-129491908D01*
X39899608Y-129322645D01*
X40032596Y-129123613D01*
X40124201Y-128902461D01*
X40170900Y-128667687D01*
X40170900Y-128428313D01*
X40124201Y-128193539D01*
X40041104Y-127992926D01*
X41412840Y-126621190D01*
X41427148Y-126609448D01*
X41474009Y-126552347D01*
X41508831Y-126487200D01*
X41530274Y-126416513D01*
X41535700Y-126361419D01*
X41535700Y-126361416D01*
X41537514Y-126343000D01*
X41535700Y-126324584D01*
X41535700Y-115518039D01*
X41559149Y-115541488D01*
X41665610Y-115612622D01*
X41783902Y-115661621D01*
X41909481Y-115686600D01*
X42037519Y-115686600D01*
X42163098Y-115661621D01*
X42281390Y-115612622D01*
X42387851Y-115541488D01*
X42478388Y-115450951D01*
X42549522Y-115344490D01*
X42598521Y-115226198D01*
X42623500Y-115100619D01*
X42623500Y-114972581D01*
X42598521Y-114847002D01*
X42549522Y-114728710D01*
X42478388Y-114622249D01*
X42387851Y-114531712D01*
X42348500Y-114505419D01*
X42348500Y-106087688D01*
X42355773Y-106063712D01*
X42363014Y-105990200D01*
X42355773Y-105916687D01*
X42334330Y-105845999D01*
X42299510Y-105780853D01*
X42274813Y-105750760D01*
X42252648Y-105723752D01*
X42238338Y-105712008D01*
X41016328Y-104489999D01*
X41028234Y-104486387D01*
X41071664Y-104463173D01*
X41109732Y-104431932D01*
X41140973Y-104393864D01*
X41164187Y-104350434D01*
X41178482Y-104303308D01*
X41183309Y-104254300D01*
X41183309Y-102730300D01*
X41178482Y-102681292D01*
X41164187Y-102634166D01*
X41140973Y-102590736D01*
X41109732Y-102552668D01*
X41071664Y-102521427D01*
X41028234Y-102498213D01*
X40981108Y-102483918D01*
X40932100Y-102479091D01*
X39408100Y-102479091D01*
X39359092Y-102483918D01*
X39330700Y-102492530D01*
X39330700Y-101708321D01*
X39522974Y-101708321D01*
X39604412Y-101861903D01*
X39792737Y-101954785D01*
X39995563Y-102009143D01*
X40205096Y-102022887D01*
X40413285Y-101995488D01*
X40612127Y-101928001D01*
X40735788Y-101861903D01*
X40817226Y-101708321D01*
X40170100Y-101061194D01*
X39522974Y-101708321D01*
X39330700Y-101708321D01*
X39330700Y-101555214D01*
X39414079Y-101599426D01*
X40061206Y-100952300D01*
X40278994Y-100952300D01*
X40926121Y-101599426D01*
X41079703Y-101517988D01*
X41172585Y-101329663D01*
X41226943Y-101126837D01*
X41240687Y-100917304D01*
X41213288Y-100709115D01*
X41145801Y-100510273D01*
X41079703Y-100386612D01*
X40926121Y-100305174D01*
X40278994Y-100952300D01*
X40061206Y-100952300D01*
X39414079Y-100305174D01*
X39330700Y-100349386D01*
X39330700Y-100196279D01*
X39522974Y-100196279D01*
X40170100Y-100843406D01*
X40817226Y-100196279D01*
X40735788Y-100042697D01*
X40547463Y-99949815D01*
X40344637Y-99895457D01*
X40135104Y-99881713D01*
X39926915Y-99909112D01*
X39728073Y-99976599D01*
X39604412Y-100042697D01*
X39522974Y-100196279D01*
X39330700Y-100196279D01*
X39330700Y-99168321D01*
X39522974Y-99168321D01*
X39604412Y-99321903D01*
X39792737Y-99414785D01*
X39995563Y-99469143D01*
X40205096Y-99482887D01*
X40413285Y-99455488D01*
X40612127Y-99388001D01*
X40735788Y-99321903D01*
X40817226Y-99168321D01*
X40170100Y-98521194D01*
X39522974Y-99168321D01*
X39330700Y-99168321D01*
X39330700Y-99015214D01*
X39414079Y-99059426D01*
X40061206Y-98412300D01*
X40278994Y-98412300D01*
X40926121Y-99059426D01*
X41079703Y-98977988D01*
X41172585Y-98789663D01*
X41226943Y-98586837D01*
X41240687Y-98377304D01*
X41213288Y-98169115D01*
X41145801Y-97970273D01*
X41079703Y-97846612D01*
X40926121Y-97765174D01*
X40278994Y-98412300D01*
X40061206Y-98412300D01*
X39414079Y-97765174D01*
X39330700Y-97809386D01*
X39330700Y-97656279D01*
X39522974Y-97656279D01*
X40170100Y-98303406D01*
X40817226Y-97656279D01*
X40735788Y-97502697D01*
X40547463Y-97409815D01*
X40344637Y-97355457D01*
X40135104Y-97341713D01*
X39926915Y-97369112D01*
X39728073Y-97436599D01*
X39604412Y-97502697D01*
X39522974Y-97656279D01*
X39330700Y-97656279D01*
X39330700Y-96628321D01*
X39522974Y-96628321D01*
X39604412Y-96781903D01*
X39792737Y-96874785D01*
X39995563Y-96929143D01*
X40205096Y-96942887D01*
X40413285Y-96915488D01*
X40612127Y-96848001D01*
X40735788Y-96781903D01*
X40817226Y-96628321D01*
X40170100Y-95981194D01*
X39522974Y-96628321D01*
X39330700Y-96628321D01*
X39330700Y-96475214D01*
X39414079Y-96519426D01*
X40061206Y-95872300D01*
X40278994Y-95872300D01*
X40926121Y-96519426D01*
X41079703Y-96437988D01*
X41172585Y-96249663D01*
X41226943Y-96046837D01*
X41240687Y-95837304D01*
X41213288Y-95629115D01*
X41145801Y-95430273D01*
X41079703Y-95306612D01*
X40926121Y-95225174D01*
X40278994Y-95872300D01*
X40061206Y-95872300D01*
X39414079Y-95225174D01*
X39330700Y-95269386D01*
X39330700Y-95116279D01*
X39522974Y-95116279D01*
X40170100Y-95763406D01*
X40817226Y-95116279D01*
X40735788Y-94962697D01*
X40547463Y-94869815D01*
X40344637Y-94815457D01*
X40135104Y-94801713D01*
X39926915Y-94829112D01*
X39728073Y-94896599D01*
X39604412Y-94962697D01*
X39522974Y-95116279D01*
X39330700Y-95116279D01*
X39330700Y-93897602D01*
X39384028Y-93977413D01*
X39524987Y-94118372D01*
X39690738Y-94229123D01*
X39874910Y-94305410D01*
X40070427Y-94344300D01*
X40269773Y-94344300D01*
X40465290Y-94305410D01*
X40649462Y-94229123D01*
X40815213Y-94118372D01*
X40956172Y-93977413D01*
X41066923Y-93811662D01*
X41143210Y-93627490D01*
X41182100Y-93431973D01*
X41182100Y-93232627D01*
X41143210Y-93037110D01*
X41066923Y-92852938D01*
X40956172Y-92687187D01*
X40815213Y-92546228D01*
X40649462Y-92435477D01*
X40465290Y-92359190D01*
X40269773Y-92320300D01*
X40070427Y-92320300D01*
X39874910Y-92359190D01*
X39690738Y-92435477D01*
X39524987Y-92546228D01*
X39384028Y-92687187D01*
X39330700Y-92766998D01*
X39330700Y-91981609D01*
X41108200Y-91981609D01*
X41157208Y-91976782D01*
X41204334Y-91962487D01*
X41247764Y-91939273D01*
X41285832Y-91908032D01*
X41317073Y-91869964D01*
X41340287Y-91826534D01*
X41354582Y-91779408D01*
X41359409Y-91730400D01*
X41359409Y-89930400D01*
X41354582Y-89881392D01*
X41340287Y-89834266D01*
X41317073Y-89790836D01*
X41285832Y-89752768D01*
X41247764Y-89721527D01*
X41204334Y-89698313D01*
X41157208Y-89684018D01*
X41108200Y-89679191D01*
X40162538Y-89679191D01*
X40391477Y-89450253D01*
X40405786Y-89438510D01*
X40452647Y-89381409D01*
X40487469Y-89316262D01*
X40508912Y-89245575D01*
X40514338Y-89190481D01*
X40514338Y-89190478D01*
X40516152Y-89172062D01*
X40514338Y-89153646D01*
X40514338Y-89043492D01*
X40545353Y-89089909D01*
X40705771Y-89250327D01*
X40894402Y-89376367D01*
X41103998Y-89463184D01*
X41270223Y-89496248D01*
X41308437Y-89516674D01*
X41379124Y-89538117D01*
X41452637Y-89545357D01*
X41526149Y-89538117D01*
X41596836Y-89516674D01*
X41650104Y-89488201D01*
X41775876Y-89463184D01*
X41985472Y-89376367D01*
X42174103Y-89250327D01*
X42334521Y-89089909D01*
X42460561Y-88901278D01*
X42500201Y-88805579D01*
X42500200Y-100700519D01*
X42460849Y-100726812D01*
X42370312Y-100817349D01*
X42299178Y-100923810D01*
X42250179Y-101042102D01*
X42225200Y-101167681D01*
X42225200Y-101295719D01*
X42250179Y-101421298D01*
X42299178Y-101539590D01*
X42370312Y-101646051D01*
X42460849Y-101736588D01*
X42567310Y-101807722D01*
X42685602Y-101856721D01*
X42811181Y-101881700D01*
X42939219Y-101881700D01*
X43064798Y-101856721D01*
X43183090Y-101807722D01*
X43289551Y-101736588D01*
X43380088Y-101646051D01*
X43451222Y-101539590D01*
X43500221Y-101421298D01*
X43525200Y-101295719D01*
X43525200Y-101167681D01*
X43500221Y-101042102D01*
X43451222Y-100923810D01*
X43380088Y-100817349D01*
X43289551Y-100726812D01*
X43250200Y-100700519D01*
X43250200Y-84917916D01*
X43252014Y-84899500D01*
X43250200Y-84881081D01*
X43244774Y-84825987D01*
X43223331Y-84755300D01*
X43200107Y-84711851D01*
X43188510Y-84690153D01*
X43153389Y-84647359D01*
X43141648Y-84633052D01*
X43127339Y-84621309D01*
X42436467Y-83930438D01*
X42445700Y-83884019D01*
X42445700Y-83755981D01*
X42420721Y-83630402D01*
X42371722Y-83512110D01*
X42300588Y-83405649D01*
X42210051Y-83315112D01*
X42103590Y-83243978D01*
X41985298Y-83194979D01*
X41859719Y-83170000D01*
X41801132Y-83170000D01*
X41896541Y-83074591D01*
X41910849Y-83062849D01*
X41957710Y-83005748D01*
X41992532Y-82940601D01*
X42013975Y-82869914D01*
X42019401Y-82814820D01*
X42019401Y-82814818D01*
X42021215Y-82796402D01*
X42019401Y-82777986D01*
X42019401Y-82287791D01*
X42064152Y-82354765D01*
X42064152Y-82354765D01*
G37*
X42064152Y-82354765D02*
X42284715Y-82575328D01*
X42544068Y-82748623D01*
X42832247Y-82867990D01*
X43138176Y-82928843D01*
X43450098Y-82928843D01*
X43708301Y-82877483D01*
X43708301Y-129884300D01*
X34190400Y-129884300D01*
X34190400Y-123241327D01*
X37943700Y-123241327D01*
X37943700Y-123440673D01*
X37982590Y-123636190D01*
X38058877Y-123820362D01*
X38169628Y-123986113D01*
X38310587Y-124127072D01*
X38476338Y-124237823D01*
X38660510Y-124314110D01*
X38856027Y-124353000D01*
X39055373Y-124353000D01*
X39250890Y-124314110D01*
X39435062Y-124237823D01*
X39600813Y-124127072D01*
X39741772Y-123986113D01*
X39852523Y-123820362D01*
X39928810Y-123636190D01*
X39967700Y-123440673D01*
X39967700Y-123241327D01*
X39928810Y-123045810D01*
X39852523Y-122861638D01*
X39741772Y-122695887D01*
X39600813Y-122554928D01*
X39435062Y-122444177D01*
X39250890Y-122367890D01*
X39055373Y-122329000D01*
X38856027Y-122329000D01*
X38660510Y-122367890D01*
X38476338Y-122444177D01*
X38310587Y-122554928D01*
X38169628Y-122695887D01*
X38058877Y-122861638D01*
X37982590Y-123045810D01*
X37943700Y-123241327D01*
X34190400Y-123241327D01*
X34190400Y-101330385D01*
X34198379Y-101370498D01*
X34247378Y-101488790D01*
X34318512Y-101595251D01*
X34409049Y-101685788D01*
X34515510Y-101756922D01*
X34633802Y-101805921D01*
X34759381Y-101830900D01*
X34887419Y-101830900D01*
X35012998Y-101805921D01*
X35131290Y-101756922D01*
X35173401Y-101728785D01*
X35173401Y-103843869D01*
X34514163Y-104503108D01*
X34499854Y-104514851D01*
X34488112Y-104529159D01*
X34452992Y-104571953D01*
X34418171Y-104637099D01*
X34398711Y-104701251D01*
X34396728Y-104707787D01*
X34389487Y-104781299D01*
X34391302Y-104799725D01*
X34391301Y-119888685D01*
X34389487Y-119907101D01*
X34391301Y-119925517D01*
X34391301Y-119925519D01*
X34396727Y-119980613D01*
X34418170Y-120051300D01*
X34452992Y-120116447D01*
X34499853Y-120173549D01*
X34514167Y-120185296D01*
X34525533Y-120196662D01*
X34516300Y-120243081D01*
X34516300Y-120371119D01*
X34541279Y-120496698D01*
X34590278Y-120614990D01*
X34661412Y-120721451D01*
X34751949Y-120811988D01*
X34858410Y-120883122D01*
X34976702Y-120932121D01*
X35102281Y-120957100D01*
X35230319Y-120957100D01*
X35355898Y-120932121D01*
X35474190Y-120883122D01*
X35580651Y-120811988D01*
X35671188Y-120721451D01*
X35742322Y-120614990D01*
X35791321Y-120496698D01*
X35816300Y-120371119D01*
X35816300Y-120243081D01*
X35806777Y-120195207D01*
X35898401Y-120286831D01*
X35898402Y-121196791D01*
X35818749Y-121250012D01*
X35728212Y-121340549D01*
X35657078Y-121447010D01*
X35608079Y-121565302D01*
X35583100Y-121690881D01*
X35583100Y-121818919D01*
X35608079Y-121944498D01*
X35657078Y-122062790D01*
X35728212Y-122169251D01*
X35818749Y-122259788D01*
X35925210Y-122330922D01*
X36043502Y-122379921D01*
X36169081Y-122404900D01*
X36297119Y-122404900D01*
X36422698Y-122379921D01*
X36540990Y-122330922D01*
X36647451Y-122259788D01*
X36737988Y-122169251D01*
X36809122Y-122062790D01*
X36858121Y-121944498D01*
X36883100Y-121818919D01*
X36883100Y-121690881D01*
X36858121Y-121565302D01*
X36809122Y-121447010D01*
X36737988Y-121340549D01*
X36648401Y-121250962D01*
X36648401Y-120149916D01*
X36650215Y-120131500D01*
X36646891Y-120097753D01*
X36642975Y-120057988D01*
X36621532Y-119987301D01*
X36586710Y-119922154D01*
X36542689Y-119868513D01*
X37740500Y-119868513D01*
X37740500Y-120107887D01*
X37787199Y-120342661D01*
X37878804Y-120563813D01*
X38011792Y-120762845D01*
X38181055Y-120932108D01*
X38380087Y-121065096D01*
X38601239Y-121156701D01*
X38836013Y-121203400D01*
X39075387Y-121203400D01*
X39310161Y-121156701D01*
X39531313Y-121065096D01*
X39730345Y-120932108D01*
X39899608Y-120762845D01*
X40032596Y-120563813D01*
X40124201Y-120342661D01*
X40170900Y-120107887D01*
X40170900Y-119868513D01*
X40124201Y-119633739D01*
X40032596Y-119412587D01*
X39899608Y-119213555D01*
X39730345Y-119044292D01*
X39531313Y-118911304D01*
X39310161Y-118819699D01*
X39262415Y-118810202D01*
X39468553Y-118742880D01*
X39641665Y-118650349D01*
X39747566Y-118475960D01*
X38955700Y-117684094D01*
X38163834Y-118475960D01*
X38269735Y-118650349D01*
X38492667Y-118763516D01*
X38654939Y-118809017D01*
X38601239Y-118819699D01*
X38380087Y-118911304D01*
X38181055Y-119044292D01*
X38011792Y-119213555D01*
X37878804Y-119412587D01*
X37787199Y-119633739D01*
X37740500Y-119868513D01*
X36542689Y-119868513D01*
X36539849Y-119865053D01*
X36525541Y-119853311D01*
X35591311Y-118919082D01*
X35591311Y-117602162D01*
X37680644Y-117602162D01*
X37710404Y-117850395D01*
X37788020Y-118088053D01*
X37880551Y-118261165D01*
X38054940Y-118367066D01*
X38846806Y-117575200D01*
X39064594Y-117575200D01*
X39856460Y-118367066D01*
X40030849Y-118261165D01*
X40144016Y-118038233D01*
X40211516Y-117797507D01*
X40230756Y-117548238D01*
X40200996Y-117300005D01*
X40123380Y-117062347D01*
X40030849Y-116889235D01*
X39856460Y-116783334D01*
X39064594Y-117575200D01*
X38846806Y-117575200D01*
X38054940Y-116783334D01*
X37880551Y-116889235D01*
X37767384Y-117112167D01*
X37699884Y-117352893D01*
X37680644Y-117602162D01*
X35591311Y-117602162D01*
X35591311Y-115042513D01*
X37740500Y-115042513D01*
X37740500Y-115281887D01*
X37787199Y-115516661D01*
X37878804Y-115737813D01*
X38011792Y-115936845D01*
X38181055Y-116106108D01*
X38380087Y-116239096D01*
X38601239Y-116330701D01*
X38648985Y-116340198D01*
X38442847Y-116407520D01*
X38269735Y-116500051D01*
X38163834Y-116674440D01*
X38955700Y-117466306D01*
X39747566Y-116674440D01*
X39641665Y-116500051D01*
X39418733Y-116386884D01*
X39256461Y-116341383D01*
X39310161Y-116330701D01*
X39531313Y-116239096D01*
X39730345Y-116106108D01*
X39899608Y-115936845D01*
X40032596Y-115737813D01*
X40124201Y-115516661D01*
X40170900Y-115281887D01*
X40170900Y-115042513D01*
X40124201Y-114807739D01*
X40032596Y-114586587D01*
X39899608Y-114387555D01*
X39730345Y-114218292D01*
X39531313Y-114085304D01*
X39310161Y-113993699D01*
X39075387Y-113947000D01*
X38836013Y-113947000D01*
X38601239Y-113993699D01*
X38380087Y-114085304D01*
X38181055Y-114218292D01*
X38011792Y-114387555D01*
X37878804Y-114586587D01*
X37787199Y-114807739D01*
X37740500Y-115042513D01*
X35591311Y-115042513D01*
X35591311Y-111709727D01*
X37943700Y-111709727D01*
X37943700Y-111909073D01*
X37982590Y-112104590D01*
X38058877Y-112288762D01*
X38169628Y-112454513D01*
X38310587Y-112595472D01*
X38476338Y-112706223D01*
X38660510Y-112782510D01*
X38856027Y-112821400D01*
X39055373Y-112821400D01*
X39250890Y-112782510D01*
X39435062Y-112706223D01*
X39600813Y-112595472D01*
X39741772Y-112454513D01*
X39852523Y-112288762D01*
X39928810Y-112104590D01*
X39967700Y-111909073D01*
X39967700Y-111709727D01*
X39928810Y-111514210D01*
X39852523Y-111330038D01*
X39741772Y-111164287D01*
X39600813Y-111023328D01*
X39435062Y-110912577D01*
X39250890Y-110836290D01*
X39055373Y-110797400D01*
X38856027Y-110797400D01*
X38660510Y-110836290D01*
X38476338Y-110912577D01*
X38310587Y-111023328D01*
X38169628Y-111164287D01*
X38058877Y-111330038D01*
X37982590Y-111514210D01*
X37943700Y-111709727D01*
X35591311Y-111709727D01*
X35591311Y-105123028D01*
X36525540Y-104188800D01*
X36539849Y-104177057D01*
X36586710Y-104119956D01*
X36621532Y-104054809D01*
X36642975Y-103984122D01*
X36648401Y-103929028D01*
X36648401Y-103929026D01*
X36650215Y-103910610D01*
X36648401Y-103892194D01*
X36648401Y-103744309D01*
X36656990Y-103787490D01*
X36733277Y-103971662D01*
X36844028Y-104137413D01*
X36984987Y-104278372D01*
X37150738Y-104389123D01*
X37334910Y-104465410D01*
X37530427Y-104504300D01*
X37729773Y-104504300D01*
X37925290Y-104465410D01*
X38109462Y-104389123D01*
X38275213Y-104278372D01*
X38416172Y-104137413D01*
X38526923Y-103971662D01*
X38580700Y-103841833D01*
X38580700Y-104674486D01*
X38578886Y-104692902D01*
X38580700Y-104711318D01*
X38580700Y-104711320D01*
X38586126Y-104766414D01*
X38607569Y-104837101D01*
X38642391Y-104902248D01*
X38689252Y-104959350D01*
X38703566Y-104971097D01*
X39130664Y-105398195D01*
X39075387Y-105387200D01*
X38836013Y-105387200D01*
X38601239Y-105433899D01*
X38380087Y-105525504D01*
X38181055Y-105658492D01*
X38011792Y-105827755D01*
X37878804Y-106026787D01*
X37787199Y-106247939D01*
X37740500Y-106482713D01*
X37740500Y-106722087D01*
X37787199Y-106956861D01*
X37878804Y-107178013D01*
X38011792Y-107377045D01*
X38181055Y-107546308D01*
X38380087Y-107679296D01*
X38601239Y-107770901D01*
X38836013Y-107817600D01*
X39075387Y-107817600D01*
X39310161Y-107770901D01*
X39531313Y-107679296D01*
X39730345Y-107546308D01*
X39899608Y-107377045D01*
X40032596Y-107178013D01*
X40124201Y-106956861D01*
X40170900Y-106722087D01*
X40170900Y-106482713D01*
X40159905Y-106427437D01*
X40785701Y-107053233D01*
X40785700Y-126187670D01*
X39510774Y-127462596D01*
X39310161Y-127379499D01*
X39075387Y-127332800D01*
X38836013Y-127332800D01*
X38601239Y-127379499D01*
X38380087Y-127471104D01*
X38181055Y-127604092D01*
X38011792Y-127773355D01*
X37878804Y-127972387D01*
X37787199Y-128193539D01*
X37740500Y-128428313D01*
X37740500Y-128667687D01*
X37787199Y-128902461D01*
X37878804Y-129123613D01*
X38011792Y-129322645D01*
X38181055Y-129491908D01*
X38380087Y-129624896D01*
X38601239Y-129716501D01*
X38836013Y-129763200D01*
X39075387Y-129763200D01*
X39310161Y-129716501D01*
X39531313Y-129624896D01*
X39730345Y-129491908D01*
X39899608Y-129322645D01*
X40032596Y-129123613D01*
X40124201Y-128902461D01*
X40170900Y-128667687D01*
X40170900Y-128428313D01*
X40124201Y-128193539D01*
X40041104Y-127992926D01*
X41412840Y-126621190D01*
X41427148Y-126609448D01*
X41474009Y-126552347D01*
X41508831Y-126487200D01*
X41530274Y-126416513D01*
X41535700Y-126361419D01*
X41535700Y-126361416D01*
X41537514Y-126343000D01*
X41535700Y-126324584D01*
X41535700Y-115518039D01*
X41559149Y-115541488D01*
X41665610Y-115612622D01*
X41783902Y-115661621D01*
X41909481Y-115686600D01*
X42037519Y-115686600D01*
X42163098Y-115661621D01*
X42281390Y-115612622D01*
X42387851Y-115541488D01*
X42478388Y-115450951D01*
X42549522Y-115344490D01*
X42598521Y-115226198D01*
X42623500Y-115100619D01*
X42623500Y-114972581D01*
X42598521Y-114847002D01*
X42549522Y-114728710D01*
X42478388Y-114622249D01*
X42387851Y-114531712D01*
X42348500Y-114505419D01*
X42348500Y-106087688D01*
X42355773Y-106063712D01*
X42363014Y-105990200D01*
X42355773Y-105916687D01*
X42334330Y-105845999D01*
X42299510Y-105780853D01*
X42274813Y-105750760D01*
X42252648Y-105723752D01*
X42238338Y-105712008D01*
X41016328Y-104489999D01*
X41028234Y-104486387D01*
X41071664Y-104463173D01*
X41109732Y-104431932D01*
X41140973Y-104393864D01*
X41164187Y-104350434D01*
X41178482Y-104303308D01*
X41183309Y-104254300D01*
X41183309Y-102730300D01*
X41178482Y-102681292D01*
X41164187Y-102634166D01*
X41140973Y-102590736D01*
X41109732Y-102552668D01*
X41071664Y-102521427D01*
X41028234Y-102498213D01*
X40981108Y-102483918D01*
X40932100Y-102479091D01*
X39408100Y-102479091D01*
X39359092Y-102483918D01*
X39330700Y-102492530D01*
X39330700Y-101708321D01*
X39522974Y-101708321D01*
X39604412Y-101861903D01*
X39792737Y-101954785D01*
X39995563Y-102009143D01*
X40205096Y-102022887D01*
X40413285Y-101995488D01*
X40612127Y-101928001D01*
X40735788Y-101861903D01*
X40817226Y-101708321D01*
X40170100Y-101061194D01*
X39522974Y-101708321D01*
X39330700Y-101708321D01*
X39330700Y-101555214D01*
X39414079Y-101599426D01*
X40061206Y-100952300D01*
X40278994Y-100952300D01*
X40926121Y-101599426D01*
X41079703Y-101517988D01*
X41172585Y-101329663D01*
X41226943Y-101126837D01*
X41240687Y-100917304D01*
X41213288Y-100709115D01*
X41145801Y-100510273D01*
X41079703Y-100386612D01*
X40926121Y-100305174D01*
X40278994Y-100952300D01*
X40061206Y-100952300D01*
X39414079Y-100305174D01*
X39330700Y-100349386D01*
X39330700Y-100196279D01*
X39522974Y-100196279D01*
X40170100Y-100843406D01*
X40817226Y-100196279D01*
X40735788Y-100042697D01*
X40547463Y-99949815D01*
X40344637Y-99895457D01*
X40135104Y-99881713D01*
X39926915Y-99909112D01*
X39728073Y-99976599D01*
X39604412Y-100042697D01*
X39522974Y-100196279D01*
X39330700Y-100196279D01*
X39330700Y-99168321D01*
X39522974Y-99168321D01*
X39604412Y-99321903D01*
X39792737Y-99414785D01*
X39995563Y-99469143D01*
X40205096Y-99482887D01*
X40413285Y-99455488D01*
X40612127Y-99388001D01*
X40735788Y-99321903D01*
X40817226Y-99168321D01*
X40170100Y-98521194D01*
X39522974Y-99168321D01*
X39330700Y-99168321D01*
X39330700Y-99015214D01*
X39414079Y-99059426D01*
X40061206Y-98412300D01*
X40278994Y-98412300D01*
X40926121Y-99059426D01*
X41079703Y-98977988D01*
X41172585Y-98789663D01*
X41226943Y-98586837D01*
X41240687Y-98377304D01*
X41213288Y-98169115D01*
X41145801Y-97970273D01*
X41079703Y-97846612D01*
X40926121Y-97765174D01*
X40278994Y-98412300D01*
X40061206Y-98412300D01*
X39414079Y-97765174D01*
X39330700Y-97809386D01*
X39330700Y-97656279D01*
X39522974Y-97656279D01*
X40170100Y-98303406D01*
X40817226Y-97656279D01*
X40735788Y-97502697D01*
X40547463Y-97409815D01*
X40344637Y-97355457D01*
X40135104Y-97341713D01*
X39926915Y-97369112D01*
X39728073Y-97436599D01*
X39604412Y-97502697D01*
X39522974Y-97656279D01*
X39330700Y-97656279D01*
X39330700Y-96628321D01*
X39522974Y-96628321D01*
X39604412Y-96781903D01*
X39792737Y-96874785D01*
X39995563Y-96929143D01*
X40205096Y-96942887D01*
X40413285Y-96915488D01*
X40612127Y-96848001D01*
X40735788Y-96781903D01*
X40817226Y-96628321D01*
X40170100Y-95981194D01*
X39522974Y-96628321D01*
X39330700Y-96628321D01*
X39330700Y-96475214D01*
X39414079Y-96519426D01*
X40061206Y-95872300D01*
X40278994Y-95872300D01*
X40926121Y-96519426D01*
X41079703Y-96437988D01*
X41172585Y-96249663D01*
X41226943Y-96046837D01*
X41240687Y-95837304D01*
X41213288Y-95629115D01*
X41145801Y-95430273D01*
X41079703Y-95306612D01*
X40926121Y-95225174D01*
X40278994Y-95872300D01*
X40061206Y-95872300D01*
X39414079Y-95225174D01*
X39330700Y-95269386D01*
X39330700Y-95116279D01*
X39522974Y-95116279D01*
X40170100Y-95763406D01*
X40817226Y-95116279D01*
X40735788Y-94962697D01*
X40547463Y-94869815D01*
X40344637Y-94815457D01*
X40135104Y-94801713D01*
X39926915Y-94829112D01*
X39728073Y-94896599D01*
X39604412Y-94962697D01*
X39522974Y-95116279D01*
X39330700Y-95116279D01*
X39330700Y-93897602D01*
X39384028Y-93977413D01*
X39524987Y-94118372D01*
X39690738Y-94229123D01*
X39874910Y-94305410D01*
X40070427Y-94344300D01*
X40269773Y-94344300D01*
X40465290Y-94305410D01*
X40649462Y-94229123D01*
X40815213Y-94118372D01*
X40956172Y-93977413D01*
X41066923Y-93811662D01*
X41143210Y-93627490D01*
X41182100Y-93431973D01*
X41182100Y-93232627D01*
X41143210Y-93037110D01*
X41066923Y-92852938D01*
X40956172Y-92687187D01*
X40815213Y-92546228D01*
X40649462Y-92435477D01*
X40465290Y-92359190D01*
X40269773Y-92320300D01*
X40070427Y-92320300D01*
X39874910Y-92359190D01*
X39690738Y-92435477D01*
X39524987Y-92546228D01*
X39384028Y-92687187D01*
X39330700Y-92766998D01*
X39330700Y-91981609D01*
X41108200Y-91981609D01*
X41157208Y-91976782D01*
X41204334Y-91962487D01*
X41247764Y-91939273D01*
X41285832Y-91908032D01*
X41317073Y-91869964D01*
X41340287Y-91826534D01*
X41354582Y-91779408D01*
X41359409Y-91730400D01*
X41359409Y-89930400D01*
X41354582Y-89881392D01*
X41340287Y-89834266D01*
X41317073Y-89790836D01*
X41285832Y-89752768D01*
X41247764Y-89721527D01*
X41204334Y-89698313D01*
X41157208Y-89684018D01*
X41108200Y-89679191D01*
X40162538Y-89679191D01*
X40391477Y-89450253D01*
X40405786Y-89438510D01*
X40452647Y-89381409D01*
X40487469Y-89316262D01*
X40508912Y-89245575D01*
X40514338Y-89190481D01*
X40514338Y-89190478D01*
X40516152Y-89172062D01*
X40514338Y-89153646D01*
X40514338Y-89043492D01*
X40545353Y-89089909D01*
X40705771Y-89250327D01*
X40894402Y-89376367D01*
X41103998Y-89463184D01*
X41270223Y-89496248D01*
X41308437Y-89516674D01*
X41379124Y-89538117D01*
X41452637Y-89545357D01*
X41526149Y-89538117D01*
X41596836Y-89516674D01*
X41650104Y-89488201D01*
X41775876Y-89463184D01*
X41985472Y-89376367D01*
X42174103Y-89250327D01*
X42334521Y-89089909D01*
X42460561Y-88901278D01*
X42500201Y-88805579D01*
X42500200Y-100700519D01*
X42460849Y-100726812D01*
X42370312Y-100817349D01*
X42299178Y-100923810D01*
X42250179Y-101042102D01*
X42225200Y-101167681D01*
X42225200Y-101295719D01*
X42250179Y-101421298D01*
X42299178Y-101539590D01*
X42370312Y-101646051D01*
X42460849Y-101736588D01*
X42567310Y-101807722D01*
X42685602Y-101856721D01*
X42811181Y-101881700D01*
X42939219Y-101881700D01*
X43064798Y-101856721D01*
X43183090Y-101807722D01*
X43289551Y-101736588D01*
X43380088Y-101646051D01*
X43451222Y-101539590D01*
X43500221Y-101421298D01*
X43525200Y-101295719D01*
X43525200Y-101167681D01*
X43500221Y-101042102D01*
X43451222Y-100923810D01*
X43380088Y-100817349D01*
X43289551Y-100726812D01*
X43250200Y-100700519D01*
X43250200Y-84917916D01*
X43252014Y-84899500D01*
X43250200Y-84881081D01*
X43244774Y-84825987D01*
X43223331Y-84755300D01*
X43200107Y-84711851D01*
X43188510Y-84690153D01*
X43153389Y-84647359D01*
X43141648Y-84633052D01*
X43127339Y-84621309D01*
X42436467Y-83930438D01*
X42445700Y-83884019D01*
X42445700Y-83755981D01*
X42420721Y-83630402D01*
X42371722Y-83512110D01*
X42300588Y-83405649D01*
X42210051Y-83315112D01*
X42103590Y-83243978D01*
X41985298Y-83194979D01*
X41859719Y-83170000D01*
X41801132Y-83170000D01*
X41896541Y-83074591D01*
X41910849Y-83062849D01*
X41957710Y-83005748D01*
X41992532Y-82940601D01*
X42013975Y-82869914D01*
X42019401Y-82814820D01*
X42019401Y-82814818D01*
X42021215Y-82796402D01*
X42019401Y-82777986D01*
X42019401Y-82287791D01*
X42064152Y-82354765D01*
G36*
X38580701Y-95383313D02*
G01*
X38539703Y-95306612D01*
X38386121Y-95225174D01*
X37738994Y-95872300D01*
X38386121Y-96519426D01*
X38539703Y-96437988D01*
X38580701Y-96354862D01*
X38580701Y-97923313D01*
X38539703Y-97846612D01*
X38386121Y-97765174D01*
X37738994Y-98412300D01*
X38386121Y-99059426D01*
X38539703Y-98977988D01*
X38580700Y-98894863D01*
X38580700Y-100463313D01*
X38539703Y-100386612D01*
X38386121Y-100305174D01*
X37738994Y-100952300D01*
X38386121Y-101599426D01*
X38539703Y-101517988D01*
X38580700Y-101434863D01*
X38580700Y-103142767D01*
X38526923Y-103012938D01*
X38416172Y-102847187D01*
X38275213Y-102706228D01*
X38109462Y-102595477D01*
X37925290Y-102519190D01*
X37729773Y-102480300D01*
X37530427Y-102480300D01*
X37334910Y-102519190D01*
X37150738Y-102595477D01*
X36984987Y-102706228D01*
X36844028Y-102847187D01*
X36733277Y-103012938D01*
X36656990Y-103197110D01*
X36648401Y-103240291D01*
X36648401Y-101708321D01*
X36982974Y-101708321D01*
X37064412Y-101861903D01*
X37252737Y-101954785D01*
X37455563Y-102009143D01*
X37665096Y-102022887D01*
X37873285Y-101995488D01*
X38072127Y-101928001D01*
X38195788Y-101861903D01*
X38277226Y-101708321D01*
X37630100Y-101061194D01*
X36982974Y-101708321D01*
X36648401Y-101708321D01*
X36648401Y-101376655D01*
X36654399Y-101394327D01*
X36720497Y-101517988D01*
X36874079Y-101599426D01*
X37521206Y-100952300D01*
X36874079Y-100305174D01*
X36720497Y-100386612D01*
X36648401Y-100532792D01*
X36648401Y-100196279D01*
X36982974Y-100196279D01*
X37630100Y-100843406D01*
X38277226Y-100196279D01*
X38195788Y-100042697D01*
X38007463Y-99949815D01*
X37804637Y-99895457D01*
X37595104Y-99881713D01*
X37386915Y-99909112D01*
X37188073Y-99976599D01*
X37064412Y-100042697D01*
X36982974Y-100196279D01*
X36648401Y-100196279D01*
X36648401Y-100188081D01*
X36687752Y-100161788D01*
X36778289Y-100071251D01*
X36849423Y-99964790D01*
X36898422Y-99846498D01*
X36923401Y-99720919D01*
X36923401Y-99592881D01*
X36898422Y-99467302D01*
X36849423Y-99349010D01*
X36778289Y-99242549D01*
X36704061Y-99168321D01*
X36982974Y-99168321D01*
X37064412Y-99321903D01*
X37252737Y-99414785D01*
X37455563Y-99469143D01*
X37665096Y-99482887D01*
X37873285Y-99455488D01*
X38072127Y-99388001D01*
X38195788Y-99321903D01*
X38277226Y-99168321D01*
X37630100Y-98521194D01*
X36982974Y-99168321D01*
X36704061Y-99168321D01*
X36687752Y-99152012D01*
X36581291Y-99080878D01*
X36462999Y-99031879D01*
X36337420Y-99006900D01*
X36209382Y-99006900D01*
X36083803Y-99031879D01*
X35965511Y-99080878D01*
X35923401Y-99109015D01*
X35923401Y-98447296D01*
X36559513Y-98447296D01*
X36586912Y-98655485D01*
X36654399Y-98854327D01*
X36720497Y-98977988D01*
X36874079Y-99059426D01*
X37521206Y-98412300D01*
X36874079Y-97765174D01*
X36720497Y-97846612D01*
X36627615Y-98034937D01*
X36573257Y-98237763D01*
X36559513Y-98447296D01*
X35923401Y-98447296D01*
X35923401Y-97656279D01*
X36982974Y-97656279D01*
X37630100Y-98303406D01*
X38277226Y-97656279D01*
X38195788Y-97502697D01*
X38007463Y-97409815D01*
X37804637Y-97355457D01*
X37595104Y-97341713D01*
X37386915Y-97369112D01*
X37188073Y-97436599D01*
X37064412Y-97502697D01*
X36982974Y-97656279D01*
X35923401Y-97656279D01*
X35923401Y-96628321D01*
X36982974Y-96628321D01*
X37064412Y-96781903D01*
X37252737Y-96874785D01*
X37455563Y-96929143D01*
X37665096Y-96942887D01*
X37873285Y-96915488D01*
X38072127Y-96848001D01*
X38195788Y-96781903D01*
X38277226Y-96628321D01*
X37630100Y-95981194D01*
X36982974Y-96628321D01*
X35923401Y-96628321D01*
X35923401Y-95907296D01*
X36559513Y-95907296D01*
X36586912Y-96115485D01*
X36654399Y-96314327D01*
X36720497Y-96437988D01*
X36874079Y-96519426D01*
X37521206Y-95872300D01*
X36874079Y-95225174D01*
X36720497Y-95306612D01*
X36627615Y-95494937D01*
X36573257Y-95697763D01*
X36559513Y-95907296D01*
X35923401Y-95907296D01*
X35923401Y-95569328D01*
X36376450Y-95116279D01*
X36982974Y-95116279D01*
X37630100Y-95763406D01*
X38277226Y-95116279D01*
X38195788Y-94962697D01*
X38007463Y-94869815D01*
X37804637Y-94815457D01*
X37595104Y-94801713D01*
X37386915Y-94829112D01*
X37188073Y-94896599D01*
X37064412Y-94962697D01*
X36982974Y-95116279D01*
X36376450Y-95116279D01*
X37230548Y-94262182D01*
X37334910Y-94305410D01*
X37530427Y-94344300D01*
X37729773Y-94344300D01*
X37925290Y-94305410D01*
X38109462Y-94229123D01*
X38275213Y-94118372D01*
X38416172Y-93977413D01*
X38526923Y-93811662D01*
X38580701Y-93681832D01*
X38580701Y-95383313D01*
X38580701Y-95383313D01*
G37*
X38580701Y-95383313D02*
X38539703Y-95306612D01*
X38386121Y-95225174D01*
X37738994Y-95872300D01*
X38386121Y-96519426D01*
X38539703Y-96437988D01*
X38580701Y-96354862D01*
X38580701Y-97923313D01*
X38539703Y-97846612D01*
X38386121Y-97765174D01*
X37738994Y-98412300D01*
X38386121Y-99059426D01*
X38539703Y-98977988D01*
X38580700Y-98894863D01*
X38580700Y-100463313D01*
X38539703Y-100386612D01*
X38386121Y-100305174D01*
X37738994Y-100952300D01*
X38386121Y-101599426D01*
X38539703Y-101517988D01*
X38580700Y-101434863D01*
X38580700Y-103142767D01*
X38526923Y-103012938D01*
X38416172Y-102847187D01*
X38275213Y-102706228D01*
X38109462Y-102595477D01*
X37925290Y-102519190D01*
X37729773Y-102480300D01*
X37530427Y-102480300D01*
X37334910Y-102519190D01*
X37150738Y-102595477D01*
X36984987Y-102706228D01*
X36844028Y-102847187D01*
X36733277Y-103012938D01*
X36656990Y-103197110D01*
X36648401Y-103240291D01*
X36648401Y-101708321D01*
X36982974Y-101708321D01*
X37064412Y-101861903D01*
X37252737Y-101954785D01*
X37455563Y-102009143D01*
X37665096Y-102022887D01*
X37873285Y-101995488D01*
X38072127Y-101928001D01*
X38195788Y-101861903D01*
X38277226Y-101708321D01*
X37630100Y-101061194D01*
X36982974Y-101708321D01*
X36648401Y-101708321D01*
X36648401Y-101376655D01*
X36654399Y-101394327D01*
X36720497Y-101517988D01*
X36874079Y-101599426D01*
X37521206Y-100952300D01*
X36874079Y-100305174D01*
X36720497Y-100386612D01*
X36648401Y-100532792D01*
X36648401Y-100196279D01*
X36982974Y-100196279D01*
X37630100Y-100843406D01*
X38277226Y-100196279D01*
X38195788Y-100042697D01*
X38007463Y-99949815D01*
X37804637Y-99895457D01*
X37595104Y-99881713D01*
X37386915Y-99909112D01*
X37188073Y-99976599D01*
X37064412Y-100042697D01*
X36982974Y-100196279D01*
X36648401Y-100196279D01*
X36648401Y-100188081D01*
X36687752Y-100161788D01*
X36778289Y-100071251D01*
X36849423Y-99964790D01*
X36898422Y-99846498D01*
X36923401Y-99720919D01*
X36923401Y-99592881D01*
X36898422Y-99467302D01*
X36849423Y-99349010D01*
X36778289Y-99242549D01*
X36704061Y-99168321D01*
X36982974Y-99168321D01*
X37064412Y-99321903D01*
X37252737Y-99414785D01*
X37455563Y-99469143D01*
X37665096Y-99482887D01*
X37873285Y-99455488D01*
X38072127Y-99388001D01*
X38195788Y-99321903D01*
X38277226Y-99168321D01*
X37630100Y-98521194D01*
X36982974Y-99168321D01*
X36704061Y-99168321D01*
X36687752Y-99152012D01*
X36581291Y-99080878D01*
X36462999Y-99031879D01*
X36337420Y-99006900D01*
X36209382Y-99006900D01*
X36083803Y-99031879D01*
X35965511Y-99080878D01*
X35923401Y-99109015D01*
X35923401Y-98447296D01*
X36559513Y-98447296D01*
X36586912Y-98655485D01*
X36654399Y-98854327D01*
X36720497Y-98977988D01*
X36874079Y-99059426D01*
X37521206Y-98412300D01*
X36874079Y-97765174D01*
X36720497Y-97846612D01*
X36627615Y-98034937D01*
X36573257Y-98237763D01*
X36559513Y-98447296D01*
X35923401Y-98447296D01*
X35923401Y-97656279D01*
X36982974Y-97656279D01*
X37630100Y-98303406D01*
X38277226Y-97656279D01*
X38195788Y-97502697D01*
X38007463Y-97409815D01*
X37804637Y-97355457D01*
X37595104Y-97341713D01*
X37386915Y-97369112D01*
X37188073Y-97436599D01*
X37064412Y-97502697D01*
X36982974Y-97656279D01*
X35923401Y-97656279D01*
X35923401Y-96628321D01*
X36982974Y-96628321D01*
X37064412Y-96781903D01*
X37252737Y-96874785D01*
X37455563Y-96929143D01*
X37665096Y-96942887D01*
X37873285Y-96915488D01*
X38072127Y-96848001D01*
X38195788Y-96781903D01*
X38277226Y-96628321D01*
X37630100Y-95981194D01*
X36982974Y-96628321D01*
X35923401Y-96628321D01*
X35923401Y-95907296D01*
X36559513Y-95907296D01*
X36586912Y-96115485D01*
X36654399Y-96314327D01*
X36720497Y-96437988D01*
X36874079Y-96519426D01*
X37521206Y-95872300D01*
X36874079Y-95225174D01*
X36720497Y-95306612D01*
X36627615Y-95494937D01*
X36573257Y-95697763D01*
X36559513Y-95907296D01*
X35923401Y-95907296D01*
X35923401Y-95569328D01*
X36376450Y-95116279D01*
X36982974Y-95116279D01*
X37630100Y-95763406D01*
X38277226Y-95116279D01*
X38195788Y-94962697D01*
X38007463Y-94869815D01*
X37804637Y-94815457D01*
X37595104Y-94801713D01*
X37386915Y-94829112D01*
X37188073Y-94896599D01*
X37064412Y-94962697D01*
X36982974Y-95116279D01*
X36376450Y-95116279D01*
X37230548Y-94262182D01*
X37334910Y-94305410D01*
X37530427Y-94344300D01*
X37729773Y-94344300D01*
X37925290Y-94305410D01*
X38109462Y-94229123D01*
X38275213Y-94118372D01*
X38416172Y-93977413D01*
X38526923Y-93811662D01*
X38580701Y-93681832D01*
X38580701Y-95383313D01*
G36*
X42577333Y-49546563D02*
G01*
X42568100Y-49592981D01*
X42568100Y-49721019D01*
X42593079Y-49846598D01*
X42642078Y-49964890D01*
X42713212Y-50071351D01*
X42803749Y-50161888D01*
X42843100Y-50188181D01*
X42843101Y-60159399D01*
X41421602Y-61580899D01*
X41407288Y-61592646D01*
X41360427Y-61649748D01*
X41325605Y-61714895D01*
X41304162Y-61785582D01*
X41298736Y-61840675D01*
X41296922Y-61859094D01*
X41298736Y-61877510D01*
X41298737Y-63431155D01*
X41256153Y-63453916D01*
X41199052Y-63500778D01*
X41152190Y-63557879D01*
X41117370Y-63623025D01*
X41095927Y-63693714D01*
X41088686Y-63767225D01*
X41095927Y-63840737D01*
X41117370Y-63911426D01*
X41152191Y-63976572D01*
X41187312Y-64019366D01*
X41395551Y-64227605D01*
X41407289Y-64241908D01*
X41421592Y-64253646D01*
X41562347Y-64394401D01*
X41562352Y-64394405D01*
X42735100Y-65567155D01*
X42735099Y-71837266D01*
X42689222Y-71726510D01*
X42618088Y-71620049D01*
X42527551Y-71529512D01*
X42421090Y-71458378D01*
X42302798Y-71409379D01*
X42177219Y-71384400D01*
X42049181Y-71384400D01*
X41923602Y-71409379D01*
X41805310Y-71458378D01*
X41698849Y-71529512D01*
X41608312Y-71620049D01*
X41537178Y-71726510D01*
X41488179Y-71844802D01*
X41463200Y-71970381D01*
X41463200Y-72098419D01*
X41472433Y-72144837D01*
X40731867Y-72885404D01*
X40717553Y-72897151D01*
X40670692Y-72954253D01*
X40635870Y-73019400D01*
X40614427Y-73090087D01*
X40609001Y-73145180D01*
X40607187Y-73163599D01*
X40609001Y-73182015D01*
X40609002Y-80973416D01*
X40566890Y-80945278D01*
X40448598Y-80896279D01*
X40323019Y-80871300D01*
X40194981Y-80871300D01*
X40069402Y-80896279D01*
X39951110Y-80945278D01*
X39844649Y-81016412D01*
X39754112Y-81106949D01*
X39682978Y-81213410D01*
X39633979Y-81331702D01*
X39609000Y-81457281D01*
X39609000Y-81585319D01*
X39633979Y-81710898D01*
X39682978Y-81829190D01*
X39754112Y-81935651D01*
X39764338Y-81945877D01*
X39764339Y-87591395D01*
X39634103Y-87461159D01*
X39445472Y-87335119D01*
X39235876Y-87248302D01*
X39013370Y-87204043D01*
X38786504Y-87204043D01*
X38563998Y-87248302D01*
X38354402Y-87335119D01*
X38165771Y-87461159D01*
X38005353Y-87621577D01*
X37879313Y-87810208D01*
X37792496Y-88019804D01*
X37748237Y-88242310D01*
X37748237Y-88469176D01*
X37792496Y-88691682D01*
X37879313Y-88901278D01*
X38005353Y-89089909D01*
X38165771Y-89250327D01*
X38354402Y-89376367D01*
X38563998Y-89463184D01*
X38649287Y-89480149D01*
X38642391Y-89488552D01*
X38607569Y-89553699D01*
X38586126Y-89624386D01*
X38580700Y-89679479D01*
X38578886Y-89697898D01*
X38580700Y-89716314D01*
X38580700Y-90126109D01*
X38561463Y-90097318D01*
X38401282Y-89937137D01*
X38212929Y-89811284D01*
X38003643Y-89724594D01*
X37781465Y-89680400D01*
X37554935Y-89680400D01*
X37332757Y-89724594D01*
X37123471Y-89811284D01*
X36935118Y-89937137D01*
X36774937Y-90097318D01*
X36649084Y-90285671D01*
X36562394Y-90494957D01*
X36518200Y-90717135D01*
X36518200Y-90943665D01*
X36562394Y-91165843D01*
X36649084Y-91375129D01*
X36774937Y-91563482D01*
X36935118Y-91723663D01*
X37123471Y-91849516D01*
X37332757Y-91936206D01*
X37554935Y-91980400D01*
X37781465Y-91980400D01*
X38003643Y-91936206D01*
X38212929Y-91849516D01*
X38401282Y-91723663D01*
X38561463Y-91563482D01*
X38580701Y-91534690D01*
X38580701Y-92982768D01*
X38526923Y-92852938D01*
X38416172Y-92687187D01*
X38275213Y-92546228D01*
X38109462Y-92435477D01*
X37925290Y-92359190D01*
X37729773Y-92320300D01*
X37530427Y-92320300D01*
X37334910Y-92359190D01*
X37150738Y-92435477D01*
X36984987Y-92546228D01*
X36844028Y-92687187D01*
X36733277Y-92852938D01*
X36656990Y-93037110D01*
X36618100Y-93232627D01*
X36618100Y-93431973D01*
X36656990Y-93627490D01*
X36700218Y-93731852D01*
X35296263Y-95135808D01*
X35281954Y-95147551D01*
X35270212Y-95161859D01*
X35235092Y-95204653D01*
X35200271Y-95269799D01*
X35198400Y-95275967D01*
X35198400Y-93935992D01*
X35214010Y-93946422D01*
X35332302Y-93995421D01*
X35457881Y-94020400D01*
X35585919Y-94020400D01*
X35711498Y-93995421D01*
X35829790Y-93946422D01*
X35936251Y-93875288D01*
X36026788Y-93784751D01*
X36097922Y-93678290D01*
X36146921Y-93559998D01*
X36171900Y-93434419D01*
X36171900Y-93306381D01*
X36146921Y-93180802D01*
X36097922Y-93062510D01*
X36026788Y-92956049D01*
X35936251Y-92865512D01*
X35829790Y-92794378D01*
X35711498Y-92745379D01*
X35585919Y-92720400D01*
X35457881Y-92720400D01*
X35332302Y-92745379D01*
X35214010Y-92794378D01*
X35198400Y-92804808D01*
X35198400Y-84463091D01*
X37183740Y-82477752D01*
X37198048Y-82466010D01*
X37244909Y-82408909D01*
X37279731Y-82343762D01*
X37301174Y-82273075D01*
X37306600Y-82217981D01*
X37306600Y-82217979D01*
X37308414Y-82199563D01*
X37307620Y-82191500D01*
X37345951Y-82165888D01*
X37436488Y-82075351D01*
X37507622Y-81968890D01*
X37556621Y-81850598D01*
X37581600Y-81725019D01*
X37581600Y-81596981D01*
X37556621Y-81471402D01*
X37507622Y-81353110D01*
X37436488Y-81246649D01*
X37345951Y-81156112D01*
X37239490Y-81084978D01*
X37121198Y-81035979D01*
X36995619Y-81011000D01*
X36867581Y-81011000D01*
X36742002Y-81035979D01*
X36623710Y-81084978D01*
X36517249Y-81156112D01*
X36426712Y-81246649D01*
X36355578Y-81353110D01*
X36306579Y-81471402D01*
X36281600Y-81596981D01*
X36281600Y-81725019D01*
X36306579Y-81850598D01*
X36355578Y-81968890D01*
X36426712Y-82075351D01*
X36476097Y-82124736D01*
X34571262Y-84029571D01*
X34556953Y-84041314D01*
X34545211Y-84055622D01*
X34510091Y-84098416D01*
X34475270Y-84163562D01*
X34453827Y-84234250D01*
X34446586Y-84307762D01*
X34448401Y-84326188D01*
X34448400Y-93326581D01*
X34446586Y-93345000D01*
X34448401Y-93363429D01*
X34448400Y-100649719D01*
X34409049Y-100676012D01*
X34318512Y-100766549D01*
X34247378Y-100873010D01*
X34198379Y-100991302D01*
X34190400Y-101031415D01*
X34190400Y-82897141D01*
X34349776Y-82928843D01*
X34661698Y-82928843D01*
X34967627Y-82867990D01*
X35255806Y-82748623D01*
X35515159Y-82575328D01*
X35735722Y-82354765D01*
X35909017Y-82095412D01*
X36028384Y-81807233D01*
X36089237Y-81501304D01*
X36089237Y-81189382D01*
X36028384Y-80883453D01*
X35909017Y-80595274D01*
X35735722Y-80335921D01*
X35515159Y-80115358D01*
X35255806Y-79942063D01*
X34967627Y-79822696D01*
X34661698Y-79761843D01*
X34349776Y-79761843D01*
X34190400Y-79793545D01*
X34190400Y-64199395D01*
X34387876Y-64238675D01*
X34699798Y-64238675D01*
X35005727Y-64177822D01*
X35293906Y-64058455D01*
X35553259Y-63885160D01*
X35773822Y-63664597D01*
X35845001Y-63558071D01*
X35845001Y-63837794D01*
X34823973Y-64858824D01*
X34634756Y-65048040D01*
X34620453Y-65059778D01*
X34608711Y-65074086D01*
X34573591Y-65116880D01*
X34538770Y-65182026D01*
X34517327Y-65252714D01*
X34510086Y-65326226D01*
X34511901Y-65344652D01*
X34511900Y-78551719D01*
X34472549Y-78578012D01*
X34382012Y-78668549D01*
X34310878Y-78775010D01*
X34261879Y-78893302D01*
X34236900Y-79018881D01*
X34236900Y-79146919D01*
X34261879Y-79272498D01*
X34310878Y-79390790D01*
X34382012Y-79497251D01*
X34472549Y-79587788D01*
X34579010Y-79658922D01*
X34697302Y-79707921D01*
X34822881Y-79732900D01*
X34950919Y-79732900D01*
X35076498Y-79707921D01*
X35194790Y-79658922D01*
X35301251Y-79587788D01*
X35391788Y-79497251D01*
X35462922Y-79390790D01*
X35511921Y-79272498D01*
X35536900Y-79146919D01*
X35536900Y-79018881D01*
X35511921Y-78893302D01*
X35462922Y-78775010D01*
X35391788Y-78668549D01*
X35301251Y-78578012D01*
X35261900Y-78551719D01*
X35261900Y-69857249D01*
X35290596Y-70001514D01*
X35377413Y-70211110D01*
X35503453Y-70399741D01*
X35663871Y-70560159D01*
X35852502Y-70686199D01*
X36062098Y-70773016D01*
X36284604Y-70817275D01*
X36511470Y-70817275D01*
X36733976Y-70773016D01*
X36943572Y-70686199D01*
X37132203Y-70560159D01*
X37281601Y-70410761D01*
X37281601Y-70705446D01*
X37279787Y-70723862D01*
X37281601Y-70742278D01*
X37281601Y-70742280D01*
X37287027Y-70797374D01*
X37308470Y-70868061D01*
X37343292Y-70933208D01*
X37390153Y-70990310D01*
X37404467Y-71002057D01*
X37643291Y-71240882D01*
X37643290Y-82971681D01*
X37555765Y-83059206D01*
X37555759Y-83059211D01*
X36107799Y-84507172D01*
X36093490Y-84518915D01*
X36081748Y-84533223D01*
X36046628Y-84576017D01*
X36011807Y-84641163D01*
X35990364Y-84711851D01*
X35983123Y-84785363D01*
X35984938Y-84803789D01*
X35984937Y-87264481D01*
X35814402Y-87335119D01*
X35625771Y-87461159D01*
X35465353Y-87621577D01*
X35339313Y-87810208D01*
X35252496Y-88019804D01*
X35208237Y-88242310D01*
X35208237Y-88469176D01*
X35252496Y-88691682D01*
X35339313Y-88901278D01*
X35465353Y-89089909D01*
X35625771Y-89250327D01*
X35814402Y-89376367D01*
X36023998Y-89463184D01*
X36246504Y-89507443D01*
X36473370Y-89507443D01*
X36695876Y-89463184D01*
X36905472Y-89376367D01*
X37094103Y-89250327D01*
X37254521Y-89089909D01*
X37380561Y-88901278D01*
X37467378Y-88691682D01*
X37511637Y-88469176D01*
X37511637Y-88242310D01*
X37467378Y-88019804D01*
X37380561Y-87810208D01*
X37254521Y-87621577D01*
X37094103Y-87461159D01*
X36905472Y-87335119D01*
X36734937Y-87264482D01*
X36734937Y-84940692D01*
X37824669Y-83850961D01*
X37818300Y-83882981D01*
X37818300Y-84011019D01*
X37843279Y-84136598D01*
X37892278Y-84254890D01*
X37963412Y-84361351D01*
X38053949Y-84451888D01*
X38160410Y-84523022D01*
X38278702Y-84572021D01*
X38404281Y-84597000D01*
X38532319Y-84597000D01*
X38657898Y-84572021D01*
X38776190Y-84523022D01*
X38882651Y-84451888D01*
X38973188Y-84361351D01*
X39044322Y-84254890D01*
X39093321Y-84136598D01*
X39118300Y-84011019D01*
X39118300Y-83882981D01*
X39093321Y-83757402D01*
X39044322Y-83639110D01*
X38973188Y-83532649D01*
X38882651Y-83442112D01*
X38843300Y-83415819D01*
X38843300Y-72380229D01*
X40503476Y-70720054D01*
X40517784Y-70708312D01*
X40537759Y-70683972D01*
X40564646Y-70651211D01*
X40599466Y-70586065D01*
X40599467Y-70586064D01*
X40620910Y-70515377D01*
X40626336Y-70460283D01*
X40626336Y-70460280D01*
X40627919Y-70444207D01*
X40743871Y-70560159D01*
X40932502Y-70686199D01*
X41142098Y-70773016D01*
X41364604Y-70817275D01*
X41591470Y-70817275D01*
X41813976Y-70773016D01*
X42023572Y-70686199D01*
X42212203Y-70560159D01*
X42372621Y-70399741D01*
X42498661Y-70211110D01*
X42585478Y-70001514D01*
X42629737Y-69779008D01*
X42629737Y-69552142D01*
X42585478Y-69329636D01*
X42498661Y-69120040D01*
X42372621Y-68931409D01*
X42212203Y-68770991D01*
X42023572Y-68644951D01*
X41813976Y-68558134D01*
X41591470Y-68513875D01*
X41364604Y-68513875D01*
X41142098Y-68558134D01*
X40932502Y-68644951D01*
X40743871Y-68770991D01*
X40626336Y-68888526D01*
X40626336Y-65872952D01*
X40628150Y-65854536D01*
X40625890Y-65831588D01*
X40620910Y-65781023D01*
X40599467Y-65710336D01*
X40564645Y-65645189D01*
X40517784Y-65588088D01*
X40503475Y-65576345D01*
X40278400Y-65351271D01*
X40278400Y-62080529D01*
X40402563Y-61956367D01*
X40448981Y-61965600D01*
X40577019Y-61965600D01*
X40702598Y-61940621D01*
X40820890Y-61891622D01*
X40927351Y-61820488D01*
X41017888Y-61729951D01*
X41089022Y-61623490D01*
X41138021Y-61505198D01*
X41163000Y-61379619D01*
X41163000Y-61251581D01*
X41138021Y-61126002D01*
X41089022Y-61007710D01*
X41017888Y-60901249D01*
X40927351Y-60810712D01*
X40820890Y-60739578D01*
X40702598Y-60690579D01*
X40577019Y-60665600D01*
X40448981Y-60665600D01*
X40341501Y-60686979D01*
X40341501Y-58409830D01*
X41311246Y-57440087D01*
X41325548Y-57428350D01*
X41337286Y-57414047D01*
X41337289Y-57414044D01*
X41372409Y-57371249D01*
X41407230Y-57306104D01*
X41407231Y-57306101D01*
X41428674Y-57235415D01*
X41434100Y-57180321D01*
X41434100Y-57180319D01*
X41435914Y-57161903D01*
X41434100Y-57143487D01*
X41434100Y-55885716D01*
X41435914Y-55867300D01*
X41434100Y-55848881D01*
X41428674Y-55793787D01*
X41407231Y-55723100D01*
X41382633Y-55677080D01*
X41372410Y-55657953D01*
X41337289Y-55615159D01*
X41325548Y-55600852D01*
X41311239Y-55589109D01*
X40557401Y-54835272D01*
X40557401Y-51644151D01*
X40601116Y-51709575D01*
X40761534Y-51869993D01*
X40950165Y-51996033D01*
X41159761Y-52082850D01*
X41382267Y-52127109D01*
X41609133Y-52127109D01*
X41831639Y-52082850D01*
X42041235Y-51996033D01*
X42229866Y-51869993D01*
X42390284Y-51709575D01*
X42516324Y-51520944D01*
X42603141Y-51311348D01*
X42647400Y-51088842D01*
X42647400Y-50861976D01*
X42603141Y-50639470D01*
X42516324Y-50429874D01*
X42390284Y-50241243D01*
X42229866Y-50080825D01*
X42041235Y-49954785D01*
X41976787Y-49928090D01*
X42083051Y-49857088D01*
X42173588Y-49766551D01*
X42244722Y-49660090D01*
X42293721Y-49541798D01*
X42318700Y-49416219D01*
X42318700Y-49288181D01*
X42318638Y-49287867D01*
X42577333Y-49546563D01*
X42577333Y-49546563D01*
G37*
X42577333Y-49546563D02*
X42568100Y-49592981D01*
X42568100Y-49721019D01*
X42593079Y-49846598D01*
X42642078Y-49964890D01*
X42713212Y-50071351D01*
X42803749Y-50161888D01*
X42843100Y-50188181D01*
X42843101Y-60159399D01*
X41421602Y-61580899D01*
X41407288Y-61592646D01*
X41360427Y-61649748D01*
X41325605Y-61714895D01*
X41304162Y-61785582D01*
X41298736Y-61840675D01*
X41296922Y-61859094D01*
X41298736Y-61877510D01*
X41298737Y-63431155D01*
X41256153Y-63453916D01*
X41199052Y-63500778D01*
X41152190Y-63557879D01*
X41117370Y-63623025D01*
X41095927Y-63693714D01*
X41088686Y-63767225D01*
X41095927Y-63840737D01*
X41117370Y-63911426D01*
X41152191Y-63976572D01*
X41187312Y-64019366D01*
X41395551Y-64227605D01*
X41407289Y-64241908D01*
X41421592Y-64253646D01*
X41562347Y-64394401D01*
X41562352Y-64394405D01*
X42735100Y-65567155D01*
X42735099Y-71837266D01*
X42689222Y-71726510D01*
X42618088Y-71620049D01*
X42527551Y-71529512D01*
X42421090Y-71458378D01*
X42302798Y-71409379D01*
X42177219Y-71384400D01*
X42049181Y-71384400D01*
X41923602Y-71409379D01*
X41805310Y-71458378D01*
X41698849Y-71529512D01*
X41608312Y-71620049D01*
X41537178Y-71726510D01*
X41488179Y-71844802D01*
X41463200Y-71970381D01*
X41463200Y-72098419D01*
X41472433Y-72144837D01*
X40731867Y-72885404D01*
X40717553Y-72897151D01*
X40670692Y-72954253D01*
X40635870Y-73019400D01*
X40614427Y-73090087D01*
X40609001Y-73145180D01*
X40607187Y-73163599D01*
X40609001Y-73182015D01*
X40609002Y-80973416D01*
X40566890Y-80945278D01*
X40448598Y-80896279D01*
X40323019Y-80871300D01*
X40194981Y-80871300D01*
X40069402Y-80896279D01*
X39951110Y-80945278D01*
X39844649Y-81016412D01*
X39754112Y-81106949D01*
X39682978Y-81213410D01*
X39633979Y-81331702D01*
X39609000Y-81457281D01*
X39609000Y-81585319D01*
X39633979Y-81710898D01*
X39682978Y-81829190D01*
X39754112Y-81935651D01*
X39764338Y-81945877D01*
X39764339Y-87591395D01*
X39634103Y-87461159D01*
X39445472Y-87335119D01*
X39235876Y-87248302D01*
X39013370Y-87204043D01*
X38786504Y-87204043D01*
X38563998Y-87248302D01*
X38354402Y-87335119D01*
X38165771Y-87461159D01*
X38005353Y-87621577D01*
X37879313Y-87810208D01*
X37792496Y-88019804D01*
X37748237Y-88242310D01*
X37748237Y-88469176D01*
X37792496Y-88691682D01*
X37879313Y-88901278D01*
X38005353Y-89089909D01*
X38165771Y-89250327D01*
X38354402Y-89376367D01*
X38563998Y-89463184D01*
X38649287Y-89480149D01*
X38642391Y-89488552D01*
X38607569Y-89553699D01*
X38586126Y-89624386D01*
X38580700Y-89679479D01*
X38578886Y-89697898D01*
X38580700Y-89716314D01*
X38580700Y-90126109D01*
X38561463Y-90097318D01*
X38401282Y-89937137D01*
X38212929Y-89811284D01*
X38003643Y-89724594D01*
X37781465Y-89680400D01*
X37554935Y-89680400D01*
X37332757Y-89724594D01*
X37123471Y-89811284D01*
X36935118Y-89937137D01*
X36774937Y-90097318D01*
X36649084Y-90285671D01*
X36562394Y-90494957D01*
X36518200Y-90717135D01*
X36518200Y-90943665D01*
X36562394Y-91165843D01*
X36649084Y-91375129D01*
X36774937Y-91563482D01*
X36935118Y-91723663D01*
X37123471Y-91849516D01*
X37332757Y-91936206D01*
X37554935Y-91980400D01*
X37781465Y-91980400D01*
X38003643Y-91936206D01*
X38212929Y-91849516D01*
X38401282Y-91723663D01*
X38561463Y-91563482D01*
X38580701Y-91534690D01*
X38580701Y-92982768D01*
X38526923Y-92852938D01*
X38416172Y-92687187D01*
X38275213Y-92546228D01*
X38109462Y-92435477D01*
X37925290Y-92359190D01*
X37729773Y-92320300D01*
X37530427Y-92320300D01*
X37334910Y-92359190D01*
X37150738Y-92435477D01*
X36984987Y-92546228D01*
X36844028Y-92687187D01*
X36733277Y-92852938D01*
X36656990Y-93037110D01*
X36618100Y-93232627D01*
X36618100Y-93431973D01*
X36656990Y-93627490D01*
X36700218Y-93731852D01*
X35296263Y-95135808D01*
X35281954Y-95147551D01*
X35270212Y-95161859D01*
X35235092Y-95204653D01*
X35200271Y-95269799D01*
X35198400Y-95275967D01*
X35198400Y-93935992D01*
X35214010Y-93946422D01*
X35332302Y-93995421D01*
X35457881Y-94020400D01*
X35585919Y-94020400D01*
X35711498Y-93995421D01*
X35829790Y-93946422D01*
X35936251Y-93875288D01*
X36026788Y-93784751D01*
X36097922Y-93678290D01*
X36146921Y-93559998D01*
X36171900Y-93434419D01*
X36171900Y-93306381D01*
X36146921Y-93180802D01*
X36097922Y-93062510D01*
X36026788Y-92956049D01*
X35936251Y-92865512D01*
X35829790Y-92794378D01*
X35711498Y-92745379D01*
X35585919Y-92720400D01*
X35457881Y-92720400D01*
X35332302Y-92745379D01*
X35214010Y-92794378D01*
X35198400Y-92804808D01*
X35198400Y-84463091D01*
X37183740Y-82477752D01*
X37198048Y-82466010D01*
X37244909Y-82408909D01*
X37279731Y-82343762D01*
X37301174Y-82273075D01*
X37306600Y-82217981D01*
X37306600Y-82217979D01*
X37308414Y-82199563D01*
X37307620Y-82191500D01*
X37345951Y-82165888D01*
X37436488Y-82075351D01*
X37507622Y-81968890D01*
X37556621Y-81850598D01*
X37581600Y-81725019D01*
X37581600Y-81596981D01*
X37556621Y-81471402D01*
X37507622Y-81353110D01*
X37436488Y-81246649D01*
X37345951Y-81156112D01*
X37239490Y-81084978D01*
X37121198Y-81035979D01*
X36995619Y-81011000D01*
X36867581Y-81011000D01*
X36742002Y-81035979D01*
X36623710Y-81084978D01*
X36517249Y-81156112D01*
X36426712Y-81246649D01*
X36355578Y-81353110D01*
X36306579Y-81471402D01*
X36281600Y-81596981D01*
X36281600Y-81725019D01*
X36306579Y-81850598D01*
X36355578Y-81968890D01*
X36426712Y-82075351D01*
X36476097Y-82124736D01*
X34571262Y-84029571D01*
X34556953Y-84041314D01*
X34545211Y-84055622D01*
X34510091Y-84098416D01*
X34475270Y-84163562D01*
X34453827Y-84234250D01*
X34446586Y-84307762D01*
X34448401Y-84326188D01*
X34448400Y-93326581D01*
X34446586Y-93345000D01*
X34448401Y-93363429D01*
X34448400Y-100649719D01*
X34409049Y-100676012D01*
X34318512Y-100766549D01*
X34247378Y-100873010D01*
X34198379Y-100991302D01*
X34190400Y-101031415D01*
X34190400Y-82897141D01*
X34349776Y-82928843D01*
X34661698Y-82928843D01*
X34967627Y-82867990D01*
X35255806Y-82748623D01*
X35515159Y-82575328D01*
X35735722Y-82354765D01*
X35909017Y-82095412D01*
X36028384Y-81807233D01*
X36089237Y-81501304D01*
X36089237Y-81189382D01*
X36028384Y-80883453D01*
X35909017Y-80595274D01*
X35735722Y-80335921D01*
X35515159Y-80115358D01*
X35255806Y-79942063D01*
X34967627Y-79822696D01*
X34661698Y-79761843D01*
X34349776Y-79761843D01*
X34190400Y-79793545D01*
X34190400Y-64199395D01*
X34387876Y-64238675D01*
X34699798Y-64238675D01*
X35005727Y-64177822D01*
X35293906Y-64058455D01*
X35553259Y-63885160D01*
X35773822Y-63664597D01*
X35845001Y-63558071D01*
X35845001Y-63837794D01*
X34823973Y-64858824D01*
X34634756Y-65048040D01*
X34620453Y-65059778D01*
X34608711Y-65074086D01*
X34573591Y-65116880D01*
X34538770Y-65182026D01*
X34517327Y-65252714D01*
X34510086Y-65326226D01*
X34511901Y-65344652D01*
X34511900Y-78551719D01*
X34472549Y-78578012D01*
X34382012Y-78668549D01*
X34310878Y-78775010D01*
X34261879Y-78893302D01*
X34236900Y-79018881D01*
X34236900Y-79146919D01*
X34261879Y-79272498D01*
X34310878Y-79390790D01*
X34382012Y-79497251D01*
X34472549Y-79587788D01*
X34579010Y-79658922D01*
X34697302Y-79707921D01*
X34822881Y-79732900D01*
X34950919Y-79732900D01*
X35076498Y-79707921D01*
X35194790Y-79658922D01*
X35301251Y-79587788D01*
X35391788Y-79497251D01*
X35462922Y-79390790D01*
X35511921Y-79272498D01*
X35536900Y-79146919D01*
X35536900Y-79018881D01*
X35511921Y-78893302D01*
X35462922Y-78775010D01*
X35391788Y-78668549D01*
X35301251Y-78578012D01*
X35261900Y-78551719D01*
X35261900Y-69857249D01*
X35290596Y-70001514D01*
X35377413Y-70211110D01*
X35503453Y-70399741D01*
X35663871Y-70560159D01*
X35852502Y-70686199D01*
X36062098Y-70773016D01*
X36284604Y-70817275D01*
X36511470Y-70817275D01*
X36733976Y-70773016D01*
X36943572Y-70686199D01*
X37132203Y-70560159D01*
X37281601Y-70410761D01*
X37281601Y-70705446D01*
X37279787Y-70723862D01*
X37281601Y-70742278D01*
X37281601Y-70742280D01*
X37287027Y-70797374D01*
X37308470Y-70868061D01*
X37343292Y-70933208D01*
X37390153Y-70990310D01*
X37404467Y-71002057D01*
X37643291Y-71240882D01*
X37643290Y-82971681D01*
X37555765Y-83059206D01*
X37555759Y-83059211D01*
X36107799Y-84507172D01*
X36093490Y-84518915D01*
X36081748Y-84533223D01*
X36046628Y-84576017D01*
X36011807Y-84641163D01*
X35990364Y-84711851D01*
X35983123Y-84785363D01*
X35984938Y-84803789D01*
X35984937Y-87264481D01*
X35814402Y-87335119D01*
X35625771Y-87461159D01*
X35465353Y-87621577D01*
X35339313Y-87810208D01*
X35252496Y-88019804D01*
X35208237Y-88242310D01*
X35208237Y-88469176D01*
X35252496Y-88691682D01*
X35339313Y-88901278D01*
X35465353Y-89089909D01*
X35625771Y-89250327D01*
X35814402Y-89376367D01*
X36023998Y-89463184D01*
X36246504Y-89507443D01*
X36473370Y-89507443D01*
X36695876Y-89463184D01*
X36905472Y-89376367D01*
X37094103Y-89250327D01*
X37254521Y-89089909D01*
X37380561Y-88901278D01*
X37467378Y-88691682D01*
X37511637Y-88469176D01*
X37511637Y-88242310D01*
X37467378Y-88019804D01*
X37380561Y-87810208D01*
X37254521Y-87621577D01*
X37094103Y-87461159D01*
X36905472Y-87335119D01*
X36734937Y-87264482D01*
X36734937Y-84940692D01*
X37824669Y-83850961D01*
X37818300Y-83882981D01*
X37818300Y-84011019D01*
X37843279Y-84136598D01*
X37892278Y-84254890D01*
X37963412Y-84361351D01*
X38053949Y-84451888D01*
X38160410Y-84523022D01*
X38278702Y-84572021D01*
X38404281Y-84597000D01*
X38532319Y-84597000D01*
X38657898Y-84572021D01*
X38776190Y-84523022D01*
X38882651Y-84451888D01*
X38973188Y-84361351D01*
X39044322Y-84254890D01*
X39093321Y-84136598D01*
X39118300Y-84011019D01*
X39118300Y-83882981D01*
X39093321Y-83757402D01*
X39044322Y-83639110D01*
X38973188Y-83532649D01*
X38882651Y-83442112D01*
X38843300Y-83415819D01*
X38843300Y-72380229D01*
X40503476Y-70720054D01*
X40517784Y-70708312D01*
X40537759Y-70683972D01*
X40564646Y-70651211D01*
X40599466Y-70586065D01*
X40599467Y-70586064D01*
X40620910Y-70515377D01*
X40626336Y-70460283D01*
X40626336Y-70460280D01*
X40627919Y-70444207D01*
X40743871Y-70560159D01*
X40932502Y-70686199D01*
X41142098Y-70773016D01*
X41364604Y-70817275D01*
X41591470Y-70817275D01*
X41813976Y-70773016D01*
X42023572Y-70686199D01*
X42212203Y-70560159D01*
X42372621Y-70399741D01*
X42498661Y-70211110D01*
X42585478Y-70001514D01*
X42629737Y-69779008D01*
X42629737Y-69552142D01*
X42585478Y-69329636D01*
X42498661Y-69120040D01*
X42372621Y-68931409D01*
X42212203Y-68770991D01*
X42023572Y-68644951D01*
X41813976Y-68558134D01*
X41591470Y-68513875D01*
X41364604Y-68513875D01*
X41142098Y-68558134D01*
X40932502Y-68644951D01*
X40743871Y-68770991D01*
X40626336Y-68888526D01*
X40626336Y-65872952D01*
X40628150Y-65854536D01*
X40625890Y-65831588D01*
X40620910Y-65781023D01*
X40599467Y-65710336D01*
X40564645Y-65645189D01*
X40517784Y-65588088D01*
X40503475Y-65576345D01*
X40278400Y-65351271D01*
X40278400Y-62080529D01*
X40402563Y-61956367D01*
X40448981Y-61965600D01*
X40577019Y-61965600D01*
X40702598Y-61940621D01*
X40820890Y-61891622D01*
X40927351Y-61820488D01*
X41017888Y-61729951D01*
X41089022Y-61623490D01*
X41138021Y-61505198D01*
X41163000Y-61379619D01*
X41163000Y-61251581D01*
X41138021Y-61126002D01*
X41089022Y-61007710D01*
X41017888Y-60901249D01*
X40927351Y-60810712D01*
X40820890Y-60739578D01*
X40702598Y-60690579D01*
X40577019Y-60665600D01*
X40448981Y-60665600D01*
X40341501Y-60686979D01*
X40341501Y-58409830D01*
X41311246Y-57440087D01*
X41325548Y-57428350D01*
X41337286Y-57414047D01*
X41337289Y-57414044D01*
X41372409Y-57371249D01*
X41407230Y-57306104D01*
X41407231Y-57306101D01*
X41428674Y-57235415D01*
X41434100Y-57180321D01*
X41434100Y-57180319D01*
X41435914Y-57161903D01*
X41434100Y-57143487D01*
X41434100Y-55885716D01*
X41435914Y-55867300D01*
X41434100Y-55848881D01*
X41428674Y-55793787D01*
X41407231Y-55723100D01*
X41382633Y-55677080D01*
X41372410Y-55657953D01*
X41337289Y-55615159D01*
X41325548Y-55600852D01*
X41311239Y-55589109D01*
X40557401Y-54835272D01*
X40557401Y-51644151D01*
X40601116Y-51709575D01*
X40761534Y-51869993D01*
X40950165Y-51996033D01*
X41159761Y-52082850D01*
X41382267Y-52127109D01*
X41609133Y-52127109D01*
X41831639Y-52082850D01*
X42041235Y-51996033D01*
X42229866Y-51869993D01*
X42390284Y-51709575D01*
X42516324Y-51520944D01*
X42603141Y-51311348D01*
X42647400Y-51088842D01*
X42647400Y-50861976D01*
X42603141Y-50639470D01*
X42516324Y-50429874D01*
X42390284Y-50241243D01*
X42229866Y-50080825D01*
X42041235Y-49954785D01*
X41976787Y-49928090D01*
X42083051Y-49857088D01*
X42173588Y-49766551D01*
X42244722Y-49660090D01*
X42293721Y-49541798D01*
X42318700Y-49416219D01*
X42318700Y-49288181D01*
X42318638Y-49287867D01*
X42577333Y-49546563D01*
G36*
X43708300Y-23734169D02*
G01*
X43492998Y-23691343D01*
X43181076Y-23691343D01*
X42875147Y-23752196D01*
X42586968Y-23871563D01*
X42327615Y-24044858D01*
X42107052Y-24265421D01*
X41933757Y-24524774D01*
X41814390Y-24812953D01*
X41753537Y-25118882D01*
X41753537Y-25430804D01*
X41814390Y-25736733D01*
X41933757Y-26024912D01*
X42107052Y-26284265D01*
X42327615Y-26504828D01*
X42586968Y-26678123D01*
X42875147Y-26797490D01*
X43181076Y-26858343D01*
X43492998Y-26858343D01*
X43708300Y-26815517D01*
X43708300Y-42421777D01*
X43505861Y-42381509D01*
X43193939Y-42381509D01*
X42888010Y-42442362D01*
X42599831Y-42561729D01*
X42340478Y-42735024D01*
X42119915Y-42955587D01*
X41946620Y-43214940D01*
X41827253Y-43503119D01*
X41766400Y-43809048D01*
X41766400Y-44120970D01*
X41827253Y-44426899D01*
X41946620Y-44715078D01*
X42119915Y-44974431D01*
X42340478Y-45194994D01*
X42599831Y-45368289D01*
X42888010Y-45487656D01*
X43193939Y-45548509D01*
X43505861Y-45548509D01*
X43708300Y-45508241D01*
X43708300Y-49227961D01*
X43632451Y-49152112D01*
X43525990Y-49080978D01*
X43407698Y-49031979D01*
X43282119Y-49007000D01*
X43154081Y-49007000D01*
X43107663Y-49016233D01*
X41549321Y-47457892D01*
X41549321Y-42157507D01*
X41551135Y-42139091D01*
X41547385Y-42101019D01*
X41543895Y-42065579D01*
X41522452Y-41994892D01*
X41522451Y-41994890D01*
X41487630Y-41929744D01*
X41452509Y-41886950D01*
X41440769Y-41872644D01*
X41426461Y-41860902D01*
X40729301Y-41163743D01*
X40729301Y-40020000D01*
X40818319Y-40020000D01*
X40943898Y-39995021D01*
X41062190Y-39946022D01*
X41168651Y-39874888D01*
X41259188Y-39784351D01*
X41330322Y-39677890D01*
X41379321Y-39559598D01*
X41404300Y-39434019D01*
X41404300Y-39305981D01*
X41379321Y-39180402D01*
X41330322Y-39062110D01*
X41259188Y-38955649D01*
X41168651Y-38865112D01*
X41062190Y-38793978D01*
X40943898Y-38744979D01*
X40854442Y-38727185D01*
X41474311Y-38107317D01*
X41474310Y-40141100D01*
X41385292Y-40141100D01*
X41259713Y-40166079D01*
X41141421Y-40215078D01*
X41034960Y-40286212D01*
X40944423Y-40376749D01*
X40873289Y-40483210D01*
X40824290Y-40601502D01*
X40799311Y-40727081D01*
X40799311Y-40855119D01*
X40824290Y-40980698D01*
X40873289Y-41098990D01*
X40944423Y-41205451D01*
X41034960Y-41295988D01*
X41141421Y-41367122D01*
X41259713Y-41416121D01*
X41385292Y-41441100D01*
X41513330Y-41441100D01*
X41638909Y-41416121D01*
X41757201Y-41367122D01*
X41863662Y-41295988D01*
X41954199Y-41205451D01*
X42025333Y-41098990D01*
X42074332Y-40980698D01*
X42099311Y-40855119D01*
X42099311Y-40727081D01*
X42090078Y-40680663D01*
X42101450Y-40669291D01*
X42115758Y-40657549D01*
X42162619Y-40600448D01*
X42197441Y-40535301D01*
X42218884Y-40464614D01*
X42224310Y-40409520D01*
X42224310Y-40409518D01*
X42226124Y-40391102D01*
X42224310Y-40372686D01*
X42224310Y-38128339D01*
X42795462Y-37557188D01*
X42809765Y-37545450D01*
X42821503Y-37531147D01*
X42821507Y-37531143D01*
X42856628Y-37488349D01*
X42891448Y-37423203D01*
X42912891Y-37352514D01*
X42920132Y-37279002D01*
X42918317Y-37260576D01*
X42918319Y-34688310D01*
X43165439Y-34441191D01*
X43179748Y-34429448D01*
X43226609Y-34372347D01*
X43261431Y-34307200D01*
X43282874Y-34236513D01*
X43288300Y-34181419D01*
X43288300Y-34181417D01*
X43290114Y-34163001D01*
X43288623Y-34147865D01*
X43327651Y-34121788D01*
X43418188Y-34031251D01*
X43489322Y-33924790D01*
X43538321Y-33806498D01*
X43563300Y-33680919D01*
X43563300Y-33552881D01*
X43538321Y-33427302D01*
X43489322Y-33309010D01*
X43418188Y-33202549D01*
X43327651Y-33112012D01*
X43221190Y-33040878D01*
X43102898Y-32991879D01*
X42977319Y-32966900D01*
X42849281Y-32966900D01*
X42723702Y-32991879D01*
X42605410Y-33040878D01*
X42498949Y-33112012D01*
X42408412Y-33202549D01*
X42337278Y-33309010D01*
X42288279Y-33427302D01*
X42263300Y-33552881D01*
X42263300Y-33680919D01*
X42288279Y-33806498D01*
X42337278Y-33924790D01*
X42408412Y-34031251D01*
X42461566Y-34084405D01*
X42410371Y-34135600D01*
X42406619Y-34128581D01*
X42359758Y-34071480D01*
X42345450Y-34059738D01*
X41857837Y-33572126D01*
X41857837Y-33376504D01*
X42028372Y-33305867D01*
X42217003Y-33179827D01*
X42377421Y-33019409D01*
X42503461Y-32830778D01*
X42590278Y-32621182D01*
X42634537Y-32398676D01*
X42634537Y-32171810D01*
X42590278Y-31949304D01*
X42503461Y-31739708D01*
X42377421Y-31551077D01*
X42217003Y-31390659D01*
X42028372Y-31264619D01*
X41818776Y-31177802D01*
X41596270Y-31133543D01*
X41369404Y-31133543D01*
X41146898Y-31177802D01*
X40937302Y-31264619D01*
X40748671Y-31390659D01*
X40631136Y-31508194D01*
X40631136Y-25958778D01*
X40650835Y-25939079D01*
X40665148Y-25927333D01*
X40712009Y-25870232D01*
X40746831Y-25805085D01*
X40768274Y-25734398D01*
X40773700Y-25679304D01*
X40773700Y-25679301D01*
X40775514Y-25660885D01*
X40773700Y-25642469D01*
X40773700Y-25626381D01*
X40813051Y-25600088D01*
X40903588Y-25509551D01*
X40974722Y-25403090D01*
X41023721Y-25284798D01*
X41048700Y-25159219D01*
X41048700Y-25031181D01*
X41023721Y-24905602D01*
X40974722Y-24787310D01*
X40903588Y-24680849D01*
X40813051Y-24590312D01*
X40706590Y-24519178D01*
X40588298Y-24470179D01*
X40462719Y-24445200D01*
X40334681Y-24445200D01*
X40209102Y-24470179D01*
X40090810Y-24519178D01*
X39984349Y-24590312D01*
X39893812Y-24680849D01*
X39822678Y-24787310D01*
X39773679Y-24905602D01*
X39748700Y-25031181D01*
X39748700Y-25159219D01*
X39773679Y-25284798D01*
X39822678Y-25403090D01*
X39893812Y-25509551D01*
X39958845Y-25574584D01*
X39942827Y-25594103D01*
X39908006Y-25659249D01*
X39886563Y-25729937D01*
X39879322Y-25803449D01*
X39881137Y-25821875D01*
X39881136Y-31616501D01*
X39837421Y-31551077D01*
X39677003Y-31390659D01*
X39488372Y-31264619D01*
X39278776Y-31177802D01*
X39056270Y-31133543D01*
X38829404Y-31133543D01*
X38606898Y-31177802D01*
X38397302Y-31264619D01*
X38208671Y-31390659D01*
X38048253Y-31551077D01*
X37922213Y-31739708D01*
X37835396Y-31949304D01*
X37791137Y-32171810D01*
X37791137Y-32398676D01*
X37835396Y-32621182D01*
X37922213Y-32830778D01*
X38048253Y-33019409D01*
X38208671Y-33179827D01*
X38397302Y-33305867D01*
X38606898Y-33392684D01*
X38829404Y-33436943D01*
X39056270Y-33436943D01*
X39278776Y-33392684D01*
X39488372Y-33305867D01*
X39677003Y-33179827D01*
X39837421Y-33019409D01*
X39881136Y-32953985D01*
X39881136Y-33118748D01*
X39879322Y-33137164D01*
X39881136Y-33155580D01*
X39881136Y-33155582D01*
X39886562Y-33210676D01*
X39908005Y-33281363D01*
X39942827Y-33346510D01*
X39989688Y-33403612D01*
X40004002Y-33415359D01*
X41268301Y-34679659D01*
X41268300Y-36616258D01*
X39202142Y-38682417D01*
X39187833Y-38694160D01*
X39140972Y-38751261D01*
X39106150Y-38816408D01*
X39084707Y-38887095D01*
X39083942Y-38894867D01*
X39077467Y-38960607D01*
X39079281Y-38979023D01*
X39079283Y-41673447D01*
X39077468Y-41691873D01*
X39081136Y-41729110D01*
X39084709Y-41765386D01*
X39103031Y-41825783D01*
X39106152Y-41836073D01*
X39130854Y-41882286D01*
X39140974Y-41901220D01*
X39187835Y-41958321D01*
X39202144Y-41970064D01*
X39807402Y-42575323D01*
X39807401Y-50198360D01*
X39689866Y-50080825D01*
X39501235Y-49954785D01*
X39291639Y-49867968D01*
X39069133Y-49823709D01*
X38842267Y-49823709D01*
X38619761Y-49867968D01*
X38410165Y-49954785D01*
X38306124Y-50024304D01*
X38345822Y-49964890D01*
X38394821Y-49846598D01*
X38419800Y-49721019D01*
X38419800Y-49592981D01*
X38394821Y-49467402D01*
X38345822Y-49349110D01*
X38274688Y-49242649D01*
X38184151Y-49152112D01*
X38077690Y-49080978D01*
X37959398Y-49031979D01*
X37833819Y-49007000D01*
X37705781Y-49007000D01*
X37580202Y-49031979D01*
X37461910Y-49080978D01*
X37355449Y-49152112D01*
X37264912Y-49242649D01*
X37193778Y-49349110D01*
X37144779Y-49467402D01*
X37119800Y-49592981D01*
X37119800Y-49721019D01*
X37144779Y-49846598D01*
X37193778Y-49964890D01*
X37264912Y-50071351D01*
X37354000Y-50160439D01*
X37353999Y-50306667D01*
X37310284Y-50241243D01*
X37149866Y-50080825D01*
X36961235Y-49954785D01*
X36751639Y-49867968D01*
X36529133Y-49823709D01*
X36302267Y-49823709D01*
X36079761Y-49867968D01*
X35870165Y-49954785D01*
X35681534Y-50080825D01*
X35521116Y-50241243D01*
X35395076Y-50429874D01*
X35308259Y-50639470D01*
X35264000Y-50861976D01*
X35264000Y-51088842D01*
X35308259Y-51311348D01*
X35395076Y-51520944D01*
X35521116Y-51709575D01*
X35681534Y-51869993D01*
X35870165Y-51996033D01*
X36079761Y-52082850D01*
X36302267Y-52127109D01*
X36529133Y-52127109D01*
X36751639Y-52082850D01*
X36961235Y-51996033D01*
X37149866Y-51869993D01*
X37310284Y-51709575D01*
X37353999Y-51644151D01*
X37353999Y-51912832D01*
X37352185Y-51931248D01*
X37353999Y-51949664D01*
X37353999Y-51949666D01*
X37359425Y-52004760D01*
X37380868Y-52075447D01*
X37415690Y-52140594D01*
X37462551Y-52197696D01*
X37476865Y-52209443D01*
X38735491Y-53468071D01*
X38735490Y-55869880D01*
X38432061Y-56173310D01*
X38417753Y-56185052D01*
X38406011Y-56199360D01*
X38370891Y-56242154D01*
X38359824Y-56262859D01*
X38336070Y-56307300D01*
X38325849Y-56340995D01*
X38269849Y-56378412D01*
X38179312Y-56468949D01*
X38108178Y-56575410D01*
X38059179Y-56693702D01*
X38034200Y-56819281D01*
X38034200Y-56947319D01*
X38059179Y-57072898D01*
X38108178Y-57191190D01*
X38179312Y-57297651D01*
X38269849Y-57388188D01*
X38376310Y-57459322D01*
X38494602Y-57508321D01*
X38620181Y-57533300D01*
X38748219Y-57533300D01*
X38873798Y-57508321D01*
X38992090Y-57459322D01*
X39098551Y-57388188D01*
X39189088Y-57297651D01*
X39260222Y-57191190D01*
X39309221Y-57072898D01*
X39334200Y-56947319D01*
X39334200Y-56819281D01*
X39309221Y-56693702D01*
X39260222Y-56575410D01*
X39192289Y-56473740D01*
X39362630Y-56303400D01*
X39376938Y-56291658D01*
X39423799Y-56234557D01*
X39427884Y-56226914D01*
X39605533Y-56404563D01*
X39596300Y-56450981D01*
X39596300Y-56579019D01*
X39621279Y-56704598D01*
X39670278Y-56822890D01*
X39741412Y-56929351D01*
X39831949Y-57019888D01*
X39938410Y-57091022D01*
X40056702Y-57140021D01*
X40182281Y-57165000D01*
X40310319Y-57165000D01*
X40435898Y-57140021D01*
X40554190Y-57091022D01*
X40660651Y-57019888D01*
X40684100Y-56996439D01*
X40684100Y-57006571D01*
X39714362Y-57976311D01*
X39700054Y-57988053D01*
X39673759Y-58020094D01*
X39653192Y-58045155D01*
X39618371Y-58110301D01*
X39596928Y-58180989D01*
X39589687Y-58254501D01*
X39591502Y-58272927D01*
X39591501Y-60633767D01*
X39201252Y-61024017D01*
X39186944Y-61035759D01*
X39175202Y-61050067D01*
X39140082Y-61092861D01*
X39105261Y-61158007D01*
X39083818Y-61228695D01*
X39076577Y-61302207D01*
X39078392Y-61320633D01*
X39078391Y-65674585D01*
X39076577Y-65693001D01*
X39078391Y-65711417D01*
X39078391Y-65711419D01*
X39083817Y-65766513D01*
X39105260Y-65837200D01*
X39140082Y-65902347D01*
X39186943Y-65959449D01*
X39201257Y-65971196D01*
X39426327Y-66196267D01*
X39426326Y-66875744D01*
X38794638Y-67507433D01*
X38748219Y-67498200D01*
X38620181Y-67498200D01*
X38494602Y-67523179D01*
X38376310Y-67572178D01*
X38269849Y-67643312D01*
X38179312Y-67733849D01*
X38108178Y-67840310D01*
X38059179Y-67958602D01*
X38034200Y-68084181D01*
X38034200Y-68212219D01*
X38059179Y-68337798D01*
X38108178Y-68456090D01*
X38179312Y-68562551D01*
X38269849Y-68653088D01*
X38325087Y-68689996D01*
X38203871Y-68770991D01*
X38043453Y-68931409D01*
X38027710Y-68954970D01*
X38026175Y-68939388D01*
X38004732Y-68868701D01*
X37969910Y-68803554D01*
X37923049Y-68746453D01*
X37908740Y-68734710D01*
X37045011Y-67870982D01*
X37045011Y-57503418D01*
X37183740Y-57364690D01*
X37198048Y-57352948D01*
X37218023Y-57328608D01*
X37244910Y-57295847D01*
X37268670Y-57251393D01*
X37279731Y-57230700D01*
X37301174Y-57160013D01*
X37306600Y-57104919D01*
X37306600Y-57104916D01*
X37308414Y-57086500D01*
X37306600Y-57068084D01*
X37306600Y-56728681D01*
X37345951Y-56702388D01*
X37436488Y-56611851D01*
X37507622Y-56505390D01*
X37556621Y-56387098D01*
X37581600Y-56261519D01*
X37581600Y-56133481D01*
X37556621Y-56007902D01*
X37507622Y-55889610D01*
X37436488Y-55783149D01*
X37345951Y-55692612D01*
X37239490Y-55621478D01*
X37121198Y-55572479D01*
X36995619Y-55547500D01*
X36867581Y-55547500D01*
X36742002Y-55572479D01*
X36623710Y-55621478D01*
X36517249Y-55692612D01*
X36426712Y-55783149D01*
X36355578Y-55889610D01*
X36306579Y-56007902D01*
X36281600Y-56133481D01*
X36281600Y-56261519D01*
X36306579Y-56387098D01*
X36355578Y-56505390D01*
X36426712Y-56611851D01*
X36517249Y-56702388D01*
X36556600Y-56728681D01*
X36556600Y-56931170D01*
X36417872Y-57069899D01*
X36403564Y-57081641D01*
X36377269Y-57113682D01*
X36356702Y-57138743D01*
X36334479Y-57180320D01*
X36321881Y-57203889D01*
X36307022Y-57252874D01*
X36300438Y-57274577D01*
X36293197Y-57348089D01*
X36295012Y-57366515D01*
X36295012Y-57811295D01*
X36248890Y-57780478D01*
X36130598Y-57731479D01*
X36005019Y-57706500D01*
X35876981Y-57706500D01*
X35751402Y-57731479D01*
X35633110Y-57780478D01*
X35526649Y-57851612D01*
X35436112Y-57942149D01*
X35364978Y-58048610D01*
X35315979Y-58166902D01*
X35291000Y-58292481D01*
X35291000Y-58420519D01*
X35315979Y-58546098D01*
X35364978Y-58664390D01*
X35436112Y-58770851D01*
X35526649Y-58861388D01*
X35633110Y-58932522D01*
X35751402Y-58981521D01*
X35845002Y-59000139D01*
X35845001Y-61752280D01*
X35773822Y-61645753D01*
X35553259Y-61425190D01*
X35293906Y-61251895D01*
X35005727Y-61132528D01*
X34699798Y-61071675D01*
X34387876Y-61071675D01*
X34190400Y-61110955D01*
X34190400Y-45505715D01*
X34405539Y-45548509D01*
X34717461Y-45548509D01*
X35023390Y-45487656D01*
X35311569Y-45368289D01*
X35570922Y-45194994D01*
X35791485Y-44974431D01*
X35964780Y-44715078D01*
X36084147Y-44426899D01*
X36145000Y-44120970D01*
X36145000Y-43809048D01*
X36084147Y-43503119D01*
X35964780Y-43214940D01*
X35791485Y-42955587D01*
X35570922Y-42735024D01*
X35361412Y-42595033D01*
X35440951Y-42541888D01*
X35531488Y-42451351D01*
X35602622Y-42344890D01*
X35651621Y-42226598D01*
X35676600Y-42101019D01*
X35676600Y-41972981D01*
X35651621Y-41847402D01*
X35602622Y-41729110D01*
X35531488Y-41622649D01*
X35440951Y-41532112D01*
X35401600Y-41505819D01*
X35401600Y-37608329D01*
X35923859Y-38130589D01*
X35923864Y-38130593D01*
X35935233Y-38141962D01*
X35926000Y-38188381D01*
X35926000Y-38316419D01*
X35950979Y-38441998D01*
X35999978Y-38560290D01*
X36071112Y-38666751D01*
X36161649Y-38757288D01*
X36268110Y-38828422D01*
X36386402Y-38877421D01*
X36511981Y-38902400D01*
X36640019Y-38902400D01*
X36765598Y-38877421D01*
X36883890Y-38828422D01*
X36990351Y-38757288D01*
X37080888Y-38666751D01*
X37152022Y-38560290D01*
X37201021Y-38441998D01*
X37226000Y-38316419D01*
X37226000Y-38188381D01*
X37201021Y-38062802D01*
X37152022Y-37944510D01*
X37080888Y-37838049D01*
X36990351Y-37747512D01*
X36883890Y-37676378D01*
X36765598Y-37627379D01*
X36640019Y-37602400D01*
X36511981Y-37602400D01*
X36465562Y-37611633D01*
X36454193Y-37600264D01*
X36454189Y-37600259D01*
X35876138Y-37022209D01*
X35876138Y-35757237D01*
X37499300Y-35757237D01*
X37499300Y-36023163D01*
X37551180Y-36283980D01*
X37652946Y-36529665D01*
X37800687Y-36750775D01*
X37988725Y-36938813D01*
X38209835Y-37086554D01*
X38455520Y-37188320D01*
X38716337Y-37240200D01*
X38982263Y-37240200D01*
X39243080Y-37188320D01*
X39488765Y-37086554D01*
X39709875Y-36938813D01*
X39897913Y-36750775D01*
X40045654Y-36529665D01*
X40147420Y-36283980D01*
X40199300Y-36023163D01*
X40199300Y-35757237D01*
X40147420Y-35496420D01*
X40045654Y-35250735D01*
X39897913Y-35029625D01*
X39709875Y-34841587D01*
X39488765Y-34693846D01*
X39243080Y-34592080D01*
X38982263Y-34540200D01*
X38716337Y-34540200D01*
X38455520Y-34592080D01*
X38209835Y-34693846D01*
X37988725Y-34841587D01*
X37800687Y-35029625D01*
X37652946Y-35250735D01*
X37551180Y-35496420D01*
X37499300Y-35757237D01*
X35876138Y-35757237D01*
X35876138Y-33342271D01*
X35896363Y-33322046D01*
X36066898Y-33392684D01*
X36289404Y-33436943D01*
X36516270Y-33436943D01*
X36738776Y-33392684D01*
X36948372Y-33305867D01*
X37137003Y-33179827D01*
X37297421Y-33019409D01*
X37423461Y-32830778D01*
X37510278Y-32621182D01*
X37554537Y-32398676D01*
X37554537Y-32171810D01*
X37510278Y-31949304D01*
X37423461Y-31739708D01*
X37297421Y-31551077D01*
X37137003Y-31390659D01*
X36948372Y-31264619D01*
X36738776Y-31177802D01*
X36516270Y-31133543D01*
X36289404Y-31133543D01*
X36066898Y-31177802D01*
X35857302Y-31264619D01*
X35668671Y-31390659D01*
X35508253Y-31551077D01*
X35401600Y-31710693D01*
X35401600Y-28006429D01*
X35995663Y-27412367D01*
X36042081Y-27421600D01*
X36170119Y-27421600D01*
X36295698Y-27396621D01*
X36413990Y-27347622D01*
X36520451Y-27276488D01*
X36610988Y-27185951D01*
X36682122Y-27079490D01*
X36731121Y-26961198D01*
X36756100Y-26835619D01*
X36756100Y-26707581D01*
X36731121Y-26582002D01*
X36682122Y-26463710D01*
X36610988Y-26357249D01*
X36520451Y-26266712D01*
X36413990Y-26195578D01*
X36295698Y-26146579D01*
X36170119Y-26121600D01*
X36042081Y-26121600D01*
X35916502Y-26146579D01*
X35853063Y-26172857D01*
X35951917Y-26024912D01*
X36071284Y-25736733D01*
X36132137Y-25430804D01*
X36132137Y-25118882D01*
X36071284Y-24812953D01*
X35951917Y-24524774D01*
X35778622Y-24265421D01*
X35558059Y-24044858D01*
X35298706Y-23871563D01*
X35010527Y-23752196D01*
X34704598Y-23691343D01*
X34392676Y-23691343D01*
X34190400Y-23731578D01*
X34190400Y-20138000D01*
X43708300Y-20138000D01*
X43708300Y-23734169D01*
X43708300Y-23734169D01*
G37*
X43708300Y-23734169D02*
X43492998Y-23691343D01*
X43181076Y-23691343D01*
X42875147Y-23752196D01*
X42586968Y-23871563D01*
X42327615Y-24044858D01*
X42107052Y-24265421D01*
X41933757Y-24524774D01*
X41814390Y-24812953D01*
X41753537Y-25118882D01*
X41753537Y-25430804D01*
X41814390Y-25736733D01*
X41933757Y-26024912D01*
X42107052Y-26284265D01*
X42327615Y-26504828D01*
X42586968Y-26678123D01*
X42875147Y-26797490D01*
X43181076Y-26858343D01*
X43492998Y-26858343D01*
X43708300Y-26815517D01*
X43708300Y-42421777D01*
X43505861Y-42381509D01*
X43193939Y-42381509D01*
X42888010Y-42442362D01*
X42599831Y-42561729D01*
X42340478Y-42735024D01*
X42119915Y-42955587D01*
X41946620Y-43214940D01*
X41827253Y-43503119D01*
X41766400Y-43809048D01*
X41766400Y-44120970D01*
X41827253Y-44426899D01*
X41946620Y-44715078D01*
X42119915Y-44974431D01*
X42340478Y-45194994D01*
X42599831Y-45368289D01*
X42888010Y-45487656D01*
X43193939Y-45548509D01*
X43505861Y-45548509D01*
X43708300Y-45508241D01*
X43708300Y-49227961D01*
X43632451Y-49152112D01*
X43525990Y-49080978D01*
X43407698Y-49031979D01*
X43282119Y-49007000D01*
X43154081Y-49007000D01*
X43107663Y-49016233D01*
X41549321Y-47457892D01*
X41549321Y-42157507D01*
X41551135Y-42139091D01*
X41547385Y-42101019D01*
X41543895Y-42065579D01*
X41522452Y-41994892D01*
X41522451Y-41994890D01*
X41487630Y-41929744D01*
X41452509Y-41886950D01*
X41440769Y-41872644D01*
X41426461Y-41860902D01*
X40729301Y-41163743D01*
X40729301Y-40020000D01*
X40818319Y-40020000D01*
X40943898Y-39995021D01*
X41062190Y-39946022D01*
X41168651Y-39874888D01*
X41259188Y-39784351D01*
X41330322Y-39677890D01*
X41379321Y-39559598D01*
X41404300Y-39434019D01*
X41404300Y-39305981D01*
X41379321Y-39180402D01*
X41330322Y-39062110D01*
X41259188Y-38955649D01*
X41168651Y-38865112D01*
X41062190Y-38793978D01*
X40943898Y-38744979D01*
X40854442Y-38727185D01*
X41474311Y-38107317D01*
X41474310Y-40141100D01*
X41385292Y-40141100D01*
X41259713Y-40166079D01*
X41141421Y-40215078D01*
X41034960Y-40286212D01*
X40944423Y-40376749D01*
X40873289Y-40483210D01*
X40824290Y-40601502D01*
X40799311Y-40727081D01*
X40799311Y-40855119D01*
X40824290Y-40980698D01*
X40873289Y-41098990D01*
X40944423Y-41205451D01*
X41034960Y-41295988D01*
X41141421Y-41367122D01*
X41259713Y-41416121D01*
X41385292Y-41441100D01*
X41513330Y-41441100D01*
X41638909Y-41416121D01*
X41757201Y-41367122D01*
X41863662Y-41295988D01*
X41954199Y-41205451D01*
X42025333Y-41098990D01*
X42074332Y-40980698D01*
X42099311Y-40855119D01*
X42099311Y-40727081D01*
X42090078Y-40680663D01*
X42101450Y-40669291D01*
X42115758Y-40657549D01*
X42162619Y-40600448D01*
X42197441Y-40535301D01*
X42218884Y-40464614D01*
X42224310Y-40409520D01*
X42224310Y-40409518D01*
X42226124Y-40391102D01*
X42224310Y-40372686D01*
X42224310Y-38128339D01*
X42795462Y-37557188D01*
X42809765Y-37545450D01*
X42821503Y-37531147D01*
X42821507Y-37531143D01*
X42856628Y-37488349D01*
X42891448Y-37423203D01*
X42912891Y-37352514D01*
X42920132Y-37279002D01*
X42918317Y-37260576D01*
X42918319Y-34688310D01*
X43165439Y-34441191D01*
X43179748Y-34429448D01*
X43226609Y-34372347D01*
X43261431Y-34307200D01*
X43282874Y-34236513D01*
X43288300Y-34181419D01*
X43288300Y-34181417D01*
X43290114Y-34163001D01*
X43288623Y-34147865D01*
X43327651Y-34121788D01*
X43418188Y-34031251D01*
X43489322Y-33924790D01*
X43538321Y-33806498D01*
X43563300Y-33680919D01*
X43563300Y-33552881D01*
X43538321Y-33427302D01*
X43489322Y-33309010D01*
X43418188Y-33202549D01*
X43327651Y-33112012D01*
X43221190Y-33040878D01*
X43102898Y-32991879D01*
X42977319Y-32966900D01*
X42849281Y-32966900D01*
X42723702Y-32991879D01*
X42605410Y-33040878D01*
X42498949Y-33112012D01*
X42408412Y-33202549D01*
X42337278Y-33309010D01*
X42288279Y-33427302D01*
X42263300Y-33552881D01*
X42263300Y-33680919D01*
X42288279Y-33806498D01*
X42337278Y-33924790D01*
X42408412Y-34031251D01*
X42461566Y-34084405D01*
X42410371Y-34135600D01*
X42406619Y-34128581D01*
X42359758Y-34071480D01*
X42345450Y-34059738D01*
X41857837Y-33572126D01*
X41857837Y-33376504D01*
X42028372Y-33305867D01*
X42217003Y-33179827D01*
X42377421Y-33019409D01*
X42503461Y-32830778D01*
X42590278Y-32621182D01*
X42634537Y-32398676D01*
X42634537Y-32171810D01*
X42590278Y-31949304D01*
X42503461Y-31739708D01*
X42377421Y-31551077D01*
X42217003Y-31390659D01*
X42028372Y-31264619D01*
X41818776Y-31177802D01*
X41596270Y-31133543D01*
X41369404Y-31133543D01*
X41146898Y-31177802D01*
X40937302Y-31264619D01*
X40748671Y-31390659D01*
X40631136Y-31508194D01*
X40631136Y-25958778D01*
X40650835Y-25939079D01*
X40665148Y-25927333D01*
X40712009Y-25870232D01*
X40746831Y-25805085D01*
X40768274Y-25734398D01*
X40773700Y-25679304D01*
X40773700Y-25679301D01*
X40775514Y-25660885D01*
X40773700Y-25642469D01*
X40773700Y-25626381D01*
X40813051Y-25600088D01*
X40903588Y-25509551D01*
X40974722Y-25403090D01*
X41023721Y-25284798D01*
X41048700Y-25159219D01*
X41048700Y-25031181D01*
X41023721Y-24905602D01*
X40974722Y-24787310D01*
X40903588Y-24680849D01*
X40813051Y-24590312D01*
X40706590Y-24519178D01*
X40588298Y-24470179D01*
X40462719Y-24445200D01*
X40334681Y-24445200D01*
X40209102Y-24470179D01*
X40090810Y-24519178D01*
X39984349Y-24590312D01*
X39893812Y-24680849D01*
X39822678Y-24787310D01*
X39773679Y-24905602D01*
X39748700Y-25031181D01*
X39748700Y-25159219D01*
X39773679Y-25284798D01*
X39822678Y-25403090D01*
X39893812Y-25509551D01*
X39958845Y-25574584D01*
X39942827Y-25594103D01*
X39908006Y-25659249D01*
X39886563Y-25729937D01*
X39879322Y-25803449D01*
X39881137Y-25821875D01*
X39881136Y-31616501D01*
X39837421Y-31551077D01*
X39677003Y-31390659D01*
X39488372Y-31264619D01*
X39278776Y-31177802D01*
X39056270Y-31133543D01*
X38829404Y-31133543D01*
X38606898Y-31177802D01*
X38397302Y-31264619D01*
X38208671Y-31390659D01*
X38048253Y-31551077D01*
X37922213Y-31739708D01*
X37835396Y-31949304D01*
X37791137Y-32171810D01*
X37791137Y-32398676D01*
X37835396Y-32621182D01*
X37922213Y-32830778D01*
X38048253Y-33019409D01*
X38208671Y-33179827D01*
X38397302Y-33305867D01*
X38606898Y-33392684D01*
X38829404Y-33436943D01*
X39056270Y-33436943D01*
X39278776Y-33392684D01*
X39488372Y-33305867D01*
X39677003Y-33179827D01*
X39837421Y-33019409D01*
X39881136Y-32953985D01*
X39881136Y-33118748D01*
X39879322Y-33137164D01*
X39881136Y-33155580D01*
X39881136Y-33155582D01*
X39886562Y-33210676D01*
X39908005Y-33281363D01*
X39942827Y-33346510D01*
X39989688Y-33403612D01*
X40004002Y-33415359D01*
X41268301Y-34679659D01*
X41268300Y-36616258D01*
X39202142Y-38682417D01*
X39187833Y-38694160D01*
X39140972Y-38751261D01*
X39106150Y-38816408D01*
X39084707Y-38887095D01*
X39083942Y-38894867D01*
X39077467Y-38960607D01*
X39079281Y-38979023D01*
X39079283Y-41673447D01*
X39077468Y-41691873D01*
X39081136Y-41729110D01*
X39084709Y-41765386D01*
X39103031Y-41825783D01*
X39106152Y-41836073D01*
X39130854Y-41882286D01*
X39140974Y-41901220D01*
X39187835Y-41958321D01*
X39202144Y-41970064D01*
X39807402Y-42575323D01*
X39807401Y-50198360D01*
X39689866Y-50080825D01*
X39501235Y-49954785D01*
X39291639Y-49867968D01*
X39069133Y-49823709D01*
X38842267Y-49823709D01*
X38619761Y-49867968D01*
X38410165Y-49954785D01*
X38306124Y-50024304D01*
X38345822Y-49964890D01*
X38394821Y-49846598D01*
X38419800Y-49721019D01*
X38419800Y-49592981D01*
X38394821Y-49467402D01*
X38345822Y-49349110D01*
X38274688Y-49242649D01*
X38184151Y-49152112D01*
X38077690Y-49080978D01*
X37959398Y-49031979D01*
X37833819Y-49007000D01*
X37705781Y-49007000D01*
X37580202Y-49031979D01*
X37461910Y-49080978D01*
X37355449Y-49152112D01*
X37264912Y-49242649D01*
X37193778Y-49349110D01*
X37144779Y-49467402D01*
X37119800Y-49592981D01*
X37119800Y-49721019D01*
X37144779Y-49846598D01*
X37193778Y-49964890D01*
X37264912Y-50071351D01*
X37354000Y-50160439D01*
X37353999Y-50306667D01*
X37310284Y-50241243D01*
X37149866Y-50080825D01*
X36961235Y-49954785D01*
X36751639Y-49867968D01*
X36529133Y-49823709D01*
X36302267Y-49823709D01*
X36079761Y-49867968D01*
X35870165Y-49954785D01*
X35681534Y-50080825D01*
X35521116Y-50241243D01*
X35395076Y-50429874D01*
X35308259Y-50639470D01*
X35264000Y-50861976D01*
X35264000Y-51088842D01*
X35308259Y-51311348D01*
X35395076Y-51520944D01*
X35521116Y-51709575D01*
X35681534Y-51869993D01*
X35870165Y-51996033D01*
X36079761Y-52082850D01*
X36302267Y-52127109D01*
X36529133Y-52127109D01*
X36751639Y-52082850D01*
X36961235Y-51996033D01*
X37149866Y-51869993D01*
X37310284Y-51709575D01*
X37353999Y-51644151D01*
X37353999Y-51912832D01*
X37352185Y-51931248D01*
X37353999Y-51949664D01*
X37353999Y-51949666D01*
X37359425Y-52004760D01*
X37380868Y-52075447D01*
X37415690Y-52140594D01*
X37462551Y-52197696D01*
X37476865Y-52209443D01*
X38735491Y-53468071D01*
X38735490Y-55869880D01*
X38432061Y-56173310D01*
X38417753Y-56185052D01*
X38406011Y-56199360D01*
X38370891Y-56242154D01*
X38359824Y-56262859D01*
X38336070Y-56307300D01*
X38325849Y-56340995D01*
X38269849Y-56378412D01*
X38179312Y-56468949D01*
X38108178Y-56575410D01*
X38059179Y-56693702D01*
X38034200Y-56819281D01*
X38034200Y-56947319D01*
X38059179Y-57072898D01*
X38108178Y-57191190D01*
X38179312Y-57297651D01*
X38269849Y-57388188D01*
X38376310Y-57459322D01*
X38494602Y-57508321D01*
X38620181Y-57533300D01*
X38748219Y-57533300D01*
X38873798Y-57508321D01*
X38992090Y-57459322D01*
X39098551Y-57388188D01*
X39189088Y-57297651D01*
X39260222Y-57191190D01*
X39309221Y-57072898D01*
X39334200Y-56947319D01*
X39334200Y-56819281D01*
X39309221Y-56693702D01*
X39260222Y-56575410D01*
X39192289Y-56473740D01*
X39362630Y-56303400D01*
X39376938Y-56291658D01*
X39423799Y-56234557D01*
X39427884Y-56226914D01*
X39605533Y-56404563D01*
X39596300Y-56450981D01*
X39596300Y-56579019D01*
X39621279Y-56704598D01*
X39670278Y-56822890D01*
X39741412Y-56929351D01*
X39831949Y-57019888D01*
X39938410Y-57091022D01*
X40056702Y-57140021D01*
X40182281Y-57165000D01*
X40310319Y-57165000D01*
X40435898Y-57140021D01*
X40554190Y-57091022D01*
X40660651Y-57019888D01*
X40684100Y-56996439D01*
X40684100Y-57006571D01*
X39714362Y-57976311D01*
X39700054Y-57988053D01*
X39673759Y-58020094D01*
X39653192Y-58045155D01*
X39618371Y-58110301D01*
X39596928Y-58180989D01*
X39589687Y-58254501D01*
X39591502Y-58272927D01*
X39591501Y-60633767D01*
X39201252Y-61024017D01*
X39186944Y-61035759D01*
X39175202Y-61050067D01*
X39140082Y-61092861D01*
X39105261Y-61158007D01*
X39083818Y-61228695D01*
X39076577Y-61302207D01*
X39078392Y-61320633D01*
X39078391Y-65674585D01*
X39076577Y-65693001D01*
X39078391Y-65711417D01*
X39078391Y-65711419D01*
X39083817Y-65766513D01*
X39105260Y-65837200D01*
X39140082Y-65902347D01*
X39186943Y-65959449D01*
X39201257Y-65971196D01*
X39426327Y-66196267D01*
X39426326Y-66875744D01*
X38794638Y-67507433D01*
X38748219Y-67498200D01*
X38620181Y-67498200D01*
X38494602Y-67523179D01*
X38376310Y-67572178D01*
X38269849Y-67643312D01*
X38179312Y-67733849D01*
X38108178Y-67840310D01*
X38059179Y-67958602D01*
X38034200Y-68084181D01*
X38034200Y-68212219D01*
X38059179Y-68337798D01*
X38108178Y-68456090D01*
X38179312Y-68562551D01*
X38269849Y-68653088D01*
X38325087Y-68689996D01*
X38203871Y-68770991D01*
X38043453Y-68931409D01*
X38027710Y-68954970D01*
X38026175Y-68939388D01*
X38004732Y-68868701D01*
X37969910Y-68803554D01*
X37923049Y-68746453D01*
X37908740Y-68734710D01*
X37045011Y-67870982D01*
X37045011Y-57503418D01*
X37183740Y-57364690D01*
X37198048Y-57352948D01*
X37218023Y-57328608D01*
X37244910Y-57295847D01*
X37268670Y-57251393D01*
X37279731Y-57230700D01*
X37301174Y-57160013D01*
X37306600Y-57104919D01*
X37306600Y-57104916D01*
X37308414Y-57086500D01*
X37306600Y-57068084D01*
X37306600Y-56728681D01*
X37345951Y-56702388D01*
X37436488Y-56611851D01*
X37507622Y-56505390D01*
X37556621Y-56387098D01*
X37581600Y-56261519D01*
X37581600Y-56133481D01*
X37556621Y-56007902D01*
X37507622Y-55889610D01*
X37436488Y-55783149D01*
X37345951Y-55692612D01*
X37239490Y-55621478D01*
X37121198Y-55572479D01*
X36995619Y-55547500D01*
X36867581Y-55547500D01*
X36742002Y-55572479D01*
X36623710Y-55621478D01*
X36517249Y-55692612D01*
X36426712Y-55783149D01*
X36355578Y-55889610D01*
X36306579Y-56007902D01*
X36281600Y-56133481D01*
X36281600Y-56261519D01*
X36306579Y-56387098D01*
X36355578Y-56505390D01*
X36426712Y-56611851D01*
X36517249Y-56702388D01*
X36556600Y-56728681D01*
X36556600Y-56931170D01*
X36417872Y-57069899D01*
X36403564Y-57081641D01*
X36377269Y-57113682D01*
X36356702Y-57138743D01*
X36334479Y-57180320D01*
X36321881Y-57203889D01*
X36307022Y-57252874D01*
X36300438Y-57274577D01*
X36293197Y-57348089D01*
X36295012Y-57366515D01*
X36295012Y-57811295D01*
X36248890Y-57780478D01*
X36130598Y-57731479D01*
X36005019Y-57706500D01*
X35876981Y-57706500D01*
X35751402Y-57731479D01*
X35633110Y-57780478D01*
X35526649Y-57851612D01*
X35436112Y-57942149D01*
X35364978Y-58048610D01*
X35315979Y-58166902D01*
X35291000Y-58292481D01*
X35291000Y-58420519D01*
X35315979Y-58546098D01*
X35364978Y-58664390D01*
X35436112Y-58770851D01*
X35526649Y-58861388D01*
X35633110Y-58932522D01*
X35751402Y-58981521D01*
X35845002Y-59000139D01*
X35845001Y-61752280D01*
X35773822Y-61645753D01*
X35553259Y-61425190D01*
X35293906Y-61251895D01*
X35005727Y-61132528D01*
X34699798Y-61071675D01*
X34387876Y-61071675D01*
X34190400Y-61110955D01*
X34190400Y-45505715D01*
X34405539Y-45548509D01*
X34717461Y-45548509D01*
X35023390Y-45487656D01*
X35311569Y-45368289D01*
X35570922Y-45194994D01*
X35791485Y-44974431D01*
X35964780Y-44715078D01*
X36084147Y-44426899D01*
X36145000Y-44120970D01*
X36145000Y-43809048D01*
X36084147Y-43503119D01*
X35964780Y-43214940D01*
X35791485Y-42955587D01*
X35570922Y-42735024D01*
X35361412Y-42595033D01*
X35440951Y-42541888D01*
X35531488Y-42451351D01*
X35602622Y-42344890D01*
X35651621Y-42226598D01*
X35676600Y-42101019D01*
X35676600Y-41972981D01*
X35651621Y-41847402D01*
X35602622Y-41729110D01*
X35531488Y-41622649D01*
X35440951Y-41532112D01*
X35401600Y-41505819D01*
X35401600Y-37608329D01*
X35923859Y-38130589D01*
X35923864Y-38130593D01*
X35935233Y-38141962D01*
X35926000Y-38188381D01*
X35926000Y-38316419D01*
X35950979Y-38441998D01*
X35999978Y-38560290D01*
X36071112Y-38666751D01*
X36161649Y-38757288D01*
X36268110Y-38828422D01*
X36386402Y-38877421D01*
X36511981Y-38902400D01*
X36640019Y-38902400D01*
X36765598Y-38877421D01*
X36883890Y-38828422D01*
X36990351Y-38757288D01*
X37080888Y-38666751D01*
X37152022Y-38560290D01*
X37201021Y-38441998D01*
X37226000Y-38316419D01*
X37226000Y-38188381D01*
X37201021Y-38062802D01*
X37152022Y-37944510D01*
X37080888Y-37838049D01*
X36990351Y-37747512D01*
X36883890Y-37676378D01*
X36765598Y-37627379D01*
X36640019Y-37602400D01*
X36511981Y-37602400D01*
X36465562Y-37611633D01*
X36454193Y-37600264D01*
X36454189Y-37600259D01*
X35876138Y-37022209D01*
X35876138Y-35757237D01*
X37499300Y-35757237D01*
X37499300Y-36023163D01*
X37551180Y-36283980D01*
X37652946Y-36529665D01*
X37800687Y-36750775D01*
X37988725Y-36938813D01*
X38209835Y-37086554D01*
X38455520Y-37188320D01*
X38716337Y-37240200D01*
X38982263Y-37240200D01*
X39243080Y-37188320D01*
X39488765Y-37086554D01*
X39709875Y-36938813D01*
X39897913Y-36750775D01*
X40045654Y-36529665D01*
X40147420Y-36283980D01*
X40199300Y-36023163D01*
X40199300Y-35757237D01*
X40147420Y-35496420D01*
X40045654Y-35250735D01*
X39897913Y-35029625D01*
X39709875Y-34841587D01*
X39488765Y-34693846D01*
X39243080Y-34592080D01*
X38982263Y-34540200D01*
X38716337Y-34540200D01*
X38455520Y-34592080D01*
X38209835Y-34693846D01*
X37988725Y-34841587D01*
X37800687Y-35029625D01*
X37652946Y-35250735D01*
X37551180Y-35496420D01*
X37499300Y-35757237D01*
X35876138Y-35757237D01*
X35876138Y-33342271D01*
X35896363Y-33322046D01*
X36066898Y-33392684D01*
X36289404Y-33436943D01*
X36516270Y-33436943D01*
X36738776Y-33392684D01*
X36948372Y-33305867D01*
X37137003Y-33179827D01*
X37297421Y-33019409D01*
X37423461Y-32830778D01*
X37510278Y-32621182D01*
X37554537Y-32398676D01*
X37554537Y-32171810D01*
X37510278Y-31949304D01*
X37423461Y-31739708D01*
X37297421Y-31551077D01*
X37137003Y-31390659D01*
X36948372Y-31264619D01*
X36738776Y-31177802D01*
X36516270Y-31133543D01*
X36289404Y-31133543D01*
X36066898Y-31177802D01*
X35857302Y-31264619D01*
X35668671Y-31390659D01*
X35508253Y-31551077D01*
X35401600Y-31710693D01*
X35401600Y-28006429D01*
X35995663Y-27412367D01*
X36042081Y-27421600D01*
X36170119Y-27421600D01*
X36295698Y-27396621D01*
X36413990Y-27347622D01*
X36520451Y-27276488D01*
X36610988Y-27185951D01*
X36682122Y-27079490D01*
X36731121Y-26961198D01*
X36756100Y-26835619D01*
X36756100Y-26707581D01*
X36731121Y-26582002D01*
X36682122Y-26463710D01*
X36610988Y-26357249D01*
X36520451Y-26266712D01*
X36413990Y-26195578D01*
X36295698Y-26146579D01*
X36170119Y-26121600D01*
X36042081Y-26121600D01*
X35916502Y-26146579D01*
X35853063Y-26172857D01*
X35951917Y-26024912D01*
X36071284Y-25736733D01*
X36132137Y-25430804D01*
X36132137Y-25118882D01*
X36071284Y-24812953D01*
X35951917Y-24524774D01*
X35778622Y-24265421D01*
X35558059Y-24044858D01*
X35298706Y-23871563D01*
X35010527Y-23752196D01*
X34704598Y-23691343D01*
X34392676Y-23691343D01*
X34190400Y-23731578D01*
X34190400Y-20138000D01*
X43708300Y-20138000D01*
X43708300Y-23734169D01*
M02*
