G04 #@! TF.GenerationSoftware,KiCad,Pcbnew,5.1.4*
G04 #@! TF.CreationDate,2019-08-21T14:15:39+02:00*
G04 #@! TF.ProjectId,ADSR,41445352-2e6b-4696-9361-645f70636258,rev?*
G04 #@! TF.SameCoordinates,Original*
G04 #@! TF.FileFunction,Soldermask,Top*
G04 #@! TF.FilePolarity,Negative*
%FSLAX46Y46*%
G04 Gerber Fmt 4.6, Leading zero omitted, Abs format (unit mm)*
G04 Created by KiCad (PCBNEW 5.1.4) date 2019-08-21 14:15:39*
%MOMM*%
%LPD*%
G04 APERTURE LIST*
%ADD10C,0.100000*%
G04 APERTURE END LIST*
D10*
G36*
X39203946Y-127483781D02*
G01*
X39274283Y-127497772D01*
X39473051Y-127580105D01*
X39651937Y-127699633D01*
X39804067Y-127851763D01*
X39923595Y-128030649D01*
X40005928Y-128229417D01*
X40047900Y-128440428D01*
X40047900Y-128655572D01*
X40005928Y-128866583D01*
X39923595Y-129065351D01*
X39804067Y-129244237D01*
X39651937Y-129396367D01*
X39473051Y-129515895D01*
X39274283Y-129598228D01*
X39203946Y-129612219D01*
X39063274Y-129640200D01*
X38848126Y-129640200D01*
X38707454Y-129612219D01*
X38637117Y-129598228D01*
X38438349Y-129515895D01*
X38259463Y-129396367D01*
X38107333Y-129244237D01*
X37987805Y-129065351D01*
X37905472Y-128866583D01*
X37863500Y-128655572D01*
X37863500Y-128440428D01*
X37905472Y-128229417D01*
X37987805Y-128030649D01*
X38107333Y-127851763D01*
X38259463Y-127699633D01*
X38438349Y-127580105D01*
X38637117Y-127497772D01*
X38707454Y-127483781D01*
X38848126Y-127455800D01*
X39063274Y-127455800D01*
X39203946Y-127483781D01*
X39203946Y-127483781D01*
G37*
G36*
X37699099Y-126516545D02*
G01*
X37736595Y-126527920D01*
X37771154Y-126546392D01*
X37801447Y-126571253D01*
X37826308Y-126601546D01*
X37844780Y-126636105D01*
X37856155Y-126673601D01*
X37860600Y-126718738D01*
X37860600Y-127357462D01*
X37856155Y-127402599D01*
X37844780Y-127440095D01*
X37826308Y-127474654D01*
X37801447Y-127504947D01*
X37771154Y-127529808D01*
X37736595Y-127548280D01*
X37699099Y-127559655D01*
X37653962Y-127564100D01*
X36915238Y-127564100D01*
X36870101Y-127559655D01*
X36832605Y-127548280D01*
X36798046Y-127529808D01*
X36767753Y-127504947D01*
X36742892Y-127474654D01*
X36724420Y-127440095D01*
X36713045Y-127402599D01*
X36708600Y-127357462D01*
X36708600Y-126718738D01*
X36713045Y-126673601D01*
X36724420Y-126636105D01*
X36742892Y-126601546D01*
X36767753Y-126571253D01*
X36798046Y-126546392D01*
X36832605Y-126527920D01*
X36870101Y-126516545D01*
X36915238Y-126512100D01*
X37653962Y-126512100D01*
X37699099Y-126516545D01*
X37699099Y-126516545D01*
G37*
G36*
X35949099Y-126516545D02*
G01*
X35986595Y-126527920D01*
X36021154Y-126546392D01*
X36051447Y-126571253D01*
X36076308Y-126601546D01*
X36094780Y-126636105D01*
X36106155Y-126673601D01*
X36110600Y-126718738D01*
X36110600Y-127357462D01*
X36106155Y-127402599D01*
X36094780Y-127440095D01*
X36076308Y-127474654D01*
X36051447Y-127504947D01*
X36021154Y-127529808D01*
X35986595Y-127548280D01*
X35949099Y-127559655D01*
X35903962Y-127564100D01*
X35165238Y-127564100D01*
X35120101Y-127559655D01*
X35082605Y-127548280D01*
X35048046Y-127529808D01*
X35017753Y-127504947D01*
X34992892Y-127474654D01*
X34974420Y-127440095D01*
X34963045Y-127402599D01*
X34958600Y-127357462D01*
X34958600Y-126718738D01*
X34963045Y-126673601D01*
X34974420Y-126636105D01*
X34992892Y-126601546D01*
X35017753Y-126571253D01*
X35048046Y-126546392D01*
X35082605Y-126527920D01*
X35120101Y-126516545D01*
X35165238Y-126512100D01*
X35903962Y-126512100D01*
X35949099Y-126516545D01*
X35949099Y-126516545D01*
G37*
G36*
X35833200Y-125583300D02*
G01*
X34931200Y-125583300D01*
X34931200Y-124581300D01*
X35833200Y-124581300D01*
X35833200Y-125583300D01*
X35833200Y-125583300D01*
G37*
G36*
X37733200Y-125583300D02*
G01*
X36831200Y-125583300D01*
X36831200Y-124581300D01*
X37733200Y-124581300D01*
X37733200Y-125583300D01*
X37733200Y-125583300D01*
G37*
G36*
X36783200Y-123583300D02*
G01*
X35881200Y-123583300D01*
X35881200Y-122581300D01*
X36783200Y-122581300D01*
X36783200Y-123583300D01*
X36783200Y-123583300D01*
G37*
G36*
X39203946Y-114097981D02*
G01*
X39274283Y-114111972D01*
X39473051Y-114194305D01*
X39651937Y-114313833D01*
X39804067Y-114465963D01*
X39923595Y-114644849D01*
X40005928Y-114843617D01*
X40047900Y-115054628D01*
X40047900Y-115269772D01*
X40005928Y-115480783D01*
X39923595Y-115679551D01*
X39804067Y-115858437D01*
X39651937Y-116010567D01*
X39473051Y-116130095D01*
X39274283Y-116212428D01*
X39205769Y-116226056D01*
X39104986Y-116246103D01*
X39081537Y-116253216D01*
X39059926Y-116264767D01*
X39040984Y-116280312D01*
X39025439Y-116299254D01*
X39013888Y-116320865D01*
X39006775Y-116344314D01*
X39004373Y-116368700D01*
X39006775Y-116393086D01*
X39013888Y-116416535D01*
X39025439Y-116438146D01*
X39040984Y-116457088D01*
X39059926Y-116472633D01*
X39081537Y-116484184D01*
X39104986Y-116491297D01*
X39205769Y-116511344D01*
X39274283Y-116524972D01*
X39473051Y-116607305D01*
X39651937Y-116726833D01*
X39804067Y-116878963D01*
X39923595Y-117057849D01*
X40005928Y-117256617D01*
X40047900Y-117467628D01*
X40047900Y-117682772D01*
X40005928Y-117893783D01*
X39923595Y-118092551D01*
X39804067Y-118271437D01*
X39651937Y-118423567D01*
X39473051Y-118543095D01*
X39274283Y-118625428D01*
X39205769Y-118639056D01*
X39104986Y-118659103D01*
X39081537Y-118666216D01*
X39059926Y-118677767D01*
X39040984Y-118693312D01*
X39025439Y-118712254D01*
X39013888Y-118733865D01*
X39006775Y-118757314D01*
X39004373Y-118781700D01*
X39006775Y-118806086D01*
X39013888Y-118829535D01*
X39025439Y-118851146D01*
X39040984Y-118870088D01*
X39059926Y-118885633D01*
X39081537Y-118897184D01*
X39104986Y-118904297D01*
X39205769Y-118924344D01*
X39274283Y-118937972D01*
X39473051Y-119020305D01*
X39651937Y-119139833D01*
X39804067Y-119291963D01*
X39923595Y-119470849D01*
X40005928Y-119669617D01*
X40047900Y-119880628D01*
X40047900Y-120095772D01*
X40005928Y-120306783D01*
X39923595Y-120505551D01*
X39804067Y-120684437D01*
X39651937Y-120836567D01*
X39473051Y-120956095D01*
X39274283Y-121038428D01*
X39203946Y-121052419D01*
X39063274Y-121080400D01*
X38848126Y-121080400D01*
X38707454Y-121052419D01*
X38637117Y-121038428D01*
X38438349Y-120956095D01*
X38259463Y-120836567D01*
X38107333Y-120684437D01*
X37987805Y-120505551D01*
X37905472Y-120306783D01*
X37863500Y-120095772D01*
X37863500Y-119880628D01*
X37905472Y-119669617D01*
X37987805Y-119470849D01*
X38107333Y-119291963D01*
X38259463Y-119139833D01*
X38438349Y-119020305D01*
X38637117Y-118937972D01*
X38705631Y-118924344D01*
X38806414Y-118904297D01*
X38829863Y-118897184D01*
X38851474Y-118885633D01*
X38870416Y-118870088D01*
X38885961Y-118851146D01*
X38897512Y-118829535D01*
X38904625Y-118806086D01*
X38907027Y-118781700D01*
X38904625Y-118757314D01*
X38897512Y-118733865D01*
X38885961Y-118712254D01*
X38870416Y-118693312D01*
X38851474Y-118677767D01*
X38829863Y-118666216D01*
X38806414Y-118659103D01*
X38705631Y-118639056D01*
X38637117Y-118625428D01*
X38438349Y-118543095D01*
X38259463Y-118423567D01*
X38107333Y-118271437D01*
X37987805Y-118092551D01*
X37905472Y-117893783D01*
X37863500Y-117682772D01*
X37863500Y-117467628D01*
X37905472Y-117256617D01*
X37987805Y-117057849D01*
X38107333Y-116878963D01*
X38259463Y-116726833D01*
X38438349Y-116607305D01*
X38637117Y-116524972D01*
X38705631Y-116511344D01*
X38806414Y-116491297D01*
X38829863Y-116484184D01*
X38851474Y-116472633D01*
X38870416Y-116457088D01*
X38885961Y-116438146D01*
X38897512Y-116416535D01*
X38904625Y-116393086D01*
X38907027Y-116368700D01*
X38904625Y-116344314D01*
X38897512Y-116320865D01*
X38885961Y-116299254D01*
X38870416Y-116280312D01*
X38851474Y-116264767D01*
X38829863Y-116253216D01*
X38806414Y-116246103D01*
X38705631Y-116226056D01*
X38637117Y-116212428D01*
X38438349Y-116130095D01*
X38259463Y-116010567D01*
X38107333Y-115858437D01*
X37987805Y-115679551D01*
X37905472Y-115480783D01*
X37863500Y-115269772D01*
X37863500Y-115054628D01*
X37905472Y-114843617D01*
X37987805Y-114644849D01*
X38107333Y-114465963D01*
X38259463Y-114313833D01*
X38438349Y-114194305D01*
X38637117Y-114111972D01*
X38707454Y-114097981D01*
X38848126Y-114070000D01*
X39063274Y-114070000D01*
X39203946Y-114097981D01*
X39203946Y-114097981D01*
G37*
G36*
X37049200Y-119777400D02*
G01*
X35747200Y-119777400D01*
X35747200Y-118775400D01*
X37049200Y-118775400D01*
X37049200Y-119777400D01*
X37049200Y-119777400D01*
G37*
G36*
X42751500Y-119777400D02*
G01*
X41449500Y-119777400D01*
X41449500Y-118775400D01*
X42751500Y-118775400D01*
X42751500Y-119777400D01*
X42751500Y-119777400D01*
G37*
G36*
X42751500Y-116477400D02*
G01*
X41449500Y-116477400D01*
X41449500Y-115475400D01*
X42751500Y-115475400D01*
X42751500Y-116477400D01*
X42751500Y-116477400D01*
G37*
G36*
X37049200Y-116477400D02*
G01*
X35747200Y-116477400D01*
X35747200Y-115475400D01*
X37049200Y-115475400D01*
X37049200Y-116477400D01*
X37049200Y-116477400D01*
G37*
G36*
X37108997Y-111243051D02*
G01*
X37142652Y-111253261D01*
X37173665Y-111269838D01*
X37200851Y-111292149D01*
X37223162Y-111319335D01*
X37239739Y-111350348D01*
X37249949Y-111384003D01*
X37254000Y-111425138D01*
X37254000Y-113754862D01*
X37249949Y-113795997D01*
X37239739Y-113829652D01*
X37223162Y-113860665D01*
X37200851Y-113887851D01*
X37173665Y-113910162D01*
X37142652Y-113926739D01*
X37108997Y-113936949D01*
X37067862Y-113941000D01*
X35738138Y-113941000D01*
X35697003Y-113936949D01*
X35663348Y-113926739D01*
X35632335Y-113910162D01*
X35605149Y-113887851D01*
X35582838Y-113860665D01*
X35566261Y-113829652D01*
X35556051Y-113795997D01*
X35552000Y-113754862D01*
X35552000Y-111425138D01*
X35556051Y-111384003D01*
X35566261Y-111350348D01*
X35582838Y-111319335D01*
X35605149Y-111292149D01*
X35632335Y-111269838D01*
X35663348Y-111253261D01*
X35697003Y-111243051D01*
X35738138Y-111239000D01*
X37067862Y-111239000D01*
X37108997Y-111243051D01*
X37108997Y-111243051D01*
G37*
G36*
X42061997Y-111221051D02*
G01*
X42095652Y-111231261D01*
X42126665Y-111247838D01*
X42153851Y-111270149D01*
X42176162Y-111297335D01*
X42192739Y-111328348D01*
X42202949Y-111362003D01*
X42207000Y-111403138D01*
X42207000Y-113732862D01*
X42202949Y-113773997D01*
X42192739Y-113807652D01*
X42176162Y-113838665D01*
X42153851Y-113865851D01*
X42126665Y-113888162D01*
X42095652Y-113904739D01*
X42061997Y-113914949D01*
X42020862Y-113919000D01*
X40691138Y-113919000D01*
X40650003Y-113914949D01*
X40616348Y-113904739D01*
X40585335Y-113888162D01*
X40558149Y-113865851D01*
X40535838Y-113838665D01*
X40519261Y-113807652D01*
X40509051Y-113773997D01*
X40505000Y-113732862D01*
X40505000Y-111403138D01*
X40509051Y-111362003D01*
X40519261Y-111328348D01*
X40535838Y-111297335D01*
X40558149Y-111270149D01*
X40585335Y-111247838D01*
X40616348Y-111231261D01*
X40650003Y-111221051D01*
X40691138Y-111217000D01*
X42020862Y-111217000D01*
X42061997Y-111221051D01*
X42061997Y-111221051D01*
G37*
G36*
X37108997Y-107643051D02*
G01*
X37142652Y-107653261D01*
X37173665Y-107669838D01*
X37200851Y-107692149D01*
X37223162Y-107719335D01*
X37239739Y-107750348D01*
X37249949Y-107784003D01*
X37254000Y-107825138D01*
X37254000Y-110154862D01*
X37249949Y-110195997D01*
X37239739Y-110229652D01*
X37223162Y-110260665D01*
X37200851Y-110287851D01*
X37173665Y-110310162D01*
X37142652Y-110326739D01*
X37108997Y-110336949D01*
X37067862Y-110341000D01*
X35738138Y-110341000D01*
X35697003Y-110336949D01*
X35663348Y-110326739D01*
X35632335Y-110310162D01*
X35605149Y-110287851D01*
X35582838Y-110260665D01*
X35566261Y-110229652D01*
X35556051Y-110195997D01*
X35552000Y-110154862D01*
X35552000Y-107825138D01*
X35556051Y-107784003D01*
X35566261Y-107750348D01*
X35582838Y-107719335D01*
X35605149Y-107692149D01*
X35632335Y-107669838D01*
X35663348Y-107653261D01*
X35697003Y-107643051D01*
X35738138Y-107639000D01*
X37067862Y-107639000D01*
X37108997Y-107643051D01*
X37108997Y-107643051D01*
G37*
G36*
X42061997Y-107621051D02*
G01*
X42095652Y-107631261D01*
X42126665Y-107647838D01*
X42153851Y-107670149D01*
X42176162Y-107697335D01*
X42192739Y-107728348D01*
X42202949Y-107762003D01*
X42207000Y-107803138D01*
X42207000Y-110132862D01*
X42202949Y-110173997D01*
X42192739Y-110207652D01*
X42176162Y-110238665D01*
X42153851Y-110265851D01*
X42126665Y-110288162D01*
X42095652Y-110304739D01*
X42061997Y-110314949D01*
X42020862Y-110319000D01*
X40691138Y-110319000D01*
X40650003Y-110314949D01*
X40616348Y-110304739D01*
X40585335Y-110288162D01*
X40558149Y-110265851D01*
X40535838Y-110238665D01*
X40519261Y-110207652D01*
X40509051Y-110173997D01*
X40505000Y-110132862D01*
X40505000Y-107803138D01*
X40509051Y-107762003D01*
X40519261Y-107728348D01*
X40535838Y-107697335D01*
X40558149Y-107670149D01*
X40585335Y-107647838D01*
X40616348Y-107631261D01*
X40650003Y-107621051D01*
X40691138Y-107617000D01*
X42020862Y-107617000D01*
X42061997Y-107621051D01*
X42061997Y-107621051D01*
G37*
G36*
X39203946Y-105538181D02*
G01*
X39274283Y-105552172D01*
X39473051Y-105634505D01*
X39651937Y-105754033D01*
X39804067Y-105906163D01*
X39923595Y-106085049D01*
X40005928Y-106283817D01*
X40047900Y-106494828D01*
X40047900Y-106709972D01*
X40005928Y-106920983D01*
X39923595Y-107119751D01*
X39804067Y-107298637D01*
X39651937Y-107450767D01*
X39473051Y-107570295D01*
X39274283Y-107652628D01*
X39228081Y-107661818D01*
X39063274Y-107694600D01*
X38848126Y-107694600D01*
X38683319Y-107661818D01*
X38637117Y-107652628D01*
X38438349Y-107570295D01*
X38259463Y-107450767D01*
X38107333Y-107298637D01*
X37987805Y-107119751D01*
X37905472Y-106920983D01*
X37863500Y-106709972D01*
X37863500Y-106494828D01*
X37905472Y-106283817D01*
X37987805Y-106085049D01*
X38107333Y-105906163D01*
X38259463Y-105754033D01*
X38438349Y-105634505D01*
X38637117Y-105552172D01*
X38707454Y-105538181D01*
X38848126Y-105510200D01*
X39063274Y-105510200D01*
X39203946Y-105538181D01*
X39203946Y-105538181D01*
G37*
G36*
X37170499Y-105801445D02*
G01*
X37207995Y-105812820D01*
X37242554Y-105831292D01*
X37272847Y-105856153D01*
X37297708Y-105886446D01*
X37316180Y-105921005D01*
X37327555Y-105958501D01*
X37332000Y-106003638D01*
X37332000Y-106642362D01*
X37327555Y-106687499D01*
X37316180Y-106724995D01*
X37297708Y-106759554D01*
X37272847Y-106789847D01*
X37242554Y-106814708D01*
X37207995Y-106833180D01*
X37170499Y-106844555D01*
X37125362Y-106849000D01*
X36386638Y-106849000D01*
X36341501Y-106844555D01*
X36304005Y-106833180D01*
X36269446Y-106814708D01*
X36239153Y-106789847D01*
X36214292Y-106759554D01*
X36195820Y-106724995D01*
X36184445Y-106687499D01*
X36180000Y-106642362D01*
X36180000Y-106003638D01*
X36184445Y-105958501D01*
X36195820Y-105921005D01*
X36214292Y-105886446D01*
X36239153Y-105856153D01*
X36269446Y-105831292D01*
X36304005Y-105812820D01*
X36341501Y-105801445D01*
X36386638Y-105797000D01*
X37125362Y-105797000D01*
X37170499Y-105801445D01*
X37170499Y-105801445D01*
G37*
G36*
X35420499Y-105801445D02*
G01*
X35457995Y-105812820D01*
X35492554Y-105831292D01*
X35522847Y-105856153D01*
X35547708Y-105886446D01*
X35566180Y-105921005D01*
X35577555Y-105958501D01*
X35582000Y-106003638D01*
X35582000Y-106642362D01*
X35577555Y-106687499D01*
X35566180Y-106724995D01*
X35547708Y-106759554D01*
X35522847Y-106789847D01*
X35492554Y-106814708D01*
X35457995Y-106833180D01*
X35420499Y-106844555D01*
X35375362Y-106849000D01*
X34636638Y-106849000D01*
X34591501Y-106844555D01*
X34554005Y-106833180D01*
X34519446Y-106814708D01*
X34489153Y-106789847D01*
X34464292Y-106759554D01*
X34445820Y-106724995D01*
X34434445Y-106687499D01*
X34430000Y-106642362D01*
X34430000Y-106003638D01*
X34434445Y-105958501D01*
X34445820Y-105921005D01*
X34464292Y-105886446D01*
X34489153Y-105856153D01*
X34519446Y-105831292D01*
X34554005Y-105812820D01*
X34591501Y-105801445D01*
X34636638Y-105797000D01*
X35375362Y-105797000D01*
X35420499Y-105801445D01*
X35420499Y-105801445D01*
G37*
G36*
X41516499Y-105801445D02*
G01*
X41553995Y-105812820D01*
X41588554Y-105831292D01*
X41618847Y-105856153D01*
X41643708Y-105886446D01*
X41662180Y-105921005D01*
X41673555Y-105958501D01*
X41678000Y-106003638D01*
X41678000Y-106642362D01*
X41673555Y-106687499D01*
X41662180Y-106724995D01*
X41643708Y-106759554D01*
X41618847Y-106789847D01*
X41588554Y-106814708D01*
X41553995Y-106833180D01*
X41516499Y-106844555D01*
X41471362Y-106849000D01*
X40732638Y-106849000D01*
X40687501Y-106844555D01*
X40650005Y-106833180D01*
X40615446Y-106814708D01*
X40585153Y-106789847D01*
X40560292Y-106759554D01*
X40541820Y-106724995D01*
X40530445Y-106687499D01*
X40526000Y-106642362D01*
X40526000Y-106003638D01*
X40530445Y-105958501D01*
X40541820Y-105921005D01*
X40560292Y-105886446D01*
X40585153Y-105856153D01*
X40615446Y-105831292D01*
X40650005Y-105812820D01*
X40687501Y-105801445D01*
X40732638Y-105797000D01*
X41471362Y-105797000D01*
X41516499Y-105801445D01*
X41516499Y-105801445D01*
G37*
G36*
X43266499Y-105801445D02*
G01*
X43303995Y-105812820D01*
X43338554Y-105831292D01*
X43368847Y-105856153D01*
X43393708Y-105886446D01*
X43412180Y-105921005D01*
X43423555Y-105958501D01*
X43428000Y-106003638D01*
X43428000Y-106642362D01*
X43423555Y-106687499D01*
X43412180Y-106724995D01*
X43393708Y-106759554D01*
X43368847Y-106789847D01*
X43338554Y-106814708D01*
X43303995Y-106833180D01*
X43266499Y-106844555D01*
X43221362Y-106849000D01*
X42482638Y-106849000D01*
X42437501Y-106844555D01*
X42400005Y-106833180D01*
X42365446Y-106814708D01*
X42335153Y-106789847D01*
X42310292Y-106759554D01*
X42291820Y-106724995D01*
X42280445Y-106687499D01*
X42276000Y-106642362D01*
X42276000Y-106003638D01*
X42280445Y-105958501D01*
X42291820Y-105921005D01*
X42310292Y-105886446D01*
X42335153Y-105856153D01*
X42365446Y-105831292D01*
X42400005Y-105812820D01*
X42437501Y-105801445D01*
X42482638Y-105797000D01*
X43221362Y-105797000D01*
X43266499Y-105801445D01*
X43266499Y-105801445D01*
G37*
G36*
X37867242Y-102710542D02*
G01*
X38015201Y-102771829D01*
X38148355Y-102860799D01*
X38261601Y-102974045D01*
X38350571Y-103107199D01*
X38411858Y-103255158D01*
X38443100Y-103412225D01*
X38443100Y-103572375D01*
X38411858Y-103729442D01*
X38350571Y-103877401D01*
X38261601Y-104010555D01*
X38148355Y-104123801D01*
X38015201Y-104212771D01*
X37867242Y-104274058D01*
X37710175Y-104305300D01*
X37550025Y-104305300D01*
X37392958Y-104274058D01*
X37244999Y-104212771D01*
X37111845Y-104123801D01*
X36998599Y-104010555D01*
X36909629Y-103877401D01*
X36848342Y-103729442D01*
X36817100Y-103572375D01*
X36817100Y-103412225D01*
X36848342Y-103255158D01*
X36909629Y-103107199D01*
X36998599Y-102974045D01*
X37111845Y-102860799D01*
X37244999Y-102771829D01*
X37392958Y-102710542D01*
X37550025Y-102679300D01*
X37710175Y-102679300D01*
X37867242Y-102710542D01*
X37867242Y-102710542D01*
G37*
G36*
X40983100Y-104305300D02*
G01*
X39357100Y-104305300D01*
X39357100Y-102679300D01*
X40983100Y-102679300D01*
X40983100Y-104305300D01*
X40983100Y-104305300D01*
G37*
G36*
X40407242Y-100170542D02*
G01*
X40555201Y-100231829D01*
X40688355Y-100320799D01*
X40801601Y-100434045D01*
X40890571Y-100567199D01*
X40951858Y-100715158D01*
X40983100Y-100872225D01*
X40983100Y-101032375D01*
X40951858Y-101189442D01*
X40890571Y-101337401D01*
X40801601Y-101470555D01*
X40688355Y-101583801D01*
X40555201Y-101672771D01*
X40407242Y-101734058D01*
X40250175Y-101765300D01*
X40090025Y-101765300D01*
X39932958Y-101734058D01*
X39784999Y-101672771D01*
X39651845Y-101583801D01*
X39538599Y-101470555D01*
X39449629Y-101337401D01*
X39388342Y-101189442D01*
X39357100Y-101032375D01*
X39357100Y-100872225D01*
X39388342Y-100715158D01*
X39449629Y-100567199D01*
X39538599Y-100434045D01*
X39651845Y-100320799D01*
X39784999Y-100231829D01*
X39932958Y-100170542D01*
X40090025Y-100139300D01*
X40250175Y-100139300D01*
X40407242Y-100170542D01*
X40407242Y-100170542D01*
G37*
G36*
X37867242Y-100170542D02*
G01*
X38015201Y-100231829D01*
X38148355Y-100320799D01*
X38261601Y-100434045D01*
X38350571Y-100567199D01*
X38411858Y-100715158D01*
X38443100Y-100872225D01*
X38443100Y-101032375D01*
X38411858Y-101189442D01*
X38350571Y-101337401D01*
X38261601Y-101470555D01*
X38148355Y-101583801D01*
X38015201Y-101672771D01*
X37867242Y-101734058D01*
X37710175Y-101765300D01*
X37550025Y-101765300D01*
X37392958Y-101734058D01*
X37244999Y-101672771D01*
X37111845Y-101583801D01*
X36998599Y-101470555D01*
X36909629Y-101337401D01*
X36848342Y-101189442D01*
X36817100Y-101032375D01*
X36817100Y-100872225D01*
X36848342Y-100715158D01*
X36909629Y-100567199D01*
X36998599Y-100434045D01*
X37111845Y-100320799D01*
X37244999Y-100231829D01*
X37392958Y-100170542D01*
X37550025Y-100139300D01*
X37710175Y-100139300D01*
X37867242Y-100170542D01*
X37867242Y-100170542D01*
G37*
G36*
X40407242Y-97630542D02*
G01*
X40555201Y-97691829D01*
X40688355Y-97780799D01*
X40801601Y-97894045D01*
X40890571Y-98027199D01*
X40951858Y-98175158D01*
X40983100Y-98332225D01*
X40983100Y-98492375D01*
X40951858Y-98649442D01*
X40890571Y-98797401D01*
X40801601Y-98930555D01*
X40688355Y-99043801D01*
X40555201Y-99132771D01*
X40407242Y-99194058D01*
X40250175Y-99225300D01*
X40090025Y-99225300D01*
X39932958Y-99194058D01*
X39784999Y-99132771D01*
X39651845Y-99043801D01*
X39538599Y-98930555D01*
X39449629Y-98797401D01*
X39388342Y-98649442D01*
X39357100Y-98492375D01*
X39357100Y-98332225D01*
X39388342Y-98175158D01*
X39449629Y-98027199D01*
X39538599Y-97894045D01*
X39651845Y-97780799D01*
X39784999Y-97691829D01*
X39932958Y-97630542D01*
X40090025Y-97599300D01*
X40250175Y-97599300D01*
X40407242Y-97630542D01*
X40407242Y-97630542D01*
G37*
G36*
X37867242Y-97630542D02*
G01*
X38015201Y-97691829D01*
X38148355Y-97780799D01*
X38261601Y-97894045D01*
X38350571Y-98027199D01*
X38411858Y-98175158D01*
X38443100Y-98332225D01*
X38443100Y-98492375D01*
X38411858Y-98649442D01*
X38350571Y-98797401D01*
X38261601Y-98930555D01*
X38148355Y-99043801D01*
X38015201Y-99132771D01*
X37867242Y-99194058D01*
X37710175Y-99225300D01*
X37550025Y-99225300D01*
X37392958Y-99194058D01*
X37244999Y-99132771D01*
X37111845Y-99043801D01*
X36998599Y-98930555D01*
X36909629Y-98797401D01*
X36848342Y-98649442D01*
X36817100Y-98492375D01*
X36817100Y-98332225D01*
X36848342Y-98175158D01*
X36909629Y-98027199D01*
X36998599Y-97894045D01*
X37111845Y-97780799D01*
X37244999Y-97691829D01*
X37392958Y-97630542D01*
X37550025Y-97599300D01*
X37710175Y-97599300D01*
X37867242Y-97630542D01*
X37867242Y-97630542D01*
G37*
G36*
X37867242Y-95090542D02*
G01*
X38015201Y-95151829D01*
X38148355Y-95240799D01*
X38261601Y-95354045D01*
X38350571Y-95487199D01*
X38411858Y-95635158D01*
X38443100Y-95792225D01*
X38443100Y-95952375D01*
X38411858Y-96109442D01*
X38350571Y-96257401D01*
X38261601Y-96390555D01*
X38148355Y-96503801D01*
X38015201Y-96592771D01*
X37867242Y-96654058D01*
X37710175Y-96685300D01*
X37550025Y-96685300D01*
X37392958Y-96654058D01*
X37244999Y-96592771D01*
X37111845Y-96503801D01*
X36998599Y-96390555D01*
X36909629Y-96257401D01*
X36848342Y-96109442D01*
X36817100Y-95952375D01*
X36817100Y-95792225D01*
X36848342Y-95635158D01*
X36909629Y-95487199D01*
X36998599Y-95354045D01*
X37111845Y-95240799D01*
X37244999Y-95151829D01*
X37392958Y-95090542D01*
X37550025Y-95059300D01*
X37710175Y-95059300D01*
X37867242Y-95090542D01*
X37867242Y-95090542D01*
G37*
G36*
X40407242Y-95090542D02*
G01*
X40555201Y-95151829D01*
X40688355Y-95240799D01*
X40801601Y-95354045D01*
X40890571Y-95487199D01*
X40951858Y-95635158D01*
X40983100Y-95792225D01*
X40983100Y-95952375D01*
X40951858Y-96109442D01*
X40890571Y-96257401D01*
X40801601Y-96390555D01*
X40688355Y-96503801D01*
X40555201Y-96592771D01*
X40407242Y-96654058D01*
X40250175Y-96685300D01*
X40090025Y-96685300D01*
X39932958Y-96654058D01*
X39784999Y-96592771D01*
X39651845Y-96503801D01*
X39538599Y-96390555D01*
X39449629Y-96257401D01*
X39388342Y-96109442D01*
X39357100Y-95952375D01*
X39357100Y-95792225D01*
X39388342Y-95635158D01*
X39449629Y-95487199D01*
X39538599Y-95354045D01*
X39651845Y-95240799D01*
X39784999Y-95151829D01*
X39932958Y-95090542D01*
X40090025Y-95059300D01*
X40250175Y-95059300D01*
X40407242Y-95090542D01*
X40407242Y-95090542D01*
G37*
G36*
X40407242Y-92550542D02*
G01*
X40555201Y-92611829D01*
X40688355Y-92700799D01*
X40801601Y-92814045D01*
X40890571Y-92947199D01*
X40951858Y-93095158D01*
X40983100Y-93252225D01*
X40983100Y-93412375D01*
X40951858Y-93569442D01*
X40890571Y-93717401D01*
X40801601Y-93850555D01*
X40688355Y-93963801D01*
X40555201Y-94052771D01*
X40407242Y-94114058D01*
X40250175Y-94145300D01*
X40090025Y-94145300D01*
X39932958Y-94114058D01*
X39784999Y-94052771D01*
X39651845Y-93963801D01*
X39538599Y-93850555D01*
X39449629Y-93717401D01*
X39388342Y-93569442D01*
X39357100Y-93412375D01*
X39357100Y-93252225D01*
X39388342Y-93095158D01*
X39449629Y-92947199D01*
X39538599Y-92814045D01*
X39651845Y-92700799D01*
X39784999Y-92611829D01*
X39932958Y-92550542D01*
X40090025Y-92519300D01*
X40250175Y-92519300D01*
X40407242Y-92550542D01*
X40407242Y-92550542D01*
G37*
G36*
X37867242Y-92550542D02*
G01*
X38015201Y-92611829D01*
X38148355Y-92700799D01*
X38261601Y-92814045D01*
X38350571Y-92947199D01*
X38411858Y-93095158D01*
X38443100Y-93252225D01*
X38443100Y-93412375D01*
X38411858Y-93569442D01*
X38350571Y-93717401D01*
X38261601Y-93850555D01*
X38148355Y-93963801D01*
X38015201Y-94052771D01*
X37867242Y-94114058D01*
X37710175Y-94145300D01*
X37550025Y-94145300D01*
X37392958Y-94114058D01*
X37244999Y-94052771D01*
X37111845Y-93963801D01*
X36998599Y-93850555D01*
X36909629Y-93717401D01*
X36848342Y-93569442D01*
X36817100Y-93412375D01*
X36817100Y-93252225D01*
X36848342Y-93095158D01*
X36909629Y-92947199D01*
X36998599Y-92814045D01*
X37111845Y-92700799D01*
X37244999Y-92611829D01*
X37392958Y-92550542D01*
X37550025Y-92519300D01*
X37710175Y-92519300D01*
X37867242Y-92550542D01*
X37867242Y-92550542D01*
G37*
G36*
X36000699Y-91476745D02*
G01*
X36038195Y-91488120D01*
X36072754Y-91506592D01*
X36103047Y-91531453D01*
X36127908Y-91561746D01*
X36146380Y-91596305D01*
X36157755Y-91633801D01*
X36162200Y-91678938D01*
X36162200Y-92417662D01*
X36157755Y-92462799D01*
X36146380Y-92500295D01*
X36127908Y-92534854D01*
X36103047Y-92565147D01*
X36072754Y-92590008D01*
X36038195Y-92608480D01*
X36000699Y-92619855D01*
X35955562Y-92624300D01*
X35316838Y-92624300D01*
X35271701Y-92619855D01*
X35234205Y-92608480D01*
X35199646Y-92590008D01*
X35169353Y-92565147D01*
X35144492Y-92534854D01*
X35126020Y-92500295D01*
X35114645Y-92462799D01*
X35110200Y-92417662D01*
X35110200Y-91678938D01*
X35114645Y-91633801D01*
X35126020Y-91596305D01*
X35144492Y-91561746D01*
X35169353Y-91531453D01*
X35199646Y-91506592D01*
X35234205Y-91488120D01*
X35271701Y-91476745D01*
X35316838Y-91472300D01*
X35955562Y-91472300D01*
X36000699Y-91476745D01*
X36000699Y-91476745D01*
G37*
G36*
X41159200Y-91781400D02*
G01*
X39257200Y-91781400D01*
X39257200Y-89879400D01*
X41159200Y-89879400D01*
X41159200Y-91781400D01*
X41159200Y-91781400D01*
G37*
G36*
X37945595Y-89915946D02*
G01*
X38118666Y-89987634D01*
X38118667Y-89987635D01*
X38274427Y-90091710D01*
X38406890Y-90224173D01*
X38406891Y-90224175D01*
X38510966Y-90379934D01*
X38582654Y-90553005D01*
X38619200Y-90736733D01*
X38619200Y-90924067D01*
X38582654Y-91107795D01*
X38510966Y-91280866D01*
X38510965Y-91280867D01*
X38406890Y-91436627D01*
X38274427Y-91569090D01*
X38196018Y-91621481D01*
X38118666Y-91673166D01*
X37945595Y-91744854D01*
X37761867Y-91781400D01*
X37574533Y-91781400D01*
X37390805Y-91744854D01*
X37217734Y-91673166D01*
X37140382Y-91621481D01*
X37061973Y-91569090D01*
X36929510Y-91436627D01*
X36825435Y-91280867D01*
X36825434Y-91280866D01*
X36753746Y-91107795D01*
X36717200Y-90924067D01*
X36717200Y-90736733D01*
X36753746Y-90553005D01*
X36825434Y-90379934D01*
X36929509Y-90224175D01*
X36929510Y-90224173D01*
X37061973Y-90091710D01*
X37217733Y-89987635D01*
X37217734Y-89987634D01*
X37390805Y-89915946D01*
X37574533Y-89879400D01*
X37761867Y-89879400D01*
X37945595Y-89915946D01*
X37945595Y-89915946D01*
G37*
G36*
X36000699Y-89726745D02*
G01*
X36038195Y-89738120D01*
X36072754Y-89756592D01*
X36103047Y-89781453D01*
X36127908Y-89811746D01*
X36146380Y-89846305D01*
X36157755Y-89883801D01*
X36162200Y-89928938D01*
X36162200Y-90667662D01*
X36157755Y-90712799D01*
X36146380Y-90750295D01*
X36127908Y-90784854D01*
X36103047Y-90815147D01*
X36072754Y-90840008D01*
X36038195Y-90858480D01*
X36000699Y-90869855D01*
X35955562Y-90874300D01*
X35316838Y-90874300D01*
X35271701Y-90869855D01*
X35234205Y-90858480D01*
X35199646Y-90840008D01*
X35169353Y-90815147D01*
X35144492Y-90784854D01*
X35126020Y-90750295D01*
X35114645Y-90712799D01*
X35110200Y-90667662D01*
X35110200Y-89928938D01*
X35114645Y-89883801D01*
X35126020Y-89846305D01*
X35144492Y-89811746D01*
X35169353Y-89781453D01*
X35199646Y-89756592D01*
X35234205Y-89738120D01*
X35271701Y-89726745D01*
X35316838Y-89722300D01*
X35955562Y-89722300D01*
X36000699Y-89726745D01*
X36000699Y-89726745D01*
G37*
G36*
X41717829Y-87439654D02*
G01*
X41891210Y-87511471D01*
X42047248Y-87615732D01*
X42179948Y-87748432D01*
X42284209Y-87904470D01*
X42356026Y-88077851D01*
X42392637Y-88261910D01*
X42392637Y-88449576D01*
X42356026Y-88633635D01*
X42284209Y-88807016D01*
X42179948Y-88963054D01*
X42047248Y-89095754D01*
X41891210Y-89200015D01*
X41891209Y-89200016D01*
X41891208Y-89200016D01*
X41717829Y-89271832D01*
X41533771Y-89308443D01*
X41346103Y-89308443D01*
X41162045Y-89271832D01*
X40988666Y-89200016D01*
X40988665Y-89200016D01*
X40988664Y-89200015D01*
X40832626Y-89095754D01*
X40699926Y-88963054D01*
X40595665Y-88807016D01*
X40523848Y-88633635D01*
X40487237Y-88449576D01*
X40487237Y-88261910D01*
X40523848Y-88077851D01*
X40595665Y-87904470D01*
X40699926Y-87748432D01*
X40832626Y-87615732D01*
X40988664Y-87511471D01*
X41162045Y-87439654D01*
X41346103Y-87403043D01*
X41533771Y-87403043D01*
X41717829Y-87439654D01*
X41717829Y-87439654D01*
G37*
G36*
X39177829Y-87439654D02*
G01*
X39351210Y-87511471D01*
X39507248Y-87615732D01*
X39639948Y-87748432D01*
X39744209Y-87904470D01*
X39816026Y-88077851D01*
X39852637Y-88261910D01*
X39852637Y-88449576D01*
X39816026Y-88633635D01*
X39744209Y-88807016D01*
X39639948Y-88963054D01*
X39507248Y-89095754D01*
X39351210Y-89200015D01*
X39351209Y-89200016D01*
X39351208Y-89200016D01*
X39177829Y-89271832D01*
X38993771Y-89308443D01*
X38806103Y-89308443D01*
X38622045Y-89271832D01*
X38448666Y-89200016D01*
X38448665Y-89200016D01*
X38448664Y-89200015D01*
X38292626Y-89095754D01*
X38159926Y-88963054D01*
X38055665Y-88807016D01*
X37983848Y-88633635D01*
X37947237Y-88449576D01*
X37947237Y-88261910D01*
X37983848Y-88077851D01*
X38055665Y-87904470D01*
X38159926Y-87748432D01*
X38292626Y-87615732D01*
X38448664Y-87511471D01*
X38622045Y-87439654D01*
X38806103Y-87403043D01*
X38993771Y-87403043D01*
X39177829Y-87439654D01*
X39177829Y-87439654D01*
G37*
G36*
X36637829Y-87439654D02*
G01*
X36811210Y-87511471D01*
X36967248Y-87615732D01*
X37099948Y-87748432D01*
X37204209Y-87904470D01*
X37276026Y-88077851D01*
X37312637Y-88261910D01*
X37312637Y-88449576D01*
X37276026Y-88633635D01*
X37204209Y-88807016D01*
X37099948Y-88963054D01*
X36967248Y-89095754D01*
X36811210Y-89200015D01*
X36811209Y-89200016D01*
X36811208Y-89200016D01*
X36637829Y-89271832D01*
X36453771Y-89308443D01*
X36266103Y-89308443D01*
X36082045Y-89271832D01*
X35908666Y-89200016D01*
X35908665Y-89200016D01*
X35908664Y-89200015D01*
X35752626Y-89095754D01*
X35619926Y-88963054D01*
X35515665Y-88807016D01*
X35443848Y-88633635D01*
X35407237Y-88449576D01*
X35407237Y-88261910D01*
X35443848Y-88077851D01*
X35515665Y-87904470D01*
X35619926Y-87748432D01*
X35752626Y-87615732D01*
X35908664Y-87511471D01*
X36082045Y-87439654D01*
X36266103Y-87403043D01*
X36453771Y-87403043D01*
X36637829Y-87439654D01*
X36637829Y-87439654D01*
G37*
G36*
X43061899Y-86244345D02*
G01*
X43099395Y-86255720D01*
X43133954Y-86274192D01*
X43164247Y-86299053D01*
X43189108Y-86329346D01*
X43207580Y-86363905D01*
X43218955Y-86401401D01*
X43223400Y-86446538D01*
X43223400Y-87185262D01*
X43218955Y-87230399D01*
X43207580Y-87267895D01*
X43189108Y-87302454D01*
X43164247Y-87332747D01*
X43133954Y-87357608D01*
X43099395Y-87376080D01*
X43061899Y-87387455D01*
X43016762Y-87391900D01*
X42378038Y-87391900D01*
X42332901Y-87387455D01*
X42295405Y-87376080D01*
X42260846Y-87357608D01*
X42230553Y-87332747D01*
X42205692Y-87302454D01*
X42187220Y-87267895D01*
X42175845Y-87230399D01*
X42171400Y-87185262D01*
X42171400Y-86446538D01*
X42175845Y-86401401D01*
X42187220Y-86363905D01*
X42205692Y-86329346D01*
X42230553Y-86299053D01*
X42260846Y-86274192D01*
X42295405Y-86255720D01*
X42332901Y-86244345D01*
X42378038Y-86239900D01*
X43016762Y-86239900D01*
X43061899Y-86244345D01*
X43061899Y-86244345D01*
G37*
G36*
X39911500Y-86253800D02*
G01*
X39209500Y-86253800D01*
X39209500Y-84601800D01*
X39911500Y-84601800D01*
X39911500Y-86253800D01*
X39911500Y-86253800D01*
G37*
G36*
X38641500Y-86253800D02*
G01*
X37939500Y-86253800D01*
X37939500Y-84601800D01*
X38641500Y-84601800D01*
X38641500Y-86253800D01*
X38641500Y-86253800D01*
G37*
G36*
X37371500Y-86253800D02*
G01*
X36669500Y-86253800D01*
X36669500Y-84601800D01*
X37371500Y-84601800D01*
X37371500Y-86253800D01*
X37371500Y-86253800D01*
G37*
G36*
X41181500Y-86253800D02*
G01*
X40479500Y-86253800D01*
X40479500Y-84601800D01*
X41181500Y-84601800D01*
X41181500Y-86253800D01*
X41181500Y-86253800D01*
G37*
G36*
X43061899Y-84494345D02*
G01*
X43099395Y-84505720D01*
X43133954Y-84524192D01*
X43164247Y-84549053D01*
X43189108Y-84579346D01*
X43207580Y-84613905D01*
X43218955Y-84651401D01*
X43223400Y-84696538D01*
X43223400Y-85435262D01*
X43218955Y-85480399D01*
X43207580Y-85517895D01*
X43189108Y-85552454D01*
X43164247Y-85582747D01*
X43133954Y-85607608D01*
X43099395Y-85626080D01*
X43061899Y-85637455D01*
X43016762Y-85641900D01*
X42378038Y-85641900D01*
X42332901Y-85637455D01*
X42295405Y-85626080D01*
X42260846Y-85607608D01*
X42230553Y-85582747D01*
X42205692Y-85552454D01*
X42187220Y-85517895D01*
X42175845Y-85480399D01*
X42171400Y-85435262D01*
X42171400Y-84696538D01*
X42175845Y-84651401D01*
X42187220Y-84613905D01*
X42205692Y-84579346D01*
X42230553Y-84549053D01*
X42260846Y-84524192D01*
X42295405Y-84505720D01*
X42332901Y-84494345D01*
X42378038Y-84489900D01*
X43016762Y-84489900D01*
X43061899Y-84494345D01*
X43061899Y-84494345D01*
G37*
G36*
X34909580Y-80014048D02*
G01*
X35161542Y-80118414D01*
X35161544Y-80118415D01*
X35218618Y-80156551D01*
X35388304Y-80269931D01*
X35581149Y-80462776D01*
X35732666Y-80689538D01*
X35837032Y-80941500D01*
X35890237Y-81208980D01*
X35890237Y-81481706D01*
X35837032Y-81749186D01*
X35732666Y-82001148D01*
X35581149Y-82227910D01*
X35388304Y-82420755D01*
X35218618Y-82534135D01*
X35161544Y-82572271D01*
X35161543Y-82572272D01*
X35161542Y-82572272D01*
X34909580Y-82676638D01*
X34642100Y-82729843D01*
X34369374Y-82729843D01*
X34101894Y-82676638D01*
X33849932Y-82572272D01*
X33849931Y-82572272D01*
X33849930Y-82572271D01*
X33792856Y-82534135D01*
X33623170Y-82420755D01*
X33430325Y-82227910D01*
X33278808Y-82001148D01*
X33174442Y-81749186D01*
X33121237Y-81481706D01*
X33121237Y-81208980D01*
X33174442Y-80941500D01*
X33278808Y-80689538D01*
X33430325Y-80462776D01*
X33623170Y-80269931D01*
X33792856Y-80156551D01*
X33849930Y-80118415D01*
X33849932Y-80118414D01*
X34101894Y-80014048D01*
X34369374Y-79960843D01*
X34642100Y-79960843D01*
X34909580Y-80014048D01*
X34909580Y-80014048D01*
G37*
G36*
X43697980Y-80014048D02*
G01*
X43949942Y-80118414D01*
X43949944Y-80118415D01*
X44007018Y-80156551D01*
X44176704Y-80269931D01*
X44369549Y-80462776D01*
X44521066Y-80689538D01*
X44625432Y-80941500D01*
X44678637Y-81208980D01*
X44678637Y-81481706D01*
X44625432Y-81749186D01*
X44521066Y-82001148D01*
X44369549Y-82227910D01*
X44176704Y-82420755D01*
X44007018Y-82534135D01*
X43949944Y-82572271D01*
X43949943Y-82572272D01*
X43949942Y-82572272D01*
X43697980Y-82676638D01*
X43430500Y-82729843D01*
X43157774Y-82729843D01*
X42890294Y-82676638D01*
X42638332Y-82572272D01*
X42638331Y-82572272D01*
X42638330Y-82572271D01*
X42581256Y-82534135D01*
X42411570Y-82420755D01*
X42218725Y-82227910D01*
X42067208Y-82001148D01*
X41962842Y-81749186D01*
X41909637Y-81481706D01*
X41909637Y-81208980D01*
X41962842Y-80941500D01*
X42067208Y-80689538D01*
X42218725Y-80462776D01*
X42411570Y-80269931D01*
X42581256Y-80156551D01*
X42638330Y-80118415D01*
X42638332Y-80118414D01*
X42890294Y-80014048D01*
X43157774Y-79960843D01*
X43430500Y-79960843D01*
X43697980Y-80014048D01*
X43697980Y-80014048D01*
G37*
G36*
X38641500Y-80853800D02*
G01*
X37939500Y-80853800D01*
X37939500Y-79201800D01*
X38641500Y-79201800D01*
X38641500Y-80853800D01*
X38641500Y-80853800D01*
G37*
G36*
X37371500Y-80853800D02*
G01*
X36669500Y-80853800D01*
X36669500Y-79201800D01*
X37371500Y-79201800D01*
X37371500Y-80853800D01*
X37371500Y-80853800D01*
G37*
G36*
X39911500Y-80853800D02*
G01*
X39209500Y-80853800D01*
X39209500Y-79201800D01*
X39911500Y-79201800D01*
X39911500Y-80853800D01*
X39911500Y-80853800D01*
G37*
G36*
X41181500Y-80853800D02*
G01*
X40479500Y-80853800D01*
X40479500Y-79201800D01*
X41181500Y-79201800D01*
X41181500Y-80853800D01*
X41181500Y-80853800D01*
G37*
G36*
X41243899Y-77370545D02*
G01*
X41281395Y-77381920D01*
X41315954Y-77400392D01*
X41346247Y-77425253D01*
X41371108Y-77455546D01*
X41389580Y-77490105D01*
X41400955Y-77527601D01*
X41405400Y-77572738D01*
X41405400Y-78311462D01*
X41400955Y-78356599D01*
X41389580Y-78394095D01*
X41371108Y-78428654D01*
X41346247Y-78458947D01*
X41315954Y-78483808D01*
X41281395Y-78502280D01*
X41243899Y-78513655D01*
X41198762Y-78518100D01*
X40560038Y-78518100D01*
X40514901Y-78513655D01*
X40477405Y-78502280D01*
X40442846Y-78483808D01*
X40412553Y-78458947D01*
X40387692Y-78428654D01*
X40369220Y-78394095D01*
X40357845Y-78356599D01*
X40353400Y-78311462D01*
X40353400Y-77572738D01*
X40357845Y-77527601D01*
X40369220Y-77490105D01*
X40387692Y-77455546D01*
X40412553Y-77425253D01*
X40442846Y-77400392D01*
X40477405Y-77381920D01*
X40514901Y-77370545D01*
X40560038Y-77366100D01*
X41198762Y-77366100D01*
X41243899Y-77370545D01*
X41243899Y-77370545D01*
G37*
G36*
X41243899Y-75620545D02*
G01*
X41281395Y-75631920D01*
X41315954Y-75650392D01*
X41346247Y-75675253D01*
X41371108Y-75705546D01*
X41389580Y-75740105D01*
X41400955Y-75777601D01*
X41405400Y-75822738D01*
X41405400Y-76561462D01*
X41400955Y-76606599D01*
X41389580Y-76644095D01*
X41371108Y-76678654D01*
X41346247Y-76708947D01*
X41315954Y-76733808D01*
X41281395Y-76752280D01*
X41243899Y-76763655D01*
X41198762Y-76768100D01*
X40560038Y-76768100D01*
X40514901Y-76763655D01*
X40477405Y-76752280D01*
X40442846Y-76733808D01*
X40412553Y-76708947D01*
X40387692Y-76678654D01*
X40369220Y-76644095D01*
X40357845Y-76606599D01*
X40353400Y-76561462D01*
X40353400Y-75822738D01*
X40357845Y-75777601D01*
X40369220Y-75740105D01*
X40387692Y-75705546D01*
X40412553Y-75675253D01*
X40442846Y-75650392D01*
X40477405Y-75631920D01*
X40514901Y-75620545D01*
X40560038Y-75616100D01*
X41198762Y-75616100D01*
X41243899Y-75620545D01*
X41243899Y-75620545D01*
G37*
G36*
X39309049Y-73744845D02*
G01*
X39346545Y-73756220D01*
X39381104Y-73774692D01*
X39411397Y-73799553D01*
X39436258Y-73829846D01*
X39454730Y-73864405D01*
X39466105Y-73901901D01*
X39470550Y-73947038D01*
X39470550Y-74685762D01*
X39466105Y-74730899D01*
X39454730Y-74768395D01*
X39436258Y-74802954D01*
X39411397Y-74833247D01*
X39381104Y-74858108D01*
X39346545Y-74876580D01*
X39309049Y-74887955D01*
X39263912Y-74892400D01*
X38625188Y-74892400D01*
X38580051Y-74887955D01*
X38542555Y-74876580D01*
X38507996Y-74858108D01*
X38477703Y-74833247D01*
X38452842Y-74802954D01*
X38434370Y-74768395D01*
X38422995Y-74730899D01*
X38418550Y-74685762D01*
X38418550Y-73947038D01*
X38422995Y-73901901D01*
X38434370Y-73864405D01*
X38452842Y-73829846D01*
X38477703Y-73799553D01*
X38507996Y-73774692D01*
X38542555Y-73756220D01*
X38580051Y-73744845D01*
X38625188Y-73740400D01*
X39263912Y-73740400D01*
X39309049Y-73744845D01*
X39309049Y-73744845D01*
G37*
G36*
X37334199Y-73744845D02*
G01*
X37371695Y-73756220D01*
X37406254Y-73774692D01*
X37436547Y-73799553D01*
X37461408Y-73829846D01*
X37479880Y-73864405D01*
X37491255Y-73901901D01*
X37495700Y-73947038D01*
X37495700Y-74685762D01*
X37491255Y-74730899D01*
X37479880Y-74768395D01*
X37461408Y-74802954D01*
X37436547Y-74833247D01*
X37406254Y-74858108D01*
X37371695Y-74876580D01*
X37334199Y-74887955D01*
X37289062Y-74892400D01*
X36650338Y-74892400D01*
X36605201Y-74887955D01*
X36567705Y-74876580D01*
X36533146Y-74858108D01*
X36502853Y-74833247D01*
X36477992Y-74802954D01*
X36459520Y-74768395D01*
X36448145Y-74730899D01*
X36443700Y-74685762D01*
X36443700Y-73947038D01*
X36448145Y-73901901D01*
X36459520Y-73864405D01*
X36477992Y-73829846D01*
X36502853Y-73799553D01*
X36533146Y-73774692D01*
X36567705Y-73756220D01*
X36605201Y-73744845D01*
X36650338Y-73740400D01*
X37289062Y-73740400D01*
X37334199Y-73744845D01*
X37334199Y-73744845D01*
G37*
G36*
X41283899Y-73744845D02*
G01*
X41321395Y-73756220D01*
X41355954Y-73774692D01*
X41386247Y-73799553D01*
X41411108Y-73829846D01*
X41429580Y-73864405D01*
X41440955Y-73901901D01*
X41445400Y-73947038D01*
X41445400Y-74685762D01*
X41440955Y-74730899D01*
X41429580Y-74768395D01*
X41411108Y-74802954D01*
X41386247Y-74833247D01*
X41355954Y-74858108D01*
X41321395Y-74876580D01*
X41283899Y-74887955D01*
X41238762Y-74892400D01*
X40600038Y-74892400D01*
X40554901Y-74887955D01*
X40517405Y-74876580D01*
X40482846Y-74858108D01*
X40452553Y-74833247D01*
X40427692Y-74802954D01*
X40409220Y-74768395D01*
X40397845Y-74730899D01*
X40393400Y-74685762D01*
X40393400Y-73947038D01*
X40397845Y-73901901D01*
X40409220Y-73864405D01*
X40427692Y-73829846D01*
X40452553Y-73799553D01*
X40482846Y-73774692D01*
X40517405Y-73756220D01*
X40554901Y-73744845D01*
X40600038Y-73740400D01*
X41238762Y-73740400D01*
X41283899Y-73744845D01*
X41283899Y-73744845D01*
G37*
G36*
X39309049Y-71994845D02*
G01*
X39346545Y-72006220D01*
X39381104Y-72024692D01*
X39411397Y-72049553D01*
X39436258Y-72079846D01*
X39454730Y-72114405D01*
X39466105Y-72151901D01*
X39470550Y-72197038D01*
X39470550Y-72935762D01*
X39466105Y-72980899D01*
X39454730Y-73018395D01*
X39436258Y-73052954D01*
X39411397Y-73083247D01*
X39381104Y-73108108D01*
X39346545Y-73126580D01*
X39309049Y-73137955D01*
X39263912Y-73142400D01*
X38625188Y-73142400D01*
X38580051Y-73137955D01*
X38542555Y-73126580D01*
X38507996Y-73108108D01*
X38477703Y-73083247D01*
X38452842Y-73052954D01*
X38434370Y-73018395D01*
X38422995Y-72980899D01*
X38418550Y-72935762D01*
X38418550Y-72197038D01*
X38422995Y-72151901D01*
X38434370Y-72114405D01*
X38452842Y-72079846D01*
X38477703Y-72049553D01*
X38507996Y-72024692D01*
X38542555Y-72006220D01*
X38580051Y-71994845D01*
X38625188Y-71990400D01*
X39263912Y-71990400D01*
X39309049Y-71994845D01*
X39309049Y-71994845D01*
G37*
G36*
X41283899Y-71994845D02*
G01*
X41321395Y-72006220D01*
X41355954Y-72024692D01*
X41386247Y-72049553D01*
X41411108Y-72079846D01*
X41429580Y-72114405D01*
X41440955Y-72151901D01*
X41445400Y-72197038D01*
X41445400Y-72935762D01*
X41440955Y-72980899D01*
X41429580Y-73018395D01*
X41411108Y-73052954D01*
X41386247Y-73083247D01*
X41355954Y-73108108D01*
X41321395Y-73126580D01*
X41283899Y-73137955D01*
X41238762Y-73142400D01*
X40600038Y-73142400D01*
X40554901Y-73137955D01*
X40517405Y-73126580D01*
X40482846Y-73108108D01*
X40452553Y-73083247D01*
X40427692Y-73052954D01*
X40409220Y-73018395D01*
X40397845Y-72980899D01*
X40393400Y-72935762D01*
X40393400Y-72197038D01*
X40397845Y-72151901D01*
X40409220Y-72114405D01*
X40427692Y-72079846D01*
X40452553Y-72049553D01*
X40482846Y-72024692D01*
X40517405Y-72006220D01*
X40554901Y-71994845D01*
X40600038Y-71990400D01*
X41238762Y-71990400D01*
X41283899Y-71994845D01*
X41283899Y-71994845D01*
G37*
G36*
X37334199Y-71994845D02*
G01*
X37371695Y-72006220D01*
X37406254Y-72024692D01*
X37436547Y-72049553D01*
X37461408Y-72079846D01*
X37479880Y-72114405D01*
X37491255Y-72151901D01*
X37495700Y-72197038D01*
X37495700Y-72935762D01*
X37491255Y-72980899D01*
X37479880Y-73018395D01*
X37461408Y-73052954D01*
X37436547Y-73083247D01*
X37406254Y-73108108D01*
X37371695Y-73126580D01*
X37334199Y-73137955D01*
X37289062Y-73142400D01*
X36650338Y-73142400D01*
X36605201Y-73137955D01*
X36567705Y-73126580D01*
X36533146Y-73108108D01*
X36502853Y-73083247D01*
X36477992Y-73052954D01*
X36459520Y-73018395D01*
X36448145Y-72980899D01*
X36443700Y-72935762D01*
X36443700Y-72197038D01*
X36448145Y-72151901D01*
X36459520Y-72114405D01*
X36477992Y-72079846D01*
X36502853Y-72049553D01*
X36533146Y-72024692D01*
X36567705Y-72006220D01*
X36605201Y-71994845D01*
X36650338Y-71990400D01*
X37289062Y-71990400D01*
X37334199Y-71994845D01*
X37334199Y-71994845D01*
G37*
G36*
X36675929Y-68749486D02*
G01*
X36849310Y-68821303D01*
X37005348Y-68925564D01*
X37138048Y-69058264D01*
X37242309Y-69214302D01*
X37314126Y-69387683D01*
X37350737Y-69571742D01*
X37350737Y-69759408D01*
X37314126Y-69943467D01*
X37242309Y-70116848D01*
X37138048Y-70272886D01*
X37005348Y-70405586D01*
X36849310Y-70509847D01*
X36849309Y-70509848D01*
X36849308Y-70509848D01*
X36675929Y-70581664D01*
X36491871Y-70618275D01*
X36304203Y-70618275D01*
X36120145Y-70581664D01*
X35946766Y-70509848D01*
X35946765Y-70509848D01*
X35946764Y-70509847D01*
X35790726Y-70405586D01*
X35658026Y-70272886D01*
X35553765Y-70116848D01*
X35481948Y-69943467D01*
X35445337Y-69759408D01*
X35445337Y-69571742D01*
X35481948Y-69387683D01*
X35553765Y-69214302D01*
X35658026Y-69058264D01*
X35790726Y-68925564D01*
X35946764Y-68821303D01*
X36120145Y-68749486D01*
X36304203Y-68712875D01*
X36491871Y-68712875D01*
X36675929Y-68749486D01*
X36675929Y-68749486D01*
G37*
G36*
X39215929Y-68749486D02*
G01*
X39389310Y-68821303D01*
X39545348Y-68925564D01*
X39678048Y-69058264D01*
X39782309Y-69214302D01*
X39854126Y-69387683D01*
X39890737Y-69571742D01*
X39890737Y-69759408D01*
X39854126Y-69943467D01*
X39782309Y-70116848D01*
X39678048Y-70272886D01*
X39545348Y-70405586D01*
X39389310Y-70509847D01*
X39389309Y-70509848D01*
X39389308Y-70509848D01*
X39215929Y-70581664D01*
X39031871Y-70618275D01*
X38844203Y-70618275D01*
X38660145Y-70581664D01*
X38486766Y-70509848D01*
X38486765Y-70509848D01*
X38486764Y-70509847D01*
X38330726Y-70405586D01*
X38198026Y-70272886D01*
X38093765Y-70116848D01*
X38021948Y-69943467D01*
X37985337Y-69759408D01*
X37985337Y-69571742D01*
X38021948Y-69387683D01*
X38093765Y-69214302D01*
X38198026Y-69058264D01*
X38330726Y-68925564D01*
X38486764Y-68821303D01*
X38660145Y-68749486D01*
X38844203Y-68712875D01*
X39031871Y-68712875D01*
X39215929Y-68749486D01*
X39215929Y-68749486D01*
G37*
G36*
X41755929Y-68749486D02*
G01*
X41929310Y-68821303D01*
X42085348Y-68925564D01*
X42218048Y-69058264D01*
X42322309Y-69214302D01*
X42394126Y-69387683D01*
X42430737Y-69571742D01*
X42430737Y-69759408D01*
X42394126Y-69943467D01*
X42322309Y-70116848D01*
X42218048Y-70272886D01*
X42085348Y-70405586D01*
X41929310Y-70509847D01*
X41929309Y-70509848D01*
X41929308Y-70509848D01*
X41755929Y-70581664D01*
X41571871Y-70618275D01*
X41384203Y-70618275D01*
X41200145Y-70581664D01*
X41026766Y-70509848D01*
X41026765Y-70509848D01*
X41026764Y-70509847D01*
X40870726Y-70405586D01*
X40738026Y-70272886D01*
X40633765Y-70116848D01*
X40561948Y-69943467D01*
X40525337Y-69759408D01*
X40525337Y-69571742D01*
X40561948Y-69387683D01*
X40633765Y-69214302D01*
X40738026Y-69058264D01*
X40870726Y-68925564D01*
X41026764Y-68821303D01*
X41200145Y-68749486D01*
X41384203Y-68712875D01*
X41571871Y-68712875D01*
X41755929Y-68749486D01*
X41755929Y-68749486D01*
G37*
G36*
X41207699Y-66559345D02*
G01*
X41245195Y-66570720D01*
X41279754Y-66589192D01*
X41310047Y-66614053D01*
X41334908Y-66644346D01*
X41353380Y-66678905D01*
X41364755Y-66716401D01*
X41369200Y-66761538D01*
X41369200Y-67500262D01*
X41364755Y-67545399D01*
X41353380Y-67582895D01*
X41334908Y-67617454D01*
X41310047Y-67647747D01*
X41279754Y-67672608D01*
X41245195Y-67691080D01*
X41207699Y-67702455D01*
X41162562Y-67706900D01*
X40523838Y-67706900D01*
X40478701Y-67702455D01*
X40441205Y-67691080D01*
X40406646Y-67672608D01*
X40376353Y-67647747D01*
X40351492Y-67617454D01*
X40333020Y-67582895D01*
X40321645Y-67545399D01*
X40317200Y-67500262D01*
X40317200Y-66761538D01*
X40321645Y-66716401D01*
X40333020Y-66678905D01*
X40351492Y-66644346D01*
X40376353Y-66614053D01*
X40406646Y-66589192D01*
X40441205Y-66570720D01*
X40478701Y-66559345D01*
X40523838Y-66554900D01*
X41162562Y-66554900D01*
X41207699Y-66559345D01*
X41207699Y-66559345D01*
G37*
G36*
X38485000Y-67652000D02*
G01*
X37583000Y-67652000D01*
X37583000Y-66650000D01*
X38485000Y-66650000D01*
X38485000Y-67652000D01*
X38485000Y-67652000D01*
G37*
G36*
X41207699Y-64809345D02*
G01*
X41245195Y-64820720D01*
X41279754Y-64839192D01*
X41310047Y-64864053D01*
X41334908Y-64894346D01*
X41353380Y-64928905D01*
X41364755Y-64966401D01*
X41369200Y-65011538D01*
X41369200Y-65750262D01*
X41364755Y-65795399D01*
X41353380Y-65832895D01*
X41334908Y-65867454D01*
X41310047Y-65897747D01*
X41279754Y-65922608D01*
X41245195Y-65941080D01*
X41207699Y-65952455D01*
X41162562Y-65956900D01*
X40523838Y-65956900D01*
X40478701Y-65952455D01*
X40441205Y-65941080D01*
X40406646Y-65922608D01*
X40376353Y-65897747D01*
X40351492Y-65867454D01*
X40333020Y-65832895D01*
X40321645Y-65795399D01*
X40317200Y-65750262D01*
X40317200Y-65011538D01*
X40321645Y-64966401D01*
X40333020Y-64928905D01*
X40351492Y-64894346D01*
X40376353Y-64864053D01*
X40406646Y-64839192D01*
X40441205Y-64820720D01*
X40478701Y-64809345D01*
X40523838Y-64804900D01*
X41162562Y-64804900D01*
X41207699Y-64809345D01*
X41207699Y-64809345D01*
G37*
G36*
X39435000Y-65652000D02*
G01*
X38533000Y-65652000D01*
X38533000Y-64650000D01*
X39435000Y-64650000D01*
X39435000Y-65652000D01*
X39435000Y-65652000D01*
G37*
G36*
X37535000Y-65652000D02*
G01*
X36633000Y-65652000D01*
X36633000Y-64650000D01*
X37535000Y-64650000D01*
X37535000Y-65652000D01*
X37535000Y-65652000D01*
G37*
G36*
X43736080Y-61323880D02*
G01*
X43988042Y-61428246D01*
X43988044Y-61428247D01*
X44045118Y-61466383D01*
X44214804Y-61579763D01*
X44407649Y-61772608D01*
X44559166Y-61999370D01*
X44663532Y-62251332D01*
X44716737Y-62518812D01*
X44716737Y-62791538D01*
X44663532Y-63059018D01*
X44559166Y-63310980D01*
X44407649Y-63537742D01*
X44214804Y-63730587D01*
X44045118Y-63843967D01*
X43988044Y-63882103D01*
X43988043Y-63882104D01*
X43988042Y-63882104D01*
X43736080Y-63986470D01*
X43468600Y-64039675D01*
X43195874Y-64039675D01*
X42928394Y-63986470D01*
X42676432Y-63882104D01*
X42676431Y-63882104D01*
X42676430Y-63882103D01*
X42619356Y-63843967D01*
X42449670Y-63730587D01*
X42256825Y-63537742D01*
X42105308Y-63310980D01*
X42000942Y-63059018D01*
X41947737Y-62791538D01*
X41947737Y-62518812D01*
X42000942Y-62251332D01*
X42105308Y-61999370D01*
X42256825Y-61772608D01*
X42449670Y-61579763D01*
X42619356Y-61466383D01*
X42676430Y-61428247D01*
X42676432Y-61428246D01*
X42928394Y-61323880D01*
X43195874Y-61270675D01*
X43468600Y-61270675D01*
X43736080Y-61323880D01*
X43736080Y-61323880D01*
G37*
G36*
X34947680Y-61323880D02*
G01*
X35199642Y-61428246D01*
X35199644Y-61428247D01*
X35256718Y-61466383D01*
X35426404Y-61579763D01*
X35619249Y-61772608D01*
X35770766Y-61999370D01*
X35875132Y-62251332D01*
X35928337Y-62518812D01*
X35928337Y-62791538D01*
X35875132Y-63059018D01*
X35770766Y-63310980D01*
X35619249Y-63537742D01*
X35426404Y-63730587D01*
X35256718Y-63843967D01*
X35199644Y-63882103D01*
X35199643Y-63882104D01*
X35199642Y-63882104D01*
X34947680Y-63986470D01*
X34680200Y-64039675D01*
X34407474Y-64039675D01*
X34139994Y-63986470D01*
X33888032Y-63882104D01*
X33888031Y-63882104D01*
X33888030Y-63882103D01*
X33830956Y-63843967D01*
X33661270Y-63730587D01*
X33468425Y-63537742D01*
X33316908Y-63310980D01*
X33212542Y-63059018D01*
X33159337Y-62791538D01*
X33159337Y-62518812D01*
X33212542Y-62251332D01*
X33316908Y-61999370D01*
X33468425Y-61772608D01*
X33661270Y-61579763D01*
X33830956Y-61466383D01*
X33888030Y-61428247D01*
X33888032Y-61428246D01*
X34139994Y-61323880D01*
X34407474Y-61270675D01*
X34680200Y-61270675D01*
X34947680Y-61323880D01*
X34947680Y-61323880D01*
G37*
G36*
X39356849Y-59460045D02*
G01*
X39394345Y-59471420D01*
X39428904Y-59489892D01*
X39459197Y-59514753D01*
X39484058Y-59545046D01*
X39502530Y-59579605D01*
X39513905Y-59617101D01*
X39518350Y-59662238D01*
X39518350Y-60400962D01*
X39513905Y-60446099D01*
X39502530Y-60483595D01*
X39484058Y-60518154D01*
X39459197Y-60548447D01*
X39428904Y-60573308D01*
X39394345Y-60591780D01*
X39356849Y-60603155D01*
X39311712Y-60607600D01*
X38672988Y-60607600D01*
X38627851Y-60603155D01*
X38590355Y-60591780D01*
X38555796Y-60573308D01*
X38525503Y-60548447D01*
X38500642Y-60518154D01*
X38482170Y-60483595D01*
X38470795Y-60446099D01*
X38466350Y-60400962D01*
X38466350Y-59662238D01*
X38470795Y-59617101D01*
X38482170Y-59579605D01*
X38500642Y-59545046D01*
X38525503Y-59514753D01*
X38555796Y-59489892D01*
X38590355Y-59471420D01*
X38627851Y-59460045D01*
X38672988Y-59455600D01*
X39311712Y-59455600D01*
X39356849Y-59460045D01*
X39356849Y-59460045D01*
G37*
G36*
X41036599Y-59460045D02*
G01*
X41074095Y-59471420D01*
X41108654Y-59489892D01*
X41138947Y-59514753D01*
X41163808Y-59545046D01*
X41182280Y-59579605D01*
X41193655Y-59617101D01*
X41198100Y-59662238D01*
X41198100Y-60400962D01*
X41193655Y-60446099D01*
X41182280Y-60483595D01*
X41163808Y-60518154D01*
X41138947Y-60548447D01*
X41108654Y-60573308D01*
X41074095Y-60591780D01*
X41036599Y-60603155D01*
X40991462Y-60607600D01*
X40352738Y-60607600D01*
X40307601Y-60603155D01*
X40270105Y-60591780D01*
X40235546Y-60573308D01*
X40205253Y-60548447D01*
X40180392Y-60518154D01*
X40161920Y-60483595D01*
X40150545Y-60446099D01*
X40146100Y-60400962D01*
X40146100Y-59662238D01*
X40150545Y-59617101D01*
X40161920Y-59579605D01*
X40180392Y-59545046D01*
X40205253Y-59514753D01*
X40235546Y-59489892D01*
X40270105Y-59471420D01*
X40307601Y-59460045D01*
X40352738Y-59455600D01*
X40991462Y-59455600D01*
X41036599Y-59460045D01*
X41036599Y-59460045D01*
G37*
G36*
X37677099Y-59460045D02*
G01*
X37714595Y-59471420D01*
X37749154Y-59489892D01*
X37779447Y-59514753D01*
X37804308Y-59545046D01*
X37822780Y-59579605D01*
X37834155Y-59617101D01*
X37838600Y-59662238D01*
X37838600Y-60400962D01*
X37834155Y-60446099D01*
X37822780Y-60483595D01*
X37804308Y-60518154D01*
X37779447Y-60548447D01*
X37749154Y-60573308D01*
X37714595Y-60591780D01*
X37677099Y-60603155D01*
X37631962Y-60607600D01*
X36993238Y-60607600D01*
X36948101Y-60603155D01*
X36910605Y-60591780D01*
X36876046Y-60573308D01*
X36845753Y-60548447D01*
X36820892Y-60518154D01*
X36802420Y-60483595D01*
X36791045Y-60446099D01*
X36786600Y-60400962D01*
X36786600Y-59662238D01*
X36791045Y-59617101D01*
X36802420Y-59579605D01*
X36820892Y-59545046D01*
X36845753Y-59514753D01*
X36876046Y-59489892D01*
X36910605Y-59471420D01*
X36948101Y-59460045D01*
X36993238Y-59455600D01*
X37631962Y-59455600D01*
X37677099Y-59460045D01*
X37677099Y-59460045D01*
G37*
G36*
X39356849Y-57710045D02*
G01*
X39394345Y-57721420D01*
X39428904Y-57739892D01*
X39459197Y-57764753D01*
X39484058Y-57795046D01*
X39502530Y-57829605D01*
X39513905Y-57867101D01*
X39518350Y-57912238D01*
X39518350Y-58650962D01*
X39513905Y-58696099D01*
X39502530Y-58733595D01*
X39484058Y-58768154D01*
X39459197Y-58798447D01*
X39428904Y-58823308D01*
X39394345Y-58841780D01*
X39356849Y-58853155D01*
X39311712Y-58857600D01*
X38672988Y-58857600D01*
X38627851Y-58853155D01*
X38590355Y-58841780D01*
X38555796Y-58823308D01*
X38525503Y-58798447D01*
X38500642Y-58768154D01*
X38482170Y-58733595D01*
X38470795Y-58696099D01*
X38466350Y-58650962D01*
X38466350Y-57912238D01*
X38470795Y-57867101D01*
X38482170Y-57829605D01*
X38500642Y-57795046D01*
X38525503Y-57764753D01*
X38555796Y-57739892D01*
X38590355Y-57721420D01*
X38627851Y-57710045D01*
X38672988Y-57705600D01*
X39311712Y-57705600D01*
X39356849Y-57710045D01*
X39356849Y-57710045D01*
G37*
G36*
X37677099Y-57710045D02*
G01*
X37714595Y-57721420D01*
X37749154Y-57739892D01*
X37779447Y-57764753D01*
X37804308Y-57795046D01*
X37822780Y-57829605D01*
X37834155Y-57867101D01*
X37838600Y-57912238D01*
X37838600Y-58650962D01*
X37834155Y-58696099D01*
X37822780Y-58733595D01*
X37804308Y-58768154D01*
X37779447Y-58798447D01*
X37749154Y-58823308D01*
X37714595Y-58841780D01*
X37677099Y-58853155D01*
X37631962Y-58857600D01*
X36993238Y-58857600D01*
X36948101Y-58853155D01*
X36910605Y-58841780D01*
X36876046Y-58823308D01*
X36845753Y-58798447D01*
X36820892Y-58768154D01*
X36802420Y-58733595D01*
X36791045Y-58696099D01*
X36786600Y-58650962D01*
X36786600Y-57912238D01*
X36791045Y-57867101D01*
X36802420Y-57829605D01*
X36820892Y-57795046D01*
X36845753Y-57764753D01*
X36876046Y-57739892D01*
X36910605Y-57721420D01*
X36948101Y-57710045D01*
X36993238Y-57705600D01*
X37631962Y-57705600D01*
X37677099Y-57710045D01*
X37677099Y-57710045D01*
G37*
G36*
X41036599Y-57710045D02*
G01*
X41074095Y-57721420D01*
X41108654Y-57739892D01*
X41138947Y-57764753D01*
X41163808Y-57795046D01*
X41182280Y-57829605D01*
X41193655Y-57867101D01*
X41198100Y-57912238D01*
X41198100Y-58650962D01*
X41193655Y-58696099D01*
X41182280Y-58733595D01*
X41163808Y-58768154D01*
X41138947Y-58798447D01*
X41108654Y-58823308D01*
X41074095Y-58841780D01*
X41036599Y-58853155D01*
X40991462Y-58857600D01*
X40352738Y-58857600D01*
X40307601Y-58853155D01*
X40270105Y-58841780D01*
X40235546Y-58823308D01*
X40205253Y-58798447D01*
X40180392Y-58768154D01*
X40161920Y-58733595D01*
X40150545Y-58696099D01*
X40146100Y-58650962D01*
X40146100Y-57912238D01*
X40150545Y-57867101D01*
X40161920Y-57829605D01*
X40180392Y-57795046D01*
X40205253Y-57764753D01*
X40235546Y-57739892D01*
X40270105Y-57721420D01*
X40307601Y-57710045D01*
X40352738Y-57705600D01*
X40991462Y-57705600D01*
X41036599Y-57710045D01*
X41036599Y-57710045D01*
G37*
G36*
X40033165Y-54717145D02*
G01*
X40070661Y-54728520D01*
X40105220Y-54746992D01*
X40135513Y-54771853D01*
X40160374Y-54802146D01*
X40178846Y-54836705D01*
X40190221Y-54874201D01*
X40194666Y-54919338D01*
X40194666Y-55658062D01*
X40190221Y-55703199D01*
X40178846Y-55740695D01*
X40160374Y-55775254D01*
X40135513Y-55805547D01*
X40105220Y-55830408D01*
X40070661Y-55848880D01*
X40033165Y-55860255D01*
X39988028Y-55864700D01*
X39349304Y-55864700D01*
X39304167Y-55860255D01*
X39266671Y-55848880D01*
X39232112Y-55830408D01*
X39201819Y-55805547D01*
X39176958Y-55775254D01*
X39158486Y-55740695D01*
X39147111Y-55703199D01*
X39142666Y-55658062D01*
X39142666Y-54919338D01*
X39147111Y-54874201D01*
X39158486Y-54836705D01*
X39176958Y-54802146D01*
X39201819Y-54771853D01*
X39232112Y-54746992D01*
X39266671Y-54728520D01*
X39304167Y-54717145D01*
X39349304Y-54712700D01*
X39988028Y-54712700D01*
X40033165Y-54717145D01*
X40033165Y-54717145D01*
G37*
G36*
X38289032Y-54672145D02*
G01*
X38326528Y-54683520D01*
X38361087Y-54701992D01*
X38391380Y-54726853D01*
X38416241Y-54757146D01*
X38434713Y-54791705D01*
X38446088Y-54829201D01*
X38450533Y-54874338D01*
X38450533Y-55613062D01*
X38446088Y-55658199D01*
X38434713Y-55695695D01*
X38416241Y-55730254D01*
X38391380Y-55760547D01*
X38361087Y-55785408D01*
X38326528Y-55803880D01*
X38289032Y-55815255D01*
X38243895Y-55819700D01*
X37605171Y-55819700D01*
X37560034Y-55815255D01*
X37522538Y-55803880D01*
X37487979Y-55785408D01*
X37457686Y-55760547D01*
X37432825Y-55730254D01*
X37414353Y-55695695D01*
X37402978Y-55658199D01*
X37398533Y-55613062D01*
X37398533Y-54874338D01*
X37402978Y-54829201D01*
X37414353Y-54791705D01*
X37432825Y-54757146D01*
X37457686Y-54726853D01*
X37487979Y-54701992D01*
X37522538Y-54683520D01*
X37560034Y-54672145D01*
X37605171Y-54667700D01*
X38243895Y-54667700D01*
X38289032Y-54672145D01*
X38289032Y-54672145D01*
G37*
G36*
X36584899Y-54672145D02*
G01*
X36622395Y-54683520D01*
X36656954Y-54701992D01*
X36687247Y-54726853D01*
X36712108Y-54757146D01*
X36730580Y-54791705D01*
X36741955Y-54829201D01*
X36746400Y-54874338D01*
X36746400Y-55613062D01*
X36741955Y-55658199D01*
X36730580Y-55695695D01*
X36712108Y-55730254D01*
X36687247Y-55760547D01*
X36656954Y-55785408D01*
X36622395Y-55803880D01*
X36584899Y-55815255D01*
X36539762Y-55819700D01*
X35901038Y-55819700D01*
X35855901Y-55815255D01*
X35818405Y-55803880D01*
X35783846Y-55785408D01*
X35753553Y-55760547D01*
X35728692Y-55730254D01*
X35710220Y-55695695D01*
X35698845Y-55658199D01*
X35694400Y-55613062D01*
X35694400Y-54874338D01*
X35698845Y-54829201D01*
X35710220Y-54791705D01*
X35728692Y-54757146D01*
X35753553Y-54726853D01*
X35783846Y-54701992D01*
X35818405Y-54683520D01*
X35855901Y-54672145D01*
X35901038Y-54667700D01*
X36539762Y-54667700D01*
X36584899Y-54672145D01*
X36584899Y-54672145D01*
G37*
G36*
X41817299Y-54672145D02*
G01*
X41854795Y-54683520D01*
X41889354Y-54701992D01*
X41919647Y-54726853D01*
X41944508Y-54757146D01*
X41962980Y-54791705D01*
X41974355Y-54829201D01*
X41978800Y-54874338D01*
X41978800Y-55613062D01*
X41974355Y-55658199D01*
X41962980Y-55695695D01*
X41944508Y-55730254D01*
X41919647Y-55760547D01*
X41889354Y-55785408D01*
X41854795Y-55803880D01*
X41817299Y-55815255D01*
X41772162Y-55819700D01*
X41133438Y-55819700D01*
X41088301Y-55815255D01*
X41050805Y-55803880D01*
X41016246Y-55785408D01*
X40985953Y-55760547D01*
X40961092Y-55730254D01*
X40942620Y-55695695D01*
X40931245Y-55658199D01*
X40926800Y-55613062D01*
X40926800Y-54874338D01*
X40931245Y-54829201D01*
X40942620Y-54791705D01*
X40961092Y-54757146D01*
X40985953Y-54726853D01*
X41016246Y-54701992D01*
X41050805Y-54683520D01*
X41088301Y-54672145D01*
X41133438Y-54667700D01*
X41772162Y-54667700D01*
X41817299Y-54672145D01*
X41817299Y-54672145D01*
G37*
G36*
X40033165Y-52967145D02*
G01*
X40070661Y-52978520D01*
X40105220Y-52996992D01*
X40135513Y-53021853D01*
X40160374Y-53052146D01*
X40178846Y-53086705D01*
X40190221Y-53124201D01*
X40194666Y-53169338D01*
X40194666Y-53908062D01*
X40190221Y-53953199D01*
X40178846Y-53990695D01*
X40160374Y-54025254D01*
X40135513Y-54055547D01*
X40105220Y-54080408D01*
X40070661Y-54098880D01*
X40033165Y-54110255D01*
X39988028Y-54114700D01*
X39349304Y-54114700D01*
X39304167Y-54110255D01*
X39266671Y-54098880D01*
X39232112Y-54080408D01*
X39201819Y-54055547D01*
X39176958Y-54025254D01*
X39158486Y-53990695D01*
X39147111Y-53953199D01*
X39142666Y-53908062D01*
X39142666Y-53169338D01*
X39147111Y-53124201D01*
X39158486Y-53086705D01*
X39176958Y-53052146D01*
X39201819Y-53021853D01*
X39232112Y-52996992D01*
X39266671Y-52978520D01*
X39304167Y-52967145D01*
X39349304Y-52962700D01*
X39988028Y-52962700D01*
X40033165Y-52967145D01*
X40033165Y-52967145D01*
G37*
G36*
X38289032Y-52922145D02*
G01*
X38326528Y-52933520D01*
X38361087Y-52951992D01*
X38391380Y-52976853D01*
X38416241Y-53007146D01*
X38434713Y-53041705D01*
X38446088Y-53079201D01*
X38450533Y-53124338D01*
X38450533Y-53863062D01*
X38446088Y-53908199D01*
X38434713Y-53945695D01*
X38416241Y-53980254D01*
X38391380Y-54010547D01*
X38361087Y-54035408D01*
X38326528Y-54053880D01*
X38289032Y-54065255D01*
X38243895Y-54069700D01*
X37605171Y-54069700D01*
X37560034Y-54065255D01*
X37522538Y-54053880D01*
X37487979Y-54035408D01*
X37457686Y-54010547D01*
X37432825Y-53980254D01*
X37414353Y-53945695D01*
X37402978Y-53908199D01*
X37398533Y-53863062D01*
X37398533Y-53124338D01*
X37402978Y-53079201D01*
X37414353Y-53041705D01*
X37432825Y-53007146D01*
X37457686Y-52976853D01*
X37487979Y-52951992D01*
X37522538Y-52933520D01*
X37560034Y-52922145D01*
X37605171Y-52917700D01*
X38243895Y-52917700D01*
X38289032Y-52922145D01*
X38289032Y-52922145D01*
G37*
G36*
X41817299Y-52922145D02*
G01*
X41854795Y-52933520D01*
X41889354Y-52951992D01*
X41919647Y-52976853D01*
X41944508Y-53007146D01*
X41962980Y-53041705D01*
X41974355Y-53079201D01*
X41978800Y-53124338D01*
X41978800Y-53863062D01*
X41974355Y-53908199D01*
X41962980Y-53945695D01*
X41944508Y-53980254D01*
X41919647Y-54010547D01*
X41889354Y-54035408D01*
X41854795Y-54053880D01*
X41817299Y-54065255D01*
X41772162Y-54069700D01*
X41133438Y-54069700D01*
X41088301Y-54065255D01*
X41050805Y-54053880D01*
X41016246Y-54035408D01*
X40985953Y-54010547D01*
X40961092Y-53980254D01*
X40942620Y-53945695D01*
X40931245Y-53908199D01*
X40926800Y-53863062D01*
X40926800Y-53124338D01*
X40931245Y-53079201D01*
X40942620Y-53041705D01*
X40961092Y-53007146D01*
X40985953Y-52976853D01*
X41016246Y-52951992D01*
X41050805Y-52933520D01*
X41088301Y-52922145D01*
X41133438Y-52917700D01*
X41772162Y-52917700D01*
X41817299Y-52922145D01*
X41817299Y-52922145D01*
G37*
G36*
X36584899Y-52922145D02*
G01*
X36622395Y-52933520D01*
X36656954Y-52951992D01*
X36687247Y-52976853D01*
X36712108Y-53007146D01*
X36730580Y-53041705D01*
X36741955Y-53079201D01*
X36746400Y-53124338D01*
X36746400Y-53863062D01*
X36741955Y-53908199D01*
X36730580Y-53945695D01*
X36712108Y-53980254D01*
X36687247Y-54010547D01*
X36656954Y-54035408D01*
X36622395Y-54053880D01*
X36584899Y-54065255D01*
X36539762Y-54069700D01*
X35901038Y-54069700D01*
X35855901Y-54065255D01*
X35818405Y-54053880D01*
X35783846Y-54035408D01*
X35753553Y-54010547D01*
X35728692Y-53980254D01*
X35710220Y-53945695D01*
X35698845Y-53908199D01*
X35694400Y-53863062D01*
X35694400Y-53124338D01*
X35698845Y-53079201D01*
X35710220Y-53041705D01*
X35728692Y-53007146D01*
X35753553Y-52976853D01*
X35783846Y-52951992D01*
X35818405Y-52933520D01*
X35855901Y-52922145D01*
X35901038Y-52917700D01*
X36539762Y-52917700D01*
X36584899Y-52922145D01*
X36584899Y-52922145D01*
G37*
G36*
X41773592Y-50059320D02*
G01*
X41946973Y-50131137D01*
X42103011Y-50235398D01*
X42235711Y-50368098D01*
X42339972Y-50524136D01*
X42411789Y-50697517D01*
X42448400Y-50881576D01*
X42448400Y-51069242D01*
X42411789Y-51253301D01*
X42339972Y-51426682D01*
X42235711Y-51582720D01*
X42103011Y-51715420D01*
X41946973Y-51819681D01*
X41946972Y-51819682D01*
X41946971Y-51819682D01*
X41773592Y-51891498D01*
X41589534Y-51928109D01*
X41401866Y-51928109D01*
X41217808Y-51891498D01*
X41044429Y-51819682D01*
X41044428Y-51819682D01*
X41044427Y-51819681D01*
X40888389Y-51715420D01*
X40755689Y-51582720D01*
X40651428Y-51426682D01*
X40579611Y-51253301D01*
X40543000Y-51069242D01*
X40543000Y-50881576D01*
X40579611Y-50697517D01*
X40651428Y-50524136D01*
X40755689Y-50368098D01*
X40888389Y-50235398D01*
X41044427Y-50131137D01*
X41217808Y-50059320D01*
X41401866Y-50022709D01*
X41589534Y-50022709D01*
X41773592Y-50059320D01*
X41773592Y-50059320D01*
G37*
G36*
X39233592Y-50059320D02*
G01*
X39406973Y-50131137D01*
X39563011Y-50235398D01*
X39695711Y-50368098D01*
X39799972Y-50524136D01*
X39871789Y-50697517D01*
X39908400Y-50881576D01*
X39908400Y-51069242D01*
X39871789Y-51253301D01*
X39799972Y-51426682D01*
X39695711Y-51582720D01*
X39563011Y-51715420D01*
X39406973Y-51819681D01*
X39406972Y-51819682D01*
X39406971Y-51819682D01*
X39233592Y-51891498D01*
X39049534Y-51928109D01*
X38861866Y-51928109D01*
X38677808Y-51891498D01*
X38504429Y-51819682D01*
X38504428Y-51819682D01*
X38504427Y-51819681D01*
X38348389Y-51715420D01*
X38215689Y-51582720D01*
X38111428Y-51426682D01*
X38039611Y-51253301D01*
X38003000Y-51069242D01*
X38003000Y-50881576D01*
X38039611Y-50697517D01*
X38111428Y-50524136D01*
X38215689Y-50368098D01*
X38348389Y-50235398D01*
X38504427Y-50131137D01*
X38677808Y-50059320D01*
X38861866Y-50022709D01*
X39049534Y-50022709D01*
X39233592Y-50059320D01*
X39233592Y-50059320D01*
G37*
G36*
X36693592Y-50059320D02*
G01*
X36866973Y-50131137D01*
X37023011Y-50235398D01*
X37155711Y-50368098D01*
X37259972Y-50524136D01*
X37331789Y-50697517D01*
X37368400Y-50881576D01*
X37368400Y-51069242D01*
X37331789Y-51253301D01*
X37259972Y-51426682D01*
X37155711Y-51582720D01*
X37023011Y-51715420D01*
X36866973Y-51819681D01*
X36866972Y-51819682D01*
X36866971Y-51819682D01*
X36693592Y-51891498D01*
X36509534Y-51928109D01*
X36321866Y-51928109D01*
X36137808Y-51891498D01*
X35964429Y-51819682D01*
X35964428Y-51819682D01*
X35964427Y-51819681D01*
X35808389Y-51715420D01*
X35675689Y-51582720D01*
X35571428Y-51426682D01*
X35499611Y-51253301D01*
X35463000Y-51069242D01*
X35463000Y-50881576D01*
X35499611Y-50697517D01*
X35571428Y-50524136D01*
X35675689Y-50368098D01*
X35808389Y-50235398D01*
X35964427Y-50131137D01*
X36137808Y-50059320D01*
X36321866Y-50022709D01*
X36509534Y-50022709D01*
X36693592Y-50059320D01*
X36693592Y-50059320D01*
G37*
G36*
X43112699Y-48144345D02*
G01*
X43150195Y-48155720D01*
X43184754Y-48174192D01*
X43215047Y-48199053D01*
X43239908Y-48229346D01*
X43258380Y-48263905D01*
X43269755Y-48301401D01*
X43274200Y-48346538D01*
X43274200Y-49085262D01*
X43269755Y-49130399D01*
X43258380Y-49167895D01*
X43239908Y-49202454D01*
X43215047Y-49232747D01*
X43184754Y-49257608D01*
X43150195Y-49276080D01*
X43112699Y-49287455D01*
X43067562Y-49291900D01*
X42428838Y-49291900D01*
X42383701Y-49287455D01*
X42346205Y-49276080D01*
X42311646Y-49257608D01*
X42281353Y-49232747D01*
X42256492Y-49202454D01*
X42238020Y-49167895D01*
X42226645Y-49130399D01*
X42222200Y-49085262D01*
X42222200Y-48346538D01*
X42226645Y-48301401D01*
X42238020Y-48263905D01*
X42256492Y-48229346D01*
X42281353Y-48199053D01*
X42311646Y-48174192D01*
X42346205Y-48155720D01*
X42383701Y-48144345D01*
X42428838Y-48139900D01*
X43067562Y-48139900D01*
X43112699Y-48144345D01*
X43112699Y-48144345D01*
G37*
G36*
X38641500Y-48903100D02*
G01*
X37939500Y-48903100D01*
X37939500Y-47251100D01*
X38641500Y-47251100D01*
X38641500Y-48903100D01*
X38641500Y-48903100D01*
G37*
G36*
X37371500Y-48903100D02*
G01*
X36669500Y-48903100D01*
X36669500Y-47251100D01*
X37371500Y-47251100D01*
X37371500Y-48903100D01*
X37371500Y-48903100D01*
G37*
G36*
X39911500Y-48903100D02*
G01*
X39209500Y-48903100D01*
X39209500Y-47251100D01*
X39911500Y-47251100D01*
X39911500Y-48903100D01*
X39911500Y-48903100D01*
G37*
G36*
X41181500Y-48903100D02*
G01*
X40479500Y-48903100D01*
X40479500Y-47251100D01*
X41181500Y-47251100D01*
X41181500Y-48903100D01*
X41181500Y-48903100D01*
G37*
G36*
X43112699Y-46394345D02*
G01*
X43150195Y-46405720D01*
X43184754Y-46424192D01*
X43215047Y-46449053D01*
X43239908Y-46479346D01*
X43258380Y-46513905D01*
X43269755Y-46551401D01*
X43274200Y-46596538D01*
X43274200Y-47335262D01*
X43269755Y-47380399D01*
X43258380Y-47417895D01*
X43239908Y-47452454D01*
X43215047Y-47482747D01*
X43184754Y-47507608D01*
X43150195Y-47526080D01*
X43112699Y-47537455D01*
X43067562Y-47541900D01*
X42428838Y-47541900D01*
X42383701Y-47537455D01*
X42346205Y-47526080D01*
X42311646Y-47507608D01*
X42281353Y-47482747D01*
X42256492Y-47452454D01*
X42238020Y-47417895D01*
X42226645Y-47380399D01*
X42222200Y-47335262D01*
X42222200Y-46596538D01*
X42226645Y-46551401D01*
X42238020Y-46513905D01*
X42256492Y-46479346D01*
X42281353Y-46449053D01*
X42311646Y-46424192D01*
X42346205Y-46405720D01*
X42383701Y-46394345D01*
X42428838Y-46389900D01*
X43067562Y-46389900D01*
X43112699Y-46394345D01*
X43112699Y-46394345D01*
G37*
G36*
X43753743Y-42633714D02*
G01*
X44005705Y-42738080D01*
X44005707Y-42738081D01*
X44062781Y-42776217D01*
X44232467Y-42889597D01*
X44425312Y-43082442D01*
X44576829Y-43309204D01*
X44681195Y-43561166D01*
X44734400Y-43828646D01*
X44734400Y-44101372D01*
X44681195Y-44368852D01*
X44576829Y-44620814D01*
X44425312Y-44847576D01*
X44232467Y-45040421D01*
X44062781Y-45153801D01*
X44005707Y-45191937D01*
X44005706Y-45191938D01*
X44005705Y-45191938D01*
X43753743Y-45296304D01*
X43486263Y-45349509D01*
X43213537Y-45349509D01*
X42946057Y-45296304D01*
X42694095Y-45191938D01*
X42694094Y-45191938D01*
X42694093Y-45191937D01*
X42637019Y-45153801D01*
X42467333Y-45040421D01*
X42274488Y-44847576D01*
X42122971Y-44620814D01*
X42018605Y-44368852D01*
X41965400Y-44101372D01*
X41965400Y-43828646D01*
X42018605Y-43561166D01*
X42122971Y-43309204D01*
X42274488Y-43082442D01*
X42467333Y-42889597D01*
X42637019Y-42776217D01*
X42694093Y-42738081D01*
X42694095Y-42738080D01*
X42946057Y-42633714D01*
X43213537Y-42580509D01*
X43486263Y-42580509D01*
X43753743Y-42633714D01*
X43753743Y-42633714D01*
G37*
G36*
X34965343Y-42633714D02*
G01*
X35217305Y-42738080D01*
X35217307Y-42738081D01*
X35274381Y-42776217D01*
X35444067Y-42889597D01*
X35636912Y-43082442D01*
X35788429Y-43309204D01*
X35892795Y-43561166D01*
X35946000Y-43828646D01*
X35946000Y-44101372D01*
X35892795Y-44368852D01*
X35788429Y-44620814D01*
X35636912Y-44847576D01*
X35444067Y-45040421D01*
X35274381Y-45153801D01*
X35217307Y-45191937D01*
X35217306Y-45191938D01*
X35217305Y-45191938D01*
X34965343Y-45296304D01*
X34697863Y-45349509D01*
X34425137Y-45349509D01*
X34157657Y-45296304D01*
X33905695Y-45191938D01*
X33905694Y-45191938D01*
X33905693Y-45191937D01*
X33848619Y-45153801D01*
X33678933Y-45040421D01*
X33486088Y-44847576D01*
X33334571Y-44620814D01*
X33230205Y-44368852D01*
X33177000Y-44101372D01*
X33177000Y-43828646D01*
X33230205Y-43561166D01*
X33334571Y-43309204D01*
X33486088Y-43082442D01*
X33678933Y-42889597D01*
X33848619Y-42776217D01*
X33905693Y-42738081D01*
X33905695Y-42738080D01*
X34157657Y-42633714D01*
X34425137Y-42580509D01*
X34697863Y-42580509D01*
X34965343Y-42633714D01*
X34965343Y-42633714D01*
G37*
G36*
X41181500Y-43503100D02*
G01*
X40479500Y-43503100D01*
X40479500Y-41851100D01*
X41181500Y-41851100D01*
X41181500Y-43503100D01*
X41181500Y-43503100D01*
G37*
G36*
X37371500Y-43503100D02*
G01*
X36669500Y-43503100D01*
X36669500Y-41851100D01*
X37371500Y-41851100D01*
X37371500Y-43503100D01*
X37371500Y-43503100D01*
G37*
G36*
X39911500Y-43503100D02*
G01*
X39209500Y-43503100D01*
X39209500Y-41851100D01*
X39911500Y-41851100D01*
X39911500Y-43503100D01*
X39911500Y-43503100D01*
G37*
G36*
X38641500Y-43503100D02*
G01*
X37939500Y-43503100D01*
X37939500Y-41851100D01*
X38641500Y-41851100D01*
X38641500Y-43503100D01*
X38641500Y-43503100D01*
G37*
G36*
X37372299Y-40219545D02*
G01*
X37409795Y-40230920D01*
X37444354Y-40249392D01*
X37474647Y-40274253D01*
X37499508Y-40304546D01*
X37517980Y-40339105D01*
X37529355Y-40376601D01*
X37533800Y-40421738D01*
X37533800Y-41160462D01*
X37529355Y-41205599D01*
X37517980Y-41243095D01*
X37499508Y-41277654D01*
X37474647Y-41307947D01*
X37444354Y-41332808D01*
X37409795Y-41351280D01*
X37372299Y-41362655D01*
X37327162Y-41367100D01*
X36688438Y-41367100D01*
X36643301Y-41362655D01*
X36605805Y-41351280D01*
X36571246Y-41332808D01*
X36540953Y-41307947D01*
X36516092Y-41277654D01*
X36497620Y-41243095D01*
X36486245Y-41205599D01*
X36481800Y-41160462D01*
X36481800Y-40421738D01*
X36486245Y-40376601D01*
X36497620Y-40339105D01*
X36516092Y-40304546D01*
X36540953Y-40274253D01*
X36571246Y-40249392D01*
X36605805Y-40230920D01*
X36643301Y-40219545D01*
X36688438Y-40215100D01*
X37327162Y-40215100D01*
X37372299Y-40219545D01*
X37372299Y-40219545D01*
G37*
G36*
X42896799Y-40219545D02*
G01*
X42934295Y-40230920D01*
X42968854Y-40249392D01*
X42999147Y-40274253D01*
X43024008Y-40304546D01*
X43042480Y-40339105D01*
X43053855Y-40376601D01*
X43058300Y-40421738D01*
X43058300Y-41160462D01*
X43053855Y-41205599D01*
X43042480Y-41243095D01*
X43024008Y-41277654D01*
X42999147Y-41307947D01*
X42968854Y-41332808D01*
X42934295Y-41351280D01*
X42896799Y-41362655D01*
X42851662Y-41367100D01*
X42212938Y-41367100D01*
X42167801Y-41362655D01*
X42130305Y-41351280D01*
X42095746Y-41332808D01*
X42065453Y-41307947D01*
X42040592Y-41277654D01*
X42022120Y-41243095D01*
X42010745Y-41205599D01*
X42006300Y-41160462D01*
X42006300Y-40421738D01*
X42010745Y-40376601D01*
X42022120Y-40339105D01*
X42040592Y-40304546D01*
X42065453Y-40274253D01*
X42095746Y-40249392D01*
X42130305Y-40230920D01*
X42167801Y-40219545D01*
X42212938Y-40215100D01*
X42851662Y-40215100D01*
X42896799Y-40219545D01*
X42896799Y-40219545D01*
G37*
G36*
X35683199Y-40219545D02*
G01*
X35720695Y-40230920D01*
X35755254Y-40249392D01*
X35785547Y-40274253D01*
X35810408Y-40304546D01*
X35828880Y-40339105D01*
X35840255Y-40376601D01*
X35844700Y-40421738D01*
X35844700Y-41160462D01*
X35840255Y-41205599D01*
X35828880Y-41243095D01*
X35810408Y-41277654D01*
X35785547Y-41307947D01*
X35755254Y-41332808D01*
X35720695Y-41351280D01*
X35683199Y-41362655D01*
X35638062Y-41367100D01*
X34999338Y-41367100D01*
X34954201Y-41362655D01*
X34916705Y-41351280D01*
X34882146Y-41332808D01*
X34851853Y-41307947D01*
X34826992Y-41277654D01*
X34808520Y-41243095D01*
X34797145Y-41205599D01*
X34792700Y-41160462D01*
X34792700Y-40421738D01*
X34797145Y-40376601D01*
X34808520Y-40339105D01*
X34826992Y-40304546D01*
X34851853Y-40274253D01*
X34882146Y-40249392D01*
X34916705Y-40230920D01*
X34954201Y-40219545D01*
X34999338Y-40215100D01*
X35638062Y-40215100D01*
X35683199Y-40219545D01*
X35683199Y-40219545D01*
G37*
G36*
X35683199Y-38469545D02*
G01*
X35720695Y-38480920D01*
X35755254Y-38499392D01*
X35785547Y-38524253D01*
X35810408Y-38554546D01*
X35828880Y-38589105D01*
X35840255Y-38626601D01*
X35844700Y-38671738D01*
X35844700Y-39410462D01*
X35840255Y-39455599D01*
X35828880Y-39493095D01*
X35810408Y-39527654D01*
X35785547Y-39557947D01*
X35755254Y-39582808D01*
X35720695Y-39601280D01*
X35683199Y-39612655D01*
X35638062Y-39617100D01*
X34999338Y-39617100D01*
X34954201Y-39612655D01*
X34916705Y-39601280D01*
X34882146Y-39582808D01*
X34851853Y-39557947D01*
X34826992Y-39527654D01*
X34808520Y-39493095D01*
X34797145Y-39455599D01*
X34792700Y-39410462D01*
X34792700Y-38671738D01*
X34797145Y-38626601D01*
X34808520Y-38589105D01*
X34826992Y-38554546D01*
X34851853Y-38524253D01*
X34882146Y-38499392D01*
X34916705Y-38480920D01*
X34954201Y-38469545D01*
X34999338Y-38465100D01*
X35638062Y-38465100D01*
X35683199Y-38469545D01*
X35683199Y-38469545D01*
G37*
G36*
X42896799Y-38469545D02*
G01*
X42934295Y-38480920D01*
X42968854Y-38499392D01*
X42999147Y-38524253D01*
X43024008Y-38554546D01*
X43042480Y-38589105D01*
X43053855Y-38626601D01*
X43058300Y-38671738D01*
X43058300Y-39410462D01*
X43053855Y-39455599D01*
X43042480Y-39493095D01*
X43024008Y-39527654D01*
X42999147Y-39557947D01*
X42968854Y-39582808D01*
X42934295Y-39601280D01*
X42896799Y-39612655D01*
X42851662Y-39617100D01*
X42212938Y-39617100D01*
X42167801Y-39612655D01*
X42130305Y-39601280D01*
X42095746Y-39582808D01*
X42065453Y-39557947D01*
X42040592Y-39527654D01*
X42022120Y-39493095D01*
X42010745Y-39455599D01*
X42006300Y-39410462D01*
X42006300Y-38671738D01*
X42010745Y-38626601D01*
X42022120Y-38589105D01*
X42040592Y-38554546D01*
X42065453Y-38524253D01*
X42095746Y-38499392D01*
X42130305Y-38480920D01*
X42167801Y-38469545D01*
X42212938Y-38465100D01*
X42851662Y-38465100D01*
X42896799Y-38469545D01*
X42896799Y-38469545D01*
G37*
G36*
X37372299Y-38469545D02*
G01*
X37409795Y-38480920D01*
X37444354Y-38499392D01*
X37474647Y-38524253D01*
X37499508Y-38554546D01*
X37517980Y-38589105D01*
X37529355Y-38626601D01*
X37533800Y-38671738D01*
X37533800Y-39410462D01*
X37529355Y-39455599D01*
X37517980Y-39493095D01*
X37499508Y-39527654D01*
X37474647Y-39557947D01*
X37444354Y-39582808D01*
X37409795Y-39601280D01*
X37372299Y-39612655D01*
X37327162Y-39617100D01*
X36688438Y-39617100D01*
X36643301Y-39612655D01*
X36605805Y-39601280D01*
X36571246Y-39582808D01*
X36540953Y-39557947D01*
X36516092Y-39527654D01*
X36497620Y-39493095D01*
X36486245Y-39455599D01*
X36481800Y-39410462D01*
X36481800Y-38671738D01*
X36486245Y-38626601D01*
X36497620Y-38589105D01*
X36516092Y-38554546D01*
X36540953Y-38524253D01*
X36571246Y-38499392D01*
X36605805Y-38480920D01*
X36643301Y-38469545D01*
X36688438Y-38465100D01*
X37327162Y-38465100D01*
X37372299Y-38469545D01*
X37372299Y-38469545D01*
G37*
G36*
X39073849Y-34761316D02*
G01*
X39185034Y-34783432D01*
X39394503Y-34870197D01*
X39583020Y-34996160D01*
X39743340Y-35156480D01*
X39869303Y-35344997D01*
X39956068Y-35554466D01*
X40000300Y-35776836D01*
X40000300Y-36003564D01*
X39956068Y-36225934D01*
X39869303Y-36435403D01*
X39743340Y-36623920D01*
X39583020Y-36784240D01*
X39394503Y-36910203D01*
X39185034Y-36996968D01*
X39073849Y-37019084D01*
X38962665Y-37041200D01*
X38735935Y-37041200D01*
X38624751Y-37019084D01*
X38513566Y-36996968D01*
X38304097Y-36910203D01*
X38115580Y-36784240D01*
X37955260Y-36623920D01*
X37829297Y-36435403D01*
X37742532Y-36225934D01*
X37698300Y-36003564D01*
X37698300Y-35776836D01*
X37742532Y-35554466D01*
X37829297Y-35344997D01*
X37955260Y-35156480D01*
X38115580Y-34996160D01*
X38304097Y-34870197D01*
X38513566Y-34783432D01*
X38624751Y-34761316D01*
X38735935Y-34739200D01*
X38962665Y-34739200D01*
X39073849Y-34761316D01*
X39073849Y-34761316D01*
G37*
G36*
X39220729Y-31369154D02*
G01*
X39394110Y-31440971D01*
X39550148Y-31545232D01*
X39682848Y-31677932D01*
X39787109Y-31833970D01*
X39858926Y-32007351D01*
X39895537Y-32191410D01*
X39895537Y-32379076D01*
X39858926Y-32563135D01*
X39787109Y-32736516D01*
X39682848Y-32892554D01*
X39550148Y-33025254D01*
X39394110Y-33129515D01*
X39394109Y-33129516D01*
X39394108Y-33129516D01*
X39220729Y-33201332D01*
X39036671Y-33237943D01*
X38849003Y-33237943D01*
X38664945Y-33201332D01*
X38491566Y-33129516D01*
X38491565Y-33129516D01*
X38491564Y-33129515D01*
X38335526Y-33025254D01*
X38202826Y-32892554D01*
X38098565Y-32736516D01*
X38026748Y-32563135D01*
X37990137Y-32379076D01*
X37990137Y-32191410D01*
X38026748Y-32007351D01*
X38098565Y-31833970D01*
X38202826Y-31677932D01*
X38335526Y-31545232D01*
X38491564Y-31440971D01*
X38664945Y-31369154D01*
X38849003Y-31332543D01*
X39036671Y-31332543D01*
X39220729Y-31369154D01*
X39220729Y-31369154D01*
G37*
G36*
X41760729Y-31369154D02*
G01*
X41934110Y-31440971D01*
X42090148Y-31545232D01*
X42222848Y-31677932D01*
X42327109Y-31833970D01*
X42398926Y-32007351D01*
X42435537Y-32191410D01*
X42435537Y-32379076D01*
X42398926Y-32563135D01*
X42327109Y-32736516D01*
X42222848Y-32892554D01*
X42090148Y-33025254D01*
X41934110Y-33129515D01*
X41934109Y-33129516D01*
X41934108Y-33129516D01*
X41760729Y-33201332D01*
X41576671Y-33237943D01*
X41389003Y-33237943D01*
X41204945Y-33201332D01*
X41031566Y-33129516D01*
X41031565Y-33129516D01*
X41031564Y-33129515D01*
X40875526Y-33025254D01*
X40742826Y-32892554D01*
X40638565Y-32736516D01*
X40566748Y-32563135D01*
X40530137Y-32379076D01*
X40530137Y-32191410D01*
X40566748Y-32007351D01*
X40638565Y-31833970D01*
X40742826Y-31677932D01*
X40875526Y-31545232D01*
X41031564Y-31440971D01*
X41204945Y-31369154D01*
X41389003Y-31332543D01*
X41576671Y-31332543D01*
X41760729Y-31369154D01*
X41760729Y-31369154D01*
G37*
G36*
X36680729Y-31369154D02*
G01*
X36854110Y-31440971D01*
X37010148Y-31545232D01*
X37142848Y-31677932D01*
X37247109Y-31833970D01*
X37318926Y-32007351D01*
X37355537Y-32191410D01*
X37355537Y-32379076D01*
X37318926Y-32563135D01*
X37247109Y-32736516D01*
X37142848Y-32892554D01*
X37010148Y-33025254D01*
X36854110Y-33129515D01*
X36854109Y-33129516D01*
X36854108Y-33129516D01*
X36680729Y-33201332D01*
X36496671Y-33237943D01*
X36309003Y-33237943D01*
X36124945Y-33201332D01*
X35951566Y-33129516D01*
X35951565Y-33129516D01*
X35951564Y-33129515D01*
X35795526Y-33025254D01*
X35662826Y-32892554D01*
X35558565Y-32736516D01*
X35486748Y-32563135D01*
X35450137Y-32379076D01*
X35450137Y-32191410D01*
X35486748Y-32007351D01*
X35558565Y-31833970D01*
X35662826Y-31677932D01*
X35795526Y-31545232D01*
X35951564Y-31440971D01*
X36124945Y-31369154D01*
X36309003Y-31332543D01*
X36496671Y-31332543D01*
X36680729Y-31369154D01*
X36680729Y-31369154D01*
G37*
G36*
X41599000Y-30584000D02*
G01*
X40697000Y-30584000D01*
X40697000Y-29582000D01*
X41599000Y-29582000D01*
X41599000Y-30584000D01*
X41599000Y-30584000D01*
G37*
G36*
X35594299Y-29272945D02*
G01*
X35631795Y-29284320D01*
X35666354Y-29302792D01*
X35696647Y-29327653D01*
X35721508Y-29357946D01*
X35739980Y-29392505D01*
X35751355Y-29430001D01*
X35755800Y-29475138D01*
X35755800Y-30213862D01*
X35751355Y-30258999D01*
X35739980Y-30296495D01*
X35721508Y-30331054D01*
X35696647Y-30361347D01*
X35666354Y-30386208D01*
X35631795Y-30404680D01*
X35594299Y-30416055D01*
X35549162Y-30420500D01*
X34910438Y-30420500D01*
X34865301Y-30416055D01*
X34827805Y-30404680D01*
X34793246Y-30386208D01*
X34762953Y-30361347D01*
X34738092Y-30331054D01*
X34719620Y-30296495D01*
X34708245Y-30258999D01*
X34703800Y-30213862D01*
X34703800Y-29475138D01*
X34708245Y-29430001D01*
X34719620Y-29392505D01*
X34738092Y-29357946D01*
X34762953Y-29327653D01*
X34793246Y-29302792D01*
X34827805Y-29284320D01*
X34865301Y-29272945D01*
X34910438Y-29268500D01*
X35549162Y-29268500D01*
X35594299Y-29272945D01*
X35594299Y-29272945D01*
G37*
G36*
X37195949Y-29272945D02*
G01*
X37233445Y-29284320D01*
X37268004Y-29302792D01*
X37298297Y-29327653D01*
X37323158Y-29357946D01*
X37341630Y-29392505D01*
X37353005Y-29430001D01*
X37357450Y-29475138D01*
X37357450Y-30213862D01*
X37353005Y-30258999D01*
X37341630Y-30296495D01*
X37323158Y-30331054D01*
X37298297Y-30361347D01*
X37268004Y-30386208D01*
X37233445Y-30404680D01*
X37195949Y-30416055D01*
X37150812Y-30420500D01*
X36512088Y-30420500D01*
X36466951Y-30416055D01*
X36429455Y-30404680D01*
X36394896Y-30386208D01*
X36364603Y-30361347D01*
X36339742Y-30331054D01*
X36321270Y-30296495D01*
X36309895Y-30258999D01*
X36305450Y-30213862D01*
X36305450Y-29475138D01*
X36309895Y-29430001D01*
X36321270Y-29392505D01*
X36339742Y-29357946D01*
X36364603Y-29327653D01*
X36394896Y-29302792D01*
X36429455Y-29284320D01*
X36466951Y-29272945D01*
X36512088Y-29268500D01*
X37150812Y-29268500D01*
X37195949Y-29272945D01*
X37195949Y-29272945D01*
G37*
G36*
X38837599Y-29272945D02*
G01*
X38875095Y-29284320D01*
X38909654Y-29302792D01*
X38939947Y-29327653D01*
X38964808Y-29357946D01*
X38983280Y-29392505D01*
X38994655Y-29430001D01*
X38999100Y-29475138D01*
X38999100Y-30213862D01*
X38994655Y-30258999D01*
X38983280Y-30296495D01*
X38964808Y-30331054D01*
X38939947Y-30361347D01*
X38909654Y-30386208D01*
X38875095Y-30404680D01*
X38837599Y-30416055D01*
X38792462Y-30420500D01*
X38153738Y-30420500D01*
X38108601Y-30416055D01*
X38071105Y-30404680D01*
X38036546Y-30386208D01*
X38006253Y-30361347D01*
X37981392Y-30331054D01*
X37962920Y-30296495D01*
X37951545Y-30258999D01*
X37947100Y-30213862D01*
X37947100Y-29475138D01*
X37951545Y-29430001D01*
X37962920Y-29392505D01*
X37981392Y-29357946D01*
X38006253Y-29327653D01*
X38036546Y-29302792D01*
X38071105Y-29284320D01*
X38108601Y-29272945D01*
X38153738Y-29268500D01*
X38792462Y-29268500D01*
X38837599Y-29272945D01*
X38837599Y-29272945D01*
G37*
G36*
X38837599Y-27522945D02*
G01*
X38875095Y-27534320D01*
X38909654Y-27552792D01*
X38939947Y-27577653D01*
X38964808Y-27607946D01*
X38983280Y-27642505D01*
X38994655Y-27680001D01*
X38999100Y-27725138D01*
X38999100Y-28463862D01*
X38994655Y-28508999D01*
X38983280Y-28546495D01*
X38964808Y-28581054D01*
X38939947Y-28611347D01*
X38909654Y-28636208D01*
X38875095Y-28654680D01*
X38837599Y-28666055D01*
X38792462Y-28670500D01*
X38153738Y-28670500D01*
X38108601Y-28666055D01*
X38071105Y-28654680D01*
X38036546Y-28636208D01*
X38006253Y-28611347D01*
X37981392Y-28581054D01*
X37962920Y-28546495D01*
X37951545Y-28508999D01*
X37947100Y-28463862D01*
X37947100Y-27725138D01*
X37951545Y-27680001D01*
X37962920Y-27642505D01*
X37981392Y-27607946D01*
X38006253Y-27577653D01*
X38036546Y-27552792D01*
X38071105Y-27534320D01*
X38108601Y-27522945D01*
X38153738Y-27518500D01*
X38792462Y-27518500D01*
X38837599Y-27522945D01*
X38837599Y-27522945D01*
G37*
G36*
X37195949Y-27522945D02*
G01*
X37233445Y-27534320D01*
X37268004Y-27552792D01*
X37298297Y-27577653D01*
X37323158Y-27607946D01*
X37341630Y-27642505D01*
X37353005Y-27680001D01*
X37357450Y-27725138D01*
X37357450Y-28463862D01*
X37353005Y-28508999D01*
X37341630Y-28546495D01*
X37323158Y-28581054D01*
X37298297Y-28611347D01*
X37268004Y-28636208D01*
X37233445Y-28654680D01*
X37195949Y-28666055D01*
X37150812Y-28670500D01*
X36512088Y-28670500D01*
X36466951Y-28666055D01*
X36429455Y-28654680D01*
X36394896Y-28636208D01*
X36364603Y-28611347D01*
X36339742Y-28581054D01*
X36321270Y-28546495D01*
X36309895Y-28508999D01*
X36305450Y-28463862D01*
X36305450Y-27725138D01*
X36309895Y-27680001D01*
X36321270Y-27642505D01*
X36339742Y-27607946D01*
X36364603Y-27577653D01*
X36394896Y-27552792D01*
X36429455Y-27534320D01*
X36466951Y-27522945D01*
X36512088Y-27518500D01*
X37150812Y-27518500D01*
X37195949Y-27522945D01*
X37195949Y-27522945D01*
G37*
G36*
X35594299Y-27522945D02*
G01*
X35631795Y-27534320D01*
X35666354Y-27552792D01*
X35696647Y-27577653D01*
X35721508Y-27607946D01*
X35739980Y-27642505D01*
X35751355Y-27680001D01*
X35755800Y-27725138D01*
X35755800Y-28463862D01*
X35751355Y-28508999D01*
X35739980Y-28546495D01*
X35721508Y-28581054D01*
X35696647Y-28611347D01*
X35666354Y-28636208D01*
X35631795Y-28654680D01*
X35594299Y-28666055D01*
X35549162Y-28670500D01*
X34910438Y-28670500D01*
X34865301Y-28666055D01*
X34827805Y-28654680D01*
X34793246Y-28636208D01*
X34762953Y-28611347D01*
X34738092Y-28581054D01*
X34719620Y-28546495D01*
X34708245Y-28508999D01*
X34703800Y-28463862D01*
X34703800Y-27725138D01*
X34708245Y-27680001D01*
X34719620Y-27642505D01*
X34738092Y-27607946D01*
X34762953Y-27577653D01*
X34793246Y-27552792D01*
X34827805Y-27534320D01*
X34865301Y-27522945D01*
X34910438Y-27518500D01*
X35549162Y-27518500D01*
X35594299Y-27522945D01*
X35594299Y-27522945D01*
G37*
G36*
X42549000Y-28584000D02*
G01*
X41647000Y-28584000D01*
X41647000Y-27582000D01*
X42549000Y-27582000D01*
X42549000Y-28584000D01*
X42549000Y-28584000D01*
G37*
G36*
X40649000Y-28584000D02*
G01*
X39747000Y-28584000D01*
X39747000Y-27582000D01*
X40649000Y-27582000D01*
X40649000Y-28584000D01*
X40649000Y-28584000D01*
G37*
G36*
X43740880Y-23943548D02*
G01*
X43965713Y-24036677D01*
X43992844Y-24047915D01*
X44042359Y-24081000D01*
X44219604Y-24199431D01*
X44412449Y-24392276D01*
X44563966Y-24619038D01*
X44668332Y-24871000D01*
X44721537Y-25138480D01*
X44721537Y-25411206D01*
X44668332Y-25678686D01*
X44563966Y-25930648D01*
X44412449Y-26157410D01*
X44219604Y-26350255D01*
X44049918Y-26463635D01*
X43992844Y-26501771D01*
X43992843Y-26501772D01*
X43992842Y-26501772D01*
X43740880Y-26606138D01*
X43473400Y-26659343D01*
X43200674Y-26659343D01*
X42933194Y-26606138D01*
X42681232Y-26501772D01*
X42681231Y-26501772D01*
X42681230Y-26501771D01*
X42624156Y-26463635D01*
X42454470Y-26350255D01*
X42261625Y-26157410D01*
X42110108Y-25930648D01*
X42005742Y-25678686D01*
X41952537Y-25411206D01*
X41952537Y-25138480D01*
X42005742Y-24871000D01*
X42110108Y-24619038D01*
X42261625Y-24392276D01*
X42454470Y-24199431D01*
X42631715Y-24081000D01*
X42681230Y-24047915D01*
X42708361Y-24036677D01*
X42933194Y-23943548D01*
X43200674Y-23890343D01*
X43473400Y-23890343D01*
X43740880Y-23943548D01*
X43740880Y-23943548D01*
G37*
G36*
X34952480Y-23943548D02*
G01*
X35177313Y-24036677D01*
X35204444Y-24047915D01*
X35253959Y-24081000D01*
X35431204Y-24199431D01*
X35624049Y-24392276D01*
X35775566Y-24619038D01*
X35879932Y-24871000D01*
X35933137Y-25138480D01*
X35933137Y-25411206D01*
X35879932Y-25678686D01*
X35775566Y-25930648D01*
X35624049Y-26157410D01*
X35431204Y-26350255D01*
X35261518Y-26463635D01*
X35204444Y-26501771D01*
X35204443Y-26501772D01*
X35204442Y-26501772D01*
X34952480Y-26606138D01*
X34685000Y-26659343D01*
X34412274Y-26659343D01*
X34144794Y-26606138D01*
X33892832Y-26501772D01*
X33892831Y-26501772D01*
X33892830Y-26501771D01*
X33835756Y-26463635D01*
X33666070Y-26350255D01*
X33473225Y-26157410D01*
X33321708Y-25930648D01*
X33217342Y-25678686D01*
X33164137Y-25411206D01*
X33164137Y-25138480D01*
X33217342Y-24871000D01*
X33321708Y-24619038D01*
X33473225Y-24392276D01*
X33666070Y-24199431D01*
X33843315Y-24081000D01*
X33892830Y-24047915D01*
X33919961Y-24036677D01*
X34144794Y-23943548D01*
X34412274Y-23890343D01*
X34685000Y-23890343D01*
X34952480Y-23943548D01*
X34952480Y-23943548D01*
G37*
G36*
X37662000Y-24107000D02*
G01*
X36760000Y-24107000D01*
X36760000Y-23105000D01*
X37662000Y-23105000D01*
X37662000Y-24107000D01*
X37662000Y-24107000D01*
G37*
G36*
X40958499Y-22933445D02*
G01*
X40995995Y-22944820D01*
X41030554Y-22963292D01*
X41060847Y-22988153D01*
X41085708Y-23018446D01*
X41104180Y-23053005D01*
X41115555Y-23090501D01*
X41120000Y-23135638D01*
X41120000Y-23874362D01*
X41115555Y-23919499D01*
X41104180Y-23956995D01*
X41085708Y-23991554D01*
X41060847Y-24021847D01*
X41030554Y-24046708D01*
X40995995Y-24065180D01*
X40958499Y-24076555D01*
X40913362Y-24081000D01*
X40274638Y-24081000D01*
X40229501Y-24076555D01*
X40192005Y-24065180D01*
X40157446Y-24046708D01*
X40127153Y-24021847D01*
X40102292Y-23991554D01*
X40083820Y-23956995D01*
X40072445Y-23919499D01*
X40068000Y-23874362D01*
X40068000Y-23135638D01*
X40072445Y-23090501D01*
X40083820Y-23053005D01*
X40102292Y-23018446D01*
X40127153Y-22988153D01*
X40157446Y-22963292D01*
X40192005Y-22944820D01*
X40229501Y-22933445D01*
X40274638Y-22929000D01*
X40913362Y-22929000D01*
X40958499Y-22933445D01*
X40958499Y-22933445D01*
G37*
G36*
X40958499Y-21183445D02*
G01*
X40995995Y-21194820D01*
X41030554Y-21213292D01*
X41060847Y-21238153D01*
X41085708Y-21268446D01*
X41104180Y-21303005D01*
X41115555Y-21340501D01*
X41120000Y-21385638D01*
X41120000Y-22124362D01*
X41115555Y-22169499D01*
X41104180Y-22206995D01*
X41085708Y-22241554D01*
X41060847Y-22271847D01*
X41030554Y-22296708D01*
X40995995Y-22315180D01*
X40958499Y-22326555D01*
X40913362Y-22331000D01*
X40274638Y-22331000D01*
X40229501Y-22326555D01*
X40192005Y-22315180D01*
X40157446Y-22296708D01*
X40127153Y-22271847D01*
X40102292Y-22241554D01*
X40083820Y-22206995D01*
X40072445Y-22169499D01*
X40068000Y-22124362D01*
X40068000Y-21385638D01*
X40072445Y-21340501D01*
X40083820Y-21303005D01*
X40102292Y-21268446D01*
X40127153Y-21238153D01*
X40157446Y-21213292D01*
X40192005Y-21194820D01*
X40229501Y-21183445D01*
X40274638Y-21179000D01*
X40913362Y-21179000D01*
X40958499Y-21183445D01*
X40958499Y-21183445D01*
G37*
G36*
X38612000Y-22107000D02*
G01*
X37710000Y-22107000D01*
X37710000Y-21105000D01*
X38612000Y-21105000D01*
X38612000Y-22107000D01*
X38612000Y-22107000D01*
G37*
G36*
X36712000Y-22107000D02*
G01*
X35810000Y-22107000D01*
X35810000Y-21105000D01*
X36712000Y-21105000D01*
X36712000Y-22107000D01*
X36712000Y-22107000D01*
G37*
M02*
