G04 #@! TF.GenerationSoftware,KiCad,Pcbnew,5.1.4*
G04 #@! TF.CreationDate,2019-08-21T16:46:54+02:00*
G04 #@! TF.ProjectId,ADSR-Panel,41445352-2d50-4616-9e65-6c2e6b696361,rev?*
G04 #@! TF.SameCoordinates,Original*
G04 #@! TF.FileFunction,Legend,Bot*
G04 #@! TF.FilePolarity,Positive*
%FSLAX46Y46*%
G04 Gerber Fmt 4.6, Leading zero omitted, Abs format (unit mm)*
G04 Created by KiCad (PCBNEW 5.1.4) date 2019-08-21 16:46:54*
%MOMM*%
%LPD*%
G04 APERTURE LIST*
%ADD10C,0.100000*%
%ADD11C,0.120000*%
G04 APERTURE END LIST*
D10*
X7078571Y2012857D02*
X7078571Y1370000D01*
X7100000Y1241428D01*
X7142857Y1155714D01*
X7207142Y1112857D01*
X7250000Y1112857D01*
X6650000Y1112857D02*
X6864285Y1112857D01*
X6864285Y2012857D01*
X6242857Y1198571D02*
X6264285Y1155714D01*
X6328571Y1112857D01*
X6371428Y1112857D01*
X6435714Y1155714D01*
X6478571Y1241428D01*
X6500000Y1327142D01*
X6521428Y1498571D01*
X6521428Y1627142D01*
X6500000Y1798571D01*
X6478571Y1884285D01*
X6435714Y1970000D01*
X6371428Y2012857D01*
X6328571Y2012857D01*
X6264285Y1970000D01*
X6242857Y1927142D01*
X5921428Y2012857D02*
X5921428Y1370000D01*
X5942857Y1241428D01*
X5985714Y1155714D01*
X6050000Y1112857D01*
X6092857Y1112857D01*
X5492857Y1112857D02*
X5707142Y1112857D01*
X5707142Y2012857D01*
X5085714Y1198571D02*
X5107142Y1155714D01*
X5171428Y1112857D01*
X5214285Y1112857D01*
X5278571Y1155714D01*
X5321428Y1241428D01*
X5342857Y1327142D01*
X5364285Y1498571D01*
X5364285Y1627142D01*
X5342857Y1798571D01*
X5321428Y1884285D01*
X5278571Y1970000D01*
X5214285Y2012857D01*
X5171428Y2012857D01*
X5107142Y1970000D01*
X5085714Y1927142D01*
X4764285Y2012857D02*
X4764285Y1370000D01*
X4785714Y1241428D01*
X4828571Y1155714D01*
X4892857Y1112857D01*
X4935714Y1112857D01*
X4335714Y1112857D02*
X4550000Y1112857D01*
X4550000Y2012857D01*
X3928571Y1198571D02*
X3949999Y1155714D01*
X4014285Y1112857D01*
X4057142Y1112857D01*
X4121428Y1155714D01*
X4164285Y1241428D01*
X4185714Y1327142D01*
X4207142Y1498571D01*
X4207142Y1627142D01*
X4185714Y1798571D01*
X4164285Y1884285D01*
X4121428Y1970000D01*
X4057142Y2012857D01*
X4014285Y2012857D01*
X3949999Y1970000D01*
X3928571Y1927142D01*
X3607142Y2012857D02*
X3607142Y1370000D01*
X3628571Y1241428D01*
X3671428Y1155714D01*
X3735714Y1112857D01*
X3778571Y1112857D01*
X3178571Y1112857D02*
X3392857Y1112857D01*
X3392857Y2012857D01*
X2771428Y1198571D02*
X2792857Y1155714D01*
X2857142Y1112857D01*
X2899999Y1112857D01*
X2964285Y1155714D01*
X3007142Y1241428D01*
X3028571Y1327142D01*
X3049999Y1498571D01*
X3049999Y1627142D01*
X3028571Y1798571D01*
X3007142Y1884285D01*
X2964285Y1970000D01*
X2899999Y2012857D01*
X2857142Y2012857D01*
X2792857Y1970000D01*
X2771428Y1927142D01*
D11*
X8427214Y-109634285D02*
X8427214Y-108884285D01*
X7998642Y-109634285D02*
X8320071Y-109205714D01*
X7998642Y-108884285D02*
X8427214Y-109312857D01*
X7677214Y-109634285D02*
X7677214Y-109134285D01*
X7677214Y-109277142D02*
X7641500Y-109205714D01*
X7605785Y-109170000D01*
X7534357Y-109134285D01*
X7462928Y-109134285D01*
X6891500Y-109634285D02*
X6891500Y-109241428D01*
X6927214Y-109170000D01*
X6998642Y-109134285D01*
X7141500Y-109134285D01*
X7212928Y-109170000D01*
X6891500Y-109598571D02*
X6962928Y-109634285D01*
X7141500Y-109634285D01*
X7212928Y-109598571D01*
X7248642Y-109527142D01*
X7248642Y-109455714D01*
X7212928Y-109384285D01*
X7141500Y-109348571D01*
X6962928Y-109348571D01*
X6891500Y-109312857D01*
X6212928Y-109634285D02*
X6212928Y-109241428D01*
X6248642Y-109170000D01*
X6320071Y-109134285D01*
X6462928Y-109134285D01*
X6534357Y-109170000D01*
X6212928Y-109598571D02*
X6284357Y-109634285D01*
X6462928Y-109634285D01*
X6534357Y-109598571D01*
X6570071Y-109527142D01*
X6570071Y-109455714D01*
X6534357Y-109384285D01*
X6462928Y-109348571D01*
X6284357Y-109348571D01*
X6212928Y-109312857D01*
X5855785Y-109634285D02*
X5855785Y-108884285D01*
X5784357Y-109348571D02*
X5570071Y-109634285D01*
X5570071Y-109134285D02*
X5855785Y-109420000D01*
X4962928Y-109598571D02*
X5034357Y-109634285D01*
X5177214Y-109634285D01*
X5248642Y-109598571D01*
X5284357Y-109527142D01*
X5284357Y-109241428D01*
X5248642Y-109170000D01*
X5177214Y-109134285D01*
X5034357Y-109134285D01*
X4962928Y-109170000D01*
X4927214Y-109241428D01*
X4927214Y-109312857D01*
X5284357Y-109384285D01*
X4605785Y-109134285D02*
X4605785Y-109634285D01*
X4605785Y-109205714D02*
X4570071Y-109170000D01*
X4498642Y-109134285D01*
X4391500Y-109134285D01*
X4320071Y-109170000D01*
X4284357Y-109241428D01*
X4284357Y-109634285D01*
X3962928Y-109598571D02*
X3855785Y-109634285D01*
X3677214Y-109634285D01*
X3605785Y-109598571D01*
X3570071Y-109562857D01*
X3534357Y-109491428D01*
X3534357Y-109420000D01*
X3570071Y-109348571D01*
X3605785Y-109312857D01*
X3677214Y-109277142D01*
X3820071Y-109241428D01*
X3891500Y-109205714D01*
X3927214Y-109170000D01*
X3962928Y-109098571D01*
X3962928Y-109027142D01*
X3927214Y-108955714D01*
X3891500Y-108920000D01*
X3820071Y-108884285D01*
X3641500Y-108884285D01*
X3534357Y-108920000D01*
X3320071Y-109134285D02*
X3034357Y-109134285D01*
X3212928Y-108884285D02*
X3212928Y-109527142D01*
X3177214Y-109598571D01*
X3105785Y-109634285D01*
X3034357Y-109634285D01*
X2462928Y-109134285D02*
X2462928Y-109634285D01*
X2784357Y-109134285D02*
X2784357Y-109527142D01*
X2748642Y-109598571D01*
X2677214Y-109634285D01*
X2570071Y-109634285D01*
X2498642Y-109598571D01*
X2462928Y-109562857D01*
X2212928Y-109134285D02*
X1927214Y-109134285D01*
X2105785Y-109634285D02*
X2105785Y-108991428D01*
X2070071Y-108920000D01*
X1998642Y-108884285D01*
X1927214Y-108884285D01*
X1784357Y-109134285D02*
X1498642Y-109134285D01*
X1677214Y-109634285D02*
X1677214Y-108991428D01*
X1641500Y-108920000D01*
X1570071Y-108884285D01*
X1498642Y-108884285D01*
X9123642Y-110879285D02*
X9123642Y-110486428D01*
X9159357Y-110415000D01*
X9230785Y-110379285D01*
X9373642Y-110379285D01*
X9445071Y-110415000D01*
X9123642Y-110843571D02*
X9195071Y-110879285D01*
X9373642Y-110879285D01*
X9445071Y-110843571D01*
X9480785Y-110772142D01*
X9480785Y-110700714D01*
X9445071Y-110629285D01*
X9373642Y-110593571D01*
X9195071Y-110593571D01*
X9123642Y-110557857D01*
X8766500Y-110807857D02*
X8730785Y-110843571D01*
X8766500Y-110879285D01*
X8802214Y-110843571D01*
X8766500Y-110807857D01*
X8766500Y-110879285D01*
X8409357Y-110879285D02*
X8409357Y-110129285D01*
X8337928Y-110593571D02*
X8123642Y-110879285D01*
X8123642Y-110379285D02*
X8409357Y-110665000D01*
X7802214Y-110807857D02*
X7766499Y-110843571D01*
X7802214Y-110879285D01*
X7837928Y-110843571D01*
X7802214Y-110807857D01*
X7802214Y-110879285D01*
X7123642Y-110879285D02*
X7123642Y-110486428D01*
X7159357Y-110415000D01*
X7230785Y-110379285D01*
X7373642Y-110379285D01*
X7445071Y-110415000D01*
X7123642Y-110843571D02*
X7195071Y-110879285D01*
X7373642Y-110879285D01*
X7445071Y-110843571D01*
X7480785Y-110772142D01*
X7480785Y-110700714D01*
X7445071Y-110629285D01*
X7373642Y-110593571D01*
X7195071Y-110593571D01*
X7123642Y-110557857D01*
X6766500Y-110807857D02*
X6730785Y-110843571D01*
X6766500Y-110879285D01*
X6802214Y-110843571D01*
X6766500Y-110807857D01*
X6766500Y-110879285D01*
X5909357Y-110379285D02*
X5516499Y-110379285D01*
X5909357Y-110879285D01*
X5516499Y-110879285D01*
X5123642Y-110879285D02*
X5195071Y-110843571D01*
X5230785Y-110807857D01*
X5266499Y-110736428D01*
X5266499Y-110522142D01*
X5230785Y-110450714D01*
X5195071Y-110415000D01*
X5123642Y-110379285D01*
X5016499Y-110379285D01*
X4945071Y-110415000D01*
X4909357Y-110450714D01*
X4873642Y-110522142D01*
X4873642Y-110736428D01*
X4909357Y-110807857D01*
X4945071Y-110843571D01*
X5016499Y-110879285D01*
X5123642Y-110879285D01*
X4552214Y-110879285D02*
X4552214Y-110379285D01*
X4552214Y-110522142D02*
X4516500Y-110450714D01*
X4480785Y-110415000D01*
X4409357Y-110379285D01*
X4337928Y-110379285D01*
X3766499Y-110379285D02*
X3766499Y-110986428D01*
X3802214Y-111057857D01*
X3837928Y-111093571D01*
X3909357Y-111129285D01*
X4016499Y-111129285D01*
X4087928Y-111093571D01*
X3766499Y-110843571D02*
X3837928Y-110879285D01*
X3980785Y-110879285D01*
X4052214Y-110843571D01*
X4087928Y-110807857D01*
X4123642Y-110736428D01*
X4123642Y-110522142D01*
X4087928Y-110450714D01*
X4052214Y-110415000D01*
X3980785Y-110379285D01*
X3837928Y-110379285D01*
X3766499Y-110415000D01*
X3302214Y-110879285D02*
X3373642Y-110843571D01*
X3409357Y-110772142D01*
X3409357Y-110129285D01*
X2695071Y-110379285D02*
X2695071Y-110879285D01*
X3016499Y-110379285D02*
X3016499Y-110772142D01*
X2980785Y-110843571D01*
X2909357Y-110879285D01*
X2802214Y-110879285D01*
X2730785Y-110843571D01*
X2695071Y-110807857D01*
X2337928Y-110879285D02*
X2337928Y-110129285D01*
X2337928Y-110415000D02*
X2266499Y-110379285D01*
X2123642Y-110379285D01*
X2052214Y-110415000D01*
X2016499Y-110450714D01*
X1980785Y-110522142D01*
X1980785Y-110736428D01*
X2016499Y-110807857D01*
X2052214Y-110843571D01*
X2123642Y-110879285D01*
X2266499Y-110879285D01*
X2337928Y-110843571D01*
X1730785Y-110129285D02*
X1230785Y-110129285D01*
X1552214Y-110879285D01*
X623642Y-110129285D02*
X766499Y-110129285D01*
X837928Y-110165000D01*
X873642Y-110200714D01*
X945071Y-110307857D01*
X980785Y-110450714D01*
X980785Y-110736428D01*
X945071Y-110807857D01*
X909357Y-110843571D01*
X837928Y-110879285D01*
X695071Y-110879285D01*
X623642Y-110843571D01*
X587928Y-110807857D01*
X552214Y-110736428D01*
X552214Y-110557857D01*
X587928Y-110486428D01*
X623642Y-110450714D01*
X695071Y-110415000D01*
X837928Y-110415000D01*
X909357Y-110450714D01*
X945071Y-110486428D01*
X980785Y-110557857D01*
X6302214Y-111445714D02*
X6266500Y-111410000D01*
X6195071Y-111374285D01*
X6016500Y-111374285D01*
X5945071Y-111410000D01*
X5909357Y-111445714D01*
X5873642Y-111517142D01*
X5873642Y-111588571D01*
X5909357Y-111695714D01*
X6337928Y-112124285D01*
X5873642Y-112124285D01*
X5409357Y-111374285D02*
X5337928Y-111374285D01*
X5266500Y-111410000D01*
X5230785Y-111445714D01*
X5195071Y-111517142D01*
X5159357Y-111660000D01*
X5159357Y-111838571D01*
X5195071Y-111981428D01*
X5230785Y-112052857D01*
X5266500Y-112088571D01*
X5337928Y-112124285D01*
X5409357Y-112124285D01*
X5480785Y-112088571D01*
X5516500Y-112052857D01*
X5552214Y-111981428D01*
X5587928Y-111838571D01*
X5587928Y-111660000D01*
X5552214Y-111517142D01*
X5516500Y-111445714D01*
X5480785Y-111410000D01*
X5409357Y-111374285D01*
X4445071Y-112124285D02*
X4873642Y-112124285D01*
X4659357Y-112124285D02*
X4659357Y-111374285D01*
X4730785Y-111481428D01*
X4802214Y-111552857D01*
X4873642Y-111588571D01*
X4087928Y-112124285D02*
X3945071Y-112124285D01*
X3873642Y-112088571D01*
X3837928Y-112052857D01*
X3766500Y-111945714D01*
X3730785Y-111802857D01*
X3730785Y-111517142D01*
X3766500Y-111445714D01*
X3802214Y-111410000D01*
X3873642Y-111374285D01*
X4016500Y-111374285D01*
X4087928Y-111410000D01*
X4123642Y-111445714D01*
X4159357Y-111517142D01*
X4159357Y-111695714D01*
X4123642Y-111767142D01*
X4087928Y-111802857D01*
X4016500Y-111838571D01*
X3873642Y-111838571D01*
X3802214Y-111802857D01*
X3766500Y-111767142D01*
X3730785Y-111695714D01*
M02*
